<svg width="24" height="24" viewBox="0 0 24 24" fill="none" xmlns="http://www.w3.org/2000/svg">
<path fill-rule="evenodd" clip-rule="evenodd" d="M12 19.5C15.5899 19.5 18.5 16.5899 18.5 13C18.5 9.41015 15.5899 6.5 12 6.5C8.41015 6.5 5.5 9.41015 5.5 13C5.5 16.5899 8.41015 19.5 12 19.5ZM12 21C16.4183 21 20 17.4183 20 13C20 8.58172 16.4183 5 12 5C7.58172 5 4 8.58172 4 13C4 17.4183 7.58172 21 12 21Z" fill="black"/>
<path d="M7.35259 3.86185C7.16533 3.49364 6.71345 3.34478 6.35882 3.55662C4.80134 4.48699 3.4979 5.78845 2.56518 7.34452C2.3528 7.69884 2.50097 8.15094 2.8689 8.33876C3.23683 8.52657 3.68486 8.37871 3.90102 8.02669C4.68524 6.74956 5.76065 5.67578 7.03896 4.89349C7.39131 4.67786 7.53985 4.23006 7.35259 3.86185Z" fill="black"/>
<path d="M16.6474 3.8619C16.8347 3.49367 17.2866 3.3448 17.6412 3.55666C19.1987 4.48702 20.5021 5.78846 21.4348 7.3445C21.6472 7.69883 21.499 8.15096 21.1311 8.33879C20.7631 8.52662 20.3151 8.37875 20.0989 8.02671C19.3147 6.74962 18.2393 5.67588 16.9611 4.89361C16.6087 4.67796 16.4601 4.23013 16.6474 3.8619Z" fill="black"/>
<path fill-rule="evenodd" clip-rule="evenodd" d="M12 8.25C12.4142 8.25 12.75 8.58579 12.75 9V12.5858C12.75 12.6521 12.7763 12.7157 12.8232 12.7626L14.5303 14.4697C14.8232 14.7626 14.8232 15.2374 14.5303 15.5303C14.2374 15.8232 13.7626 15.8232 13.4697 15.5303L11.7626 13.8232C11.4344 13.495 11.25 13.0499 11.25 12.5858V9C11.25 8.58579 11.5858 8.25 12 8.25Z" fill="black"/>
</svg>
