<svg width="24" height="24" viewBox="0 0 24 24" fill="none" xmlns="http://www.w3.org/2000/svg">
<path fill-rule="evenodd" clip-rule="evenodd" d="M12.75 7.90549C14.0439 7.57245 15 6.39788 15 5C15 3.34315 13.6569 2 12 2C10.3431 2 9 3.34315 9 5C9 6.39788 9.95608 7.57245 11.25 7.90549V20.2164C7.29215 19.8597 4.14029 16.7079 3.78363 12.75H6C6.41421 12.75 6.75 12.4142 6.75 12C6.75 11.5858 6.41421 11.25 6 11.25H3C2.58579 11.25 2.25 11.5858 2.25 12C2.25 17.3839 6.61387 21.7486 11.9975 21.75L12 21.75C17.3848 21.75 21.75 17.3848 21.75 12C21.75 11.5858 21.4142 11.25 21 11.25H18C17.5858 11.25 17.25 11.5858 17.25 12C17.25 12.4142 17.5858 12.75 18 12.75H20.2164C19.8597 16.7079 16.7079 19.8597 12.75 20.2164V7.90549ZM13.5 5C13.5 5.82843 12.8284 6.5 12 6.5C11.1716 6.5 10.5 5.82843 10.5 5C10.5 4.17157 11.1716 3.5 12 3.5C12.8284 3.5 13.5 4.17157 13.5 5Z" fill="black"/>
</svg>
