<svg width="24" height="24" viewBox="0 0 24 24" fill="none" xmlns="http://www.w3.org/2000/svg">
<path fill-rule="evenodd" clip-rule="evenodd" d="M5.1279 5.84882C5.48754 5.64332 5.94568 5.76826 6.15119 6.1279L7.75885 8.9413C9.04642 8.33743 10.4838 8 12 8C13.5162 8 14.9536 8.33743 16.2412 8.94129L17.8488 6.1279C18.0543 5.76826 18.5125 5.64332 18.8721 5.84882C19.2317 6.05433 19.3567 6.51247 19.1512 6.87211L17.5475 9.67854C19.9713 11.2976 21.648 13.9475 21.9508 17.0014C22.0053 17.551 21.5523 18 21 18H3.00002C2.44773 18 1.99476 17.551 2.04925 17.0014C2.35203 13.9475 4.02871 11.2976 6.45251 9.67856L4.84882 6.87211C4.64332 6.51247 4.76826 6.05433 5.1279 5.84882ZM12 9.5C16.1823 9.5 19.6605 12.5216 20.3683 16.5H3.63172C4.33951 12.5216 7.81773 9.5 12 9.5Z" fill="black"/>
<path d="M8 15C7.44772 15 7 14.5523 7 14C7 13.4477 7.44772 13 8 13C8.55228 13 9 13.4477 9 14C9 14.5523 8.55228 15 8 15Z" fill="black"/>
<path d="M16 15C15.4477 15 15 14.5523 15 14C15 13.4477 15.4477 13 16 13C16.5523 13 17 13.4477 17 14C17 14.5523 16.5523 15 16 15Z" fill="black"/>
</svg>
