<svg width="24" height="24" viewBox="0 0 24 24" fill="none" xmlns="http://www.w3.org/2000/svg">
<path fill-rule="evenodd" clip-rule="evenodd" d="M4.83633 9.3906C5.71185 7.87091 7.27647 6.90858 8.97472 6.8839C9.70715 6.86993 10.4163 7.15119 11.037 7.39738C11.5111 7.58541 11.9336 7.75299 12.2755 7.75299C12.582 7.75299 12.993 7.5909 13.4722 7.40186C14.2271 7.10411 15.1514 6.7395 16.1042 6.83605C16.6396 6.85833 17.9693 7.02159 19.0786 8.03148C19.4999 8.41501 19.3498 9.06681 18.9435 9.46616C18.3256 10.0735 17.5872 11.1155 17.6007 12.6254C17.6189 14.5792 18.72 15.6915 19.5062 16.238C19.9243 16.5286 20.1748 17.0414 19.98 17.5118C19.7585 18.0465 19.4081 18.7753 18.9009 19.5166C18.0673 20.735 17.2022 21.9488 15.8393 21.974C14.5001 21.9986 14.0695 21.1799 12.5385 21.1799C11.0079 21.1799 10.5294 21.9489 9.26177 21.9987C7.94625 22.0485 6.94445 20.6812 6.10397 19.4673C4.38647 16.9842 3.07394 12.4508 4.83633 9.3906ZM16.1008 12.6388C16.0849 10.8758 16.8317 9.58728 17.547 8.7635C16.9476 8.42345 16.3375 8.34706 16.0418 8.33475C15.4713 8.31101 14.9632 8.43923 14.4285 8.63979C13.7348 8.89996 13.0328 9.25299 12.2755 9.25299C11.6368 9.25299 11.0365 9.01109 10.4523 8.77929C9.99403 8.59743 9.50503 8.37406 9.00332 8.38363L8.99651 8.38376C7.86129 8.40026 6.76547 9.04705 6.13618 10.1392C5.49347 11.2553 5.35501 12.7575 5.64233 14.3845C5.92754 15.9995 6.60288 17.5516 7.33762 18.614C7.76616 19.2329 8.14346 19.7497 8.5305 20.1125C8.9146 20.4725 9.12031 20.5028 9.20459 20.4998C9.56448 20.4853 9.8911 20.327 10.2173 20.189C10.755 19.9617 11.476 19.6799 12.5385 19.6799C13.6211 19.6799 14.3436 19.9878 14.856 20.2093C15.3235 20.4114 15.4988 20.48 15.8117 20.4742C16.0037 20.4707 16.2228 20.3974 16.5442 20.097C16.8952 19.7688 17.2319 19.2995 17.663 18.6695C17.9897 18.192 18.243 17.7159 18.431 17.31C17.424 16.5424 16.1233 15.0652 16.1008 12.6388Z" fill="black"/>
<path d="M12.2755 6.33802C12.4258 6.51291 12.6644 6.60661 12.9217 6.55129C13.6724 6.38986 14.3822 5.94731 14.9037 5.39691C15.538 4.72733 15.9758 3.8442 16.1063 2.93077C16.1806 2.41049 15.7098 2.01136 15.2105 2.1755C14.4518 2.42493 13.6903 2.91637 13.178 3.51579C12.6822 4.08899 12.2337 4.92591 12.1197 5.80214C12.0927 6.00928 12.1563 6.19922 12.2755 6.33802Z" fill="black"/>
</svg>
