<svg width="24" height="24" viewBox="0 0 24 24" fill="none" xmlns="http://www.w3.org/2000/svg">
<path fill-rule="evenodd" clip-rule="evenodd" d="M2.00426 6.90707C2.00145 6.88215 2 6.85682 2 6.83115C2 6.29897 2.21141 5.78859 2.58771 5.41229L5.12132 2.87868C5.68393 2.31607 6.44699 2 7.24264 2H16.7574C17.553 2 18.3161 2.31607 18.8787 2.87868L21.4123 5.41229C21.7886 5.7886 22 6.29897 22 6.83115C22 6.85682 21.9986 6.88215 21.9957 6.90707C21.9986 6.93766 22 6.96866 22 7V19C22 20.6569 20.6569 22 19 22H5C3.34315 22 2 20.6569 2 19V7C2 6.96866 2.00144 6.93766 2.00426 6.90707ZM7.24264 3.5H16.7574C17.1552 3.5 17.5367 3.65804 17.818 3.93934L19.8787 6H4.12132L6.18198 3.93934C6.46329 3.65803 6.84482 3.5 7.24264 3.5ZM3.5 7.5V19C3.5 19.8284 4.17157 20.5 5 20.5H19C19.8284 20.5 20.5 19.8284 20.5 19V7.5H3.5Z" fill="black"/>
<path d="M12.752 10.9996C12.752 10.5854 12.4162 10.2496 12.002 10.2496C11.5877 10.2496 11.252 10.5854 11.252 10.9996V15.6894L10.0303 14.4678C9.73744 14.1749 9.26256 14.1749 8.96967 14.4678C8.67678 14.7607 8.67678 15.2356 8.96967 15.5285L10.7645 17.3233C11.4479 18.0067 12.5559 18.0067 13.2393 17.3233L15.0303 15.5323C15.3232 15.2394 15.3232 14.7645 15.0303 14.4716C14.7374 14.1787 14.2626 14.1787 13.9697 14.4716L12.752 15.6893V10.9996Z" fill="black"/>
</svg>
