<svg width="24" height="24" viewBox="0 0 24 24" fill="none" xmlns="http://www.w3.org/2000/svg">
<path d="M3.53033 9.0303C3.23744 9.32319 2.76256 9.32319 2.46967 9.0303C2.17678 8.73741 2.17678 8.26253 2.46967 7.96964L5.76256 4.67675C6.44598 3.99333 7.55402 3.99333 8.23744 4.67675L11.5303 7.96964C11.8232 8.26253 11.8232 8.73741 11.5303 9.0303C11.2374 9.32319 10.7626 9.32319 10.4697 9.0303L7.75 6.31063V19C7.75 19.4142 7.41421 19.75 7 19.75C6.58579 19.75 6.25 19.4142 6.25 19V6.31063L3.53033 9.0303Z" fill="black"/>
<path d="M17.75 5C17.75 4.58579 17.4142 4.25 17 4.25C16.5858 4.25 16.25 4.58579 16.25 5V17.6893L13.5303 14.9697C13.2374 14.6768 12.7626 14.6768 12.4697 14.9697C12.1768 15.2626 12.1768 15.7374 12.4697 16.0303L15.7626 19.3232C16.446 20.0066 17.554 20.0066 18.2374 19.3232L21.5303 16.0303C21.8232 15.7374 21.8232 15.2626 21.5303 14.9697C21.2374 14.6768 20.7626 14.6768 20.4697 14.9697L17.75 17.6893V5Z" fill="black"/>
</svg>
