<svg width="24" height="24" viewBox="0 0 24 24" fill="none" xmlns="http://www.w3.org/2000/svg">
<path fill-rule="evenodd" clip-rule="evenodd" d="M12 3.75C7.44365 3.75 3.75 7.44365 3.75 12C3.75 16.5563 7.44365 20.25 12 20.25C13.3185 20.25 14.5627 19.9413 15.6662 19.3928C16.0372 19.2085 16.4873 19.3598 16.6716 19.7307C16.856 20.1016 16.7047 20.5518 16.3338 20.7361C15.0274 21.3853 13.5552 21.75 12 21.75C6.61522 21.75 2.25 17.3848 2.25 12C2.25 6.61522 6.61522 2.25 12 2.25C17.3848 2.25 21.75 6.61522 21.75 12V13C21.75 14.274 21.3755 15.2792 20.7336 15.9823C20.0945 16.6821 19.2448 17.0219 18.4107 17.0617C17.1288 17.1227 15.7378 16.4468 15.2148 15.1488C14.398 15.9826 13.2594 16.5 12 16.5C9.51472 16.5 7.5 14.4853 7.5 12C7.5 9.51472 9.51472 7.5 12 7.5C13.1525 7.5 14.2039 7.93328 15 8.64584V8.25C15 7.83579 15.3358 7.5 15.75 7.5C16.1642 7.5 16.5 7.83579 16.5 8.25V14C16.5 14.9589 17.3328 15.6113 18.3393 15.5633C18.8177 15.5406 19.2805 15.3491 19.6258 14.9709C19.9683 14.5958 20.25 13.976 20.25 13V12C20.25 7.44365 16.5563 3.75 12 3.75ZM15 12C15 10.3431 13.6569 9 12 9C10.3431 9 9 10.3431 9 12C9 13.6569 10.3431 15 12 15C13.6569 15 15 13.6569 15 12Z" fill="black"/>
</svg>
