<svg width="24" height="24" viewBox="0 0 24 24" fill="none" xmlns="http://www.w3.org/2000/svg">
<path fill-rule="evenodd" clip-rule="evenodd" d="M18.8765 7.43719C17.6073 6.16798 15.5495 6.16798 14.2803 7.43719L8.62344 13.094C8.13529 13.5822 8.13529 14.3737 8.62344 14.8618C9.1116 15.35 9.90305 15.35 10.3912 14.8618L16.0481 9.20495C16.341 8.91206 16.8158 8.91206 17.1087 9.20495C17.4016 9.49785 17.4016 9.97272 17.1087 10.2656L11.4519 15.9225C10.3779 16.9964 8.63672 16.9964 7.56278 15.9225C6.48884 14.8485 6.48884 13.1073 7.56278 12.0334L13.2196 6.37653C15.0746 4.52154 18.0822 4.52154 19.9371 6.37653C21.7921 8.23152 21.7921 11.2391 19.9371 13.094L14.2803 18.7509C11.6443 21.3869 7.37039 21.3869 4.73435 18.7509C2.09831 16.1149 2.09831 11.841 4.73435 9.20496L10.3912 3.5481C10.6841 3.25521 11.159 3.25521 11.4519 3.5481C11.7448 3.84099 11.7448 4.31587 11.4519 4.60876L5.79501 10.2656C3.74476 12.3159 3.74476 15.64 5.79501 17.6902C7.84527 19.7405 11.1694 19.7405 13.2196 17.6902L18.8765 12.0334C20.1457 10.7642 20.1457 8.70639 18.8765 7.43719Z" fill="black"/>
</svg>
