<svg width="24" height="24" viewBox="0 0 24 24" fill="none" xmlns="http://www.w3.org/2000/svg">
<path fill-rule="evenodd" clip-rule="evenodd" d="M2.25 20.4223C2.25 20.0081 2.58579 19.6723 3 19.6723H21C21.4142 19.6723 21.75 20.0081 21.75 20.4223C21.75 20.8365 21.4142 21.1723 21 21.1723H3C2.58579 21.1723 2.25 20.8365 2.25 20.4223Z" fill="black"/>
<path fill-rule="evenodd" clip-rule="evenodd" d="M12 10.6723C12.4142 10.6723 12.75 11.0081 12.75 11.4223V17.4223C12.75 17.8365 12.4142 18.1723 12 18.1723C11.5858 18.1723 11.25 17.8365 11.25 17.4223V11.4223C11.25 11.0081 11.5858 10.6723 12 10.6723Z" fill="black"/>
<path fill-rule="evenodd" clip-rule="evenodd" d="M5 10.6723C5.41421 10.6723 5.75 11.0081 5.75 11.4223V17.4223C5.75 17.8365 5.41421 18.1723 5 18.1723C4.58579 18.1723 4.25 17.8365 4.25 17.4223V11.4223C4.25 11.0081 4.58579 10.6723 5 10.6723Z" fill="black"/>
<path fill-rule="evenodd" clip-rule="evenodd" d="M19 10.6723C19.4142 10.6723 19.75 11.0081 19.75 11.4223V17.4223C19.75 17.8365 19.4142 18.1723 19 18.1723C18.5858 18.1723 18.25 17.8365 18.25 17.4223V11.4223C18.25 11.0081 18.5858 10.6723 19 10.6723Z" fill="black"/>
<path fill-rule="evenodd" clip-rule="evenodd" d="M12.9737 3.72157C12.3582 3.42614 11.6418 3.42614 11.0264 3.72157L3.78606 7.19692C3.70728 7.23473 3.67699 7.27841 3.66185 7.31299C3.64339 7.35513 3.63586 7.41356 3.65048 7.47777C3.66509 7.54199 3.69716 7.59141 3.73203 7.62141C3.76065 7.64603 3.80686 7.6723 3.89424 7.6723H20.1058C20.1932 7.6723 20.2394 7.64603 20.268 7.62141C20.3029 7.59141 20.3349 7.54199 20.3495 7.47777C20.3642 7.41356 20.3566 7.35513 20.3382 7.31299C20.323 7.27841 20.2927 7.23473 20.214 7.19692L12.9737 3.72157ZM10.3773 2.36929C11.4031 1.8769 12.5969 1.8769 13.6227 2.36929L20.863 5.84463C22.5417 6.65037 21.9678 9.1723 20.1058 9.1723H3.89424C2.03225 9.1723 1.45834 6.65037 3.13697 5.84463L10.3773 2.36929Z" fill="black"/>
</svg>
