<svg width="24" height="24" viewBox="0 0 24 24" fill="none" xmlns="http://www.w3.org/2000/svg">
<path fill-rule="evenodd" clip-rule="evenodd" d="M3 2.25C3.41421 2.25 3.75 2.58579 3.75 3V19C3.75 19.6904 4.30964 20.25 5 20.25H21C21.4142 20.25 21.75 20.5858 21.75 21C21.75 21.4142 21.4142 21.75 21 21.75H5C3.48122 21.75 2.25 20.5188 2.25 19V3C2.25 2.58579 2.58579 2.25 3 2.25Z" fill="black"/>
<path fill-rule="evenodd" clip-rule="evenodd" d="M7 8.25C7.41421 8.25 7.75 8.58579 7.75 9V17C7.75 17.4142 7.41421 17.75 7 17.75C6.58579 17.75 6.25 17.4142 6.25 17V9C6.25 8.58579 6.58579 8.25 7 8.25Z" fill="black"/>
<path fill-rule="evenodd" clip-rule="evenodd" d="M11 14.25C11.4142 14.25 11.75 14.5858 11.75 15V17C11.75 17.4142 11.4142 17.75 11 17.75C10.5858 17.75 10.25 17.4142 10.25 17V15C10.25 14.5858 10.5858 14.25 11 14.25Z" fill="black"/>
<path fill-rule="evenodd" clip-rule="evenodd" d="M15 4.25C15.4142 4.25 15.75 4.58579 15.75 5V17C15.75 17.4142 15.4142 17.75 15 17.75C14.5858 17.75 14.25 17.4142 14.25 17V5C14.25 4.58579 14.5858 4.25 15 4.25Z" fill="black"/>
<path fill-rule="evenodd" clip-rule="evenodd" d="M19 10.25C19.4142 10.25 19.75 10.5858 19.75 11V17C19.75 17.4142 19.4142 17.75 19 17.75C18.5858 17.75 18.25 17.4142 18.25 17V11C18.25 10.5858 18.5858 10.25 19 10.25Z" fill="black"/>
</svg>
