<svg width="24" height="24" viewBox="0 0 24 24" fill="none" xmlns="http://www.w3.org/2000/svg">
<path fill-rule="evenodd" clip-rule="evenodd" d="M5.10571 5.10571C1.2981 8.91332 1.2981 15.0867 5.10571 18.8943C8.91332 22.7019 15.0867 22.7019 18.8943 18.8943C22.7019 15.0867 22.7019 8.91332 18.8943 5.10571C15.0867 1.2981 8.91332 1.2981 5.10571 5.10571ZM8.07339 14.866L5.65982 17.2795C4.82127 16.2749 4.25885 15.1177 3.97258 13.9084C5.38119 13.6487 6.87553 13.9679 8.07339 14.866ZM9.13406 15.9266L6.72048 18.3402C7.72517 19.1788 8.8824 19.7412 10.0917 20.0274C10.3514 18.6188 10.0321 17.1245 9.13406 15.9266ZM11.5778 20.2393C11.903 18.3786 11.4448 16.4077 10.2032 14.8575L12 13.0607L17.2795 18.3402C15.6397 19.7089 13.5935 20.3419 11.5778 20.2393ZM9.14251 13.7968C7.59224 12.5552 5.6214 12.0971 3.76075 12.4223C3.65806 10.4066 4.29108 8.36034 5.65982 6.72048L10.9393 12L9.14251 13.7968ZM12 10.9393L6.72048 5.65982C8.36034 4.29108 10.4066 3.65806 12.4223 3.76075C12.0971 5.6214 12.5552 7.59223 13.7968 9.14249L12 10.9393ZM14.8575 10.2032L13.0607 12L18.3402 17.2795C19.7089 15.6397 20.3419 13.5935 20.2393 11.5777C18.3786 11.903 16.4078 11.4448 14.8575 10.2032ZM20.0274 10.0917C18.6188 10.3513 17.1245 10.0321 15.9266 9.13403L18.3402 6.72048C19.1788 7.72516 19.7412 8.88237 20.0274 10.0917ZM14.866 8.07337C13.9679 6.87551 13.6487 5.38118 13.9084 3.97258C15.1177 4.25885 16.2749 4.82126 17.2795 5.65982L14.866 8.07337Z" fill="black"/>
</svg>
