<svg width="24" height="24" viewBox="0 0 24 24" fill="none" xmlns="http://www.w3.org/2000/svg">
<path fill-rule="evenodd" clip-rule="evenodd" d="M15 6.5H9C8.17157 6.5 7.5 7.17157 7.5 8V19C7.5 19.8284 8.17157 20.5 9 20.5H15C15.8284 20.5 16.5 19.8284 16.5 19V8C16.5 7.17157 15.8284 6.5 15 6.5ZM9 5C7.34315 5 6 6.34315 6 8V19C6 20.6569 7.34315 22 9 22H15C16.6569 22 18 20.6569 18 19V8C18 6.34315 16.6569 5 15 5H9Z" fill="black"/>
<path fill-rule="evenodd" clip-rule="evenodd" d="M10.25 3C10.25 2.58579 10.5858 2.25 11 2.25H13C13.4142 2.25 13.75 2.58579 13.75 3C13.75 3.41421 13.4142 3.75 13 3.75H11C10.5858 3.75 10.25 3.41421 10.25 3Z" fill="black"/>
<path fill-rule="evenodd" clip-rule="evenodd" d="M13.5304 9.96967C13.8232 10.2626 13.8232 10.7374 13.5304 11.0303L11.8107 12.75H14C14.3034 12.75 14.5768 12.9327 14.6929 13.213C14.809 13.4932 14.7449 13.8158 14.5304 14.0303L11.5304 17.0303C11.2375 17.3232 10.7626 17.3232 10.4697 17.0303C10.1768 16.7374 10.1768 16.2626 10.4697 15.9697L12.1894 14.25H10C9.69668 14.25 9.4232 14.0673 9.30711 13.787C9.19103 13.5068 9.25519 13.1842 9.46969 12.9697L12.4697 9.96967C12.7626 9.67678 13.2375 9.67678 13.5304 9.96967Z" fill="black"/>
</svg>
