<svg width="24" height="24" viewBox="0 0 24 24" fill="none" xmlns="http://www.w3.org/2000/svg">
<path fill-rule="evenodd" clip-rule="evenodd" d="M15 6.5H9C8.17157 6.5 7.5 7.17157 7.5 8V19C7.5 19.8284 8.17157 20.5 9 20.5H15C15.8284 20.5 16.5 19.8284 16.5 19V8C16.5 7.17157 15.8284 6.5 15 6.5ZM9 5C7.34315 5 6 6.34315 6 8V19C6 20.6569 7.34315 22 9 22H15C16.6569 22 18 20.6569 18 19V8C18 6.34315 16.6569 5 15 5H9Z" fill="black"/>
<path fill-rule="evenodd" clip-rule="evenodd" d="M10.25 3C10.25 2.58579 10.5858 2.25 11 2.25H13C13.4142 2.25 13.75 2.58579 13.75 3C13.75 3.41421 13.4142 3.75 13 3.75H11C10.5858 3.75 10.25 3.41421 10.25 3Z" fill="black"/>
<path fill-rule="evenodd" clip-rule="evenodd" d="M9.25 18C9.25 17.5858 9.58579 17.25 10 17.25H14C14.4142 17.25 14.75 17.5858 14.75 18C14.75 18.4142 14.4142 18.75 14 18.75H10C9.58579 18.75 9.25 18.4142 9.25 18Z" fill="black"/>
<path fill-rule="evenodd" clip-rule="evenodd" d="M9.25 15C9.25 14.5858 9.58579 14.25 10 14.25H14C14.4142 14.25 14.75 14.5858 14.75 15C14.75 15.4142 14.4142 15.75 14 15.75H10C9.58579 15.75 9.25 15.4142 9.25 15Z" fill="black"/>
<path fill-rule="evenodd" clip-rule="evenodd" d="M9.25 12C9.25 11.5858 9.58579 11.25 10 11.25H14C14.4142 11.25 14.75 11.5858 14.75 12C14.75 12.4142 14.4142 12.75 14 12.75H10C9.58579 12.75 9.25 12.4142 9.25 12Z" fill="black"/>
<path fill-rule="evenodd" clip-rule="evenodd" d="M9.25 9C9.25 8.58579 9.58579 8.25 10 8.25H14C14.4142 8.25 14.75 8.58579 14.75 9C14.75 9.41421 14.4142 9.75 14 9.75H10C9.58579 9.75 9.25 9.41421 9.25 9Z" fill="black"/>
</svg>
