<svg width="24" height="24" viewBox="0 0 24 24" fill="none" xmlns="http://www.w3.org/2000/svg">
<path fill-rule="evenodd" clip-rule="evenodd" d="M10.2501 9.19073V12.0705L5.56655 15.388C5.22854 15.6274 5.14862 16.0955 5.38804 16.4335C5.62747 16.7715 6.09557 16.8514 6.43357 16.612L10.2501 13.9087V20.0842C10.2501 21.0731 11.3441 21.6704 12.176 21.1356L17.1596 17.9319C17.567 17.67 17.8204 17.2797 17.9178 16.8585L13.3378 12.2785L12.9447 12L13.0118 11.9525L11.9358 10.8764L11.7501 11.008V10.6907L10.2501 9.19073ZM11.7501 19.6263V12.992L16.3578 16.2558C16.5024 16.3582 16.4975 16.5743 16.3485 16.6701L11.7501 19.6263Z" fill="black"/>
<path d="M13.1775 9.99687L16.3578 7.74418C16.5024 7.64178 16.4975 7.42567 16.3485 7.32988L11.7501 4.37375V8.56941L10.2501 7.06941V3.91583C10.2501 2.92687 11.3441 2.32957 12.176 2.86436L17.1596 6.06811C18.2027 6.73868 18.2367 8.25145 17.2248 8.96821L14.2535 11.0729L13.1775 9.99687Z" fill="black"/>
<path fill-rule="evenodd" clip-rule="evenodd" d="M2.46967 2.46967C2.76256 2.17678 3.23744 2.17678 3.53033 2.46967L21.5303 20.4697C21.8232 20.7626 21.8232 21.2374 21.5303 21.5303C21.2374 21.8232 20.7626 21.8232 20.4697 21.5303L2.46967 3.53033C2.17678 3.23744 2.17678 2.76256 2.46967 2.46967Z" fill="black"/>
</svg>
