<svg width="24" height="24" viewBox="0 0 24 24" fill="none" xmlns="http://www.w3.org/2000/svg">
<path fill-rule="evenodd" clip-rule="evenodd" d="M11.7501 4.37375V11.008L16.3578 7.74418C16.5024 7.64178 16.4975 7.42567 16.3485 7.32988L11.7501 4.37375ZM10.2501 10.0913V3.91583C10.2501 2.92687 11.3441 2.32957 12.176 2.86436L17.1596 6.06811C18.2027 6.73868 18.2367 8.25145 17.2248 8.96821L12.9447 12L17.2248 15.0318C18.2367 15.7486 18.2027 17.2613 17.1596 17.9319L12.176 21.1356C11.3441 21.6704 10.2501 21.0731 10.2501 20.0842V13.9087L6.43357 16.612C6.09557 16.8514 5.62747 16.7715 5.38804 16.4335C5.14862 16.0955 5.22854 15.6274 5.56655 15.388L10.2501 12.0705V11.9295L5.56655 8.61202C5.22854 8.3726 5.14862 7.90449 5.38804 7.56649C5.62747 7.22848 6.09557 7.14856 6.43357 7.38798L10.2501 10.0913ZM11.7501 12.992V19.6263L16.3485 16.6701C16.4975 16.5743 16.5024 16.3582 16.3578 16.2558L11.7501 12.992Z" fill="black"/>
</svg>
