<svg width="24" height="24" viewBox="0 0 24 24" fill="none" xmlns="http://www.w3.org/2000/svg">
<path fill-rule="evenodd" clip-rule="evenodd" d="M6 6.27273C6 4.46525 7.46525 3 9.27273 3H13.25C15.8734 3 18 5.12665 18 7.75C18 9.27144 17.2847 10.6258 16.172 11.4952C17.8455 12.3035 19 14.0169 19 16C19 18.7614 16.7614 21 14 21H9.25C7.45507 21 6 19.5449 6 17.75V6.27273ZM9.27273 4.5H13.25C15.0449 4.5 16.5 5.95507 16.5 7.75C16.5 9.54493 15.0449 11 13.25 11H7.5V6.27273C7.5 5.29368 8.29368 4.5 9.27273 4.5ZM7.5 12.5V17.75C7.5 18.7165 8.2835 19.5 9.25 19.5H14C15.933 19.5 17.5 17.933 17.5 16C17.5 14.067 15.933 12.5 14 12.5H7.5Z" fill="black"/>
</svg>
