<svg width="24" height="24" viewBox="0 0 24 24" fill="none" xmlns="http://www.w3.org/2000/svg">
<path fill-rule="evenodd" clip-rule="evenodd" d="M2.00682 6.91724C2.05257 6.27747 2.32708 5.67292 2.78361 5.21639L5.12132 2.87868C5.68393 2.31607 6.44699 2 7.24264 2H16.7574C17.553 2 18.3161 2.31607 18.8787 2.87868L21.2164 5.21639C21.6729 5.67293 21.9474 6.27747 21.9932 6.91724C21.9977 6.94416 22 6.97181 22 7V19C22 20.6569 20.6569 22 19 22H5C3.34315 22 2 20.6569 2 19V7C2 6.97181 2.00233 6.94416 2.00682 6.91724ZM11.2886 3.5L9.88863 6.5H14.1114L12.7114 3.5H11.2886ZM9.63333 3.5L8.23333 6.5H3.66958C3.71821 6.41957 3.7767 6.34462 3.84427 6.27705L6.18198 3.93934C6.46329 3.65803 6.84482 3.5 7.24264 3.5H9.63333ZM3.5 8V19C3.5 19.8284 4.17157 20.5 5 20.5H19C19.8284 20.5 20.5 19.8284 20.5 19V8H16V11C16 12.6569 14.6569 14 13 14H11C9.34315 14 8 12.6569 8 11V8H3.5ZM9.5 8V11C9.5 11.8284 10.1716 12.5 11 12.5H13C13.8284 12.5 14.5 11.8284 14.5 11V8H9.5ZM20.3304 6.5C20.2818 6.41957 20.2233 6.34462 20.1557 6.27705L17.818 3.93934C17.5367 3.65804 17.1552 3.5 16.7574 3.5H14.3667L15.7667 6.5H20.3304Z" fill="black"/>
</svg>
