<svg width="24" height="24" viewBox="0 0 24 24" fill="none" xmlns="http://www.w3.org/2000/svg">
<path fill-rule="evenodd" clip-rule="evenodd" d="M7.66667 5L8.20818 3.78159C8.68969 2.6982 9.76405 2 10.9496 2H13.0504C14.2359 2 15.3103 2.6982 15.7918 3.78158L16.3333 5H19C20.6569 5 22 6.34315 22 8V19C22 20.6569 20.6569 22 19 22H5C3.34315 22 2 20.6569 2 19V8C2 6.34315 3.34315 5 5 5H7.66667ZM10.9496 3.5H13.0504C13.6432 3.5 14.1803 3.8491 14.4211 4.39079L14.6919 5H9.30814L9.5789 4.39079C9.81965 3.8491 10.3568 3.5 10.9496 3.5ZM5 6.5C4.17157 6.5 3.5 7.17157 3.5 8V19C3.5 19.8284 4.17157 20.5 5 20.5H19C19.8284 20.5 20.5 19.8284 20.5 19V8C20.5 7.17157 19.8284 6.5 19 6.5H5Z" fill="black"/>
<path fill-rule="evenodd" clip-rule="evenodd" d="M14.7324 14H19C20.6569 14 22 12.6569 22 11V8C22 6.34315 20.6569 5 19 5H5C3.34315 5 2 6.34315 2 8V11C2 12.6569 3.34315 14 5 14H9.26756C9.61337 14.5978 10.2597 15 11 15H13C13.7403 15 14.3866 14.5978 14.7324 14ZM19 6.5H5C4.17157 6.5 3.5 7.17157 3.5 8V11C3.5 11.8284 4.17157 12.5 5 12.5H9.06301C9.28503 11.6374 10.0681 11 11 11H13C13.9319 11 14.715 11.6374 14.937 12.5H19C19.8284 12.5 20.5 11.8284 20.5 11V8C20.5 7.17157 19.8284 6.5 19 6.5ZM11 12.5H13C13.2761 12.5 13.5 12.7239 13.5 13C13.5 13.2761 13.2761 13.5 13 13.5H11C10.7239 13.5 10.5 13.2761 10.5 13C10.5 12.7239 10.7239 12.5 11 12.5Z" fill="black"/>
</svg>
