<svg width="24" height="24" viewBox="0 0 24 24" fill="none" xmlns="http://www.w3.org/2000/svg">
<path fill-rule="evenodd" clip-rule="evenodd" d="M4 10V5C4 3.34315 5.34315 2 7 2H17C18.6569 2 20 3.34315 20 5V10C20.5523 10 21 10.4477 21 11V12.4262C21 13.907 19.9197 15.1662 18.4562 15.3914L16.3439 15.7163C15.3055 15.8761 14.5677 16.8121 14.6549 17.8592L14.7509 19.0104C14.885 20.6197 13.6149 22 12 22C10.3851 22 9.11502 20.6197 9.24914 19.0104L9.34507 17.8592C9.43232 16.8121 8.69454 15.8761 7.65609 15.7163L5.54383 15.3914C4.08033 15.1662 3 13.907 3 12.4262V11C3 10.4477 3.44772 10 4 10ZM7 3.5H17C17.8284 3.5 18.5 4.17157 18.5 5V10H5.5V5C5.5 4.17157 6.17157 3.5 7 3.5ZM19.5 11.5H4.5V12.4262C4.5 13.1666 5.04017 13.7962 5.77191 13.9088L7.88418 14.2338C9.70146 14.5133 10.9926 16.1514 10.8399 17.9837L10.744 19.1349C10.6827 19.8698 11.2626 20.5 12 20.5C12.7374 20.5 13.3173 19.8698 13.256 19.1349L13.1601 17.9837C13.0074 16.1514 14.2985 14.5133 16.1158 14.2338L18.2281 13.9088C18.9598 13.7962 19.5 13.1666 19.5 12.4262V11.5Z" fill="black"/>
</svg>
