<svg width="24" height="24" viewBox="0 0 24 24" fill="none" xmlns="http://www.w3.org/2000/svg">
<path fill-rule="evenodd" clip-rule="evenodd" d="M13.7545 3.68491L14.9697 2.46967C15.2626 2.17678 15.7375 2.17678 16.0304 2.46967C16.3233 2.76256 16.3233 3.23744 16.0304 3.53033L14.9172 4.64348C15.4381 5.28743 15.75 6.1073 15.75 7.00003V7.55286C16.5154 8.14024 17.1653 8.89866 17.6625 9.77689L18.9697 8.4697C19.2626 8.17681 19.7374 8.17681 20.0303 8.4697C20.3232 8.76259 20.3232 9.23747 20.0303 9.53036L18.5303 11.0304C18.4601 11.1006 18.3794 11.154 18.2933 11.1905C18.5133 11.841 18.6587 12.5324 18.7188 13.25H21C21.4142 13.25 21.75 13.5858 21.75 14C21.75 14.4142 21.4142 14.75 21 14.75H18.7183C18.6578 15.465 18.5116 16.1564 18.2905 16.8084C18.3777 16.845 18.4594 16.8987 18.5303 16.9697L20.0303 18.4697C20.3232 18.7626 20.3232 19.2375 20.0303 19.5304C19.7374 19.8233 19.2626 19.8233 18.9697 19.5304L17.6604 18.2211C16.474 20.3224 14.4192 21.75 12 21.75C9.58078 21.75 7.52598 20.3224 6.33961 18.2211L5.03033 19.5304C4.73744 19.8233 4.26256 19.8233 3.96967 19.5304C3.67678 19.2375 3.67678 18.7626 3.96967 18.4697L5.46967 16.9697C5.54064 16.8987 5.62229 16.845 5.70945 16.8084C5.48838 16.1564 5.3422 15.465 5.28165 14.75H3C2.58579 14.75 2.25 14.4142 2.25 14C2.25 13.5858 2.58579 13.25 3 13.25H5.28123C5.34127 12.5324 5.48667 11.841 5.70672 11.1905C5.62058 11.154 5.5399 11.1006 5.46967 11.0304L3.96967 9.53036C3.67678 9.23747 3.67678 8.76259 3.96967 8.4697C4.26256 8.17681 4.73744 8.17681 5.03033 8.4697L6.33752 9.77689C6.83465 8.89866 7.48455 8.14024 8.25 7.55286V7.00003C8.25 6.1073 8.56195 5.28743 9.08279 4.64348L7.96967 3.53036C7.67678 3.23747 7.67678 2.76259 7.96967 2.4697C8.26256 2.17681 8.73744 2.17681 9.03033 2.4697L10.2455 3.68491C10.769 3.40729 11.3662 3.25003 12 3.25003C12.6338 3.25003 13.231 3.40729 13.7545 3.68491ZM9.75 7.25003H14.25V7.00003C14.25 5.75739 13.2426 4.75003 12 4.75003C10.7574 4.75003 9.75 5.75739 9.75 7.00003V7.25003ZM9.15392 8.75003C7.72857 9.84942 6.75 11.7709 6.75 14C6.75 17.2414 8.78002 19.756 11.25 20.1852V8.75003H9.15392ZM12.75 8.75003V20.1852C15.22 19.756 17.25 17.2414 17.25 14C17.25 11.7709 16.2714 9.84942 14.8461 8.75003H12.75Z" fill="black"/>
</svg>
