<svg width="24" height="24" viewBox="0 0 24 24" fill="none" xmlns="http://www.w3.org/2000/svg">
<path fill-rule="evenodd" clip-rule="evenodd" d="M16 8V5.8423C16 3.89059 14.1658 2.45851 12.2724 2.93187L6.27239 4.43187C4.93689 4.76575 4 5.9657 4 7.3423V20.5H3C2.58579 20.5 2.25 20.8358 2.25 21.25C2.25 21.6642 2.58579 22 3 22H21C21.4142 22 21.75 21.6642 21.75 21.25C21.75 20.8358 21.4142 20.5 21 20.5H20V11C20 9.34315 18.6569 8 17 8H16ZM12.6362 4.38708L6.6362 5.88708C5.96845 6.05402 5.5 6.654 5.5 7.3423V20.5H14.5V5.8423C14.5 4.86644 13.5829 4.1504 12.6362 4.38708ZM16 9.5V20.5H18.5V11C18.5 10.1716 17.8284 9.5 17 9.5H16Z" fill="black"/>
<path fill-rule="evenodd" clip-rule="evenodd" d="M8.25 17C8.25 16.5858 8.58579 16.25 9 16.25H11C11.4142 16.25 11.75 16.5858 11.75 17C11.75 17.4142 11.4142 17.75 11 17.75H9C8.58579 17.75 8.25 17.4142 8.25 17Z" fill="black"/>
<path fill-rule="evenodd" clip-rule="evenodd" d="M8.25 13C8.25 12.5858 8.58579 12.25 9 12.25H11C11.4142 12.25 11.75 12.5858 11.75 13C11.75 13.4142 11.4142 13.75 11 13.75H9C8.58579 13.75 8.25 13.4142 8.25 13Z" fill="black"/>
<path fill-rule="evenodd" clip-rule="evenodd" d="M8.25 9C8.25 8.58579 8.58579 8.25 9 8.25H11C11.4142 8.25 11.75 8.58579 11.75 9C11.75 9.41421 11.4142 9.75 11 9.75H9C8.58579 9.75 8.25 9.41421 8.25 9Z" fill="black"/>
</svg>
