<svg width="24" height="24" viewBox="0 0 24 24" fill="none" xmlns="http://www.w3.org/2000/svg">
<path fill-rule="evenodd" clip-rule="evenodd" d="M3 16.5002C2.39278 16.0441 2 15.3179 2 14.5C2 13.1193 3.11929 12 4.5 12H19.5C20.8807 12 22 13.1193 22 14.5C22 15.3179 21.6072 16.0441 21 16.5002V18C21 19.6569 19.6569 21 18 21H6C4.34315 21 3 19.6569 3 18V16.5002ZM4.5 13.5H19.5C20.0523 13.5 20.5 13.9477 20.5 14.5C20.5 15.0523 20.0523 15.5 19.5 15.5H4.5C3.94772 15.5 3.5 15.0523 3.5 14.5C3.5 13.9477 3.94772 13.5 4.5 13.5ZM19.5 17H4.5V18C4.5 18.8284 5.17157 19.5 6 19.5H18C18.8284 19.5 19.5 18.8284 19.5 18V17Z" fill="black"/>
<path fill-rule="evenodd" clip-rule="evenodd" d="M3.08184 8.00669C3.55516 5.16569 6.02467 3 9 3H15C17.9753 3 20.4448 5.16569 20.9182 8.00669C21.6112 8.0856 22.0256 8.85414 21.6747 9.4857L20.8798 10.9164C20.423 11.7387 19.3309 11.9425 18.6083 11.3403L18.2965 11.0804C17.5622 10.4685 16.4826 10.5175 15.8067 11.1934L15.75 11.2501C15.0597 11.9404 13.9404 11.9404 13.25 11.2501C12.5597 10.5597 11.4404 10.5597 10.75 11.2501C10.0597 11.9404 8.9404 11.9404 8.25004 11.2501L8.19334 11.1934C7.51751 10.5175 6.43785 10.4685 5.70361 11.0804L5.39176 11.3403C4.66917 11.9425 3.57705 11.7387 3.12025 10.9164L2.3254 9.4857C1.97455 8.85417 2.3888 8.08566 3.08184 8.00669ZM9 4.5H15C17.1416 4.5 18.9338 5.99604 19.3885 8.00005H4.6115C5.0662 5.99604 6.85839 4.5 9 4.5Z" fill="black"/>
</svg>
