<svg width="24" height="24" viewBox="0 0 24 24" fill="none" xmlns="http://www.w3.org/2000/svg">
<path d="M7 17C7.55228 17 8 16.5523 8 16C8 15.4477 7.55228 15 7 15C6.44772 15 6 15.4477 6 16C6 16.5523 6.44772 17 7 17Z" fill="black"/>
<path d="M18 16C18 16.5523 17.5523 17 17 17C16.4477 17 16 16.5523 16 16C16 15.4477 16.4477 15 17 15C17.5523 15 18 15.4477 18 16Z" fill="black"/>
<path fill-rule="evenodd" clip-rule="evenodd" d="M3 5C3 3.34315 4.34315 2 6 2H18C19.6569 2 21 3.34315 21 5C21.5523 5 22 5.44772 22 6V8C22 8.55228 21.5523 9 21 9V17C21 18.3999 20.0411 19.5759 18.7443 19.907C18.7481 19.9374 18.75 19.9685 18.75 20V21C18.75 21.4142 18.4142 21.75 18 21.75C17.5858 21.75 17.25 21.4142 17.25 21V20H6.75V21C6.75 21.4142 6.41421 21.75 6 21.75C5.58579 21.75 5.25 21.4142 5.25 21V20C5.25 19.9685 5.25195 19.9374 5.25572 19.907C3.9589 19.5759 3 18.3999 3 17V9C2.44772 9 2 8.55228 2 8V6C2 5.44772 2.44772 5 3 5ZM6 3.5H18C18.8284 3.5 19.5 4.17157 19.5 5V11.25H4.5V5C4.5 4.17157 5.17157 3.5 6 3.5ZM4.5 12.75V17C4.5 17.8284 5.17157 18.5 6 18.5H18C18.8284 18.5 19.5 17.8284 19.5 17V12.75H4.5Z" fill="black"/>
</svg>
