<svg width="24" height="24" viewBox="0 0 24 24" fill="none" xmlns="http://www.w3.org/2000/svg">
<path fill-rule="evenodd" clip-rule="evenodd" d="M12 14.5C13.3807 14.5 14.5 13.3807 14.5 12C14.5 10.6193 13.3807 9.5 12 9.5C10.6193 9.5 9.5 10.6193 9.5 12C9.5 13.3807 10.6193 14.5 12 14.5ZM16 12C16 14.2091 14.2091 16 12 16C9.79086 16 8 14.2091 8 12C8 9.79086 9.79086 8 12 8C14.2091 8 16 9.79086 16 12Z" fill="black"/>
<path fill-rule="evenodd" clip-rule="evenodd" d="M17 5.5C16.4318 5.5 15.9124 5.179 15.6584 4.67082L15.4875 4.32918C15.2335 3.821 14.7141 3.5 14.1459 3.5H9.8541C9.28594 3.5 8.76655 3.821 8.51246 4.32918L8.34164 4.67082C8.08755 5.179 7.56816 5.5 7 5.5H5C4.17157 5.5 3.5 6.17157 3.5 7V17C3.5 17.8284 4.17157 18.5 5 18.5H19C19.8284 18.5 20.5 17.8284 20.5 17V7C20.5 6.17157 19.8284 5.5 19 5.5H17ZM17 4L16.8292 3.65836C16.321 2.64201 15.2822 2 14.1459 2H9.8541C8.71779 2 7.679 2.64201 7.17082 3.65836L7 4H5C3.34315 4 2 5.34315 2 7V17C2 18.6569 3.34315 20 5 20H19C20.6569 20 22 18.6569 22 17V7C22 5.34315 20.6569 4 19 4H17Z" fill="black"/>
<path d="M19 8C19 8.55228 18.5523 9 18 9C17.4477 9 17 8.55228 17 8C17 7.44772 17.4477 7 18 7C18.5523 7 19 7.44772 19 8Z" fill="black"/>
</svg>
