<svg width="24" height="24" viewBox="0 0 24 24" fill="none" xmlns="http://www.w3.org/2000/svg">
<path fill-rule="evenodd" clip-rule="evenodd" d="M2.25 4C2.25 3.58579 2.58579 3.25 3 3.25H3.43845C4.70033 3.25 5.80029 4.10882 6.10634 5.33303L6.33558 6.25H18.5068C20.2661 6.25 21.5729 7.87915 21.1913 9.59656L20.0802 14.5966C19.8006 15.8548 18.6846 16.75 17.3957 16.75H9.56155C8.29967 16.75 7.19971 15.8912 6.89366 14.667L4.65113 5.69683C4.51201 5.14037 4.01203 4.75 3.43845 4.75H3C2.58579 4.75 2.25 4.41421 2.25 4ZM6.71058 7.75L8.34887 14.3032C8.48799 14.8596 8.98797 15.25 9.56155 15.25H17.3957C17.9815 15.25 18.4888 14.8431 18.6159 14.2712L19.727 9.27116C19.9005 8.49052 19.3065 7.75 18.5068 7.75H6.71058Z" fill="black"/>
<path fill-rule="evenodd" clip-rule="evenodd" d="M11 19.5C11 20.3284 10.3284 21 9.5 21C8.67157 21 8 20.3284 8 19.5C8 18.6716 8.67157 18 9.5 18C10.3284 18 11 18.6716 11 19.5Z" fill="black"/>
<path fill-rule="evenodd" clip-rule="evenodd" d="M19 19.5C19 20.3284 18.3284 21 17.5 21C16.6716 21 16 20.3284 16 19.5C16 18.6716 16.6716 18 17.5 18C18.3284 18 19 18.6716 19 19.5Z" fill="black"/>
</svg>
