<svg width="24" height="24" viewBox="0 0 24 24" fill="none" xmlns="http://www.w3.org/2000/svg">
<path fill-rule="evenodd" clip-rule="evenodd" d="M2.25 7C2.25 5.48122 3.48122 4.25 5 4.25H19C20.5188 4.25 21.75 5.48122 21.75 7V17C21.75 18.5188 20.5188 19.75 19 19.75H13.5C13.0858 19.75 12.75 19.4142 12.75 19C12.75 18.5858 13.0858 18.25 13.5 18.25H19C19.6904 18.25 20.25 17.6904 20.25 17V7C20.25 6.30964 19.6904 5.75 19 5.75H5C4.30964 5.75 3.75 6.30964 3.75 7V8.5C3.75 8.91421 3.41421 9.25 3 9.25C2.58579 9.25 2.25 8.91421 2.25 8.5V7Z" fill="black"/>
<path d="M4.25 18.75C4.25 19.3023 3.80228 19.75 3.25 19.75C2.69772 19.75 2.25 19.3023 2.25 18.75C2.25 18.1977 2.69772 17.75 3.25 17.75C3.80228 17.75 4.25 18.1977 4.25 18.75Z" fill="black"/>
<path fill-rule="evenodd" clip-rule="evenodd" d="M2.25 15.5C2.25 15.0858 2.58579 14.75 3 14.75C5.34721 14.75 7.25 16.6528 7.25 19C7.25 19.4142 6.91421 19.75 6.5 19.75C6.08579 19.75 5.75 19.4142 5.75 19C5.75 17.4812 4.51878 16.25 3 16.25C2.58579 16.25 2.25 15.9142 2.25 15.5Z" fill="black"/>
<path fill-rule="evenodd" clip-rule="evenodd" d="M2.25 12C2.25 11.5858 2.58579 11.25 3 11.25C7.28021 11.25 10.75 14.7198 10.75 19C10.75 19.4142 10.4142 19.75 10 19.75C9.58579 19.75 9.25 19.4142 9.25 19C9.25 15.5482 6.45178 12.75 3 12.75C2.58579 12.75 2.25 12.4142 2.25 12Z" fill="black"/>
</svg>
