<svg width="24" height="24" viewBox="0 0 24 24" fill="none" xmlns="http://www.w3.org/2000/svg">
<path fill-rule="evenodd" clip-rule="evenodd" d="M18 4.5H6C5.17157 4.5 4.5 5.17157 4.5 6V18C4.5 18.8284 5.17157 19.5 6 19.5H18C18.8284 19.5 19.5 18.8284 19.5 18V6C19.5 5.17157 18.8284 4.5 18 4.5ZM6 3C4.34315 3 3 4.34315 3 6V18C3 19.6569 4.34315 21 6 21H18C19.6569 21 21 19.6569 21 18V6C21 4.34315 19.6569 3 18 3H6Z" fill="black"/>
<path fill-rule="evenodd" clip-rule="evenodd" d="M16.5303 8.46967C16.8232 8.76256 16.8232 9.23744 16.5303 9.53033L11.2374 14.8232C10.554 15.5066 9.44598 15.5066 8.76256 14.8232L6.96967 13.0303C6.67678 12.7374 6.67678 12.2626 6.96967 11.9697C7.26256 11.6768 7.73744 11.6768 8.03033 11.9697L9.82322 13.7626C9.92085 13.8602 10.0791 13.8602 10.1768 13.7626L15.4697 8.46967C15.7626 8.17678 16.2374 8.17678 16.5303 8.46967Z" fill="black"/>
</svg>
