<svg width="24" height="24" viewBox="0 0 24 24" fill="none" xmlns="http://www.w3.org/2000/svg">
<path d="M11.4195 13.6411L16.5303 8.53033C16.8232 8.23744 16.8232 7.76256 16.5303 7.46967C16.2374 7.17678 15.7626 7.17678 15.4697 7.46967L10.3589 12.5805L11.4195 13.6411Z" fill="black"/>
<path d="M7.45693 15.3354C7.00833 15.5113 6.47861 15.4179 6.11612 15.0555L3.53033 12.4697C3.23744 12.1768 2.76256 12.1768 2.46967 12.4697C2.17678 12.7626 2.17678 13.2374 2.46967 13.5303L5.05546 16.1161C6.0087 17.0694 7.48764 17.1765 8.55905 16.4375L7.45693 15.3354Z" fill="black"/>
<path fill-rule="evenodd" clip-rule="evenodd" d="M21.5303 7.41968C21.8232 7.71258 21.8232 8.18745 21.5303 8.48034L13.8945 16.1161C12.8206 17.1901 11.0794 17.1901 10.0054 16.1161L7.41962 13.5303C7.12673 13.2374 7.12673 12.7626 7.41962 12.4697C7.71251 12.1768 8.18739 12.1768 8.48028 12.4697L11.0661 15.0555C11.5542 15.5436 12.3457 15.5436 12.8338 15.0555L20.4696 7.41968C20.7625 7.12679 21.2374 7.12679 21.5303 7.41968Z" fill="black"/>
</svg>
