<svg width="24" height="24" viewBox="0 0 24 24" fill="none" xmlns="http://www.w3.org/2000/svg">
<path fill-rule="evenodd" clip-rule="evenodd" d="M22 12C22 17.5228 17.5228 22 12 22C6.47715 22 2 17.5228 2 12C2 6.47715 6.47715 2 12 2C17.5228 2 22 6.47715 22 12ZM20.5 12C20.5 16.6944 16.6944 20.5 12 20.5C7.30558 20.5 3.5 16.6944 3.5 12C3.5 7.30558 7.30558 3.5 12 3.5C14.5863 3.5 16.9028 4.65509 18.4618 6.47753L11.1768 13.7626C11.0791 13.8602 10.9209 13.8602 10.8232 13.7626L8.03033 10.9697C7.73744 10.6768 7.26256 10.6768 6.96967 10.9697C6.67678 11.2626 6.67678 11.7374 6.96967 12.0303L9.76256 14.8232C10.446 15.5066 11.554 15.5066 12.2374 14.8232L19.3437 7.717C20.0787 8.97466 20.5 10.4381 20.5 12Z" fill="black"/>
</svg>
