<svg width="24" height="24" viewBox="0 0 24 24" fill="none" xmlns="http://www.w3.org/2000/svg">
<path fill-rule="evenodd" clip-rule="evenodd" d="M4.96967 11.9697C5.26256 11.6768 5.73744 11.6768 6.03033 11.9697L11.8232 17.7626C11.9209 17.8602 12.0791 17.8602 12.1768 17.7626L17.9697 11.9697C18.2626 11.6768 18.7374 11.6768 19.0303 11.9697C19.3232 12.2626 19.3232 12.7374 19.0303 13.0303L13.2374 18.8232C12.554 19.5066 11.446 19.5066 10.7626 18.8232L4.96967 13.0303C4.67678 12.7374 4.67678 12.2626 4.96967 11.9697Z" fill="black"/>
<path fill-rule="evenodd" clip-rule="evenodd" d="M4.96967 5.71967C5.26256 5.42678 5.73744 5.42678 6.03033 5.71967L11.8232 11.5126C11.9209 11.6102 12.0791 11.6102 12.1768 11.5126L17.9697 5.71967C18.2626 5.42677 18.7374 5.42677 19.0303 5.71967C19.3232 6.01256 19.3232 6.48743 19.0303 6.78033L13.2374 12.5732C12.554 13.2566 11.446 13.2566 10.7626 12.5732L4.96967 6.78033C4.67678 6.48744 4.67678 6.01256 4.96967 5.71967Z" fill="black"/>
</svg>
