<svg width="24" height="24" viewBox="0 0 24 24" fill="none" xmlns="http://www.w3.org/2000/svg">
<path fill-rule="evenodd" clip-rule="evenodd" d="M4.96967 12.2803C5.26256 12.5732 5.73744 12.5732 6.03033 12.2803L11.8232 6.48744C11.9209 6.38981 12.0791 6.38981 12.1768 6.48744L17.9697 12.2803C18.2626 12.5732 18.7374 12.5732 19.0303 12.2803C19.3232 11.9874 19.3232 11.5126 19.0303 11.2197L13.2374 5.42678C12.554 4.74336 11.446 4.74336 10.7626 5.42678L4.96967 11.2197C4.67678 11.5126 4.67678 11.9874 4.96967 12.2803Z" fill="black"/>
<path fill-rule="evenodd" clip-rule="evenodd" d="M4.96967 18.5303C5.26256 18.8232 5.73744 18.8232 6.03033 18.5303L11.8232 12.7374C11.9209 12.6398 12.0791 12.6398 12.1768 12.7374L17.9697 18.5303C18.2626 18.8232 18.7374 18.8232 19.0303 18.5303C19.3232 18.2374 19.3232 17.7626 19.0303 17.4697L13.2374 11.6768C12.554 10.9934 11.446 10.9934 10.7626 11.6768L4.96967 17.4697C4.67678 17.7626 4.67678 18.2374 4.96967 18.5303Z" fill="black"/>
</svg>
