<svg width="24" height="24" viewBox="0 0 24 24" fill="none" xmlns="http://www.w3.org/2000/svg">
<path fill-rule="evenodd" clip-rule="evenodd" d="M11.7197 19.0303C11.4268 18.7374 11.4268 18.2626 11.7197 17.9697L17.5126 12.1768C17.6102 12.0791 17.6102 11.9209 17.5126 11.8232L11.7197 6.03033C11.4268 5.73744 11.4268 5.26256 11.7197 4.96967C12.0126 4.67678 12.4874 4.67678 12.7803 4.96967L18.5732 10.7626C19.2566 11.446 19.2566 12.554 18.5732 13.2374L12.7803 19.0303C12.4874 19.3232 12.0126 19.3232 11.7197 19.0303Z" fill="black"/>
<path fill-rule="evenodd" clip-rule="evenodd" d="M5.46967 19.0303C5.17678 18.7374 5.17678 18.2626 5.46967 17.9697L11.2626 12.1768C11.3602 12.0791 11.3602 11.9209 11.2626 11.8232L5.46967 6.03033C5.17677 5.73744 5.17677 5.26256 5.46967 4.96967C5.76256 4.67678 6.23743 4.67678 6.53033 4.96967L12.3232 10.7626C13.0066 11.446 13.0066 12.554 12.3232 13.2374L6.53033 19.0303C6.23744 19.3232 5.76256 19.3232 5.46967 19.0303Z" fill="black"/>
</svg>
