<svg width="24" height="24" viewBox="0 0 24 24" fill="none" xmlns="http://www.w3.org/2000/svg">
<path fill-rule="evenodd" clip-rule="evenodd" d="M12.0303 19.0303C12.3232 18.7374 12.3232 18.2626 12.0303 17.9697L6.23744 12.1768C6.13981 12.0791 6.13981 11.9209 6.23744 11.8232L12.0303 6.03033C12.3232 5.73744 12.3232 5.26256 12.0303 4.96967C11.7374 4.67678 11.2626 4.67678 10.9697 4.96967L5.17678 10.7626C4.49336 11.446 4.49336 12.554 5.17678 13.2374L10.9697 19.0303C11.2626 19.3232 11.7374 19.3232 12.0303 19.0303Z" fill="black"/>
<path fill-rule="evenodd" clip-rule="evenodd" d="M18.2803 19.0303C18.5732 18.7374 18.5732 18.2626 18.2803 17.9697L12.4874 12.1768C12.3898 12.0791 12.3898 11.9209 12.4874 11.8232L18.2803 6.03033C18.5732 5.73744 18.5732 5.26256 18.2803 4.96967C17.9874 4.67678 17.5126 4.67678 17.2197 4.96967L11.4268 10.7626C10.7434 11.446 10.7434 12.554 11.4268 13.2374L17.2197 19.0303C17.5126 19.3232 17.9874 19.3232 18.2803 19.0303Z" fill="black"/>
</svg>
