<svg width="24" height="24" viewBox="0 0 24 24" fill="none" xmlns="http://www.w3.org/2000/svg">
<path fill-rule="evenodd" clip-rule="evenodd" d="M12 1C13.1046 1 14 1.89543 14 3H18C19.6569 3 21 4.34315 21 6V19C21 20.6569 19.6569 22 18 22H6C4.34315 22 3 20.6569 3 19V6C3 4.34315 4.34315 3 6 3H10C10 1.89543 10.8954 1 12 1ZM12.5 3C12.5 3.82843 13.1716 4.5 14 4.5H14.5V5.5H9.5V4.5H10C10.8284 4.5 11.5 3.82843 11.5 3C11.5 2.72386 11.7239 2.5 12 2.5C12.2761 2.5 12.5 2.72386 12.5 3ZM16 4.5V6C16 6.55228 15.5523 7 15 7H9C8.44772 7 8 6.55228 8 6V4.5H6C5.17157 4.5 4.5 5.17157 4.5 6V19C4.5 19.8284 5.17157 20.5 6 20.5H18C18.8284 20.5 19.5 19.8284 19.5 19V6C19.5 5.17157 18.8284 4.5 18 4.5H16Z" fill="black"/>
<path fill-rule="evenodd" clip-rule="evenodd" d="M7.25 11C7.25 10.5858 7.58579 10.25 8 10.25L16 10.25C16.4142 10.25 16.75 10.5858 16.75 11C16.75 11.4142 16.4142 11.75 16 11.75L8 11.75C7.58579 11.75 7.25 11.4142 7.25 11Z" fill="black"/>
<path fill-rule="evenodd" clip-rule="evenodd" d="M7.25 15C7.25 14.5858 7.58579 14.25 8 14.25L12 14.25C12.4142 14.25 12.75 14.5858 12.75 15C12.75 15.4142 12.4142 15.75 12 15.75L8 15.75C7.58579 15.75 7.25 15.4142 7.25 15Z" fill="black"/>
</svg>
