<svg width="24" height="24" viewBox="0 0 24 24" fill="none" xmlns="http://www.w3.org/2000/svg">
<path fill-rule="evenodd" clip-rule="evenodd" d="M12 20.5C16.6944 20.5 20.5 16.6944 20.5 12C20.5 7.30558 16.6944 3.5 12 3.5C7.30558 3.5 3.5 7.30558 3.5 12C3.5 16.6944 7.30558 20.5 12 20.5ZM12 22C17.5228 22 22 17.5228 22 12C22 6.47715 17.5228 2 12 2C6.47715 2 2 6.47715 2 12C2 17.5228 6.47715 22 12 22Z" fill="black"/>
<path fill-rule="evenodd" clip-rule="evenodd" d="M12 6.25C12.4142 6.25 12.75 6.58579 12.75 7V11.5858C12.75 11.6521 12.7763 11.7157 12.8232 11.7626L15.0303 13.9697C15.3232 14.2626 15.3232 14.7374 15.0303 15.0303C14.7374 15.3232 14.2626 15.3232 13.9697 15.0303L11.7626 12.8232C11.4344 12.495 11.25 12.0499 11.25 11.5858V7C11.25 6.58579 11.5858 6.25 12 6.25Z" fill="black"/>
</svg>
