<svg width="24" height="24" viewBox="0 0 24 24" fill="none" xmlns="http://www.w3.org/2000/svg">
<path d="M6.53034 5.46965C6.23745 5.17676 5.76257 5.17676 5.46968 5.46965C5.17679 5.76255 5.17679 6.23742 5.46968 6.53031L10.9393 12L5.46967 17.4697C5.17678 17.7626 5.17678 18.2374 5.46967 18.5303C5.76256 18.8232 6.23744 18.8232 6.53033 18.5303L12 13.0606L17.4697 18.5303C17.7626 18.8232 18.2375 18.8232 18.5303 18.5303C18.8232 18.2374 18.8232 17.7626 18.5303 17.4697L13.0607 12L18.5303 6.53032C18.8232 6.23743 18.8232 5.76256 18.5303 5.46966C18.2374 5.17677 17.7626 5.17677 17.4697 5.46966L12 10.9393L6.53034 5.46965Z" fill="black"/>
</svg>
