<svg width="24" height="24" viewBox="0 0 24 24" fill="none" xmlns="http://www.w3.org/2000/svg">
<path fill-rule="evenodd" clip-rule="evenodd" d="M14.7783 18.5C14.8188 18.494 14.8599 18.4896 14.9015 18.4868C18.0273 18.2811 20.5 15.6787 20.5 12.5C20.5 9.18629 17.8137 6.5 14.5 6.5C12.1959 6.5 10.1927 7.79827 9.18631 9.71021C8.9107 10.2338 8.35302 10.5465 7.76253 10.5084C7.67592 10.5028 7.58839 10.5 7.5 10.5C5.29086 10.5 3.5 12.2909 3.5 14.5C3.5 16.5857 5.09749 18.3001 7.13463 18.4836C7.17656 18.4874 7.21796 18.4929 7.25876 18.5H14.7783ZM15 19.9836C18.909 19.7263 22 16.4741 22 12.5C22 8.35786 18.6421 5 14.5 5C11.6173 5 9.11447 6.62634 7.85897 9.01153C7.74029 9.00388 7.6206 9 7.5 9C4.46243 9 2 11.4624 2 14.5C2 17.369 4.19675 19.725 7 19.9776V20H15V19.9836Z" fill="black"/>
<path fill-rule="evenodd" clip-rule="evenodd" d="M15.0303 11.4697C15.3232 11.7626 15.3232 12.2374 15.0303 12.5303L12.0303 15.5303C11.7374 15.8232 11.2626 15.8232 10.9697 15.5303L9.46967 14.0303C9.17678 13.7374 9.17678 13.2626 9.46967 12.9697C9.76256 12.6768 10.2374 12.6768 10.5303 12.9697L11.5 13.9393L13.9697 11.4697C14.2626 11.1768 14.7374 11.1768 15.0303 11.4697Z" fill="black"/>
</svg>
