<svg width="24" height="24" viewBox="0 0 24 24" fill="none" xmlns="http://www.w3.org/2000/svg">
<path fill-rule="evenodd" clip-rule="evenodd" d="M9.94049 9.83871C9.63447 10.5539 8.83246 10.9165 8.09338 10.6737C7.75128 10.5614 7.3843 10.5 7 10.5C5.067 10.5 3.5 12.067 3.5 14C3.5 15.933 5.067 17.5 7 17.5H15C18.0376 17.5 20.5 15.0376 20.5 12C20.5 8.96243 18.0376 6.5 15 6.5C12.7322 6.5 10.7817 7.87279 9.94049 9.83871ZM8.56143 9.24864C8.07015 9.08728 7.54527 9 7 9C4.23858 9 2 11.2386 2 14C2 16.7614 4.23858 19 7 19H15C18.866 19 22 15.866 22 12C22 8.13401 18.866 5 15 5C12.1108 5 9.63037 6.75042 8.56143 9.24864Z" fill="black"/>
</svg>
