<svg width="24" height="24" viewBox="0 0 24 24" fill="none" xmlns="http://www.w3.org/2000/svg">
<path d="M12.75 13C12.75 12.5858 12.4142 12.25 12 12.25C11.5858 12.25 11.25 12.5858 11.25 13V19.1893L9.53033 17.4697C9.23744 17.1768 8.76256 17.1768 8.46967 17.4697C8.17678 17.7626 8.17678 18.2374 8.46967 18.5303L11.4697 21.5303C11.5416 21.6022 11.6245 21.6565 11.7129 21.6931C11.8013 21.7298 11.8983 21.75 12 21.75C12.1919 21.75 12.3839 21.6768 12.5303 21.5303L15.5303 18.5303C15.8232 18.2374 15.8232 17.7626 15.5303 17.4697C15.2374 17.1768 14.7626 17.1768 14.4697 17.4697L12.75 19.1893V13Z" fill="black"/>
<path fill-rule="evenodd" clip-rule="evenodd" d="M8.70294 6.56461C9.6799 4.04041 12.1301 2.25 15 2.25C18.7279 2.25 21.75 5.27208 21.75 9C21.75 10.9992 20.8799 12.7962 19.5002 14.0311C19.1915 14.3073 18.7174 14.281 18.4411 13.9724C18.1649 13.6638 18.1912 13.1896 18.4998 12.9134C19.5751 11.951 20.25 10.5548 20.25 9C20.25 6.10051 17.8995 3.75 15 3.75C12.5136 3.75 10.4293 5.47913 9.8873 7.80127C9.83192 8.03853 9.66474 8.23411 9.43898 8.32574C9.21323 8.41736 8.95703 8.39362 8.75196 8.26206C8.24682 7.938 7.64651 7.75 7 7.75C5.20507 7.75 3.75 9.20507 3.75 11C3.75 12.202 4.40216 13.2526 5.37554 13.8157C5.73409 14.0231 5.85661 14.4819 5.6492 14.8404C5.4418 15.199 4.983 15.3215 4.62446 15.1141C3.20663 14.2939 2.25 12.7591 2.25 11C2.25 8.37665 4.37665 6.25 7 6.25C7.59949 6.25 8.17389 6.36137 8.70294 6.56461Z" fill="black"/>
</svg>
