<svg width="24" height="24" viewBox="0 0 24 24" fill="none" xmlns="http://www.w3.org/2000/svg">
<path d="M9.17548 8.11602C8.9377 8.47189 8.73166 8.85078 8.56143 9.24864C8.07015 9.08728 7.54527 9 7 9C4.23858 9 2 11.2386 2 14C2 16.7614 4.23858 19 7 19H15C16.4369 19 17.7727 18.5671 18.884 17.8245L17.7965 16.737C16.9771 17.2218 16.021 17.5 15 17.5H7C5.067 17.5 3.5 15.933 3.5 14C3.5 12.067 5.067 10.5 7 10.5C7.3843 10.5 7.75128 10.5614 8.09338 10.6737C8.83246 10.9165 9.63447 10.5539 9.94049 9.83871C10.0344 9.61914 10.1422 9.40698 10.2627 9.20329L9.17548 8.11602Z" fill="black"/>
<path d="M18.9784 15.7977C19.9211 14.8104 20.5 13.4728 20.5 12C20.5 8.96243 18.0376 6.5 15 6.5C13.5283 6.5 12.1902 7.07816 11.2022 8.0214L10.1415 6.96068C11.4004 5.74667 13.113 5 15 5C18.866 5 22 8.13401 22 12C22 13.887 21.2533 15.5996 20.0393 16.8585L18.9784 15.7977Z" fill="black"/>
<path fill-rule="evenodd" clip-rule="evenodd" d="M2.46967 2.46967C2.76256 2.17678 3.23744 2.17678 3.53033 2.46967L21.5303 20.4697C21.8232 20.7626 21.8232 21.2374 21.5303 21.5303C21.2374 21.8232 20.7626 21.8232 20.4697 21.5303L2.46967 3.53033C2.17678 3.23744 2.17678 2.76256 2.46967 2.46967Z" fill="black"/>
</svg>
