<svg width="24" height="24" viewBox="0 0 24 24" fill="none" xmlns="http://www.w3.org/2000/svg">
<path fill-rule="evenodd" clip-rule="evenodd" d="M16.4697 16.5303C16.1768 16.2374 16.1768 15.7626 16.4697 15.4697L19.9393 12L16.4697 8.53032C16.1768 8.23743 16.1768 7.76256 16.4697 7.46966C16.7626 7.17677 17.2374 7.17677 17.5303 7.46966L21.5303 11.4697C21.8232 11.7626 21.8232 12.2374 21.5303 12.5303L17.5303 16.5303C17.2374 16.8232 16.7626 16.8232 16.4697 16.5303Z" fill="black"/>
<path fill-rule="evenodd" clip-rule="evenodd" d="M7.53033 16.5303C7.82322 16.2374 7.82322 15.7626 7.53033 15.4697L4.06066 12L7.53033 8.53032C7.82322 8.23743 7.82322 7.76256 7.53033 7.46966C7.23744 7.17677 6.76256 7.17677 6.46967 7.46966L2.46967 11.4697C2.17677 11.7626 2.17677 12.2374 2.46967 12.5303L6.46967 16.5303C6.76256 16.8232 7.23744 16.8232 7.53033 16.5303Z" fill="black"/>
<path fill-rule="evenodd" clip-rule="evenodd" d="M14.2061 4.27887C13.8078 4.16507 13.3927 4.39569 13.2789 4.79397L9.27891 18.794C9.16511 19.1922 9.39573 19.6074 9.79401 19.7212C10.1923 19.8349 10.6074 19.6043 10.7212 19.206L14.7212 5.20605C14.835 4.80777 14.6044 4.39266 14.2061 4.27887Z" fill="black"/>
</svg>
