<svg width="24" height="24" viewBox="0 0 24 24" fill="none" xmlns="http://www.w3.org/2000/svg">
<path fill-rule="evenodd" clip-rule="evenodd" d="M2.25 20C2.25 19.5858 2.58579 19.25 3 19.25H19C19.4142 19.25 19.75 19.5858 19.75 20C19.75 20.4142 19.4142 20.75 19 20.75H3C2.58579 20.75 2.25 20.4142 2.25 20Z" fill="black"/>
<path fill-rule="evenodd" clip-rule="evenodd" d="M3 5C3 3.89543 3.89543 3 5 3H16C17.1046 3 18 3.89543 18 5H20C21.1045 5 22 5.89543 22 7V9.83772C22 11.129 21.1737 12.2754 19.9486 12.6838L17.9888 13.337C17.8155 15.9413 15.6482 18 13 18H8C5.23858 18 3 15.7614 3 13V5ZM5 4.5H16C16.2761 4.5 16.5 4.72386 16.5 5V13C16.5 14.933 14.933 16.5 13 16.5H8C6.067 16.5 4.5 14.933 4.5 13V5C4.5 4.72386 4.72386 4.5 5 4.5ZM18 11.7522L19.4743 11.2607C20.0868 11.0566 20.5 10.4834 20.5 9.83772V7C20.5 6.72386 20.2761 6.5 20 6.5H18V11.7522Z" fill="black"/>
</svg>
