<svg width="24" height="24" viewBox="0 0 24 24" fill="none" xmlns="http://www.w3.org/2000/svg">
<path fill-rule="evenodd" clip-rule="evenodd" d="M15.25 18C15.25 16.4812 16.4812 15.25 18 15.25H20C20.4142 15.25 20.75 15.5858 20.75 16C20.75 16.4142 20.4142 16.75 20 16.75H18C17.3096 16.75 16.75 17.3096 16.75 18V20C16.75 20.4142 16.4142 20.75 16 20.75C15.5858 20.75 15.25 20.4142 15.25 20V18Z" fill="black"/>
<path fill-rule="evenodd" clip-rule="evenodd" d="M15.25 6C15.25 7.51878 16.4812 8.75 18 8.75H20C20.4142 8.75 20.75 8.41421 20.75 8C20.75 7.58579 20.4142 7.25 20 7.25H18C17.3096 7.25 16.75 6.69036 16.75 6V4C16.75 3.58579 16.4142 3.25 16 3.25C15.5858 3.25 15.25 3.58579 15.25 4V6Z" fill="black"/>
<path fill-rule="evenodd" clip-rule="evenodd" d="M8.75 6C8.75 7.51878 7.51878 8.75 6 8.75H4C3.58579 8.75 3.25 8.41421 3.25 8C3.25 7.58579 3.58579 7.25 4 7.25H6C6.69036 7.25 7.25 6.69036 7.25 6V4C7.25 3.58579 7.58579 3.25 8 3.25C8.41421 3.25 8.75 3.58579 8.75 4V6Z" fill="black"/>
<path fill-rule="evenodd" clip-rule="evenodd" d="M8.75 18C8.75 16.4812 7.51878 15.25 6 15.25H4C3.58579 15.25 3.25 15.5858 3.25 16C3.25 16.4142 3.58579 16.75 4 16.75H6C6.69036 16.75 7.25 17.3096 7.25 18V20C7.25 20.4142 7.58579 20.75 8 20.75C8.41421 20.75 8.75 20.4142 8.75 20V18Z" fill="black"/>
</svg>
