<svg width="24" height="24" viewBox="0 0 24 24" fill="none" xmlns="http://www.w3.org/2000/svg">
<path fill-rule="evenodd" clip-rule="evenodd" d="M6.75 3C6.75 2.58579 6.41421 2.25 6 2.25C5.58579 2.25 5.25 2.58579 5.25 3V5.25H3C2.58579 5.25 2.25 5.58579 2.25 6C2.25 6.41421 2.58579 6.75 3 6.75H5.25V16C5.25 17.5188 6.48122 18.75 8 18.75H17.25V21C17.25 21.4142 17.5858 21.75 18 21.75C18.4142 21.75 18.75 21.4142 18.75 21V18.75H21C21.4142 18.75 21.75 18.4142 21.75 18C21.75 17.5858 21.4142 17.25 21 17.25H18.75V8C18.75 6.48122 17.5188 5.25 16 5.25H6.75V3ZM6.75 6.75V16C6.75 16.6904 7.30964 17.25 8 17.25H17.25V8C17.25 7.30964 16.6904 6.75 16 6.75H6.75Z" fill="black"/>
</svg>
