<svg width="24" height="24" viewBox="0 0 24 24" fill="none" xmlns="http://www.w3.org/2000/svg">
<path fill-rule="evenodd" clip-rule="evenodd" d="M16 4C16 5.10457 15.1046 6 14 6C12.8954 6 12 5.10457 12 4C12 2.89543 12.8954 2 14 2C15.1046 2 16 2.89543 16 4ZM14.5 4C14.5 4.27614 14.2761 4.5 14 4.5C13.7239 4.5 13.5 4.27614 13.5 4C13.5 3.72386 13.7239 3.5 14 3.5C14.2761 3.5 14.5 3.72386 14.5 4Z" fill="black"/>
<path fill-rule="evenodd" clip-rule="evenodd" d="M6 22C8.20914 22 10 20.2091 10 18C10 15.7909 8.20914 14 6 14C3.79086 14 2 15.7909 2 18C2 20.2091 3.79086 22 6 22ZM6 20.5C7.38071 20.5 8.5 19.3807 8.5 18C8.5 16.6193 7.38071 15.5 6 15.5C4.61929 15.5 3.5 16.6193 3.5 18C3.5 19.3807 4.61929 20.5 6 20.5Z" fill="black"/>
<path fill-rule="evenodd" clip-rule="evenodd" d="M18 22C20.2091 22 22 20.2091 22 18C22 15.7909 20.2091 14 18 14C17.9921 14 17.9843 14 17.9764 14.0001L16.9737 10.75H17.9999C18.4142 10.75 18.7499 10.4142 18.7499 9.99996C18.7499 9.58575 18.4142 9.24996 17.9999 9.24996H15.3106L13.3203 7.25966C12.5828 6.52213 11.3679 6.58941 10.7163 7.40388L8.09567 10.6797C7.45453 11.4811 7.63751 12.6597 8.49146 13.229L11.6441 15.3308L10.7723 18.8181C10.6719 19.2199 10.9162 19.6271 11.318 19.7276C11.7199 19.828 12.1271 19.5837 12.2276 19.1819L13.1326 15.5617C13.2664 15.0264 13.0493 14.4648 12.5902 14.1588L9.32351 11.981C9.20152 11.8996 9.17538 11.7313 9.26697 11.6168L11.8876 8.34092C11.9807 8.22457 12.1543 8.21495 12.2596 8.32032L14.3069 10.3676C14.5517 10.6124 14.8838 10.75 15.2301 10.75H15.404L16.4967 14.2921C15.0325 14.8863 14 16.3226 14 18C14 20.2091 15.7909 22 18 22ZM18 20.5C19.3807 20.5 20.5 19.3807 20.5 18C20.5 16.6193 19.3807 15.5 18 15.5C16.6193 15.5 15.5 16.6193 15.5 18C15.5 19.3807 16.6193 20.5 18 20.5Z" fill="black"/>
</svg>
