<svg width="24" height="24" viewBox="0 0 24 24" fill="none" xmlns="http://www.w3.org/2000/svg">
<path fill-rule="evenodd" clip-rule="evenodd" d="M21 17C21 19.2723 17.0495 21 12 21C6.95053 21 3 19.2723 3 17V7H3.00341C3.13582 4.78058 7.11304 3 12 3C16.8929 3 20.8738 4.78491 20.9971 7.00809C20.9969 7.0054 20.9968 7.0027 20.9966 7H21V17ZM19.5 7.11429C19.5 7.27086 19.3121 7.88095 17.7807 8.52728C16.3855 9.11614 14.3459 9.5 12 9.5C9.65413 9.5 7.6145 9.11614 6.2193 8.52728C4.68791 7.88095 4.5 7.27086 4.5 7.11429C4.5 6.92353 4.73553 6.26601 6.25968 5.56926C7.65143 4.93303 9.67949 4.5 12 4.5C14.3205 4.5 16.3486 4.93303 17.7403 5.56926C19.2645 6.26601 19.5 6.92353 19.5 7.11429ZM19.5 9.31856C17.8876 10.36 15.1305 11 12 11C8.86954 11 6.11238 10.36 4.5 9.31856V12C4.5 12.1853 4.71007 12.8155 6.21317 13.4803C7.59295 14.0905 9.62453 14.5 12 14.5C14.3755 14.5 16.4071 14.0905 17.7868 13.4803C19.2899 12.8155 19.5 12.1853 19.5 12V9.31856ZM12 16C15.1666 16 17.9011 15.3205 19.5 14.2534V17C19.5 17.1853 19.2899 17.8155 17.7868 18.4803C16.4071 19.0905 14.3755 19.5 12 19.5C9.62453 19.5 7.59295 19.0905 6.21317 18.4803C4.71007 17.8155 4.5 17.1853 4.5 17V14.2534C6.09895 15.3205 8.83338 16 12 16Z" fill="black"/>
</svg>
