<svg width="24" height="24" viewBox="0 0 24 24" fill="none" xmlns="http://www.w3.org/2000/svg">
<path d="M2.80763 5.63606C1.63606 6.80763 1.63606 8.70713 2.80763 9.8787L5.65685 12.7279L6.71751 11.6673L5.81288 10.7626L7.58063 8.99488C7.87353 8.70199 7.87353 8.22712 7.58063 7.93422C7.28774 7.64133 6.81286 7.64133 6.51997 7.93422L4.75222 9.70197L3.86829 8.81804C3.28251 8.23226 3.28251 7.28251 3.86829 6.69672L6.69672 3.86829C7.28251 3.28251 8.23226 3.28251 8.81804 3.86829L11.6673 6.71751L12.7279 5.65685L9.8787 2.80763C8.70713 1.63606 6.80763 1.63606 5.63606 2.80763L2.80763 5.63606Z" fill="black"/>
<path fill-rule="evenodd" clip-rule="evenodd" d="M11.3137 18.3848L9.11363 20.5849C8.97402 20.7245 8.79622 20.8197 8.60263 20.8584L3.29933 21.9191C2.59961 22.059 1.98269 21.4421 2.12264 20.7424L3.1833 15.4391C3.22201 15.2455 3.31717 15.0677 3.45677 14.9281L15.2635 3.12136C16.4351 1.94978 18.3346 1.94978 19.5061 3.12136L20.9203 4.53557C22.0919 5.70714 22.0919 7.60664 20.9203 8.77821L18.3848 11.3137L21.1924 14.1213C22.364 15.2929 22.364 17.1924 21.1924 18.364L18.364 21.1924C17.1924 22.364 15.2929 22.364 14.1213 21.1924L11.3137 18.3848ZM17.3242 12.3744L20.1318 15.182C20.7175 15.7678 20.7175 16.7175 20.1318 17.3033L17.3033 20.1318C16.7175 20.7175 15.7678 20.7175 15.182 20.1318L14.2981 19.2479L15.3588 18.1872C15.6516 17.8943 15.6516 17.4195 15.3588 17.1266C15.0659 16.8337 14.591 16.8337 14.2981 17.1266L13.2375 18.1872L12.3744 17.3242L17.3242 12.3744ZM19.8597 5.59623L18.4455 4.18202C17.8597 3.59623 16.9099 3.59623 16.3242 4.18202L14.7331 5.77304L18.2687 9.30857L19.8597 7.71755C20.4455 7.13176 20.4455 6.18202 19.8597 5.59623ZM4.62448 15.8817L13.6725 6.8337L17.208 10.3692L8.16001 19.4172L3.7406 20.3011L4.62448 15.8817Z" fill="black"/>
</svg>
