<svg width="24" height="24" viewBox="0 0 24 24" fill="none" xmlns="http://www.w3.org/2000/svg">
<path fill-rule="evenodd" clip-rule="evenodd" d="M1.84018 7.1842L4.76729 3.21844C5.33285 2.45219 6.22864 2 7.18101 2H16.8189C17.7713 2 18.667 2.45219 19.2326 3.21844L22.1597 7.1842C22.9534 8.25957 22.94 9.73033 22.1268 10.791L14.3808 20.8946C13.18 22.4609 10.8199 22.4609 9.61913 20.8946L1.87309 10.791C1.05987 9.73033 1.04645 8.25957 1.84018 7.1842ZM3.04705 8.07498L5.97415 4.10922C6.25693 3.7261 6.70483 3.5 7.18101 3.5H16.8189C17.2951 3.5 17.743 3.7261 18.0257 4.10922L20.9529 8.07498C20.9944 8.1313 21.0316 8.1898 21.0643 8.25H2.93561C2.96833 8.1898 3.00547 8.1313 3.04705 8.07498ZM2.97519 9.75C3.00217 9.79393 3.0316 9.8368 3.0635 9.8784L10.8095 19.9819C11.4099 20.7651 12.59 20.7651 13.1904 19.9819L20.9364 9.8784C20.9683 9.8368 20.9977 9.79393 21.0247 9.75H2.97519Z" fill="black"/>
</svg>
