<svg width="24" height="24" viewBox="0 0 24 24" fill="none" xmlns="http://www.w3.org/2000/svg">
<path d="M12 1.25C12.4142 1.25 12.75 1.58579 12.75 2V3.25H15C17.0711 3.25 18.75 4.92893 18.75 7V8C18.75 8.41421 18.4142 8.75 18 8.75C17.5858 8.75 17.25 8.41421 17.25 8V7C17.25 5.75736 16.2426 4.75 15 4.75H9C7.75736 4.75 6.75 5.75736 6.75 7V7.11696C6.75 8.51586 7.64515 9.75781 8.97226 10.2002L15.5021 12.3768C17.4417 13.0233 18.75 14.8385 18.75 16.883V17C18.75 19.0711 17.0711 20.75 15 20.75H12.75V22C12.75 22.4142 12.4142 22.75 12 22.75C11.5858 22.75 11.25 22.4142 11.25 22V20.75H9C6.92893 20.75 5.25 19.0711 5.25 17V16C5.25 15.5858 5.58579 15.25 6 15.25C6.41421 15.25 6.75 15.5858 6.75 16V17C6.75 18.2426 7.75736 19.25 9 19.25H15C16.2426 19.25 17.25 18.2426 17.25 17V16.883C17.25 15.4841 16.3549 14.2422 15.0277 13.7998L8.49792 11.6232C6.55829 10.9767 5.25 9.16151 5.25 7.11696V7C5.25 4.92893 6.92893 3.25 9 3.25H11.25V2C11.25 1.58579 11.5858 1.25 12 1.25Z" fill="black"/>
</svg>
