<svg width="24" height="24" viewBox="0 0 24 24" fill="none" xmlns="http://www.w3.org/2000/svg">
<path fill-rule="evenodd" clip-rule="evenodd" d="M9.5 5.65152C8.552 5.84503 7.64561 6.22115 6.83323 6.76397C5.59986 7.58808 4.63856 8.75942 4.07091 10.1299C3.50325 11.5003 3.35473 13.0083 3.64411 14.4632C3.9335 15.918 4.64781 17.2544 5.6967 18.3033C6.7456 19.3522 8.08197 20.0665 9.53683 20.3559C10.9917 20.6453 12.4997 20.4967 13.8701 19.9291C15.2406 19.3614 16.4119 18.4001 17.236 17.1668C17.7788 16.3544 18.155 15.448 18.3485 14.5H15.251C15.1266 14.8526 14.9581 15.1902 14.7482 15.5044C14.2528 16.2458 13.5488 16.8235 12.7251 17.1647C11.9014 17.5059 10.995 17.5952 10.1206 17.4213C9.24611 17.2473 8.44288 16.818 7.81244 16.1876C7.182 15.5571 6.75267 14.7539 6.57873 13.8794C6.40479 13.005 6.49406 12.0986 6.83525 11.2749C7.17645 10.4512 7.75423 9.74715 8.49555 9.25181C8.80976 9.04187 9.14739 8.8734 9.5 8.74898V5.65152ZM10.002 4.05548C10.5509 3.99424 11 4.4477 11 4.99999V8.99209C11 9.54438 10.5404 9.97655 10.0183 10.1568C9.77608 10.2404 9.54426 10.3551 9.32891 10.499C8.83426 10.8295 8.44873 11.2993 8.22107 11.8489C7.99341 12.3985 7.93385 13.0033 8.04991 13.5868C8.16597 14.1703 8.45244 14.7062 8.8731 15.1269C9.29376 15.5476 9.82972 15.834 10.4132 15.9501C10.9967 16.0661 11.6015 16.0066 12.1511 15.7789C12.7007 15.5513 13.1705 15.1657 13.501 14.6711C13.6449 14.4557 13.7596 14.2239 13.8432 13.9817C14.0234 13.4596 14.4556 13 15.0079 13H19C19.5523 13 20.0057 13.4491 19.9445 13.9979C19.7853 15.4249 19.2863 16.7982 18.4832 18.0001C17.4943 19.4802 16.0887 20.6337 14.4442 21.3149C12.7996 21.9961 10.99 22.1743 9.24419 21.8271C7.49836 21.4798 5.89472 20.6226 4.63604 19.3639C3.37737 18.1053 2.5202 16.5016 2.17294 14.7558C1.82567 13.01 2.0039 11.2004 2.68509 9.55584C3.36628 7.9113 4.51983 6.50569 5.99987 5.51676C7.20175 4.7137 8.57508 4.21469 10.002 4.05548Z" fill="black"/>
<path fill-rule="evenodd" clip-rule="evenodd" d="M20.3485 9.49998C20.253 9.03206 20.1127 8.5732 19.9291 8.12986C19.5522 7.21992 18.9997 6.39312 18.3033 5.69668C17.6069 5.00024 16.7801 4.4478 15.8701 4.07089C15.4268 3.88725 14.9679 3.74703 14.5 3.65151V6.74897C14.5757 6.77568 14.6508 6.80444 14.7251 6.83523C15.272 7.06178 15.769 7.39382 16.1876 7.81242C16.6062 8.23102 16.9382 8.72796 17.1648 9.27489C17.1955 9.34922 17.2243 9.42428 17.251 9.49998H20.3485ZM21.9445 10.002C22.0057 10.5509 21.5523 11 21 11H17.0079C16.4556 11 16.0234 10.5403 15.8432 10.0183C15.8235 9.96128 15.8021 9.90479 15.7789 9.84891C15.6278 9.48398 15.4062 9.15239 15.1269 8.87308C14.8476 8.59377 14.516 8.37221 14.1511 8.22105C14.0952 8.19791 14.0387 8.17648 13.9817 8.1568C13.4596 7.97655 13 7.54438 13 6.99209V2.99998C13 2.4477 13.4491 1.99424 13.9979 2.05548C14.8372 2.14912 15.6609 2.36062 16.4442 2.68507C17.5361 3.13736 18.5282 3.8003 19.364 4.63602C20.1997 5.47175 20.8626 6.4639 21.3149 7.55583C21.6394 8.33912 21.8509 9.16274 21.9445 10.002Z" fill="black"/>
</svg>
