<svg width="24" height="24" viewBox="0 0 24 24" fill="none" xmlns="http://www.w3.org/2000/svg">
<path fill-rule="evenodd" clip-rule="evenodd" d="M17.0115 9.75577L16.9533 9.67826C16.8735 9.57185 16.7567 9.41658 16.6098 9.22186C16.3158 8.83236 15.9013 8.2854 15.4195 7.65623C14.454 6.39515 13.2265 4.81444 12.1602 3.51013C12.1087 3.44719 12.0522 3.42778 12.0005 3.42779C11.9488 3.42781 11.8924 3.44725 11.8409 3.51023C10.7779 4.8117 9.55305 6.39029 8.58922 7.64994C8.10835 8.2784 7.69449 8.82483 7.40096 9.21398C7.25423 9.40852 7.13763 9.56366 7.05786 9.66999L6.93615 9.83247C6.93615 9.83247 6.93575 9.833 6.91024 9.81394L6.93615 9.83247C6.92573 9.84642 6.91467 9.86072 6.90377 9.8743L6.89784 9.88168C6.89791 9.88159 6.89777 9.88177 6.89784 9.88168C6.00092 11.0007 5.46521 12.4185 5.46521 13.9652C5.46521 17.5743 8.39093 20.5 12 20.5C15.6091 20.5 18.5348 17.5743 18.5348 13.9652C18.5348 12.4184 17.9992 11.0007 17.1021 9.88168C17.0695 9.84101 17.0393 9.79897 17.0115 9.75577ZM18.2754 8.94115C18.2747 8.94016 18.2737 8.93886 18.2725 8.93726C18.2293 8.87945 17.8875 8.42281 17.3722 7.74369C16.3713 6.42457 14.7157 4.26608 13.3215 2.56071C12.6313 1.71655 11.3689 1.71688 10.6792 2.56137C8.52282 5.20153 5.73397 8.93538 5.73397 8.93538L5.72747 8.94348C4.62478 10.319 3.96521 12.0651 3.96521 13.9652C3.96521 18.4027 7.5625 22 12 22C16.4375 22 20.0348 18.4027 20.0348 13.9652C20.0348 12.604 19.6963 11.3219 19.0989 10.1984C18.8635 9.75577 18.588 9.33778 18.2772 8.94928C18.2762 8.94807 18.2752 8.94686 18.2743 8.94565C18.2737 8.94493 18.2731 8.9442 18.2725 8.94348H18.2772C18.2772 8.94348 18.2766 8.9427 18.2754 8.94115Z" fill="black"/>
</svg>
