<svg width="24" height="24" viewBox="0 0 24 24" fill="none" xmlns="http://www.w3.org/2000/svg">
<path fill-rule="evenodd" clip-rule="evenodd" d="M6 6.25C6.41421 6.25 6.75 6.58579 6.75 7V17C6.75 17.4142 6.41421 17.75 6 17.75C5.58579 17.75 5.25 17.4142 5.25 17V7C5.25 6.58579 5.58579 6.25 6 6.25Z" fill="black"/>
<path fill-rule="evenodd" clip-rule="evenodd" d="M3 8.25C3.41421 8.25 3.75 8.58579 3.75 9V15C3.75 15.4142 3.41421 15.75 3 15.75C2.58579 15.75 2.25 15.4142 2.25 15V9C2.25 8.58579 2.58579 8.25 3 8.25Z" fill="black"/>
<path fill-rule="evenodd" clip-rule="evenodd" d="M18 6.25C18.4142 6.25 18.75 6.58579 18.75 7V17C18.75 17.4142 18.4142 17.75 18 17.75C17.5858 17.75 17.25 17.4142 17.25 17V7C17.25 6.58579 17.5858 6.25 18 6.25Z" fill="black"/>
<path fill-rule="evenodd" clip-rule="evenodd" d="M21 8.25C21.4142 8.25 21.75 8.58579 21.75 9V15C21.75 15.4142 21.4142 15.75 21 15.75C20.5858 15.75 20.25 15.4142 20.25 15V9C20.25 8.58579 20.5858 8.25 21 8.25Z" fill="black"/>
<path fill-rule="evenodd" clip-rule="evenodd" d="M18 12.75H6V11.25H18V12.75Z" fill="black"/>
</svg>
