<svg width="24" height="24" viewBox="0 0 24 24" fill="none" xmlns="http://www.w3.org/2000/svg">
<path d="M14 3.75C10.8961 3.75 8.16574 6.00824 7.16054 9.25H13C13.4142 9.25 13.75 9.58579 13.75 10C13.75 10.4142 13.4142 10.75 13 10.75H6.83196C6.77802 11.1566 6.75 11.574 6.75 12C6.75 12.426 6.77802 12.8434 6.83196 13.25H13C13.4142 13.25 13.75 13.5858 13.75 14C13.75 14.4142 13.4142 14.75 13 14.75H7.16054C8.16574 17.9918 10.8961 20.25 14 20.25C15.183 20.25 16.3011 19.9277 17.2916 19.3517C17.6496 19.1434 18.1087 19.2649 18.317 19.623C18.5252 19.981 18.4037 20.4401 18.0457 20.6483C16.8384 21.3505 15.4616 21.75 14 21.75C9.96853 21.75 6.66168 18.7533 5.6047 14.75H3C2.58579 14.75 2.25 14.4142 2.25 14C2.25 13.5858 2.58579 13.25 3 13.25H5.32183C5.27441 12.84 5.25 12.4227 5.25 12C5.25 11.5773 5.27441 11.16 5.32183 10.75H3C2.58579 10.75 2.25 10.4142 2.25 10C2.25 9.58579 2.58579 9.25 3 9.25H5.6047C6.66168 5.24671 9.96853 2.25 14 2.25C15.4616 2.25 16.8384 2.64954 18.0457 3.35167C18.4037 3.5599 18.5252 4.01898 18.317 4.37705C18.1087 4.73511 17.6496 4.85657 17.2916 4.64833C16.3011 4.07232 15.183 3.75 14 3.75Z" fill="black"/>
</svg>
