<svg width="24" height="24" viewBox="0 0 24 24" fill="none" xmlns="http://www.w3.org/2000/svg">
<path fill-rule="evenodd" clip-rule="evenodd" d="M7 2.25C7.41421 2.25 7.75 2.58579 7.75 3V4H16.25V3C16.25 2.58579 16.5858 2.25 17 2.25C17.4142 2.25 17.75 2.58579 17.75 3V4H19C20.6569 4 22 5.34315 22 7V19C22 20.6569 20.6569 22 19 22H5C3.34315 22 2 20.6569 2 19V7C2 5.34315 3.34315 4 5 4H6.25V3C6.25 2.58579 6.58579 2.25 7 2.25ZM16.25 5.5V7C16.25 7.41421 16.5858 7.75 17 7.75C17.4142 7.75 17.75 7.41421 17.75 7V5.5H19C19.8284 5.5 20.5 6.17157 20.5 7V19C20.5 19.8284 19.8284 20.5 19 20.5H5C4.17157 20.5 3.5 19.8284 3.5 19V7C3.5 6.17157 4.17157 5.5 5 5.5H6.25V7C6.25 7.41421 6.58579 7.75 7 7.75C7.41421 7.75 7.75 7.41421 7.75 7V5.5H16.25Z" fill="black"/>
<path fill-rule="evenodd" clip-rule="evenodd" d="M16.5303 10.4697C16.8232 10.7626 16.8232 11.2374 16.5303 11.5303L11.5303 16.5303C11.2374 16.8232 10.7626 16.8232 10.4697 16.5303L7.96967 14.0303C7.67678 13.7374 7.67678 13.2626 7.96967 12.9697C8.26256 12.6768 8.73744 12.6768 9.03033 12.9697L11 14.9393L15.4697 10.4697C15.7626 10.1768 16.2374 10.1768 16.5303 10.4697Z" fill="black"/>
</svg>
