<svg width="24" height="24" viewBox="0 0 24 24" fill="none" xmlns="http://www.w3.org/2000/svg">
<path fill-rule="evenodd" clip-rule="evenodd" d="M19.7782 4.22174C18.2161 2.65965 15.6834 2.65965 14.1213 4.22174L13.3788 4.96421C12.4082 4.32111 11.0875 4.42717 10.2322 5.2824C9.37697 6.13766 9.27092 7.4584 9.91408 8.42909L5.63615 12.707C5.17716 13.166 4.87942 13.7615 4.78762 14.4041L4.71691 14.8991C4.62511 15.5416 4.32737 16.1371 3.86838 16.5961C3.08733 17.3772 3.08733 18.6435 3.86838 19.4245L4.57549 20.1316C5.35653 20.9127 6.62286 20.9127 7.40391 20.1316C7.8629 19.6727 8.45838 19.3749 9.10097 19.2831L9.59594 19.2124C10.2385 19.1206 10.834 18.8229 11.293 18.3639L15.571 14.0859C16.5416 14.729 17.8623 14.6229 18.7175 13.7677C19.5727 12.9125 19.6788 11.5918 19.0357 10.6211L19.7782 9.8786C21.3403 8.3165 21.3403 5.78384 19.7782 4.22174ZM12.5504 6.21467L13.5725 6.89186L15.182 5.2824C16.1583 4.30609 17.7412 4.30609 18.7175 5.2824C19.6938 6.25871 19.6938 7.84163 18.7175 8.81794L17.108 10.4274L17.7852 11.4495C18.0421 11.8373 17.9977 12.3662 17.6568 12.707C17.2663 13.0975 16.6332 13.0975 16.2426 12.707L11.2929 7.75728C10.9024 7.36675 10.9024 6.73359 11.2929 6.34306C11.6337 6.00221 12.1626 5.95779 12.5504 6.21467ZM14.4749 13.0606L10.9394 9.5251L6.69681 13.7677C6.46731 13.9972 6.31844 14.2949 6.27254 14.6162L6.20183 15.1112C6.06413 16.0751 5.61753 16.9683 4.92904 17.6568C4.73378 17.852 4.73378 18.1686 4.92904 18.3639L5.63615 19.071C5.83141 19.2662 6.14799 19.2662 6.34325 19.071C7.03174 18.3825 7.92496 17.9359 8.88884 17.7982L9.38381 17.7275C9.70511 17.6816 10.0028 17.5327 10.2323 17.3032L14.4749 13.0606Z" fill="black"/>
</svg>
