<svg width="24" height="24" viewBox="0 0 24 24" fill="none" xmlns="http://www.w3.org/2000/svg">
<path fill-rule="evenodd" clip-rule="evenodd" d="M5.9 16.2L9.9 13.2C10.7 12.6 10.7 11.4 9.9 10.8L5.9 7.80001C4.91115 7.05837 3.5 7.76395 3.5 9.00001V15C3.5 16.2361 4.91115 16.9417 5.9 16.2ZM10.8 14.4C12.4 13.2 12.4 10.8 10.8 9.60001L6.8 6.60001C4.82229 5.11673 2 6.52788 2 9.00001V15C2 17.4721 4.82229 18.8833 6.8 17.4L10.8 14.4Z" fill="black"/>
<path fill-rule="evenodd" clip-rule="evenodd" d="M15.9 16.2L19.9 13.2C20.7 12.6 20.7 11.4 19.9 10.8L15.9 7.80001C14.9111 7.05837 13.5 7.76395 13.5 9.00001V15C13.5 16.2361 14.9111 16.9417 15.9 16.2ZM20.8 14.4C22.4 13.2 22.4 10.8 20.8 9.60001L16.8 6.60001C14.8223 5.11673 12 6.52788 12 9.00001V15C12 17.4721 14.8223 18.8833 16.8 17.4L20.8 14.4Z" fill="black"/>
</svg>
