<svg width="24" height="24" viewBox="0 0 24 24" fill="none" xmlns="http://www.w3.org/2000/svg">
<path fill-rule="evenodd" clip-rule="evenodd" d="M18.1 16.2L14.1 13.2C13.3 12.6 13.3 11.4 14.1 10.8L18.1 7.80001C19.0889 7.05837 20.5 7.76395 20.5 9.00001V15C20.5 16.2361 19.0889 16.9417 18.1 16.2ZM13.2 14.4C11.6 13.2 11.6 10.8 13.2 9.60001L17.2 6.60001C19.1777 5.11673 22 6.52788 22 9.00001V15C22 17.4721 19.1777 18.8833 17.2 17.4L13.2 14.4Z" fill="black"/>
<path fill-rule="evenodd" clip-rule="evenodd" d="M8.1 16.2L4.1 13.2C3.3 12.6 3.3 11.4 4.1 10.8L8.1 7.80001C9.08885 7.05837 10.5 7.76395 10.5 9.00001V15C10.5 16.2361 9.08885 16.9417 8.1 16.2ZM3.2 14.4C1.6 13.2 1.6 10.8 3.2 9.60001L7.2 6.60001C9.17771 5.11673 12 6.52788 12 9.00001V15C12 17.4721 9.17771 18.8833 7.2 17.4L3.2 14.4Z" fill="black"/>
</svg>
