<svg width="24" height="24" viewBox="0 0 24 24" fill="none" xmlns="http://www.w3.org/2000/svg">
<path fill-rule="evenodd" clip-rule="evenodd" d="M5 11.875C5 13.1576 5.62318 14.2947 6.58327 15C5.62318 15.7053 5 16.8424 5 18.125C5 20.2651 6.7349 22 8.875 22C11.0151 22 12.75 20.2651 12.75 18.125V14.9371C13.406 15.4466 14.2301 15.75 15.125 15.75C17.2651 15.75 19 14.0151 19 11.875C19 10.611 18.3948 9.4884 17.4584 8.78106C18.3929 8.09906 19 6.99543 19 5.75C19 3.67893 17.3211 2 15.25 2H8.75C6.67893 2 5 3.67893 5 5.75C5 6.99543 5.60713 8.09906 6.54158 8.78106C5.60517 9.4884 5 10.611 5 11.875ZM11.25 3.5H8.75C7.50736 3.5 6.5 4.50736 6.5 5.75C6.5 6.99264 7.50736 8 8.75 8H11.25V3.5ZM12.75 3.5V8H15.25C16.4926 8 17.5 6.99264 17.5 5.75C17.5 4.50736 16.4926 3.5 15.25 3.5H12.75ZM8.875 15.75H11.25V18.125C11.25 19.4367 10.1867 20.5 8.875 20.5C7.56332 20.5 6.5 19.4367 6.5 18.125C6.5 16.8133 7.56332 15.75 8.875 15.75ZM11.25 14.25H8.875C7.56332 14.25 6.5 13.1867 6.5 11.875C6.5 10.5633 7.56332 9.5 8.875 9.5H11.25V14.25ZM12.75 11.875C12.75 10.5633 13.8133 9.5 15.125 9.5C16.4367 9.5 17.5 10.5633 17.5 11.875C17.5 13.1867 16.4367 14.25 15.125 14.25C13.8133 14.25 12.75 13.1867 12.75 11.875Z" fill="black"/>
</svg>
