<svg width="24" height="24" viewBox="0 0 24 24" fill="none" xmlns="http://www.w3.org/2000/svg">
<path d="M7 6H6C4.34315 6 3 7.34315 3 9V19C3 20.6569 4.34315 22 6 22H14C15.6569 22 17 20.6569 17 19V18H15.5V19C15.5 19.8284 14.8284 20.5 14 20.5H6C5.17157 20.5 4.5 19.8284 4.5 19V9C4.5 8.17157 5.17157 7.5 6 7.5H7V6Z" fill="black"/>
<path fill-rule="evenodd" clip-rule="evenodd" d="M20.9902 7C20.9967 7.08042 21 7.16136 21 7.24264V15C21 16.6569 19.6569 18 18 18H10C8.34315 18 7 16.6569 7 15V5C7 3.34315 8.34315 2 10 2H15.7574C15.8386 2 15.9196 2.0033 16 2.00982V2C16.5473 2 17.0754 2.18582 17.5 2.52253C17.5722 2.57975 17.6413 2.64134 17.7071 2.70711L20.2929 5.29289C20.3587 5.35866 20.4202 5.42784 20.4775 5.5C20.8142 5.9246 21 6.45272 21 7H20.9902ZM18 16.5H10C9.17157 16.5 8.5 15.8284 8.5 15V5C8.5 4.17157 9.17157 3.5 10 3.5H15.7574C15.8392 3.5 15.9203 3.50668 16 3.51975V5C16 6.10457 16.8954 7 18 7H19.4803C19.4933 7.0797 19.5 7.16083 19.5 7.24264V15C19.5 15.8284 18.8284 16.5 18 16.5ZM18.3787 5.5L17.5 4.62132V5C17.5 5.27614 17.7239 5.5 18 5.5H18.3787Z" fill="black"/>
</svg>
