<svg width="24" height="24" viewBox="0 0 24 24" fill="none" xmlns="http://www.w3.org/2000/svg">
<path fill-rule="evenodd" clip-rule="evenodd" d="M2 6C2 4.34315 3.34315 3 5 3H19C20.6569 3 22 4.34315 22 6V18C22 19.6569 20.6569 21 19 21H5C3.34315 21 2 19.6569 2 18V6ZM12.75 4.5H16.25V7C16.25 7.08766 16.265 7.17181 16.2927 7.25H12.75V4.5ZM17.75 7V4.5H19C19.8284 4.5 20.5 5.17157 20.5 6V7.25H17.7073C17.735 7.17181 17.75 7.08766 17.75 7ZM11.25 4.5H7.75V7C7.75 7.08766 7.73496 7.17181 7.70732 7.25H11.25V4.5ZM11.25 8.75H3.5V15.25H11.25V8.75ZM11.25 16.75H7.75V19.5H11.25V16.75ZM12.75 19.5V16.75H16.25V19.5H12.75ZM17.75 19.5H19C19.8284 19.5 20.5 18.8284 20.5 18V16.75H17.75V19.5ZM20.5 15.25V8.75H12.75V15.25H20.5ZM6.25 4.5H5C4.17157 4.5 3.5 5.17157 3.5 6V7.25H6.29268C6.26504 7.17181 6.25 7.08766 6.25 7V4.5ZM3.5 16.75H6.25V19.5H5C4.17157 19.5 3.5 18.8284 3.5 18V16.75Z" fill="black"/>
</svg>
