<svg width="24" height="24" viewBox="0 0 24 24" fill="none" xmlns="http://www.w3.org/2000/svg">
<path d="M12 22C8 22 4 19.3 4 14C4 12.3 4.6 10 5.2 8.30002C5.32163 7.95539 5.66682 7.70002 6 7.70002C6.43582 7.70002 6.74889 7.9978 6.9 8.30002C7.1 8.90002 7.3 9.50002 7.5 10C7.8595 10.9587 8.3 11.5 9 12C8.58401 10.6435 8.58925 9.36919 9 8.00002C9.9 5.00002 11.5 3.50002 12.7 2.70002L12.9 2.60002C13.1 2.50002 13.4 2.60002 13.6 2.70002C13.8 2.80002 14 3.10002 14 3.50002C14 4.5 14.5762 6.57622 16 8C17.8485 9.60002 20 11.6 20 15C20 18.9 16.4 22 12 22ZM6.1 10.5C5.7 11.9 5.5 13.1 5.5 14C5.5 18.5 8.9 20.5 12 20.5C15.6 20.5 18.5 18 18.5 15C18.5 11 15 10 13.5 7C12.9971 6.14944 12.9237 5.54399 12.7 4.50002C11.9 5.30002 11 6.5 10.5 8.30002C10.1116 9.46522 10.1895 10.6 10.4 11.5C10.6 12.1 10.4 12.7 10 13.1C9.5 13.5 8.9 13.6 8.3 13.3C7 12.5 6.5 11.5 6.1 10.5Z" fill="black"/>
</svg>
