<svg width="24" height="24" viewBox="0 0 24 24" fill="none" xmlns="http://www.w3.org/2000/svg">
<path fill-rule="evenodd" clip-rule="evenodd" d="M4.5 2.75C4.5 2.33579 4.16421 2 3.75 2C3.33579 2 3 2.33579 3 2.75V21C3 21.4142 3.33579 21.75 3.75 21.75C4.16421 21.75 4.5 21.4142 4.5 21V15H10.0263C10.6712 15 11.3119 15.104 11.9237 15.3079L13.0763 15.6921C13.6881 15.896 14.3288 16 14.9737 16H18C19.6569 16 21 14.6569 21 13V7C21 5.34315 19.6569 4 18 4H14.9737C14.3288 4 13.6881 3.89603 13.0763 3.6921L11.9237 3.3079C11.3119 3.10397 10.6712 3 10.0263 3H4.5V2.75ZM4.5 4.5V13.5H10.0263C10.8324 13.5 11.6333 13.63 12.398 13.8849L13.5506 14.2691C14.0095 14.422 14.49 14.5 14.9737 14.5H18C18.8284 14.5 19.5 13.8284 19.5 13V7C19.5 6.17157 18.8284 5.5 18 5.5H14.9737C14.1676 5.5 13.3667 5.37004 12.602 5.11512L11.4494 4.73093C10.9905 4.57798 10.51 4.5 10.0263 4.5H4.5Z" fill="black"/>
</svg>
