<svg width="24" height="24" viewBox="0 0 24 24" fill="none" xmlns="http://www.w3.org/2000/svg">
<path fill-rule="evenodd" clip-rule="evenodd" d="M7.83205 10.7519C8.24935 11.0301 8.5 11.4985 8.5 12V19C8.5 19.8284 9.17157 20.5 10 20.5H14C14.8284 20.5 15.5 19.8284 15.5 19V12C15.5 11.4985 15.7507 11.0301 16.1679 10.7519L17.8321 9.64252C18.2493 9.36433 18.5 8.89598 18.5 8.39445V7.5H5.5V8.39445C5.5 8.89598 5.75065 9.36433 6.16795 9.64252L7.83205 10.7519ZM7 12L5.3359 10.8906C4.5013 10.3342 4 9.39751 4 8.39445V7C4 6.44772 4.44772 6 5 6H19C19.5523 6 20 6.44772 20 7V8.39445C20 9.39751 19.4987 10.3342 18.6641 10.8906L17 12V19C17 20.6569 15.6569 22 14 22H10C8.34315 22 7 20.6569 7 19V12Z" fill="black"/>
<path fill-rule="evenodd" clip-rule="evenodd" d="M12 13.25C12.4142 13.25 12.75 13.5858 12.75 14V16C12.75 16.4142 12.4142 16.75 12 16.75C11.5858 16.75 11.25 16.4142 11.25 16V14C11.25 13.5858 11.5858 13.25 12 13.25Z" fill="black"/>
<path fill-rule="evenodd" clip-rule="evenodd" d="M12 1.25C12.4142 1.25 12.75 1.58579 12.75 2V3C12.75 3.41421 12.4142 3.75 12 3.75C11.5858 3.75 11.25 3.41421 11.25 3V2C11.25 1.58579 11.5858 1.25 12 1.25Z" fill="black"/>
<path fill-rule="evenodd" clip-rule="evenodd" d="M7.16463 2.32916C7.53512 2.14392 7.98562 2.29409 8.17086 2.66457L8.67086 3.66457C8.8561 4.03505 8.70594 4.48556 8.33545 4.6708C7.96497 4.85604 7.51446 4.70588 7.32922 4.33539L6.82922 3.33539C6.64398 2.96491 6.79415 2.5144 7.16463 2.32916Z" fill="black"/>
<path fill-rule="evenodd" clip-rule="evenodd" d="M16.8355 2.32916C17.2059 2.5144 17.3561 2.96491 17.1709 3.33539L16.6709 4.33539C16.4856 4.70588 16.0351 4.85604 15.6646 4.6708C15.2941 4.48556 15.144 4.03505 15.3292 3.66457L15.8292 2.66457C16.0145 2.29409 16.465 2.14392 16.8355 2.32916Z" fill="black"/>
</svg>
