<svg width="24" height="24" viewBox="0 0 24 24" fill="none" xmlns="http://www.w3.org/2000/svg">
<path fill-rule="evenodd" clip-rule="evenodd" d="M3.75 13.9876L9.78152 12.1509C10.0088 12.0817 10.2555 12.1243 10.4465 12.2658C10.6374 12.4072 10.75 12.6308 10.75 12.8684L10.75 17C10.75 17.2361 10.6389 17.4584 10.45 17.6L8.85 18.8C8.78705 18.8472 8.75 18.9213 8.75 19L8.75 20.2865L11.6646 18.8292C11.8757 18.7236 12.1243 18.7236 12.3354 18.8292L15.25 20.2865L15.25 19C15.25 18.9213 15.213 18.8472 15.15 18.8L13.55 17.6C13.3611 17.4584 13.25 17.2361 13.25 17L13.25 12.8684C13.25 12.6308 13.3626 12.4072 13.5535 12.2658C13.7445 12.1243 13.9912 12.0817 14.2185 12.1509L20.25 13.9876L20.25 13.2361C20.25 12.7626 19.9825 12.3298 19.559 12.118L13.6646 9.17082C13.4105 9.04378 13.25 8.78408 13.25 8.5L13.25 4.5C13.25 3.80964 12.6904 3.25 12 3.25C11.3096 3.25 10.75 3.80964 10.75 4.5L10.75 8.5C10.75 8.78408 10.5895 9.04378 10.3354 9.17082L4.44098 12.118C4.0175 12.3298 3.75 12.7626 3.75 13.2361L3.75 13.9876ZM2.25 15L2.25 13.2361C2.25 12.1944 2.83851 11.2422 3.77016 10.7764L9.25 8.03647L9.25 4.5C9.25 2.98122 10.4812 1.75 12 1.75C13.5188 1.75 14.75 2.98122 14.75 4.5L14.75 8.03647L20.2298 10.7764C21.1615 11.2422 21.75 12.1944 21.75 13.2361L21.75 15C21.75 15.2376 21.6374 15.4612 21.4465 15.6026C21.2555 15.7441 21.0088 15.7867 20.7815 15.7175L14.75 13.8808L14.75 16.625L16.05 17.6C16.4907 17.9305 16.75 18.4492 16.75 19L16.75 21.5C16.75 21.7599 16.6154 22.0013 16.3943 22.138C16.1732 22.2746 15.8971 22.2871 15.6646 22.1708L12 20.3385L8.33541 22.1708C8.10292 22.2871 7.82681 22.2746 7.6057 22.138C7.38459 22.0013 7.25 21.7599 7.25 21.5L7.25 19C7.25 18.4492 7.50934 17.9305 7.95 17.6L9.25 16.625L9.25 13.8808L3.21848 15.7175C2.99116 15.7867 2.74448 15.7441 2.55355 15.6026C2.36261 15.4612 2.25 15.2376 2.25 15Z" fill="black"/>
</svg>
