<svg width="24" height="24" viewBox="0 0 24 24" fill="none" xmlns="http://www.w3.org/2000/svg">
<path fill-rule="evenodd" clip-rule="evenodd" d="M12 20.5C16.6944 20.5 20.5 16.6944 20.5 12C20.5 7.30558 16.6944 3.5 12 3.5C7.30558 3.5 3.5 7.30558 3.5 12C3.5 16.6944 7.30558 20.5 12 20.5ZM12 22C17.5228 22 22 17.5228 22 12C22 6.47715 17.5228 2 12 2C6.47715 2 2 6.47715 2 12C2 17.5228 6.47715 22 12 22Z" fill="black"/>
<path fill-rule="evenodd" clip-rule="evenodd" d="M7.54958 16.5997C7.88076 16.8485 8.35091 16.7817 8.5997 16.4505C9.37641 15.4165 10.6102 14.75 12 14.75C13.3898 14.75 14.6237 15.4165 15.4004 16.4505C15.6492 16.7817 16.1193 16.8485 16.4505 16.5997C16.7817 16.3509 16.8485 15.8807 16.5997 15.5496C15.552 14.1548 13.8817 13.25 12 13.25C10.1183 13.25 8.4481 14.1548 7.40039 15.5496C7.15161 15.8807 7.2184 16.3509 7.54958 16.5997Z" fill="black"/>
<path fill-rule="evenodd" clip-rule="evenodd" d="M7.29289 8.29289C7.68342 7.90237 8.31658 7.90237 8.70711 8.29289L9.20711 8.79289C9.59763 9.18342 9.59763 9.81658 9.20711 10.2071C8.81658 10.5976 8.18342 10.5976 7.79289 10.2071L7.29289 9.70711C6.90237 9.31658 6.90237 8.68342 7.29289 8.29289Z" fill="black"/>
<path fill-rule="evenodd" clip-rule="evenodd" d="M16.7071 8.29289C16.3166 7.90237 15.6834 7.90237 15.2929 8.29289L14.7929 8.79289C14.4024 9.18342 14.4024 9.81658 14.7929 10.2071C15.1834 10.5976 15.8166 10.5976 16.2071 10.2071L16.7071 9.70711C17.0976 9.31658 17.0976 8.68342 16.7071 8.29289Z" fill="black"/>
</svg>
