<svg width="24" height="24" viewBox="0 0 24 24" fill="none" xmlns="http://www.w3.org/2000/svg">
<path fill-rule="evenodd" clip-rule="evenodd" d="M4 20.5V5C4 3.34315 5.34315 2 7 2H13C14.6569 2 16 3.34315 16 5V12.25C17.5188 12.25 18.75 13.4812 18.75 15V16.5C18.75 16.9142 19.0858 17.25 19.5 17.25C19.9142 17.25 20.25 16.9142 20.25 16.5V10.3107L19.7626 9.82322C19.4344 9.49503 19.25 9.04992 19.25 8.58579V7.31066L18.4697 6.53033C18.1768 6.23744 18.1768 5.76256 18.4697 5.46967C18.7626 5.17678 19.2374 5.17678 19.5303 5.46967L21.2374 7.17678C21.5656 7.50497 21.75 7.95008 21.75 8.41421V16.5C21.75 17.7426 20.7426 18.75 19.5 18.75C18.2574 18.75 17.25 17.7426 17.25 16.5V15C17.25 14.3096 16.6904 13.75 16 13.75V20.5H17C17.4142 20.5 17.75 20.8358 17.75 21.25C17.75 21.6642 17.4142 22 17 22H3C2.58579 22 2.25 21.6642 2.25 21.25C2.25 20.8358 2.58579 20.5 3 20.5H4ZM7 3.5H13C13.8284 3.5 14.5 4.17157 14.5 5V9.25H5.5V5C5.5 4.17157 6.17157 3.5 7 3.5ZM5.5 10.75V20.5H14.5V10.75H5.5Z" fill="black"/>
</svg>
