<svg width="24" height="24" viewBox="0 0 24 24" fill="none" xmlns="http://www.w3.org/2000/svg">
<path fill-rule="evenodd" clip-rule="evenodd" d="M12.75 4C12.75 3.58579 12.4142 3.25 12 3.25C11.5858 3.25 11.25 3.58579 11.25 4V5H6C3.79086 5 2 6.79086 2 9V15C2 17.2091 3.79086 19 6 19H18C20.2091 19 22 17.2091 22 15V9C22 6.79086 20.2091 5 18 5H12.75V4ZM3.5 9C3.5 7.61929 4.61929 6.5 6 6.5H18C19.3807 6.5 20.5 7.61929 20.5 9V15C20.5 16.3807 19.3807 17.5 18 17.5H6C4.61929 17.5 3.5 16.3807 3.5 15V9Z" fill="black"/>
<path d="M8.75 10C8.75 9.58579 8.41421 9.25 8 9.25C7.58579 9.25 7.25 9.58579 7.25 10V11.25L6 11.25C5.58579 11.25 5.25 11.5858 5.25 12C5.25 12.4142 5.58579 12.75 6 12.75H7.25V14C7.25 14.4142 7.58579 14.75 8 14.75C8.41421 14.75 8.75 14.4142 8.75 14V12.75H10C10.4142 12.75 10.75 12.4142 10.75 12C10.75 11.5858 10.4142 11.25 10 11.25L8.75 11.25V10Z" fill="black"/>
<path fill-rule="evenodd" clip-rule="evenodd" d="M16 13.5C16.8284 13.5 17.5 12.8284 17.5 12C17.5 11.1716 16.8284 10.5 16 10.5C15.1716 10.5 14.5 11.1716 14.5 12C14.5 12.8284 15.1716 13.5 16 13.5ZM19 12C19 13.6569 17.6569 15 16 15C14.3431 15 13 13.6569 13 12C13 10.3431 14.3431 9 16 9C17.6569 9 19 10.3431 19 12Z" fill="black"/>
</svg>
