<svg width="24" height="24" viewBox="0 0 24 24" fill="none" xmlns="http://www.w3.org/2000/svg">
<path fill-rule="evenodd" clip-rule="evenodd" d="M12 4.5L10.8111 3.01391C10.2984 2.37306 9.52225 2 8.70156 2H8.5C7.11929 2 6 3.11929 6 4.5C6 4.85555 6.07422 5.19377 6.20802 5.5H4C2.89543 5.5 2 6.39543 2 7.5V10.5C2 11.2403 2.4022 11.8866 3 12.2324V19C3 20.6569 4.34315 22 6 22H18C19.6569 22 21 20.6569 21 19V12.2324C21.5978 11.8866 22 11.2403 22 10.5V7.5C22 6.39543 21.1046 5.5 20 5.5H17.792C17.9258 5.19377 18 4.85555 18 4.5C18 3.11929 16.8807 2 15.5 2H15.2984C14.4777 2 13.7016 2.37306 13.1889 3.01391L12 4.5ZM13.1209 5.5H15.5C16.0523 5.5 16.5 5.05228 16.5 4.5C16.5 3.94772 16.0523 3.5 15.5 3.5H15.2984C14.9334 3.5 14.5882 3.66592 14.3602 3.95095L13.1209 5.5ZM4 7C3.72386 7 3.5 7.22386 3.5 7.5V10.5C3.5 10.7761 3.72386 11 4 11H11.25V7H4ZM12.75 7V11H20C20.2761 11 20.5 10.7761 20.5 10.5V7.5C20.5 7.22386 20.2761 7 20 7H12.75ZM7.5 4.5C7.5 5.05228 7.94772 5.5 8.5 5.5H10.8791L9.63982 3.95095C9.4118 3.66592 9.06658 3.5 8.70156 3.5H8.5C7.94772 3.5 7.5 3.94772 7.5 4.5ZM11.25 12.5H4.5V19C4.5 19.8284 5.17157 20.5 6 20.5H11.25V12.5ZM12.75 20.5V12.5H19.5V19C19.5 19.8284 18.8284 20.5 18 20.5H12.75Z" fill="black"/>
</svg>
