<svg width="24" height="24" viewBox="0 0 24 24" fill="none" xmlns="http://www.w3.org/2000/svg">
<path fill-rule="evenodd" clip-rule="evenodd" d="M5 2C3.34315 2 2 3.34315 2 5V19C2 20.6569 3.34315 22 5 22H19C20.6569 22 22 20.6569 22 19V5C22 3.34315 20.6569 2 19 2H5ZM14.25 3.5H9.75V8.25H14.25V3.5ZM15.75 3.5V8.25H20.5V5C20.5 4.17157 19.8284 3.5 19 3.5H15.75ZM14.25 9.75H9.75V14.25H14.25V9.75ZM15.75 14.25V9.75H20.5V14.25H15.75ZM14.25 15.75H9.75V20.5H14.25V15.75ZM15.75 20.5V15.75H20.5V19C20.5 19.8284 19.8284 20.5 19 20.5H15.75ZM5 3.5H8.25V8.25H3.5V5C3.5 4.17157 4.17157 3.5 5 3.5ZM3.5 9.75H8.25V14.25H3.5V9.75ZM3.5 15.75H8.25V20.5H5C4.17157 20.5 3.5 19.8284 3.5 19V15.75Z" fill="black"/>
</svg>
