<svg width="24" height="24" viewBox="0 0 24 24" fill="none" xmlns="http://www.w3.org/2000/svg">
<path fill-rule="evenodd" clip-rule="evenodd" d="M3 2.25C3.41421 2.25 3.75 2.58579 3.75 3V19C3.75 19.6904 4.30964 20.25 5 20.25H21C21.4142 20.25 21.75 20.5858 21.75 21C21.75 21.4142 21.4142 21.75 21 21.75H5C3.48122 21.75 2.25 20.5188 2.25 19V3C2.25 2.58579 2.58579 2.25 3 2.25Z" fill="black"/>
<path d="M17 6.75C16.5858 6.75 16.25 7.08579 16.25 7.5C16.25 7.91421 16.5858 8.25 17 8.25H19.1893L14.6768 12.7626C14.5791 12.8602 14.4209 12.8602 14.3232 12.7626L11.7374 10.1768C11.054 9.49336 9.94598 9.49336 9.26256 10.1768L6.46967 12.9697C6.17678 13.2626 6.17678 13.7374 6.46967 14.0303C6.76256 14.3232 7.23744 14.3232 7.53033 14.0303L10.3232 11.2374C10.4209 11.1398 10.5791 11.1398 10.6768 11.2374L13.2626 13.8232C13.946 14.5066 15.054 14.5066 15.7374 13.8232L20.25 9.31066V11.5C20.25 11.9142 20.5858 12.25 21 12.25C21.4142 12.25 21.75 11.9142 21.75 11.5V7.5C21.75 7.08579 21.4142 6.75 21 6.75H17Z" fill="black"/>
</svg>
