<svg width="24" height="24" viewBox="0 0 24 24" fill="none" xmlns="http://www.w3.org/2000/svg">
<path fill-rule="evenodd" clip-rule="evenodd" d="M10.7237 3.2841C11.119 3.40765 11.3394 3.8283 11.2158 4.22366L10.2701 7.25H16.6985L17.7841 3.77625C17.9076 3.38089 18.3283 3.16055 18.7237 3.2841C19.119 3.40765 19.3394 3.8283 19.2158 4.22366L18.2701 7.25H20.5C20.9142 7.25 21.25 7.58579 21.25 8C21.25 8.41421 20.9142 8.75 20.5 8.75H17.8013L15.7701 15.25H18.5C18.9142 15.25 19.25 15.5858 19.25 16C19.25 16.4142 18.9142 16.75 18.5 16.75H15.3013L14.2158 20.2237C14.0923 20.619 13.6716 20.8394 13.2762 20.7158C12.8809 20.5923 12.6605 20.1716 12.7841 19.7763L13.7298 16.75H7.30134L6.21582 20.2237C6.09227 20.619 5.67161 20.8394 5.27625 20.7158C4.88089 20.5923 4.66055 20.1716 4.7841 19.7763L5.7298 16.75H3.5C3.08579 16.75 2.75 16.4142 2.75 16C2.75 15.5858 3.08579 15.25 3.5 15.25H6.19855L8.2298 8.75H5.5C5.08579 8.75 4.75 8.41421 4.75 8C4.75 7.58579 5.08579 7.25 5.5 7.25H8.69855L9.7841 3.77625C9.90765 3.38089 10.3283 3.16055 10.7237 3.2841ZM14.1986 15.25L16.2298 8.75H9.80134L7.77009 15.25H14.1986Z" fill="black"/>
</svg>
