<svg width="24" height="24" viewBox="0 0 24 24" fill="none" xmlns="http://www.w3.org/2000/svg">
<path fill-rule="evenodd" clip-rule="evenodd" d="M12 3.75C7.44365 3.75 3.75 7.44365 3.75 12V12.25H6C7.51878 12.25 8.75 13.4812 8.75 15V18C8.75 19.5188 7.51878 20.75 6 20.75H5C3.48122 20.75 2.25 19.5188 2.25 18V12C2.25 6.61522 6.61522 2.25 12 2.25C17.3848 2.25 21.75 6.61522 21.75 12V18C21.75 19.5188 20.5188 20.75 19 20.75H18C16.4812 20.75 15.25 19.5188 15.25 18V15C15.25 13.4812 16.4812 12.25 18 12.25H20.25V12C20.25 7.44365 16.5563 3.75 12 3.75ZM20.25 13.75H18C17.3096 13.75 16.75 14.3096 16.75 15V18C16.75 18.6904 17.3096 19.25 18 19.25H19C19.6904 19.25 20.25 18.6904 20.25 18V13.75ZM3.75 13.75V18C3.75 18.6904 4.30964 19.25 5 19.25H6C6.69036 19.25 7.25 18.6904 7.25 18V15C7.25 14.3096 6.69036 13.75 6 13.75H3.75Z" fill="black"/>
</svg>
