<svg width="24" height="24" viewBox="0 0 24 24" fill="none" xmlns="http://www.w3.org/2000/svg">
<path d="M10.4752 9.41586C9.59219 9.93801 9 10.8998 9 12C9 13.6569 10.3431 15 12 15C13.1002 15 14.062 14.4078 14.5841 13.5248L13.4489 12.3896C13.2774 13.0291 12.6937 13.5 12 13.5C11.1716 13.5 10.5 12.8284 10.5 12C10.5 11.3063 10.9709 10.7226 11.6104 10.5511L10.4752 9.41586Z" fill="black"/>
<path d="M7.26838 6.20905C4.88688 7.51767 3.36835 9.58834 2.60173 10.8666C2.17947 11.5708 2.17947 12.4292 2.60173 13.1334C3.79002 15.1148 6.78492 19 11.9999 19C14.5011 19 16.4915 18.1063 18.017 16.9576L16.9438 15.8844C15.6523 16.8107 14.014 17.5 11.9999 17.5C7.61215 17.5 5.00753 14.2284 3.88814 12.3619C3.75067 12.1327 3.75067 11.8673 3.88814 11.6381C4.65584 10.358 6.12212 8.41702 8.38309 7.32376L7.26838 6.20905Z" fill="black"/>
<path d="M18.0983 14.9176C19.0086 14.0373 19.6738 13.0921 20.1117 12.3619C20.2492 12.1327 20.2492 11.8673 20.1117 11.6381C18.9924 9.77155 16.3877 6.5 11.9999 6.5C11.262 6.5 10.5745 6.59253 9.93601 6.75536L8.73255 5.5519C9.70633 5.20784 10.7938 5 11.9999 5C17.215 5 20.2099 8.88521 21.3982 10.8666C21.8204 11.5708 21.8204 12.4292 21.3982 13.1334C20.9346 13.9063 20.1962 14.9689 19.1583 15.9776L18.0983 14.9176Z" fill="black"/>
<path fill-rule="evenodd" clip-rule="evenodd" d="M2.46967 2.46967C2.76256 2.17678 3.23744 2.17678 3.53033 2.46967L21.5303 20.4697C21.8232 20.7626 21.8232 21.2374 21.5303 21.5303C21.2374 21.8232 20.7626 21.8232 20.4697 21.5303L2.46967 3.53033C2.17678 3.23744 2.17678 2.76256 2.46967 2.46967Z" fill="black"/>
</svg>
