<svg width="24" height="24" viewBox="0 0 24 24" fill="none" xmlns="http://www.w3.org/2000/svg">
<path d="M20.25 12C20.25 7.44365 16.5563 3.75 12 3.75C9.21981 3.75 6.80178 5.12612 5.3184 7.24467L7.4978 7.23828C7.91201 7.23707 8.24878 7.57187 8.25 7.98608C8.25121 8.4003 7.91641 8.73706 7.5022 8.73828L4.05094 8.74839C4.01826 8.75065 3.98531 8.75076 3.95232 8.74868L3.5022 8.75C3.30291 8.75058 3.11158 8.67182 2.97045 8.53111C2.82932 8.39039 2.75 8.19929 2.75 8L2.75 4C2.75 3.58579 3.08579 3.25 3.5 3.25C3.91422 3.25 4.25 3.58579 4.25 4L4.25 6.16237C6.01057 3.79113 8.79958 2.25 12 2.25C17.3848 2.25 21.75 6.61522 21.75 12C21.75 17.3848 17.3848 21.75 12 21.75C8.16461 21.75 4.92007 19.5367 3.32836 16.3338C3.14403 15.9628 3.29529 15.5127 3.66623 15.3284C4.03716 15.144 4.4873 15.2953 4.67164 15.6662C6.02534 18.3902 8.76795 20.25 12 20.25C16.5563 20.25 20.25 16.5563 20.25 12Z" fill="black"/>
<path fill-rule="evenodd" clip-rule="evenodd" d="M12 7.25C12.4142 7.25 12.75 7.58579 12.75 8V11.5858C12.75 11.6521 12.7763 11.7157 12.8232 11.7626L14.5303 13.4697C14.8232 13.7626 14.8232 14.2374 14.5303 14.5303C14.2374 14.8232 13.7626 14.8232 13.4697 14.5303L11.7626 12.8232C11.4344 12.495 11.25 12.0499 11.25 11.5858V8C11.25 7.58579 11.5858 7.25 12 7.25Z" fill="black"/>
</svg>
