<svg width="24" height="24" viewBox="0 0 24 24" fill="none" xmlns="http://www.w3.org/2000/svg">
<path fill-rule="evenodd" clip-rule="evenodd" d="M4.25 2.75C4.25 2.33579 4.58579 2 5 2H19C19.4142 2 19.75 2.33579 19.75 2.75C19.75 3.16421 19.4142 3.5 19 3.5V4.49107C19 6.12447 18.5 7.71873 17.5672 9.05959L15.5217 12L17.5672 14.9404C18.5 16.2813 19 17.8755 19 19.5089V20.5C19.4142 20.5 19.75 20.8358 19.75 21.25C19.75 21.6642 19.4142 22 19 22H5C4.58579 22 4.25 21.6642 4.25 21.25C4.25 20.8358 4.58579 20.5 5 20.5V19.5089C5 17.8755 5.49998 16.2813 6.43276 14.9404L8.47826 12L6.43276 9.05959C5.49998 7.71873 5 6.12447 5 4.49107V3.5C4.58579 3.5 4.25 3.16421 4.25 2.75ZM6.5 20.5H7.93751L9.456 18.0704C10.631 16.1904 13.369 16.1904 14.544 18.0704L16.0625 20.5H17.5V19.5089C17.5 18.1818 17.0938 16.8865 16.3359 15.797L14.2162 12.75H9.78377L7.66412 15.797C6.90624 16.8865 6.5 18.1818 6.5 19.5089V20.5ZM14.2936 20.5L13.272 18.8654C12.6845 17.9254 11.3155 17.9254 10.728 18.8654L9.70637 20.5H14.2936ZM6.5 3.5H17.5V4.49107C17.5 5.44912 17.2883 6.39059 16.8854 7.25H7.11456C6.7117 6.39059 6.5 5.44912 6.5 4.49107V3.5ZM8.04464 8.75L9.78377 11.25H14.2162L15.9554 8.75H8.04464Z" fill="black"/>
</svg>
