<svg width="24" height="24" viewBox="0 0 24 24" fill="none" xmlns="http://www.w3.org/2000/svg">
<path fill-rule="evenodd" clip-rule="evenodd" d="M19 5.5H15C14.1716 5.5 13.5 6.17157 13.5 7V17C13.5 17.8284 14.1716 18.5 15 18.5H19C19.8284 18.5 20.5 17.8284 20.5 17V7C20.5 6.17157 19.8284 5.5 19 5.5ZM15 4C13.3431 4 12 5.34315 12 7V17C12 18.6569 13.3431 20 15 20H19C20.6569 20 22 18.6569 22 17V7C22 5.34315 20.6569 4 19 4H15Z" fill="black"/>
<path fill-rule="evenodd" clip-rule="evenodd" d="M2.25 6C2.25 5.58579 2.58579 5.25 3 5.25H9C9.41421 5.25 9.75 5.58579 9.75 6C9.75 6.41421 9.41421 6.75 9 6.75H3C2.58579 6.75 2.25 6.41421 2.25 6Z" fill="black"/>
<path fill-rule="evenodd" clip-rule="evenodd" d="M2.25 10C2.25 9.58579 2.58579 9.25 3 9.25H9C9.41421 9.25 9.75 9.58579 9.75 10C9.75 10.4142 9.41421 10.75 9 10.75H3C2.58579 10.75 2.25 10.4142 2.25 10Z" fill="black"/>
<path fill-rule="evenodd" clip-rule="evenodd" d="M2.25 14C2.25 13.5858 2.58579 13.25 3 13.25H9C9.41421 13.25 9.75 13.5858 9.75 14C9.75 14.4142 9.41421 14.75 9 14.75H3C2.58579 14.75 2.25 14.4142 2.25 14Z" fill="black"/>
<path d="M3 18H9" stroke="black" stroke-width="1.5" stroke-linecap="round"/>
</svg>
