<svg width="24" height="24" viewBox="0 0 24 24" fill="none" xmlns="http://www.w3.org/2000/svg">
<path fill-rule="evenodd" clip-rule="evenodd" d="M21.1592 21.0828C21.6798 20.5432 22 19.809 22 19V5C22 3.34315 20.6569 2 19 2H5C3.34315 2 2 3.34315 2 5V19C2 20.6569 3.34315 22 5 22H19C19.2962 22 19.5823 21.9571 19.8525 21.8771C19.8658 21.8732 19.879 21.8692 19.8921 21.8651C20.2586 21.7511 20.595 21.5687 20.8863 21.3329C20.8937 21.3269 20.901 21.321 20.9083 21.3149C20.9824 21.2538 21.0535 21.1892 21.1213 21.1213C21.1341 21.1086 21.1467 21.0957 21.1592 21.0828ZM19 3.5H5C4.17157 3.5 3.5 4.17157 3.5 5V12.7L6.05292 9.63649C7.21566 8.24121 9.34177 8.19102 10.569 9.52987L20.1418 19.9728C20.3652 19.7109 20.5 19.3712 20.5 19V5C20.5 4.17157 19.8284 3.5 19 3.5ZM5 20.5C4.17157 20.5 3.5 19.8284 3.5 19V15.0431L7.20526 10.5968C7.71395 9.98633 8.59144 9.89081 9.21395 10.3249C9.21951 10.3288 9.22505 10.3327 9.23057 10.3367C9.31332 10.3961 9.39141 10.465 9.46332 10.5435L18.5901 20.5H5Z" fill="black"/>
<circle cx="17" cy="7" r="1.25" stroke="black" stroke-width="1.5"/>
</svg>
