<svg width="24" height="24" viewBox="0 0 24 24" fill="none" xmlns="http://www.w3.org/2000/svg">
<path fill-rule="evenodd" clip-rule="evenodd" d="M2 13.1468C2 13.0494 2.01421 12.9526 2.04217 12.8594L4.35861 5.13796C4.7393 3.869 5.90727 3 7.23209 3H16.7679C18.0927 3 19.2607 3.869 19.6414 5.13796L21.9578 12.8594C21.9858 12.9526 22 13.0494 22 13.1468V18C22 19.6569 20.6569 21 19 21H5C3.34315 21 2 19.6569 2 18V13.1468ZM16.7679 4.5H7.23209C6.56968 4.5 5.9857 4.9345 5.79535 5.56898L3.56605 13H8.38197C8.76074 13 9.107 13.214 9.27639 13.5528L9.99724 14.9945C9.99893 14.9979 10.0024 15 10.0062 15H13.9938C13.9976 15 14.0011 14.9979 14.0028 14.9945L14.7236 13.5528C14.893 13.214 15.2393 13 15.618 13H20.434L18.2046 5.56898C18.0143 4.9345 17.4303 4.5 16.7679 4.5ZM20.5 14.5H15.9271L15.3444 15.6653C15.0886 16.1768 14.5658 16.5 13.9938 16.5H10.0062C9.43425 16.5 8.91138 16.1769 8.6556 15.6653L8.07295 14.5H3.5V18C3.5 18.8284 4.17157 19.5 5 19.5H19C19.8284 19.5 20.5 18.8284 20.5 18V14.5Z" fill="black"/>
</svg>
