<svg width="24" height="24" viewBox="0 0 24 24" fill="none" xmlns="http://www.w3.org/2000/svg">
<path d="M14.016 3.25H16.5C16.9142 3.25 17.25 3.58579 17.25 4C17.25 4.41421 16.9142 4.75 16.5 4.75H14.5856L10.9606 19.25H13C13.4142 19.25 13.75 19.5858 13.75 20C13.75 20.4142 13.4142 20.75 13 20.75H10.0166C10.006 20.7502 9.99531 20.7502 9.98461 20.75H7.5C7.08579 20.75 6.75 20.4142 6.75 20C6.75 19.5858 7.08579 19.25 7.5 19.25H9.41447L13.0395 4.75H11C10.5858 4.75 10.25 4.41421 10.25 4C10.25 3.58579 10.5858 3.25 11 3.25H13.983C13.994 3.24976 14.005 3.24976 14.016 3.25Z" fill="black"/>
</svg>
