<svg width="24" height="24" viewBox="0 0 24 24" fill="none" xmlns="http://www.w3.org/2000/svg">
<path fill-rule="evenodd" clip-rule="evenodd" d="M10.8027 13.5C11.3382 13.5 11.833 13.7854 12.1011 14.2489C12.8815 15.5979 14.3363 16.5 16 16.5C18.4853 16.5 20.5 14.4853 20.5 12C20.5 9.51472 18.4853 7.5 16 7.5C14.3363 7.5 12.8815 8.40212 12.1011 9.75109C11.833 10.2146 11.3382 10.5 10.8027 10.5H5.62018L4.12109 11.9998L5.62137 13.5H10.8027ZM10.8027 15C11.8401 16.7934 13.7792 18 16 18C19.3137 18 22 15.3137 22 12C22 8.68629 19.3137 6 16 6C13.7792 6 11.8401 7.2066 10.8027 9H5.413C5.14771 9 4.89329 9.10542 4.70574 9.29305L2.7068 11.2929C2.31642 11.6834 2.31649 12.3165 2.70696 12.7069L4.70717 14.7071C4.8947 14.8946 5.14906 15 5.41427 15H10.8027Z" fill="black"/>
<path fill-rule="evenodd" clip-rule="evenodd" d="M16 12.5C16.2761 12.5 16.5 12.2761 16.5 12C16.5 11.7239 16.2761 11.5 16 11.5C15.7239 11.5 15.5 11.7239 15.5 12C15.5 12.2761 15.7239 12.5 16 12.5ZM18 12C18 13.1046 17.1046 14 16 14C14.8954 14 14 13.1046 14 12C14 10.8954 14.8954 10 16 10C17.1046 10 18 10.8954 18 12Z" fill="black"/>
</svg>
