<svg width="24" height="24" viewBox="0 0 24 24" fill="none" xmlns="http://www.w3.org/2000/svg">
<path fill-rule="evenodd" clip-rule="evenodd" d="M7 6C7.82843 6 8.5 5.32843 8.5 4.5C8.5 3.67157 7.82843 3 7 3C6.17157 3 5.5 3.67157 5.5 4.5C5.5 5.32843 6.17157 6 7 6Z" fill="black"/>
<path fill-rule="evenodd" clip-rule="evenodd" d="M7 11C7.82843 11 8.5 10.3284 8.5 9.5C8.5 8.67157 7.82843 8 7 8C6.17157 8 5.5 8.67157 5.5 9.5C5.5 10.3284 6.17157 11 7 11Z" fill="black"/>
<path fill-rule="evenodd" clip-rule="evenodd" d="M7 16C7.82843 16 8.5 15.3284 8.5 14.5C8.5 13.6716 7.82843 13 7 13C6.17157 13 5.5 13.6716 5.5 14.5C5.5 15.3284 6.17157 16 7 16Z" fill="black"/>
<path fill-rule="evenodd" clip-rule="evenodd" d="M12 6C12.8284 6 13.5 5.32843 13.5 4.5C13.5 3.67157 12.8284 3 12 3C11.1716 3 10.5 3.67157 10.5 4.5C10.5 5.32843 11.1716 6 12 6Z" fill="black"/>
<path fill-rule="evenodd" clip-rule="evenodd" d="M12 11C12.8284 11 13.5 10.3284 13.5 9.5C13.5 8.67157 12.8284 8 12 8C11.1716 8 10.5 8.67157 10.5 9.5C10.5 10.3284 11.1716 11 12 11Z" fill="black"/>
<path fill-rule="evenodd" clip-rule="evenodd" d="M12 16C12.8284 16 13.5 15.3284 13.5 14.5C13.5 13.6716 12.8284 13 12 13C11.1716 13 10.5 13.6716 10.5 14.5C10.5 15.3284 11.1716 16 12 16Z" fill="black"/>
<path fill-rule="evenodd" clip-rule="evenodd" d="M12 21C12.8284 21 13.5 20.3284 13.5 19.5C13.5 18.6716 12.8284 18 12 18C11.1716 18 10.5 18.6716 10.5 19.5C10.5 20.3284 11.1716 21 12 21Z" fill="black"/>
<path fill-rule="evenodd" clip-rule="evenodd" d="M17 6C17.8284 6 18.5 5.32843 18.5 4.5C18.5 3.67157 17.8284 3 17 3C16.1716 3 15.5 3.67157 15.5 4.5C15.5 5.32843 16.1716 6 17 6Z" fill="black"/>
<path fill-rule="evenodd" clip-rule="evenodd" d="M17 11C17.8284 11 18.5 10.3284 18.5 9.5C18.5 8.67157 17.8284 8 17 8C16.1716 8 15.5 8.67157 15.5 9.5C15.5 10.3284 16.1716 11 17 11Z" fill="black"/>
<path fill-rule="evenodd" clip-rule="evenodd" d="M17 16C17.8284 16 18.5 15.3284 18.5 14.5C18.5 13.6716 17.8284 13 17 13C16.1716 13 15.5 13.6716 15.5 14.5C15.5 15.3284 16.1716 16 17 16Z" fill="black"/>
</svg>
