<svg width="24" height="24" viewBox="0 0 24 24" fill="none" xmlns="http://www.w3.org/2000/svg">
<path fill-rule="evenodd" clip-rule="evenodd" d="M19 4.5H5C4.17157 4.5 3.5 5.17157 3.5 6V15C3.5 15.8284 4.17157 16.5 5 16.5H19C19.8284 16.5 20.5 15.8284 20.5 15V6C20.5 5.17157 19.8284 4.5 19 4.5ZM5 3C3.34315 3 2 4.34315 2 6V15C2 16.6569 3.34315 18 5 18H19C20.6569 18 22 16.6569 22 15V6C22 4.34315 20.6569 3 19 3H5Z" fill="black"/>
<path fill-rule="evenodd" clip-rule="evenodd" d="M1.25 20C1.25 19.5858 1.58579 19.25 2 19.25H22C22.4142 19.25 22.75 19.5858 22.75 20C22.75 20.4142 22.4142 20.75 22 20.75H2C1.58579 20.75 1.25 20.4142 1.25 20Z" fill="black"/>
</svg>
