<svg width="24" height="24" viewBox="0 0 24 24" fill="none" xmlns="http://www.w3.org/2000/svg">
<path fill-rule="evenodd" clip-rule="evenodd" d="M12 20.5C16.6944 20.5 20.5 16.6944 20.5 12C20.5 7.30558 16.6944 3.5 12 3.5C7.30558 3.5 3.5 7.30558 3.5 12C3.5 16.6944 7.30558 20.5 12 20.5ZM12 22C17.5228 22 22 17.5228 22 12C22 6.47715 17.5228 2 12 2C6.47715 2 2 6.47715 2 12C2 17.5228 6.47715 22 12 22Z" fill="black"/>
<path fill-rule="evenodd" clip-rule="evenodd" d="M6.87468 12.4809C7.01612 12.3334 7.21164 12.25 7.41602 12.25H16.5839C16.7883 12.25 16.9838 12.3334 17.1253 12.4809C17.2667 12.6284 17.3418 12.8273 17.3333 13.0314C17.2843 14.1978 16.8362 15.3838 15.9332 16.2818C15.0216 17.1883 13.6982 17.75 12 17.75C10.3017 17.75 8.97836 17.1883 8.06677 16.2818C7.16377 15.3838 6.71566 14.1979 6.66668 13.0315C6.6581 12.8273 6.73323 12.6284 6.87468 12.4809ZM8.28447 13.75C8.43148 14.2974 8.71116 14.8072 9.12447 15.2182C9.72128 15.8117 10.6479 16.25 12 16.25C13.3521 16.25 14.2787 15.8117 14.8755 15.2182C15.2888 14.8072 15.5685 14.2974 15.7155 13.75H8.28447Z" fill="black"/>
<path d="M9 9C9 9.55228 8.55228 10 8 10C7.44772 10 7 9.55228 7 9C7 8.44772 7.44772 8 8 8C8.55228 8 9 8.44772 9 9Z" fill="black"/>
<path d="M17 9C17 9.55228 16.5523 10 16 10C15.4477 10 15 9.55228 15 9C15 8.44772 15.4477 8 16 8C16.5523 8 17 8.44772 17 9Z" fill="black"/>
</svg>
