<svg width="24" height="24" viewBox="0 0 24 24" fill="none" xmlns="http://www.w3.org/2000/svg">
<path fill-rule="evenodd" clip-rule="evenodd" d="M3 2.25C3.41421 2.25 3.75 2.58579 3.75 3V19C3.75 19.6904 4.30964 20.25 5 20.25H21C21.4142 20.25 21.75 20.5858 21.75 21C21.75 21.4142 21.4142 21.75 21 21.75H5C3.48122 21.75 2.25 20.5188 2.25 19V3C2.25 2.58579 2.58579 2.25 3 2.25Z" fill="black"/>
<path fill-rule="evenodd" clip-rule="evenodd" d="M21.5303 8.46967C21.8232 8.76256 21.8232 9.23744 21.5303 9.53033L16.9445 14.1161C15.8706 15.1901 14.1294 15.1901 13.0555 14.1161L10.8839 11.9445C10.3957 11.4564 9.60427 11.4564 9.11612 11.9445L7.03033 14.0303C6.73744 14.3232 6.26256 14.3232 5.96967 14.0303C5.67678 13.7374 5.67678 13.2626 5.96967 12.9697L8.05546 10.8839C9.1294 9.80994 10.8706 9.80994 11.9445 10.8839L14.1161 13.0555C14.6043 13.5436 15.3957 13.5436 15.8839 13.0555L20.4697 8.46967C20.7626 8.17678 21.2374 8.17678 21.5303 8.46967Z" fill="black"/>
</svg>
