<svg width="24" height="24" viewBox="0 0 24 24" fill="none" xmlns="http://www.w3.org/2000/svg">
<path fill-rule="evenodd" clip-rule="evenodd" d="M11.5 11.9004C11.5 12.1765 11.7239 12.4004 12 12.4004C12.2761 12.4004 12.5 12.1765 12.5 11.9004C12.5 11.6242 12.2761 11.4004 12 11.4004C11.7239 11.4004 11.5 11.6242 11.5 11.9004ZM10 11.9004C10 13.005 10.8954 13.9004 12 13.9004C13.1046 13.9004 14 13.005 14 11.9004C14 10.7958 13.1046 9.90039 12 9.90039C10.8954 9.90039 10 10.7958 10 11.9004Z" fill="black"/>
<path fill-rule="evenodd" clip-rule="evenodd" d="M16.25 11.9004C16.25 10.6996 15.8477 9.59481 15.1702 8.71059C14.9183 8.38179 14.9806 7.91103 15.3094 7.6591C15.6382 7.40717 16.109 7.46948 16.3609 7.79828C17.232 8.93515 17.75 10.3583 17.75 11.9004C17.75 13.5075 17.1874 14.9853 16.2491 16.1445C15.9884 16.4665 15.5162 16.5162 15.1942 16.2556C14.8723 15.995 14.8225 15.5227 15.0831 15.2008C15.8132 14.2988 16.25 13.1516 16.25 11.9004Z" fill="black"/>
<path fill-rule="evenodd" clip-rule="evenodd" d="M7.75 11.9003C7.75 10.6979 8.15331 9.59186 8.83243 8.70705C9.08463 8.37847 9.02271 7.90765 8.69413 7.65545C8.36555 7.40325 7.89473 7.46517 7.64253 7.79375C6.76936 8.93136 6.25 10.3563 6.25 11.9003C6.25 13.5062 6.81173 14.9829 7.74877 16.1418C8.00922 16.4639 8.48145 16.5139 8.80354 16.2534C9.12563 15.993 9.17561 15.5207 8.91517 15.1986C8.18611 14.297 7.75 13.1506 7.75 11.9003Z" fill="black"/>
<path fill-rule="evenodd" clip-rule="evenodd" d="M20.25 11.9004C20.25 9.60659 19.416 7.50945 18.0338 5.89279C17.7646 5.57796 17.8016 5.10453 18.1165 4.83536C18.4313 4.56618 18.9047 4.6032 19.1739 4.91803C20.7796 6.79608 21.75 9.23588 21.75 11.9004C21.75 14.6262 20.7345 17.1167 19.0623 19.0113C18.7882 19.3218 18.3143 19.3514 18.0037 19.0773C17.6931 18.8032 17.6636 18.3292 17.9377 18.0187C19.3773 16.3876 20.25 14.2468 20.25 11.9004Z" fill="black"/>
<path fill-rule="evenodd" clip-rule="evenodd" d="M3.75 11.9004C3.75 9.60676 4.58387 7.50975 5.96592 5.89313C6.23509 5.57829 6.19805 5.10486 5.88321 4.8357C5.56837 4.56654 5.09494 4.60358 4.82578 4.91842C3.22026 6.79643 2.25 9.23608 2.25 11.9004C2.25 14.6226 3.26276 17.11 4.93094 19.0036C5.20475 19.3145 5.67867 19.3445 5.98948 19.0706C6.30029 18.7968 6.33029 18.3229 6.05649 18.0121C4.62034 16.3819 3.75 14.2437 3.75 11.9004Z" fill="black"/>
</svg>
