<svg width="24" height="24" viewBox="0 0 24 24" fill="none" xmlns="http://www.w3.org/2000/svg">
<path fill-rule="evenodd" clip-rule="evenodd" d="M12 2.25C12.4142 2.25 12.75 2.58579 12.75 3V5C12.75 5.41421 12.4142 5.75 12 5.75C11.5858 5.75 11.25 5.41421 11.25 5V3C11.25 2.58579 11.5858 2.25 12 2.25Z" fill="black"/>
<path fill-rule="evenodd" clip-rule="evenodd" d="M12 18.25C12.4142 18.25 12.75 18.5858 12.75 19V21C12.75 21.4142 12.4142 21.75 12 21.75C11.5858 21.75 11.25 21.4142 11.25 21V19C11.25 18.5858 11.5858 18.25 12 18.25Z" fill="black"/>
<path fill-rule="evenodd" clip-rule="evenodd" d="M5.10577 5.10571C5.39866 4.81282 5.87354 4.81282 6.16643 5.10571L7.58064 6.51992C7.87354 6.81282 7.87354 7.28769 7.58064 7.58058C7.28775 7.87348 6.81288 7.87348 6.51998 7.58058L5.10577 6.16637C4.81288 5.87348 4.81288 5.3986 5.10577 5.10571Z" fill="black"/>
<path fill-rule="evenodd" clip-rule="evenodd" d="M16.4194 16.4194C16.7123 16.1265 17.1871 16.1265 17.48 16.4194L18.8942 17.8336C19.1871 18.1265 19.1871 18.6014 18.8942 18.8943C18.6013 19.1872 18.1265 19.1872 17.8336 18.8943L16.4194 17.4801C16.1265 17.1872 16.1265 16.7123 16.4194 16.4194Z" fill="black"/>
<path fill-rule="evenodd" clip-rule="evenodd" d="M2.25 12C2.25 11.5858 2.58579 11.25 3 11.25L5 11.25C5.41421 11.25 5.75 11.5858 5.75 12C5.75 12.4142 5.41421 12.75 5 12.75L3 12.75C2.58579 12.75 2.25 12.4142 2.25 12Z" fill="black"/>
<path fill-rule="evenodd" clip-rule="evenodd" d="M18.25 12C18.25 11.5858 18.5858 11.25 19 11.25L21 11.25C21.4142 11.25 21.75 11.5858 21.75 12C21.75 12.4142 21.4142 12.75 21 12.75L19 12.75C18.5858 12.75 18.25 12.4142 18.25 12Z" fill="black"/>
<path fill-rule="evenodd" clip-rule="evenodd" d="M5.10566 18.8943C4.81276 18.6014 4.81276 18.1265 5.10566 17.8336L6.51987 16.4194C6.81276 16.1265 7.28764 16.1265 7.58053 16.4194C7.87342 16.7123 7.87342 17.1872 7.58053 17.4801L6.16632 18.8943C5.87342 19.1872 5.39855 19.1872 5.10566 18.8943Z" fill="black"/>
<path fill-rule="evenodd" clip-rule="evenodd" d="M16.4194 7.58058C16.1265 7.28769 16.1265 6.81282 16.4194 6.51992L17.8336 5.10571C18.1265 4.81282 18.6014 4.81282 18.8943 5.10571C19.1871 5.3986 19.1871 5.87348 18.8943 6.16637L17.48 7.58058C17.1871 7.87348 16.7123 7.87348 16.4194 7.58058Z" fill="black"/>
</svg>
