<svg width="24" height="24" viewBox="0 0 24 24" fill="none" xmlns="http://www.w3.org/2000/svg">
<path fill-rule="evenodd" clip-rule="evenodd" d="M20.75 5C20.75 3.48122 19.5188 2.25 18 2.25H12C10.4812 2.25 9.25 3.48122 9.25 5V6C9.25 6.41421 9.58579 6.75 10 6.75C10.4142 6.75 10.75 6.41421 10.75 6V5C10.75 4.30964 11.3096 3.75 12 3.75H18C18.6904 3.75 19.25 4.30964 19.25 5V19C19.25 19.6904 18.6904 20.25 18 20.25H12C11.3096 20.25 10.75 19.6904 10.75 19V18C10.75 17.5858 10.4142 17.25 10 17.25C9.58579 17.25 9.25 17.5858 9.25 18V19C9.25 20.5188 10.4812 21.75 12 21.75H18C19.5188 21.75 20.75 20.5188 20.75 19V5Z" fill="black"/>
<path d="M12.5303 7.96967C12.2374 7.67678 11.7626 7.67678 11.4697 7.96967C11.1768 8.26256 11.1768 8.73744 11.4697 9.03033L13.6893 11.25H4C3.58579 11.25 3.25 11.5858 3.25 12C3.25 12.4142 3.58579 12.75 4 12.75H13.6893L11.4697 14.9697C11.1768 15.2626 11.1768 15.7374 11.4697 16.0303C11.7626 16.3232 12.2374 16.3232 12.5303 16.0303L15.3232 13.2374C16.0066 12.554 16.0066 11.446 15.3232 10.7626L12.5303 7.96967Z" fill="black"/>
</svg>
