<svg width="24" height="24" viewBox="0 0 24 24" fill="none" xmlns="http://www.w3.org/2000/svg">
<path fill-rule="evenodd" clip-rule="evenodd" d="M3.25 5C3.25 3.48122 4.48122 2.25 6 2.25H12C13.5188 2.25 14.75 3.48122 14.75 5V6C14.75 6.41421 14.4142 6.75 14 6.75C13.5858 6.75 13.25 6.41421 13.25 6V5C13.25 4.30964 12.6904 3.75 12 3.75H6C5.30964 3.75 4.75 4.30964 4.75 5V19C4.75 19.6904 5.30964 20.25 6 20.25H12C12.6904 20.25 13.25 19.6904 13.25 19V18C13.25 17.5858 13.5858 17.25 14 17.25C14.4142 17.25 14.75 17.5858 14.75 18V19C14.75 20.5188 13.5188 21.75 12 21.75H6C4.48122 21.75 3.25 20.5188 3.25 19V5Z" fill="black"/>
<path d="M17.5303 7.96967C17.2374 7.67678 16.7626 7.67678 16.4697 7.96967C16.1768 8.26256 16.1768 8.73744 16.4697 9.03033L18.6893 11.25H9C8.58579 11.25 8.25 11.5858 8.25 12C8.25 12.4142 8.58579 12.75 9 12.75H18.6893L16.4697 14.9697C16.1768 15.2626 16.1768 15.7374 16.4697 16.0303C16.7626 16.3232 17.2374 16.3232 17.5303 16.0303L20.3232 13.2374C21.0066 12.554 21.0066 11.446 20.3232 10.7626L17.5303 7.96967Z" fill="black"/>
</svg>
