<svg width="24" height="24" viewBox="0 0 24 24" fill="none" xmlns="http://www.w3.org/2000/svg">
<path fill-rule="evenodd" clip-rule="evenodd" d="M4.20645 4.31481L8.14074 3.23569C8.70147 3.08188 9.29483 3.09435 9.84861 3.27156L14.1514 4.64845C14.7052 4.82566 15.2985 4.83812 15.8593 4.68432L18.8387 3.8671C20.4299 3.43066 22 4.62812 22 6.27805V16.7921C22 18.1433 21.0967 19.3278 19.7936 19.6852L15.8593 20.7643C15.2985 20.9181 14.7052 20.9057 14.1514 20.7284L9.84861 19.3516C9.29483 19.1743 8.70147 19.1619 8.14073 19.3157L5.16129 20.1329C3.57012 20.5693 2 19.3719 2 17.7219V7.20795C2 5.85671 2.90334 4.67223 4.20645 4.31481ZM4.60323 5.76138L8.29291 4.74935C8.26512 4.82773 8.25 4.9121 8.25 5V17.7612C8.07996 17.7873 7.91099 17.8233 7.74396 17.8691L4.76452 18.6863C4.12805 18.8609 3.5 18.3819 3.5 17.7219V7.20795C3.5 6.53233 3.95167 5.94009 4.60323 5.76138ZM10.3058 17.9229C10.123 17.8644 9.93736 17.8179 9.75 17.7834V5C9.75 4.93324 9.74128 4.86851 9.72491 4.8069L13.6942 6.07708C13.877 6.13557 14.0626 6.18209 14.25 6.21663V19C14.25 19.0668 14.2587 19.1315 14.2751 19.1931L10.3058 17.9229ZM15.7071 19.2507L19.3968 18.2386C20.0483 18.0599 20.5 17.4677 20.5 16.7921V6.27805C20.5 5.61808 19.872 5.1391 19.2355 5.31367L16.256 6.13089C16.089 6.17671 15.92 6.21269 15.75 6.23885V19C15.75 19.0879 15.7349 19.1723 15.7071 19.2507Z" fill="black"/>
</svg>
