<svg width="24" height="24" viewBox="0 0 24 24" fill="none" xmlns="http://www.w3.org/2000/svg">
<path fill-rule="evenodd" clip-rule="evenodd" d="M16.7569 9.86463L20.9635 3.5547C21.4066 2.89015 20.9302 2 20.1315 2H16.0704C15.4017 2 14.7772 2.3342 14.4063 2.8906L12 6.50002L9.59372 2.8906C9.22279 2.3342 8.59832 2 7.92962 2H3.8685C3.06981 2 2.59342 2.89015 3.03645 3.5547L7.24307 9.86463C5.86348 11.1432 5 12.9707 5 15C5 18.866 8.13401 22 12 22C15.866 22 19 18.866 19 15C19 12.9707 18.1365 11.1432 16.7569 9.86463ZM13.0524 8.07858C13.9535 8.21445 14.7984 8.52211 15.5525 8.96714L19.1972 3.5H16.0704C15.9032 3.5 15.7471 3.58355 15.6544 3.72265L12.9014 7.8521L13.0524 8.07858ZM8.44752 8.96714L4.80276 3.5H7.92962C8.09679 3.5 8.25291 3.58355 8.34564 3.72265L11.2255 8.04237C10.22 8.15304 9.27866 8.47666 8.44752 8.96714ZM17.5 15C17.5 18.0376 15.0376 20.5 12 20.5C8.96243 20.5 6.5 18.0376 6.5 15C6.5 11.9624 8.96243 9.5 12 9.5C15.0376 9.5 17.5 11.9624 17.5 15Z" fill="black"/>
<path fill-rule="evenodd" clip-rule="evenodd" d="M12 16.5C12.8284 16.5 13.5 15.8284 13.5 15C13.5 14.1716 12.8284 13.5 12 13.5C11.1716 13.5 10.5 14.1716 10.5 15C10.5 15.8284 11.1716 16.5 12 16.5ZM15 15C15 16.6569 13.6569 18 12 18C10.3431 18 9 16.6569 9 15C9 13.3431 10.3431 12 12 12C13.6569 12 15 13.3431 15 15Z" fill="black"/>
</svg>
