<svg width="24" height="24" viewBox="0 0 24 24" fill="none" xmlns="http://www.w3.org/2000/svg">
<path fill-rule="evenodd" clip-rule="evenodd" d="M7.03972 17.8477C7.3093 17.623 7.6491 17.5 8 17.5H19C19.8284 17.5 20.5 16.8284 20.5 16V6C20.5 5.17157 19.8284 4.5 19 4.5H5C4.17157 4.5 3.5 5.17157 3.5 6V19.7299C3.5 20.1538 3.99443 20.3854 4.32009 20.114L7.03972 17.8477ZM8 19H19C20.6569 19 22 17.6569 22 16V6C22 4.34315 20.6569 3 19 3H5C3.34315 3 2 4.34315 2 6V19.7299C2 21.4256 3.97771 22.3519 5.28037 21.2664L8 19Z" fill="black"/>
<path fill-rule="evenodd" clip-rule="evenodd" d="M7.25 9C7.25 8.58579 7.58579 8.25 8 8.25H16C16.4142 8.25 16.75 8.58579 16.75 9C16.75 9.41421 16.4142 9.75 16 9.75H8C7.58579 9.75 7.25 9.41421 7.25 9Z" fill="black"/>
<path fill-rule="evenodd" clip-rule="evenodd" d="M7.25 13C7.25 12.5858 7.58579 12.25 8 12.25H12C12.4142 12.25 12.75 12.5858 12.75 13C12.75 13.4142 12.4142 13.75 12 13.75H8C7.58579 13.75 7.25 13.4142 7.25 13Z" fill="black"/>
</svg>
