<svg width="24" height="24" viewBox="0 0 24 24" fill="none" xmlns="http://www.w3.org/2000/svg">
<path d="M16 5.5C16.2961 5.5 16.5856 5.41235 16.8321 5.24808L19.7227 3.32101C20.0549 3.09949 20.5 3.33769 20.5 3.73704V13C20.5 13.8284 19.8284 14.5 19 14.5H18V16H19C20.6569 16 22 14.6569 22 13V3.73704C22 2.13965 20.2197 1.18686 18.8906 2.07294L16 4H9C7.34315 4 6 5.34315 6 7V8H7.5V7C7.5 6.17157 8.17157 5.5 9 5.5H16Z" fill="black"/>
<path fill-rule="evenodd" clip-rule="evenodd" d="M6.06296 18.8287C6.32893 18.6159 6.65939 18.5 7 18.5H15C15.8284 18.5 16.5 17.8284 16.5 17V11C16.5 10.1716 15.8284 9.5 15 9.5H5C4.17157 9.5 3.5 10.1716 3.5 11V19.8388C3.5 20.258 3.98497 20.4911 4.31235 20.2292L6.06296 18.8287ZM7 20H15C16.6569 20 18 18.6569 18 17V11C18 9.34315 16.6569 8 15 8H5C3.34315 8 2 9.34315 2 11V19.8388C2 21.5158 3.93986 22.4481 5.24939 21.4005L7 20Z" fill="black"/>
<path fill-rule="evenodd" clip-rule="evenodd" d="M6.25 14C6.25 13.5858 6.58579 13.25 7 13.25H13C13.4142 13.25 13.75 13.5858 13.75 14C13.75 14.4142 13.4142 14.75 13 14.75H7C6.58579 14.75 6.25 14.4142 6.25 14Z" fill="black"/>
</svg>
