<svg width="24" height="24" viewBox="0 0 24 24" fill="none" xmlns="http://www.w3.org/2000/svg">
<path d="M12 16.25C13.4648 16.25 14.7896 15.6501 15.7419 14.6825L16.8025 15.7432C15.7439 16.815 14.329 17.5343 12.75 17.7088V20.25H15C15.4142 20.25 15.75 20.5858 15.75 21C15.75 21.4142 15.4142 21.75 15 21.75H9C8.58579 21.75 8.25 21.4142 8.25 21C8.25 20.5858 8.58579 20.25 9 20.25H11.25V17.7088C7.87504 17.3357 5.25 14.4744 5.25 11C5.25 10.5858 5.58579 10.25 6 10.25C6.41421 10.25 6.75 10.5858 6.75 11C6.75 13.8995 9.10051 16.25 12 16.25Z" fill="black"/>
<path d="M18.75 11C18.75 12.3054 18.3794 13.5243 17.7378 14.5571L16.6397 13.459C17.0293 12.7255 17.25 11.8885 17.25 11C17.25 10.5858 17.5858 10.25 18 10.25C18.4142 10.25 18.75 10.5858 18.75 11Z" fill="black"/>
<path d="M10.5 9.44067V11C10.5 11.6869 11.3022 12.5 12 12.5C12.4293 12.5 12.8165 12.3196 13.0899 12.0306L14.1508 13.0914C13.6057 13.6519 12.8435 14 12 14C10.3431 14 9 12.6569 9 11V7.94067L10.5 9.44067Z" fill="black"/>
<path d="M13.5 10.3193V5C13.5 4.17157 12.8284 3.5 12 3.5C11.1716 3.5 10.5 4.17157 10.5 5V7.31934L9 5.81934V5C9 3.34315 10.3431 2 12 2C13.6569 2 15 3.34315 15 5V11C15 11.2518 14.969 11.4963 14.9106 11.7299L13.5 10.3193Z" fill="black"/>
<path fill-rule="evenodd" clip-rule="evenodd" d="M2.46967 2.46967C2.76256 2.17678 3.23744 2.17678 3.53033 2.46967L21.5303 20.4697C21.8232 20.7626 21.8232 21.2374 21.5303 21.5303C21.2374 21.8232 20.7626 21.8232 20.4697 21.5303L2.46967 3.53033C2.17678 3.23744 2.17678 2.76256 2.46967 2.46967Z" fill="black"/>
</svg>
