<svg width="24" height="24" viewBox="0 0 24 24" fill="none" xmlns="http://www.w3.org/2000/svg">
<path fill-rule="evenodd" clip-rule="evenodd" d="M8 2.25C7.79289 2.25 7.60539 2.33395 7.46967 2.46967C7.33395 2.60539 7.25 2.79289 7.25 3V10C7.25 10.0607 7.25722 10.1198 7.27084 10.1763C6.82568 10.2983 6.40519 10.5341 6.05546 10.8838L2.76256 14.1767C2.43437 14.5049 2.25 14.95 2.25 15.4142V19.9999C2.25 20.9664 3.0335 21.7499 4 21.7499H20C20.9665 21.7499 21.75 20.9664 21.75 19.9999V17.4142C21.75 16.95 21.5656 16.5049 21.2374 16.1767L18.9445 13.8838C17.8706 12.8099 16.1294 12.8099 15.0555 13.8838L14 14.9393L9.94454 10.8838C9.59481 10.5341 9.17432 10.2983 8.72916 10.1763C8.74278 10.1198 8.75 10.0607 8.75 10V7.75H14C14.2599 7.75 14.5013 7.61541 14.638 7.3943C14.7746 7.17319 14.7871 6.89708 14.6708 6.66459L13.8385 5L14.6708 3.33541C14.7871 3.10292 14.7746 2.82681 14.638 2.6057C14.5013 2.38459 14.2599 2.25 14 2.25H8ZM12.7865 6.25H8.75V3.75H12.7865L12.3292 4.66459C12.2236 4.87574 12.2236 5.12426 12.3292 5.33541L12.7865 6.25ZM3.82322 15.2374L7.11612 11.9445C7.60427 11.4563 8.39573 11.4563 8.88388 11.9445L13.4697 16.5303C13.7626 16.8232 14.2374 16.8232 14.5303 16.5303L16.1161 14.9445C16.6043 14.4563 17.3957 14.4563 17.8839 14.9445L20.1768 17.2374C20.2237 17.2843 20.25 17.3479 20.25 17.4142V19.9999C20.25 20.138 20.1381 20.2499 20 20.2499H4C3.86193 20.2499 3.75 20.138 3.75 19.9999V15.4142C3.75 15.3479 3.77634 15.2843 3.82322 15.2374Z" fill="black"/>
</svg>
