<svg width="24" height="24" viewBox="0 0 24 24" fill="none" xmlns="http://www.w3.org/2000/svg">
<path fill-rule="evenodd" clip-rule="evenodd" d="M8.75 3.5H8C7.17157 3.5 6.5 4.17157 6.5 5V19C6.5 19.8284 7.17157 20.5 8 20.5H16C16.8284 20.5 17.5 19.8284 17.5 19V5C17.5 4.17157 16.8284 3.5 16 3.5H15.25C15.25 4.19036 14.6904 4.75 14 4.75H10C9.30964 4.75 8.75 4.19036 8.75 3.5ZM16 2C17.6569 2 19 3.34315 19 5V19C19 20.6569 17.6569 22 16 22H8C6.34315 22 5 20.6569 5 19V5C5 3.34315 6.34315 2 8 2H16Z" fill="black"/>
</svg>
