<svg width="24" height="24" viewBox="0 0 24 24" fill="none" xmlns="http://www.w3.org/2000/svg">
<path fill-rule="evenodd" clip-rule="evenodd" d="M8.5061 5.17801C6.12166 6.4357 4.5 8.93823 4.5 11.8166C4.5 15.9587 7.85786 19.3166 12 19.3166C14.8783 19.3166 17.3809 17.6949 18.6386 15.3105C13.1269 15.124 8.69254 10.6897 8.5061 5.17801ZM19 13.8166C19.866 13.8166 20.6118 14.5798 20.2691 15.3752C18.8898 18.5759 15.7066 20.8166 12 20.8166C7.02944 20.8166 3 16.7871 3 11.8166C3 8.11 5.24067 4.92676 8.4414 3.54749C9.23674 3.20475 10 3.95053 10 4.81658C10 9.78715 14.0294 13.8166 19 13.8166Z" fill="black"/>
</svg>
