<svg width="24" height="24" viewBox="0 0 24 24" fill="none" xmlns="http://www.w3.org/2000/svg">
<path fill-rule="evenodd" clip-rule="evenodd" d="M17.5 15V9C17.5 5.96243 15.0376 3.5 12 3.5C8.96243 3.5 6.5 5.96243 6.5 9V15C6.5 18.0376 8.96243 20.5 12 20.5C15.0376 20.5 17.5 18.0376 17.5 15ZM12 2C8.13401 2 5 5.13401 5 9V15C5 18.866 8.13401 22 12 22C15.866 22 19 18.866 19 15V9C19 5.13401 15.866 2 12 2Z" fill="black"/>
<path fill-rule="evenodd" clip-rule="evenodd" d="M12 6.25C12.4142 6.25 12.75 6.58579 12.75 7L12.75 10C12.75 10.4142 12.4142 10.75 12 10.75C11.5858 10.75 11.25 10.4142 11.25 10L11.25 7C11.25 6.58579 11.5858 6.25 12 6.25Z" fill="black"/>
</svg>
