<svg width="24" height="24" viewBox="0 0 24 24" fill="none" xmlns="http://www.w3.org/2000/svg">
<path fill-rule="evenodd" clip-rule="evenodd" d="M6 5C6 3.34315 7.34315 2 9 2H19C20.6569 2 22 3.34315 22 5V15C22 16.6569 20.6569 18 19 18H18V19C18 20.6569 16.6569 22 15 22H5C3.34315 22 2 20.6569 2 19V9C2 7.34315 3.34315 6 5 6H6V5ZM9 3.5H19C19.8284 3.5 20.5 4.17157 20.5 5V15C20.5 15.8284 19.8284 16.5 19 16.5H9C8.17157 16.5 7.5 15.8284 7.5 15V5C7.5 4.17157 8.17157 3.5 9 3.5ZM6 7.5H5C4.17157 7.5 3.5 8.17157 3.5 9V19C3.5 19.8284 4.17157 20.5 5 20.5H15C15.8284 20.5 16.5 19.8284 16.5 19V18H9C7.34315 18 6 16.6569 6 15V7.5Z" fill="black"/>
<path fill-rule="evenodd" clip-rule="evenodd" d="M17.5303 7.46967C17.8232 7.76256 17.8232 8.23744 17.5303 8.53033L13.5303 12.5303C13.2374 12.8232 12.7626 12.8232 12.4697 12.5303L10.4697 10.5303C10.1768 10.2374 10.1768 9.76256 10.4697 9.46967C10.7626 9.17678 11.2374 9.17678 11.5303 9.46967L13 10.9393L16.4697 7.46967C16.7626 7.17678 17.2374 7.17678 17.5303 7.46967Z" fill="black"/>
</svg>
