<svg width="24" height="24" viewBox="0 0 24 24" fill="none" xmlns="http://www.w3.org/2000/svg">
<path fill-rule="evenodd" clip-rule="evenodd" d="M12.5 6.30485C12.5 4.94569 13.4138 3.75634 14.727 3.40614L16.3544 2.97217C18.1946 2.48144 20 3.86846 20 5.773C20 7.08626 19.1171 8.23545 17.8482 8.57383L14 9.60001V17C14 19.2091 12.2091 21 10 21C7.79086 21 6 19.2091 6 17C6 14.7909 7.79086 13 10 13C10.9459 13 11.8152 13.3284 12.5 13.8773V6.30485ZM15.1135 4.85549L16.7409 4.42152C17.6289 4.18473 18.5 4.85401 18.5 5.773C18.5 6.40668 18.074 6.9612 17.4617 7.12448L14 8.04759V6.30485C14 5.62527 14.4569 5.0306 15.1135 4.85549ZM10 14.5C11.3807 14.5 12.5 15.6193 12.5 17C12.5 18.3807 11.3807 19.5 10 19.5C8.61929 19.5 7.5 18.3807 7.5 17C7.5 15.6193 8.61929 14.5 10 14.5Z" fill="black"/>
</svg>
