<svg width="24" height="24" viewBox="0 0 24 24" fill="none" xmlns="http://www.w3.org/2000/svg">
<path fill-rule="evenodd" clip-rule="evenodd" d="M6.76053 18.0476L14.8436 13.2929C15.8296 12.7129 15.8296 11.2871 14.8436 10.7071L6.76053 5.95234C5.76058 5.36414 4.5 6.08512 4.5 7.24524V16.7547C4.5 17.9149 5.76058 18.6359 6.76053 18.0476ZM15.6041 14.5858C17.5761 13.4258 17.5761 10.5741 15.6041 9.41419L7.52106 4.65944C5.52116 3.48303 3 4.925 3 7.24524V16.7547C3 19.075 5.52116 20.517 7.52106 19.3405L15.6041 14.5858Z" fill="black"/>
<path fill-rule="evenodd" clip-rule="evenodd" d="M20 4.25C20.4142 4.25 20.75 4.58579 20.75 5V19C20.75 19.4142 20.4142 19.75 20 19.75C19.5858 19.75 19.25 19.4142 19.25 19V5C19.25 4.58579 19.5858 4.25 20 4.25Z" fill="black"/>
</svg>
