<svg width="24" height="24" viewBox="0 0 24 24" fill="none" xmlns="http://www.w3.org/2000/svg">
<path fill-rule="evenodd" clip-rule="evenodd" d="M6 3.75C5.30964 3.75 4.75 4.30964 4.75 5V19C4.75 19.6904 5.30964 20.25 6 20.25H18C18.6904 20.25 19.25 19.6904 19.25 19V12C19.25 11.5858 19.5858 11.25 20 11.25C20.4142 11.25 20.75 11.5858 20.75 12V19C20.75 20.5188 19.5188 21.75 18 21.75H6C4.48122 21.75 3.25 20.5188 3.25 19V5C3.25 3.48122 4.48122 2.25 6 2.25H12C12.4142 2.25 12.75 2.58579 12.75 3C12.75 3.41421 12.4142 3.75 12 3.75H6Z" fill="black"/>
<path fill-rule="evenodd" clip-rule="evenodd" d="M15.6066 4.12132C16.7782 2.94975 18.6777 2.94975 19.8492 4.12132C21.0208 5.2929 21.0208 7.19239 19.8492 8.36397L12.3068 15.9064C12.1538 16.0594 11.9553 16.1587 11.7411 16.1893L8.44125 16.6607C7.78128 16.755 7.2156 16.1893 7.30988 15.5293L7.78128 12.2295C7.81188 12.0153 7.91113 11.8168 8.06412 11.6638L15.6066 4.12132ZM16.844 9.24788L11.364 14.7279L8.88908 15.0815L9.24264 12.6066L14.7227 7.12656L16.844 9.24788ZM17.9047 8.18722L18.7886 7.30331C19.3744 6.71752 19.3744 5.76777 18.7886 5.18198C18.2028 4.5962 17.253 4.5962 16.6673 5.18199L15.7833 6.0659L17.9047 8.18722Z" fill="black"/>
</svg>
