<svg width="24" height="24" viewBox="0 0 24 24" fill="none" xmlns="http://www.w3.org/2000/svg">
<path d="M5 6.5H15C15.8284 6.5 16.5 7.17157 16.5 8V9H18V8C18 6.34315 16.6569 5 15 5H5C3.34315 5 2 6.34315 2 8V12C2 13.6569 3.34315 15 5 15H6V13.5H5C4.17157 13.5 3.5 12.8284 3.5 12V8C3.5 7.17157 4.17157 6.5 5 6.5Z" fill="black"/>
<path fill-rule="evenodd" clip-rule="evenodd" d="M19 10.5H9C8.17157 10.5 7.5 11.1716 7.5 12V16C7.5 16.8284 8.17157 17.5 9 17.5H19C19.8284 17.5 20.5 16.8284 20.5 16V12C20.5 11.1716 19.8284 10.5 19 10.5ZM9 9C7.34315 9 6 10.3431 6 12V16C6 17.6569 7.34315 19 9 19H19C20.6569 19 22 17.6569 22 16V12C22 10.3431 20.6569 9 19 9H9Z" fill="black"/>
<path fill-rule="evenodd" clip-rule="evenodd" d="M14 14.5C14.2761 14.5 14.5 14.2761 14.5 14C14.5 13.7239 14.2761 13.5 14 13.5C13.7239 13.5 13.5 13.7239 13.5 14C13.5 14.2761 13.7239 14.5 14 14.5ZM14 16C15.1046 16 16 15.1046 16 14C16 12.8954 15.1046 12 14 12C12.8954 12 12 12.8954 12 14C12 15.1046 12.8954 16 14 16Z" fill="black"/>
<circle cx="10" cy="14" r="1" fill="black"/>
<circle cx="18" cy="14" r="1" fill="black"/>
</svg>
