<svg width="24" height="24" viewBox="0 0 24 24" fill="none" xmlns="http://www.w3.org/2000/svg">
<path d="M20.3787 16.5L19.5251 15.6464C18.8687 14.9901 18.5 14.0998 18.5 13.1716L18.5 9.97067C18.5 6.39702 15.603 3.5 12.0293 3.5C10.5282 3.5 9.14675 4.01108 8.04917 4.86852L6.98202 3.80136C8.35632 2.67565 10.1137 2 12.0293 2C16.4314 2 20 5.56859 20 9.97067L20 13.1716C20 13.702 20.2107 14.2107 20.5858 14.5858L21.5858 15.5858C21.851 15.851 22 16.2107 22 16.5858C22 17.1897 21.6214 17.7052 21.0886 17.908L19.6807 16.5H20.3787Z" fill="black"/>
<path fill-rule="evenodd" clip-rule="evenodd" d="M3.64147 16.5H17.5593L19.0593 18H16C16 20.2091 14.2091 22 12 22C9.79086 22 8 20.2091 8 18H3.40408C2.62863 18 2 17.3714 2 16.5959C2 16.2151 2.15471 15.8506 2.42864 15.586L3.45759 14.5922C3.84928 14.2139 4.06977 13.6922 4.06814 13.1476L4.05867 9.9946C4.0528 8.03908 4.75153 6.24631 5.9156 4.85627L6.9814 5.92207C6.08734 7.03539 5.55405 8.45062 5.55867 9.9901L5.56813 13.1431C5.57099 14.0961 5.18513 15.009 4.49967 15.6711L3.64147 16.5ZM9.5 18C9.5 19.3807 10.6193 20.5 12 20.5C13.3807 20.5 14.5 19.3807 14.5 18H9.5Z" fill="black"/>
<path fill-rule="evenodd" clip-rule="evenodd" d="M2.46967 2.46967C2.76256 2.17678 3.23744 2.17678 3.53033 2.46967L21.5303 20.4697C21.8232 20.7626 21.8232 21.2374 21.5303 21.5303C21.2374 21.8232 20.7626 21.8232 20.4697 21.5303L2.46967 3.53033C2.17678 3.23744 2.17678 2.76256 2.46967 2.46967Z" fill="black"/>
</svg>
