<svg width="24" height="24" viewBox="0 0 24 24" fill="none" xmlns="http://www.w3.org/2000/svg">
<path fill-rule="evenodd" clip-rule="evenodd" d="M3.25 5C3.25 3.48122 4.48122 2.25 6 2.25H16C17.2588 2.25 18.32 3.09575 18.6465 4.25H19C20.5188 4.25 21.75 5.48122 21.75 7V8.86039C21.75 10.1713 20.8247 11.2999 19.5393 11.557L12.7549 12.9139C12.1706 13.0307 11.75 13.5438 11.75 14.1396V14.1454C12.483 14.4421 13 15.1607 13 16V20C13 21.1046 12.1046 22 11 22C9.89543 22 9 21.1046 9 20V16C9 15.1607 9.51704 14.4421 10.25 14.1454V14.1396C10.25 12.8287 11.1753 11.7001 12.4607 11.443L19.2451 10.0861C19.8294 9.96926 20.25 9.45624 20.25 8.86039V7C20.25 6.30964 19.6904 5.75 19 5.75H18.75V6C18.75 7.51878 17.5188 8.75 16 8.75H6C4.48122 8.75 3.25 7.51878 3.25 6V5ZM17.25 5C17.25 4.30964 16.6904 3.75 16 3.75H6C5.30964 3.75 4.75 4.30964 4.75 5V6C4.75 6.69036 5.30964 7.25 6 7.25H16C16.6904 7.25 17.25 6.69036 17.25 6V5ZM11.5 20V16C11.5 15.7239 11.2761 15.5 11 15.5C10.7239 15.5 10.5 15.7239 10.5 16V20C10.5 20.2761 10.7239 20.5 11 20.5C11.2761 20.5 11.5 20.2761 11.5 20Z" fill="black"/>
</svg>
