<svg width="24" height="24" viewBox="0 0 24 24" fill="none" xmlns="http://www.w3.org/2000/svg">
<path fill-rule="evenodd" clip-rule="evenodd" d="M9.88387 2.39862C10.1768 2.10573 10.6516 2.10573 10.9445 2.39862L18.7227 10.1768C18.8633 10.3174 18.9423 10.5082 18.9423 10.7071C18.9423 10.906 18.8633 11.0968 18.7227 11.2374L11.6516 18.3085C10.5776 19.3824 8.83644 19.3824 7.7625 18.3085L2.81278 13.3588C1.73884 12.2848 1.73884 10.5436 2.81279 9.46967L9.88387 2.39862ZM10.4142 3.98961L3.87344 10.5303C3.38529 11.0185 3.38528 11.8099 3.87344 12.2981L8.82316 17.2478C9.31132 17.736 10.1028 17.736 10.5909 17.2478L17.1317 10.7071L10.4142 3.98961Z" fill="black"/>
<path d="M5.35882 2.46979C5.06593 2.1769 4.59105 2.1769 4.29816 2.46979C4.00527 2.76269 4.00527 3.23756 4.29816 3.53045L9.82618 9.05847C9.6067 9.67514 9.74378 10.3903 10.2374 10.884C10.9208 11.5674 12.0289 11.5674 12.7123 10.884C13.3957 10.2005 13.3957 9.09249 12.7123 8.40908C12.2187 7.91545 11.5035 7.77837 10.8868 7.99782L5.35882 2.46979Z" fill="black"/>
<path fill-rule="evenodd" clip-rule="evenodd" d="M20.9515 17.0252C20.9512 17.0248 20.9509 17.0243 20.9504 17.0237C20.9209 16.9843 20.5276 16.4588 20.043 15.8317C19.7304 15.4272 19.3798 14.9804 19.0643 14.5946C18.8014 14.273 18.3205 14.2731 18.0577 14.5948C17.2362 15.6006 16.1738 17.023 16.1738 17.023L16.1713 17.0261C15.7513 17.5501 15.5 18.2153 15.5 18.9391C15.5 20.6296 16.8704 22 18.5609 22C20.2513 22 21.6217 20.6296 21.6217 18.9391C21.6217 18.7522 21.605 18.5693 21.5729 18.3916C21.4809 17.8822 21.2629 17.4166 20.9522 17.0283C20.9518 17.0278 20.9514 17.0274 20.9511 17.0269C20.9508 17.0266 20.9506 17.0264 20.9504 17.0261H20.9522C20.9522 17.0261 20.952 17.0258 20.9515 17.0252ZM17.3417 17.9643L17.3436 17.9619C17.3545 17.9484 17.3652 17.9346 17.3756 17.9206C17.3756 17.9206 17.3756 17.9207 17.3756 17.9206L17.4209 17.8601C17.4509 17.8202 17.4948 17.7617 17.5502 17.6883C17.661 17.5414 17.8174 17.335 17.999 17.0976C18.1711 16.8727 18.3641 16.6223 18.5614 16.3698C18.7597 16.6233 18.9535 16.8745 19.1263 17.1002C19.3082 17.3379 19.4648 17.5445 19.5758 17.6915C19.6312 17.765 19.6752 17.8235 19.7052 17.8635L19.7119 17.8723C19.7333 17.9036 19.756 17.9343 19.78 17.9643C19.9945 18.2318 20.1217 18.5685 20.1217 18.9391C20.1217 19.8012 19.4229 20.5 18.5609 20.5C17.6988 20.5 17 19.8012 17 18.9391C17 18.5689 17.1276 18.2317 17.3417 17.9643Z" fill="black"/>
</svg>
