<svg width="24" height="24" viewBox="0 0 24 24" fill="none" xmlns="http://www.w3.org/2000/svg">
<path fill-rule="evenodd" clip-rule="evenodd" d="M3.25 8C3.25 4.82436 5.82436 2.25 9 2.25H19C19.4142 2.25 19.75 2.58579 19.75 3C19.75 3.41421 19.4142 3.75 19 3.75H17.75V21C17.75 21.4142 17.4142 21.75 17 21.75C16.5858 21.75 16.25 21.4142 16.25 21V3.75H12.75V21C12.75 21.4142 12.4142 21.75 12 21.75C11.5858 21.75 11.25 21.4142 11.25 21V13.75H9C5.82436 13.75 3.25 11.1756 3.25 8ZM9 3.75H11.25V12.25H9C6.65279 12.25 4.75 10.3472 4.75 8C4.75 5.65279 6.65279 3.75 9 3.75Z" fill="black"/>
</svg>
