<svg width="24" height="24" viewBox="0 0 24 24" fill="none" xmlns="http://www.w3.org/2000/svg">
<path fill-rule="evenodd" clip-rule="evenodd" d="M11.269 2.28326L6.52831 7.36255C5.62185 8.33376 5.4621 9.78548 6.13568 10.9306L9.1177 16H9C7.34315 16 6 17.3431 6 19C6 20.6569 7.34315 22 9 22H15C16.6569 22 18 20.6569 18 19C18 17.3431 16.6569 16 15 16H14.8824L17.8644 10.9306C18.538 9.78548 18.3782 8.33376 17.4718 7.36255L12.7311 2.28326C12.3358 1.85968 11.6643 1.85968 11.269 2.28326ZM7.6249 8.38603L11.25 4.50199V8.14538C10.517 8.44207 10 9.16066 10 10C10 11.1046 10.8954 12 12 12C13.1046 12 14 11.1046 14 10C14 9.16066 13.483 8.44207 12.75 8.14538V4.5019L16.3752 8.38603C16.8284 8.87163 16.9083 9.59749 16.5715 10.17L13.1421 16H10.858L7.42858 10.17C7.09179 9.59749 7.17167 8.87163 7.6249 8.38603ZM7.5 19C7.5 18.1716 8.17157 17.5 9 17.5H15C15.8284 17.5 16.5 18.1716 16.5 19C16.5 19.8284 15.8284 20.5 15 20.5H9C8.17157 20.5 7.5 19.8284 7.5 19ZM12.5 10C12.5 10.2761 12.2761 10.5 12 10.5C11.7239 10.5 11.5 10.2761 11.5 10C11.5 9.72386 11.7239 9.5 12 9.5C12.2761 9.5 12.5 9.72386 12.5 10Z" fill="black"/>
</svg>
