<svg width="24" height="24" viewBox="0 0 24 24" fill="none" xmlns="http://www.w3.org/2000/svg">
<path fill-rule="evenodd" clip-rule="evenodd" d="M7 9.5C8.38071 9.5 9.5 8.38071 9.5 7C9.5 5.61929 8.38071 4.5 7 4.5C5.61929 4.5 4.5 5.61929 4.5 7C4.5 8.38071 5.61929 9.5 7 9.5ZM7 11C9.20914 11 11 9.20914 11 7C11 4.79086 9.20914 3 7 3C4.79086 3 3 4.79086 3 7C3 9.20914 4.79086 11 7 11Z" fill="black"/>
<path fill-rule="evenodd" clip-rule="evenodd" d="M17 19.5C18.3807 19.5 19.5 18.3807 19.5 17C19.5 15.6193 18.3807 14.5 17 14.5C15.6193 14.5 14.5 15.6193 14.5 17C14.5 18.3807 15.6193 19.5 17 19.5ZM17 21C19.2091 21 21 19.2091 21 17C21 14.7909 19.2091 13 17 13C14.7909 13 13 14.7909 13 17C13 19.2091 14.7909 21 17 21Z" fill="black"/>
<path fill-rule="evenodd" clip-rule="evenodd" d="M18.45 3.39998C18.7814 3.64851 18.8486 4.11861 18.6 4.44998L6.60004 20.45C6.35152 20.7814 5.88142 20.8485 5.55004 20.6C5.21867 20.3515 5.15152 19.8814 5.40004 19.55L17.4 3.54998C17.6486 3.21861 18.1187 3.15145 18.45 3.39998Z" fill="black"/>
</svg>
