<svg width="24" height="24" viewBox="0 0 24 24" fill="none" xmlns="http://www.w3.org/2000/svg">
<path fill-rule="evenodd" clip-rule="evenodd" d="M8.72793 6.7027L7.22029 4.64684C6.96118 4.29349 6.47151 4.20344 6.10364 4.44148C3.98919 5.80965 3.25561 8.02492 4.21398 9.7655C5.10118 11.3768 6.46396 13.3426 8.54597 15.4246C10.628 17.5066 12.5938 18.8694 14.2051 19.7566C15.9457 20.715 18.1609 19.9814 19.5291 17.867C19.7672 17.4991 19.6771 17.0094 19.3238 16.7503L17.2679 15.2427C16.8144 14.9101 16.213 14.8591 15.71 15.1106L14.8906 15.5204C14.3085 15.8114 13.5234 15.9079 12.7861 15.5286C12.2252 15.24 11.3359 14.679 10.3137 13.6569C9.29163 12.6347 8.73058 11.7454 8.442 11.1845C8.0627 10.4472 8.15922 9.66206 8.45023 9.08002L8.85996 8.26057C9.11145 7.75758 9.06048 7.15618 8.72793 6.7027ZM5.28876 3.18212C2.74825 4.82598 1.44049 7.83826 2.89999 10.489C3.85252 12.219 5.29935 14.2993 7.48531 16.4853C9.67127 18.6712 11.7516 20.1181 13.4816 21.0706C16.1323 22.5301 19.1446 21.2223 20.7885 18.6818C21.4581 17.647 21.2048 16.2696 20.2108 15.5407L18.1549 14.0331C17.248 13.368 16.0452 13.266 15.0392 13.769L14.2198 14.1787C13.9825 14.2973 13.7081 14.3161 13.4723 14.1948C13.0426 13.9737 12.2812 13.503 11.3744 12.5962C10.4676 11.6894 9.99689 10.928 9.77584 10.4983C9.65451 10.2625 9.67327 9.98806 9.79187 9.75084L10.2016 8.93139C10.7046 7.92542 10.6026 6.72262 9.93754 5.81565L8.4299 3.75979C7.70101 2.76584 6.32359 2.51253 5.28876 3.18212Z" fill="black"/>
</svg>
