<svg width="24" height="24" viewBox="0 0 24 24" fill="none" xmlns="http://www.w3.org/2000/svg">
<path d="M6 6H5C3.34315 6 2 7.34315 2 9V19C2 20.6569 3.34315 22 5 22H15C16.6569 22 18 20.6569 18 19V18H16.5V19C16.5 19.8284 15.8284 20.5 15 20.5H5C4.17157 20.5 3.5 19.8284 3.5 19V9C3.5 8.17157 4.17157 7.5 5 7.5H6V6Z" fill="black"/>
<path d="M19 6.5C19 7.32843 18.3284 8 17.5 8C16.6716 8 16 7.32843 16 6.5C16 5.67157 16.6716 5 17.5 5C18.3284 5 19 5.67157 19 6.5Z" fill="black"/>
<path fill-rule="evenodd" clip-rule="evenodd" d="M6 5C6 3.34315 7.34315 2 9 2H19C20.6569 2 22 3.34315 22 5V15C22 16.6569 20.6569 18 19 18H9C7.34315 18 6 16.6569 6 15V5ZM9 3.5H19C19.8284 3.5 20.5 4.17157 20.5 5V15C20.5 15.4267 20.3219 15.8117 20.0359 16.0849C19.9749 15.8739 19.8637 15.6695 19.6959 15.4864L13.319 8.52987C12.0918 7.19102 9.96566 7.24121 8.80293 8.63649L7.5 10.2V5C7.5 4.17157 8.17157 3.5 9 3.5ZM7.5 12.5431V15C7.5 15.8284 8.17157 16.5 9 16.5L18.5901 16.5L12.2133 9.54346C11.5997 8.87403 10.5366 8.89913 9.95526 9.59677L7.5 12.5431Z" fill="black"/>
</svg>
