<svg width="24" height="24" viewBox="0 0 24 24" fill="none" xmlns="http://www.w3.org/2000/svg">
<path fill-rule="evenodd" clip-rule="evenodd" d="M18 15V14.6759C18 13.0042 17.1645 11.443 15.7735 10.5157L15.4453 10.2969C15.1671 10.1114 15 9.79917 15 9.46482V7.85078C15 7.62371 15.0773 7.4034 15.2191 7.22609L16.7809 5.27391C16.9227 5.0966 17 4.87629 17 4.64922V3C17 2.44772 16.5523 2 16 2H8C7.44772 2 7 2.44772 7 3V4.64922C7 4.87629 7.07728 5.0966 7.21913 5.27391L8.78087 7.22609C8.92272 7.4034 9 7.62371 9 7.85078V9.46482C9 9.79917 8.8329 10.1114 8.5547 10.2969L8.2265 10.5157C6.83551 11.443 6 13.0042 6 14.6759V15C6 15.5523 6.44772 16 7 16H11.25V21C11.25 21.4142 11.5858 21.75 12 21.75C12.4142 21.75 12.75 21.4142 12.75 21V16H17C17.5523 16 18 15.5523 18 15ZM14.9414 11.7637C15.8662 12.3802 16.4402 13.3969 16.4956 14.5H7.50441C7.55981 13.3969 8.13382 12.3802 9.05855 11.7637L9.38675 11.5449C10.0822 11.0813 10.5 10.3007 10.5 9.46482V7.85078C10.5 7.2831 10.3068 6.73233 9.95217 6.28904L8.5 4.47383V3.5H15.5V4.47383L14.0478 6.28904C13.6932 6.73233 13.5 7.2831 13.5 7.85078V9.46482C13.5 10.3007 13.9178 11.0813 14.6132 11.5449L14.9414 11.7637Z" fill="black"/>
</svg>
