<svg width="24" height="24" viewBox="0 0 24 24" fill="none" xmlns="http://www.w3.org/2000/svg">
<path fill-rule="evenodd" clip-rule="evenodd" d="M12.3308 2.29012C14.9341 2.17023 17.5839 3.10053 19.092 5.03956C22.9657 10.02 19.2075 16.75 14 16.75C12.749 16.75 11.7889 16.4755 11.0704 16.0007C10.6439 15.7189 10.3236 15.3804 10.0852 15.0223L8.17803 21.2206C8.05621 21.6165 7.63652 21.8387 7.24063 21.7169C6.84473 21.595 6.62254 21.1754 6.74436 20.7795L10.7444 7.77946C10.8662 7.38357 11.2859 7.16138 11.6818 7.28319C12.0777 7.40501 12.2999 7.8247 12.178 8.22059L10.9614 12.1748C10.9583 12.1946 10.9542 12.2233 10.9499 12.2598C10.9396 12.3468 10.9285 12.4757 10.927 12.632C10.9241 12.9498 10.9615 13.3518 11.1053 13.7389C11.2456 14.1168 11.4848 14.4767 11.8973 14.7492C12.3139 15.0245 12.967 15.25 14 15.25C17.9285 15.25 21.0343 9.97998 17.908 5.96047C16.7754 4.50435 14.6558 3.68463 12.3998 3.78853C10.162 3.89159 7.92899 4.90035 6.58518 6.91607C5.70522 8.236 5.61661 9.51299 5.88121 10.4918C6.15836 11.517 6.78833 12.136 7.25707 12.2855C7.6517 12.4113 7.8696 12.8333 7.74376 13.2279C7.61792 13.6225 7.19599 13.8404 6.80135 13.7146C5.70213 13.3641 4.79808 12.233 4.43319 10.8832C4.05575 9.48705 4.21708 7.76404 5.3371 6.08401C6.99333 3.59968 9.70941 2.41085 12.3308 2.29012Z" fill="black"/>
</svg>
