<svg width="24" height="24" viewBox="0 0 24 24" fill="none" xmlns="http://www.w3.org/2000/svg">
<path d="M12.118 14.715C12.5086 15.1055 13.1417 15.1055 13.5322 14.715C13.9228 14.3245 13.9228 13.6913 13.5322 13.3008C13.1417 12.9103 12.5086 12.9103 12.118 13.3008C11.7275 13.6913 11.7275 14.3245 12.118 14.715Z" fill="black"/>
<path fill-rule="evenodd" clip-rule="evenodd" d="M3.56388 19.1729L8.32408 4.95883C8.85022 3.38774 10.5647 2.52116 12.0395 3.27618C13.8872 4.22206 15.5818 5.45264 17.0591 6.92807C18.5363 8.4035 19.769 10.0966 20.7171 11.9431C21.474 13.417 20.6095 15.1325 19.0391 15.6606L4.83092 20.4382C4.04809 20.7015 3.30161 19.956 3.56388 19.1729ZM11.356 4.61138C13.065 5.48632 14.6326 6.62461 15.9991 7.98938C17.3655 9.35415 18.5057 10.9203 19.3828 12.6283C19.6496 13.148 19.4151 13.9517 18.561 14.2389L17.5462 14.5801C16.7491 12.7867 15.6269 11.1512 14.2323 9.75829C12.8377 8.36538 11.2008 7.24525 9.40648 6.4503L9.74644 5.43517C10.0326 4.58071 10.836 4.34516 11.356 4.61138ZM16.1175 15.0605L5.30548 18.6961L6.26449 15.8325C7.42497 16.5724 8.98313 16.4356 9.99659 15.4222C11.1682 14.2506 11.1682 12.3511 9.99659 11.1795C9.47152 10.6544 8.80025 10.3647 8.11381 10.3103L8.92782 7.87961C10.5035 8.59611 11.9419 9.59072 13.1723 10.8196C14.4027 12.0485 15.3991 13.4857 16.1175 15.0605ZM6.81461 14.3615C6.80003 14.3469 6.78582 14.3321 6.77197 14.3171L7.60656 11.825C8.07424 11.7402 8.5744 11.8786 8.93593 12.2402C9.52172 12.826 9.52172 13.7757 8.93593 14.3615C8.35014 14.9473 7.4004 14.9473 6.81461 14.3615Z" fill="black"/>
</svg>
