<svg width="24" height="24" viewBox="0 0 24 24" fill="none" xmlns="http://www.w3.org/2000/svg">
<path fill-rule="evenodd" clip-rule="evenodd" d="M14 6.34238C14 4.96578 14.9369 3.76583 16.2724 3.43195L18.3837 2.90413C20.2206 2.4449 22 3.83422 22 5.72766C22 7.06316 21.0911 8.22728 19.7955 8.55119L15.5 9.62505V17C15.5 19.2091 13.7091 21 11.5 21C9.29086 21 7.5 19.2091 7.5 17C7.5 14.7909 9.29086 13 11.5 13C12.4459 13 13.3152 13.3284 14 13.8773V6.34238ZM16.6362 4.88717L18.7475 4.35934C19.6377 4.1368 20.5 4.81007 20.5 5.72766C20.5 6.37486 20.0595 6.939 19.4317 7.09597L15.5 8.07889V6.34238C15.5 5.65408 15.9684 5.0541 16.6362 4.88717ZM11.5 14.5C12.8807 14.5 14 15.6193 14 17C14 18.3807 12.8807 19.5 11.5 19.5C10.1193 19.5 9 18.3807 9 17C9 15.6193 10.1193 14.5 11.5 14.5Z" fill="black"/>
<path fill-rule="evenodd" clip-rule="evenodd" d="M2.25 6C2.25 5.58579 2.58579 5.25 3 5.25H11C11.4142 5.25 11.75 5.58579 11.75 6C11.75 6.41421 11.4142 6.75 11 6.75H3C2.58579 6.75 2.25 6.41421 2.25 6Z" fill="black"/>
<path fill-rule="evenodd" clip-rule="evenodd" d="M2.25 10C2.25 9.58579 2.58579 9.25 3 9.25H11C11.4142 9.25 11.75 9.58579 11.75 10C11.75 10.4142 11.4142 10.75 11 10.75H3C2.58579 10.75 2.25 10.4142 2.25 10Z" fill="black"/>
<path fill-rule="evenodd" clip-rule="evenodd" d="M2.25 14C2.25 13.5858 2.58579 13.25 3 13.25H6C6.41421 13.25 6.75 13.5858 6.75 14C6.75 14.4142 6.41421 14.75 6 14.75H3C2.58579 14.75 2.25 14.4142 2.25 14Z" fill="black"/>
</svg>
