<svg width="24" height="24" viewBox="0 0 24 24" fill="none" xmlns="http://www.w3.org/2000/svg">
<path fill-rule="evenodd" clip-rule="evenodd" d="M12 20.5C16.6944 20.5 20.5 16.6944 20.5 12C20.5 7.30558 16.6944 3.5 12 3.5C7.30558 3.5 3.5 7.30558 3.5 12C3.5 16.6944 7.30558 20.5 12 20.5ZM12 22C17.5228 22 22 17.5228 22 12C22 6.47715 17.5228 2 12 2C6.47715 2 2 6.47715 2 12C2 17.5228 6.47715 22 12 22Z" fill="black"/>
<path fill-rule="evenodd" clip-rule="evenodd" d="M10.25 14.9689L14.6423 12.433C14.9756 12.2405 14.9756 11.7594 14.6423 11.567L10.25 9.03106C9.91667 8.83861 9.5 9.07917 9.5 9.46408L9.5 14.5359C9.5 14.9208 9.91667 15.1613 10.25 14.9689ZM15.3923 13.732C16.7256 12.9622 16.7256 11.0377 15.3923 10.2679L11 7.73202C9.66667 6.96222 8 7.92448 8 9.46408V14.5359C8 16.0755 9.66667 17.0377 11 16.2679L15.3923 13.732Z" fill="black"/>
</svg>
