<svg width="24" height="24" viewBox="0 0 24 24" fill="none" xmlns="http://www.w3.org/2000/svg">
<path fill-rule="evenodd" clip-rule="evenodd" d="M2 2C1.58579 2 1.25 2.33579 1.25 2.75C1.25 3.16421 1.58579 3.5 2 3.5V13C2 14.6569 3.34315 16 5 16H11.25V16.6893L7.46967 20.4697C7.17678 20.7626 7.17678 21.2374 7.46967 21.5303C7.76256 21.8232 8.23744 21.8232 8.53033 21.5303L11.25 18.8107V20C11.25 20.4142 11.5858 20.75 12 20.75C12.4142 20.75 12.75 20.4142 12.75 20V18.8107L15.4697 21.5303C15.7626 21.8232 16.2374 21.8232 16.5303 21.5303C16.8232 21.2374 16.8232 20.7626 16.5303 20.4697L12.75 16.6893V16H19C20.6569 16 22 14.6569 22 13V3.5C22.4142 3.5 22.75 3.16421 22.75 2.75C22.75 2.33579 22.4142 2 22 2H2ZM20.5 3.5H3.5V13C3.5 13.8284 4.17157 14.5 5 14.5H19C19.8284 14.5 20.5 13.8284 20.5 13V3.5Z" fill="black"/>
<path fill-rule="evenodd" clip-rule="evenodd" d="M9 7.75C8.30964 7.75 7.75 8.30964 7.75 9C7.75 9.69036 8.30964 10.25 9 10.25C9.69036 10.25 10.25 9.69036 10.25 9C10.25 8.30964 9.69036 7.75 9 7.75ZM6.25 9C6.25 7.48122 7.48122 6.25 9 6.25C10.5188 6.25 11.75 7.48122 11.75 9C11.75 10.5188 10.5188 11.75 9 11.75C7.48122 11.75 6.25 10.5188 6.25 9Z" fill="black"/>
<path fill-rule="evenodd" clip-rule="evenodd" d="M14.25 7.25C14.25 6.83579 14.5858 6.5 15 6.5H17C17.4142 6.5 17.75 6.83579 17.75 7.25C17.75 7.66421 17.4142 8 17 8H15C14.5858 8 14.25 7.66421 14.25 7.25Z" fill="black"/>
<path fill-rule="evenodd" clip-rule="evenodd" d="M14.25 10.75C14.25 10.3358 14.5858 10 15 10H17C17.4142 10 17.75 10.3358 17.75 10.75C17.75 11.1642 17.4142 11.5 17 11.5H15C14.5858 11.5 14.25 11.1642 14.25 10.75Z" fill="black"/>
</svg>
