<svg width="24" height="24" viewBox="0 0 24 24" fill="none" xmlns="http://www.w3.org/2000/svg">
<path fill-rule="evenodd" clip-rule="evenodd" d="M17.2395 18.0476L9.15639 13.2929C8.17043 12.7129 8.17043 11.2871 9.15639 10.7071L17.2395 5.95234C18.2394 5.36414 19.5 6.08512 19.5 7.24524V16.7547C19.5 17.9149 18.2394 18.6359 17.2395 18.0476ZM8.39586 14.5858C6.42395 13.4258 6.42395 10.5741 8.39586 9.41419L16.4789 4.65944C18.4788 3.48303 21 4.925 21 7.24524V16.7547C21 19.075 18.4788 20.517 16.4789 19.3405L8.39586 14.5858Z" fill="black"/>
<path fill-rule="evenodd" clip-rule="evenodd" d="M4 4.25C3.58579 4.25 3.25 4.58579 3.25 5V19C3.25 19.4142 3.58579 19.75 4 19.75C4.41421 19.75 4.75 19.4142 4.75 19V5C4.75 4.58579 4.41421 4.25 4 4.25Z" fill="black"/>
</svg>
