<svg width="24" height="24" viewBox="0 0 24 24" fill="none" xmlns="http://www.w3.org/2000/svg">
<path d="M19 11C19 11.5523 18.5523 12 18 12C17.4477 12 17 11.5523 17 11C17 10.4477 17.4477 10 18 10C18.5523 10 19 10.4477 19 11Z" fill="black"/>
<path fill-rule="evenodd" clip-rule="evenodd" d="M7 5V7H5C3.34315 7 2 8.34315 2 10V16C2 17.6569 3.34315 19 5 19H7C7 20.6569 8.34315 22 10 22H14C15.6569 22 17 20.6569 17 19H19C20.6569 19 22 17.6569 22 16V10C22 8.34315 20.6569 7 19 7H17V5C17 3.34315 15.6569 2 14 2H10C8.34315 2 7 3.34315 7 5ZM14 3.5H10C9.17157 3.5 8.5 4.17157 8.5 5V7H15.5V5C15.5 4.17157 14.8284 3.5 14 3.5ZM19 8.5C19.8284 8.5 20.5 9.17157 20.5 10V16C20.5 16.8284 19.8284 17.5 19 17.5H17V15.5C17.4142 15.5 17.75 15.1642 17.75 14.75C17.75 14.3358 17.4142 14 17 14H7C6.58579 14 6.25 14.3358 6.25 14.75C6.25 15.1642 6.58579 15.5 7 15.5V17.5H5C4.17157 17.5 3.5 16.8284 3.5 16V10C3.5 9.17157 4.17157 8.5 5 8.5H19ZM8.5 15.5H15.5V19C15.5 19.8284 14.8284 20.5 14 20.5H10C9.17157 20.5 8.5 19.8284 8.5 19V15.5Z" fill="black"/>
</svg>
