<svg width="24" height="24" viewBox="0 0 24 24" fill="none" xmlns="http://www.w3.org/2000/svg">
<path fill-rule="evenodd" clip-rule="evenodd" d="M12 13C13.6569 13 15 11.6569 15 10C15 8.34315 13.6569 7 12 7C10.3431 7 9 8.34315 9 10C9 11.6569 10.3431 13 12 13ZM12 11.5C12.8284 11.5 13.5 10.8284 13.5 10C13.5 9.17157 12.8284 8.5 12 8.5C11.1716 8.5 10.5 9.17157 10.5 10C10.5 10.8284 11.1716 11.5 12 11.5Z" fill="black"/>
<path fill-rule="evenodd" clip-rule="evenodd" d="M18.3923 18.143C19.8604 16.5385 21 14.4908 21 12V6.66223C21 5.37094 20.1737 4.22452 18.9487 3.81618L12.9487 1.81618C12.3329 1.61091 11.6671 1.61092 11.0513 1.81618L5.05132 3.81618C3.82629 4.22452 3 5.37094 3 6.66223V12C3 14.4908 4.13955 16.5385 5.60768 18.143C5.98002 18.5499 6.37348 18.9284 6.77486 19.2783C8.28673 20.5963 9.91076 21.5099 10.9399 22.0191C11.6125 22.3519 12.3875 22.3519 13.0601 22.0191C14.0892 21.5099 15.7133 20.5963 17.2251 19.2782C17.6265 18.9283 18.02 18.5499 18.3923 18.143ZM11.5257 3.23921L5.52566 5.23921C4.91314 5.44338 4.5 6.01659 4.5 6.66223V12C4.5 13.8404 5.27082 15.4324 6.4107 16.7851C7.68846 15.0934 9.71654 14 12 14C14.2835 14 16.3115 15.0934 17.5893 16.7851C18.7292 15.4324 19.5 13.8404 19.5 12V6.66223C19.5 6.01658 19.0869 5.44338 18.4743 5.23921L12.4743 3.23921C12.1664 3.13657 11.8336 3.13657 11.5257 3.23921ZM16.533 17.8844C15.5413 16.4441 13.8809 15.5 12 15.5C10.1191 15.5 8.45874 16.4441 7.46697 17.8844C8.91869 19.2237 10.5659 20.1605 11.6051 20.6747C11.8585 20.8 12.1415 20.8 12.3949 20.6747C13.4341 20.1605 15.0813 19.2237 16.533 17.8844Z" fill="black"/>
</svg>
