<svg width="24" height="24" viewBox="0 0 24 24" fill="none" xmlns="http://www.w3.org/2000/svg">
<path fill-rule="evenodd" clip-rule="evenodd" d="M10.2163 2.53468C11.2441 1.65877 12.7558 1.65877 13.7837 2.53468L15.0551 3.61822C15.2553 3.78883 15.5043 3.89194 15.7665 3.91286L17.4317 4.04575C18.7779 4.15317 19.8468 5.22213 19.9542 6.56828L20.0871 8.23352C20.108 8.49573 20.2112 8.74465 20.3818 8.94486L21.4653 10.2163C22.3412 11.2442 22.3412 12.7559 21.4653 13.7837L20.3818 15.0552C20.2112 15.2554 20.108 15.5043 20.0871 15.7665L19.9542 17.4318C19.8468 18.7779 18.7779 19.8469 17.4317 19.9543L15.7665 20.0872C15.5043 20.1081 15.2553 20.2112 15.0551 20.3818L13.7837 21.4654C12.7558 22.3413 11.2441 22.3413 10.2163 21.4654L8.9448 20.3818C8.74459 20.2112 8.49567 20.1081 8.23346 20.0872L6.56822 19.9543C5.22207 19.8469 4.15311 18.7779 4.04569 17.4318L3.9128 15.7665C3.89188 15.5043 3.78877 15.2554 3.61816 15.0552L2.53462 13.7837C1.65871 12.7559 1.65871 11.2442 2.53462 10.2163L3.61816 8.94486C3.78877 8.74465 3.89188 8.49573 3.9128 8.23352L4.04569 6.56828C4.15311 5.22213 5.22207 4.15317 6.56822 4.04575L8.23346 3.91286C8.49567 3.89194 8.74459 3.78883 8.9448 3.61822L10.2163 2.53468ZM12.8107 3.67635C12.3435 3.27821 11.6564 3.27821 11.1892 3.67635L9.91772 4.75989C9.47727 5.13524 8.92964 5.36208 8.35278 5.40811L6.68754 5.541C6.07565 5.58983 5.58977 6.07571 5.54094 6.6876L5.40805 8.35284C5.36202 8.9297 5.13518 9.47733 4.75983 9.91778L3.67629 11.1892C3.27815 11.6564 3.27815 12.3436 3.67629 12.8108L4.75983 14.0823C5.13518 14.5227 5.36202 15.0703 5.40805 15.6472L5.54094 17.3124C5.58977 17.9243 6.07565 18.4102 6.68754 18.459L8.35278 18.5919C8.92964 18.638 9.47727 18.8648 9.91772 19.2402L11.1892 20.3237C11.6564 20.7218 12.3435 20.7218 12.8107 20.3237L14.0822 19.2402C14.5226 18.8648 15.0703 18.638 15.6471 18.5919L17.3124 18.459C17.9243 18.4102 18.4102 17.9243 18.459 17.3124L18.5919 15.6472C18.6379 15.0703 18.8647 14.5227 19.2401 14.0823L20.3236 12.8108C20.7218 12.3436 20.7218 11.6564 20.3236 11.1892L19.2401 9.91778C18.8647 9.47733 18.6379 8.9297 18.5919 8.35284L18.459 6.6876C18.4102 6.07571 17.9243 5.58983 17.3124 5.541L15.6471 5.40811C15.0703 5.36208 14.5226 5.13524 14.0822 4.75989L12.8107 3.67635Z" fill="black"/>
<path d="M11 9.5C11 10.3284 10.3284 11 9.5 11C8.67157 11 8 10.3284 8 9.5C8 8.67157 8.67157 8 9.5 8C10.3284 8 11 8.67157 11 9.5Z" fill="black"/>
<path d="M16 14.5C16 15.3284 15.3284 16 14.5 16C13.6716 16 13 15.3284 13 14.5C13 13.6716 13.6716 13 14.5 13C15.3284 13 16 13.6716 16 14.5Z" fill="black"/>
<path fill-rule="evenodd" clip-rule="evenodd" d="M14.9802 8.42385C15.2984 8.68903 15.3414 9.16195 15.0762 9.48016L10.0762 15.4802C9.81101 15.7984 9.33809 15.8414 9.01988 15.5762C8.70167 15.311 8.65868 14.8381 8.92385 14.5199L13.9239 8.51988C14.189 8.20167 14.6619 8.15868 14.9802 8.42385Z" fill="black"/>
</svg>
