<svg width="24" height="24" viewBox="0 0 24 24" fill="none" xmlns="http://www.w3.org/2000/svg">
<path fill-rule="evenodd" clip-rule="evenodd" d="M10.25 5C10.25 3.48122 11.4812 2.25 13 2.25C14.5188 2.25 15.75 3.48122 15.75 5C15.75 5.08422 15.7462 5.16761 15.7387 5.25H19C19.9665 5.25 20.75 6.0335 20.75 7V11.2676C20.75 11.5356 20.6069 11.7833 20.3747 11.9172C20.1425 12.0512 19.8565 12.051 19.6245 11.9168C19.4414 11.8109 19.2289 11.75 19 11.75C18.3096 11.75 17.75 12.3096 17.75 13C17.75 13.6904 18.3096 14.25 19 14.25C19.2289 14.25 19.4414 14.1891 19.6245 14.0832C19.8565 13.949 20.1425 13.9488 20.3747 14.0828C20.6069 14.2167 20.75 14.4644 20.75 14.7324V19C20.75 19.9665 19.9665 20.75 19 20.75H14.7324C14.4644 20.75 14.2167 20.6069 14.0828 20.3747C13.9488 20.1425 13.949 19.8565 14.0832 19.6245C14.1891 19.4414 14.25 19.2289 14.25 19C14.25 18.3096 13.6904 17.75 13 17.75C12.3096 17.75 11.75 18.3096 11.75 19C11.75 19.2289 11.8109 19.4414 11.9168 19.6245C12.051 19.8565 12.0512 20.1425 11.9172 20.3747C11.7833 20.6069 11.5356 20.75 11.2676 20.75H7C6.0335 20.75 5.25 19.9665 5.25 19V15.7387C5.16761 15.7462 5.08422 15.75 5 15.75C3.48122 15.75 2.25 14.5188 2.25 13C2.25 11.4812 3.48122 10.25 5 10.25C5.08422 10.25 5.16761 10.2538 5.25 10.2613V7C5.25 6.0335 6.0335 5.25 7 5.25H10.2613C10.2538 5.16761 10.25 5.08422 10.25 5ZM13 3.75C12.3096 3.75 11.75 4.30964 11.75 5C11.75 5.22892 11.8109 5.44136 11.9168 5.62446C12.051 5.85649 12.0512 6.14252 11.9172 6.37473C11.7833 6.60693 11.5356 6.75 11.2676 6.75H7C6.86193 6.75 6.75 6.86193 6.75 7V11.2676C6.75 11.5356 6.60693 11.7833 6.37473 11.9172C6.14252 12.0512 5.85649 12.051 5.62446 11.9168C5.44136 11.8109 5.22892 11.75 5 11.75C4.30964 11.75 3.75 12.3096 3.75 13C3.75 13.6904 4.30964 14.25 5 14.25C5.22892 14.25 5.44136 14.1891 5.62446 14.0832C5.85649 13.949 6.14252 13.9488 6.37473 14.0828C6.60693 14.2167 6.75 14.4644 6.75 14.7324V19C6.75 19.1381 6.86193 19.25 7 19.25H10.2613C10.2538 19.1676 10.25 19.0842 10.25 19C10.25 17.4812 11.4812 16.25 13 16.25C14.5188 16.25 15.75 17.4812 15.75 19C15.75 19.0842 15.7462 19.1676 15.7387 19.25H19C19.1381 19.25 19.25 19.1381 19.25 19V15.7387C19.1676 15.7462 19.0842 15.75 19 15.75C17.4812 15.75 16.25 14.5188 16.25 13C16.25 11.4812 17.4812 10.25 19 10.25C19.0842 10.25 19.1676 10.2538 19.25 10.2613V7C19.25 6.86193 19.1381 6.75 19 6.75H14.7324C14.4644 6.75 14.2167 6.60693 14.0828 6.37473C13.9488 6.14252 13.949 5.85649 14.0832 5.62446C14.1891 5.44136 14.25 5.22892 14.25 5C14.25 4.30964 13.6904 3.75 13 3.75Z" fill="black"/>
</svg>
