<svg width="24" height="24" viewBox="0 0 24 24" fill="none" xmlns="http://www.w3.org/2000/svg">
<path fill-rule="evenodd" clip-rule="evenodd" d="M8.66281 15.4048C9.05065 15.5503 9.24716 15.9826 9.10172 16.3704L7.60174 20.3704C7.4563 20.7582 7.02399 20.9548 6.63615 20.8093C6.24831 20.6639 6.0518 20.2316 6.19724 19.8437L7.69723 15.8437C7.84266 15.4559 8.27497 15.2594 8.66281 15.4048Z" fill="black"/>
<path fill-rule="evenodd" clip-rule="evenodd" d="M12.6628 15.4048C13.0507 15.5503 13.2472 15.9826 13.1017 16.3704L11.6017 20.3704C11.4563 20.7582 11.024 20.9548 10.6362 20.8093C10.2483 20.6639 10.0518 20.2316 10.1972 19.8437L11.6972 15.8437C11.8427 15.4559 12.275 15.2594 12.6628 15.4048Z" fill="black"/>
<path fill-rule="evenodd" clip-rule="evenodd" d="M16.6628 15.4048C17.0507 15.5503 17.2472 15.9826 17.1017 16.3704L15.6017 20.3704C15.4563 20.7582 15.024 20.9548 14.6361 20.8093C14.2483 20.6639 14.0518 20.2316 14.1972 19.8437L15.6972 15.8437C15.8427 15.4559 16.275 15.2594 16.6628 15.4048Z" fill="black"/>
<path fill-rule="evenodd" clip-rule="evenodd" d="M8.70294 7.56461C9.6799 5.04041 12.1301 3.25 15 3.25C18.7279 3.25 21.75 6.27208 21.75 10C21.75 11.9992 20.8799 13.7962 19.5002 15.0311C19.1915 15.3073 18.7174 15.281 18.4411 14.9724C18.1649 14.6638 18.1912 14.1896 18.4998 13.9134C19.5751 12.951 20.25 11.5548 20.25 10C20.25 7.10051 17.8995 4.75 15 4.75C12.5136 4.75 10.4293 6.47913 9.8873 8.80127C9.83192 9.03853 9.66474 9.23411 9.43898 9.32574C9.21323 9.41736 8.95703 9.39362 8.75196 9.26206C8.24682 8.938 7.64651 8.75 7 8.75C5.20507 8.75 3.75 10.2051 3.75 12C3.75 13.202 4.40216 14.2526 5.37554 14.8157C5.73409 15.0231 5.85661 15.4819 5.6492 15.8404C5.4418 16.199 4.983 16.3215 4.62446 16.1141C3.20663 15.2939 2.25 13.7591 2.25 12C2.25 9.37665 4.37665 7.25 7 7.25C7.59949 7.25 8.17389 7.36137 8.70294 7.56461Z" fill="black"/>
</svg>
