<svg width="24" height="24" viewBox="0 0 24 24" fill="none" xmlns="http://www.w3.org/2000/svg">
<path fill-rule="evenodd" clip-rule="evenodd" d="M5.03972 19.3477C5.57383 18.9026 6.3438 18.8828 6.9 19.3L8 20.125L9.1 19.3C9.63333 18.9 10.3667 18.9 10.9 19.3L12 20.125L13.1 19.3C13.6333 18.9 14.3667 18.9 14.9 19.3L16 20.125L17.1 19.3C17.6562 18.8828 18.4262 18.9026 18.9603 19.3477L19.5 19.7974V4.20255L18.9603 4.65232C18.4262 5.09741 17.6562 5.11714 17.1 4.69999L16 3.87499L14.9 4.69999C14.3667 5.09999 13.6333 5.09999 13.1 4.69999L12 3.87499L10.9 4.69999C10.3667 5.09999 9.63333 5.09999 9.1 4.69999L8 3.87499L6.9 4.69999C6.3438 5.11714 5.57383 5.09741 5.03972 4.65232L4.5 4.20255V19.7974L5.03972 19.3477ZM6 3.49999L4.64018 2.36681C3.98886 1.82403 3 2.28719 3 3.13503V20.8649C3 21.7128 3.98886 22.1759 4.64018 21.6332L6 20.5L7.4 21.55C7.75556 21.8167 8.24444 21.8167 8.6 21.55L10 20.5L11.4 21.55C11.7556 21.8167 12.2444 21.8167 12.6 21.55L14 20.5L15.4 21.55C15.7556 21.8167 16.2444 21.8167 16.6 21.55L18 20.5L19.3598 21.6332C20.0111 22.1759 21 21.7128 21 20.8649V3.13503C21 2.28719 20.0111 1.82404 19.3598 2.36681L18 3.49999L16.6 2.44999C16.2444 2.18332 15.7556 2.18332 15.4 2.44999L14 3.49999L12.6 2.44999C12.2444 2.18332 11.7556 2.18332 11.4 2.44999L10 3.49999L8.6 2.44999C8.24444 2.18332 7.75556 2.18332 7.4 2.44999L6 3.49999Z" fill="black"/>
<path fill-rule="evenodd" clip-rule="evenodd" d="M7.25 10C7.25 9.58579 7.58579 9.25 8 9.25H16C16.4142 9.25 16.75 9.58579 16.75 10C16.75 10.4142 16.4142 10.75 16 10.75H8C7.58579 10.75 7.25 10.4142 7.25 10Z" fill="black"/>
<path fill-rule="evenodd" clip-rule="evenodd" d="M7.25 14C7.25 13.5858 7.58579 13.25 8 13.25H12C12.4142 13.25 12.75 13.5858 12.75 14C12.75 14.4142 12.4142 14.75 12 14.75H8C7.58579 14.75 7.25 14.4142 7.25 14Z" fill="black"/>
</svg>
