<svg width="24" height="24" viewBox="0 0 24 24" fill="none" xmlns="http://www.w3.org/2000/svg">
<path d="M3.72439 14.678C4.84491 10.4962 9.14331 8.01451 13.3251 9.13503C15.8536 9.81252 17.7235 11.6428 18.575 13.9233L16.6316 13.3965C16.2318 13.2881 15.8198 13.5244 15.7115 13.9242C15.6031 14.3239 15.8393 14.7359 16.2391 14.8443L19.4174 15.7059C19.4474 15.7161 19.4782 15.7245 19.5095 15.7308L19.9235 15.8431C20.1158 15.8952 20.321 15.8686 20.4938 15.7693C20.6665 15.6699 20.7926 15.5058 20.8441 15.3133L21.8321 11.626C21.9394 11.2259 21.7019 10.8147 21.3018 10.7075C20.9017 10.6003 20.4905 10.8377 20.3833 11.2378L19.8757 13.132C18.8197 10.546 16.6388 8.47 13.7134 7.68614C8.73134 6.3512 3.61043 9.30777 2.2755 14.2898C2.16829 14.6899 2.40573 15.1012 2.80583 15.2084C3.20593 15.3156 3.61718 15.0781 3.72439 14.678Z" fill="black"/>
</svg>
