<svg width="24" height="24" viewBox="0 0 24 24" fill="none" xmlns="http://www.w3.org/2000/svg">
<path d="M16.0303 2.96973C15.7374 2.67684 15.2626 2.67684 14.9697 2.96973C14.6768 3.26262 14.6768 3.73749 14.9697 4.03039L16.1855 5.24622H10C6.27208 5.24622 3.25 8.26829 3.25 11.9962V12.9962C3.25 13.4104 3.58579 13.7462 4 13.7462C4.41421 13.7462 4.75 13.4104 4.75 12.9962V11.9962C4.75 9.09672 7.10051 6.74622 10 6.74622H16.1902L14.9697 7.96676C14.6768 8.25966 14.6768 8.73453 14.9697 9.02742C15.2626 9.32031 15.7374 9.32031 16.0303 9.02741L18.1753 6.88244C18.6634 6.39429 18.6634 5.60284 18.1753 5.11469L16.0303 2.96973Z" fill="black"/>
<path d="M13.9985 18.75C17.7264 18.75 20.7485 15.7279 20.7485 12V11C20.7485 10.5858 20.4127 10.25 19.9985 10.25C19.5843 10.25 19.2485 10.5858 19.2485 11V12C19.2485 14.8995 16.898 17.25 13.9985 17.25H7.80828L9.02886 16.0294C9.32175 15.7365 9.32175 15.2616 9.02885 14.9687C8.73595 14.6758 8.26108 14.6758 7.96819 14.9687L5.82326 17.1137C5.33512 17.6019 5.33512 18.3933 5.82326 18.8815L7.96819 21.0264C8.26108 21.3193 8.73596 21.3193 9.02885 21.0264C9.32175 20.7335 9.32175 20.2587 9.02886 19.9658L7.81311 18.75H13.9985Z" fill="black"/>
</svg>
