<svg width="24" height="24" viewBox="0 0 24 24" fill="none" xmlns="http://www.w3.org/2000/svg">
<path d="M13.166 20H10.834C10.3603 20 9.94759 20.338 9.98729 20.81C10.0498 21.5534 10.4005 22.5925 11.8042 22.9553C11.932 22.9883 12.068 22.9883 12.1958 22.9553C13.5995 22.5925 13.9502 21.5534 14.0127 20.81C14.0524 20.338 13.6396 20 13.166 20Z" fill="black"/>
<path fill-rule="evenodd" clip-rule="evenodd" d="M13.3741 19C14.2272 19 15.018 18.6401 15.5512 18.0342L18.4453 19.9635C19.1099 20.4066 20 19.9302 20 19.1315V15C20 13.4006 18.7485 12.0936 17.1713 12.0048C17.3483 10.5085 17.3536 9.06104 16.9999 8C16.2502 5.75066 13.8139 3.22023 12.6416 2.09474C12.2802 1.74777 11.7197 1.74778 11.3583 2.09475C10.186 3.22025 7.7498 5.75068 6.99995 8C6.64305 9.07058 6.64483 10.5154 6.81925 12.0054C5.24655 12.0988 4 13.4038 4 15V19.1315C4 19.9302 4.89015 20.4066 5.5547 19.9635L8.4438 18.0375C8.9765 18.6417 9.76597 19 10.6172 19H13.3741ZM13.5051 17.4945C14.0919 17.4447 14.5444 17.0629 14.6851 16.5646C15.0267 15.3552 15.4181 13.7656 15.6317 12.2189C15.8531 10.6148 15.8478 9.28675 15.577 8.47434C15.2874 7.60573 14.6252 6.57763 13.8111 5.56686C13.1866 4.79158 12.5262 4.09129 12 3.5658C11.4738 4.09129 10.8134 4.79159 10.1889 5.56687C9.37477 6.57764 8.71253 7.60575 8.42296 8.47439C8.14632 9.30422 8.14039 10.6393 8.36132 12.2395C8.57465 13.7847 8.96734 15.3678 9.31038 16.5712C9.37921 16.8126 9.52177 17.0266 9.71774 17.1882C9.90953 17.3463 10.1524 17.4541 10.4275 17.4884C10.4892 17.496 10.5525 17.5 10.6172 17.5H13.3741C13.4184 17.5 13.4621 17.4981 13.5051 17.4945ZM16.9448 13.5C16.737 14.6458 16.4645 15.7542 16.2123 16.6721L18.5 18.1972V15C18.5 14.1716 17.8284 13.5 17 13.5H16.9448ZM7.7817 16.6761C7.5273 15.758 7.25285 14.6484 7.04466 13.5C6.21106 13.5 5.5 14.1474 5.5 15V18.1972L7.7817 16.6761Z" fill="black"/>
<path fill-rule="evenodd" clip-rule="evenodd" d="M12 10.5C12.2761 10.5 12.5 10.2761 12.5 10C12.5 9.72386 12.2761 9.5 12 9.5C11.7239 9.5 11.5 9.72386 11.5 10C11.5 10.2761 11.7239 10.5 12 10.5ZM12 12C13.1046 12 14 11.1046 14 10C14 8.89543 13.1046 8 12 8C10.8954 8 10 8.89543 10 10C10 11.1046 10.8954 12 12 12Z" fill="black"/>
</svg>
