<svg width="24" height="24" viewBox="0 0 24 24" fill="none" xmlns="http://www.w3.org/2000/svg">
<path fill-rule="evenodd" clip-rule="evenodd" d="M18.364 2.80763C17.1924 1.63606 15.2929 1.63606 14.1213 2.80763L2.80763 14.1213C1.63606 15.2929 1.63606 17.1924 2.80763 18.364L5.63606 21.1924C6.80763 22.364 8.70713 22.364 9.8787 21.1924L21.1924 9.8787C22.364 8.70713 22.364 6.80763 21.1924 5.63606L18.364 2.80763ZM20.1318 6.69672L17.3033 3.86829C16.7175 3.28251 15.7678 3.28251 15.182 3.86829L14.2981 4.75222L16.0658 6.51997C16.3587 6.81286 16.3587 7.28774 16.0658 7.58063C15.7729 7.87353 15.2981 7.87353 15.0052 7.58063L13.2374 5.81288L11.4697 7.58059L12.5303 8.64123C12.8232 8.93413 12.8232 9.409 12.5303 9.70189C12.2375 9.99479 11.7626 9.99479 11.4697 9.70189L10.409 8.64125L8.64121 10.4091L10.409 12.1768C10.7019 12.4697 10.7019 12.9446 10.409 13.2375C10.1161 13.5304 9.6412 13.5304 9.3483 13.2375L7.58055 11.4697L5.81284 13.2375L6.87349 14.2981C7.16638 14.591 7.16638 15.0659 6.87349 15.3588C6.58059 15.6516 6.10572 15.6516 5.81283 15.3588L4.75218 14.2981L3.86829 15.182C3.28251 15.7678 3.28251 16.7175 3.86829 17.3033L6.69672 20.1318C7.28251 20.7175 8.23226 20.7175 8.81804 20.1318L20.1318 8.81804C20.7175 8.23226 20.7175 7.28251 20.1318 6.69672Z" fill="black"/>
</svg>
