<svg width="24" height="24" viewBox="0 0 24 24" fill="none" xmlns="http://www.w3.org/2000/svg">
<path d="M5.25 3C5.25 2.58579 5.58579 2.25 6 2.25H18C18.4142 2.25 18.75 2.58579 18.75 3C18.75 3.41421 18.4142 3.75 18 3.75H13.1552C13.8425 4.42348 14.3454 5.28438 14.5813 6.25H18C18.4142 6.25 18.75 6.58579 18.75 7C18.75 7.41421 18.4142 7.75 18 7.75H14.7252C14.5947 10.5334 12.2967 12.75 9.48101 12.75H7.68434L13.5976 20.5468C13.8479 20.8768 13.7833 21.3473 13.4532 21.5976C13.1232 21.8479 12.6528 21.7832 12.4024 21.4532L6.29101 13.3951C5.62317 12.5146 6.25123 11.25 7.35638 11.25H9.48101C11.4681 11.25 13.0942 9.70451 13.2228 7.75H6C5.58579 7.75 5.25 7.41421 5.25 7C5.25 6.58579 5.58579 6.25 6 6.25H13.0176C12.5028 4.79351 11.1138 3.75 9.48101 3.75H6C5.58579 3.75 5.25 3.41421 5.25 3Z" fill="black"/>
</svg>
