<svg width="24" height="24" viewBox="0 0 24 24" fill="none" xmlns="http://www.w3.org/2000/svg">
<path fill-rule="evenodd" clip-rule="evenodd" d="M12 20.5C16.6944 20.5 20.5 16.6944 20.5 12C20.5 7.30558 16.6944 3.5 12 3.5C7.30558 3.5 3.5 7.30558 3.5 12C3.5 16.6944 7.30558 20.5 12 20.5ZM12 22C17.5228 22 22 17.5228 22 12C22 6.47715 17.5228 2 12 2C6.47715 2 2 6.47715 2 12C2 17.5228 6.47715 22 12 22Z" fill="black"/>
<path fill-rule="evenodd" clip-rule="evenodd" d="M7.11568 16.6873C7.49525 16.8531 7.93739 16.6798 8.10323 16.3003C8.75973 14.7977 10.2583 13.75 11.9999 13.75C13.7415 13.75 15.2401 14.7977 15.8966 16.3003C16.0624 16.6798 16.5046 16.8531 16.8842 16.6873C17.2637 16.5214 17.437 16.0793 17.2711 15.6997C16.3845 13.6705 14.359 12.25 11.9999 12.25C9.64088 12.25 7.6153 13.6705 6.7287 15.6997C6.56286 16.0793 6.73612 16.5214 7.11568 16.6873Z" fill="black"/>
<path d="M9 9C9 9.55228 8.55228 10 8 10C7.44772 10 7 9.55228 7 9C7 8.44772 7.44772 8 8 8C8.55228 8 9 8.44772 9 9Z" fill="black"/>
<path d="M17 9C17 9.55228 16.5523 10 16 10C15.4477 10 15 9.55228 15 9C15 8.44772 15.4477 8 16 8C16.5523 8 17 8.44772 17 9Z" fill="black"/>
</svg>
