<svg width="24" height="24" viewBox="0 0 24 24" fill="none" xmlns="http://www.w3.org/2000/svg">
<path fill-rule="evenodd" clip-rule="evenodd" d="M5 3C3.34315 3 2 4.34315 2 6V16C2 17.3062 2.83481 18.4175 4 18.8293V19C4 19.1726 4.02188 19.3402 4.06301 19.5C4.28503 20.3626 5.06808 21 6 21C6.93192 21 7.71497 20.3626 7.93699 19.5C7.97812 19.3402 8 19.1726 8 19H16C16 19.1726 16.0219 19.3402 16.063 19.5C16.285 20.3626 17.0681 21 18 21C18.9319 21 19.715 20.3626 19.937 19.5C19.9781 19.3402 20 19.1726 20 19V18.8293C21.1652 18.4175 22 17.3062 22 16V6C22 4.34315 20.6569 3 19 3H5ZM19 4.5H5C4.17157 4.5 3.5 5.17157 3.5 6V16C3.5 16.8284 4.17157 17.5 5 17.5H19C19.8284 17.5 20.5 16.8284 20.5 16V6C20.5 5.17157 19.8284 4.5 19 4.5Z" fill="black"/>
<path fill-rule="evenodd" clip-rule="evenodd" d="M7 8.25C7.41421 8.25 7.75 8.58579 7.75 9V13C7.75 13.4142 7.41421 13.75 7 13.75C6.58579 13.75 6.25 13.4142 6.25 13V9C6.25 8.58579 6.58579 8.25 7 8.25Z" fill="black"/>
<path fill-rule="evenodd" clip-rule="evenodd" d="M10.4697 13.4695C10.1768 13.7624 10.1768 14.2373 10.4697 14.5302C10.7626 14.8231 11.2374 14.8231 11.5303 14.5302L12.6591 13.4015C13.0558 13.6235 13.5131 13.75 14 13.75C14.4869 13.75 14.9442 13.6235 15.3409 13.4015L16.4697 14.5303C16.7626 14.8232 17.2374 14.8232 17.5303 14.5303C17.8232 14.2374 17.8232 13.7626 17.5303 13.4697L16.4015 12.3409C16.6235 11.9442 16.75 11.4869 16.75 11C16.75 10.5131 16.6235 10.0558 16.4015 9.65906L17.5302 8.53033C17.8231 8.23744 17.8231 7.76256 17.5302 7.46967C17.2373 7.17678 16.7624 7.17678 16.4695 7.46967L15.3408 8.59843C14.9441 8.3765 14.4868 8.25 14 8.25C13.5131 8.25 13.0558 8.37652 12.6591 8.59848L11.5305 7.46979C11.2376 7.1769 10.7627 7.1769 10.4698 7.46979C10.1769 7.76269 10.1769 8.23756 10.4698 8.53045L11.5985 9.65914C11.3765 10.0558 11.25 10.5131 11.25 11C11.25 11.4868 11.3765 11.9441 11.5984 12.3408L10.4697 13.4695ZM12.75 11C12.75 10.3096 13.3096 9.75 14 9.75C14.6904 9.75 15.25 10.3096 15.25 11C15.25 11.6904 14.6904 12.25 14 12.25C13.3096 12.25 12.75 11.6904 12.75 11Z" fill="black"/>
</svg>
