<svg width="24" height="24" viewBox="0 0 24 24" fill="none" xmlns="http://www.w3.org/2000/svg">
<path fill-rule="evenodd" clip-rule="evenodd" d="M15.7929 2C15.8294 2 15.8657 2.00117 15.9019 2.00348C16.6449 2.03929 17.3502 2.35023 17.8787 2.87868L21.1213 6.12132C21.6839 6.68393 22 7.44699 22 8.24264V19C22 20.6569 20.6569 22 19 22H5C3.34315 22 2 20.6569 2 19V5C2 3.34315 3.34315 2 5 2H15.7929ZM5 20.5H6V16C6 14.8954 6.89543 14 8 14H16C17.1046 14 18 14.8954 18 16V20.5H19C19.8284 20.5 20.5 19.8284 20.5 19V8.24264C20.5 7.84482 20.342 7.46329 20.0607 7.18198L17 4.12132V7C17 8.10457 16.1046 9 15 9H9C7.89543 9 7 8.10457 7 7V3.5H5C4.17157 3.5 3.5 4.17157 3.5 5V19C3.5 19.8284 4.17157 20.5 5 20.5ZM8.5 3.5V7C8.5 7.27614 8.72386 7.5 9 7.5H15C15.2761 7.5 15.5 7.27614 15.5 7V3.5H8.5ZM16.5 20.5H7.5V16C7.5 15.7239 7.72386 15.5 8 15.5H16C16.2761 15.5 16.5 15.7239 16.5 16V20.5Z" fill="black"/>
</svg>
