<svg width="24" height="24" viewBox="0 0 24 24" fill="none" xmlns="http://www.w3.org/2000/svg">
<path fill-rule="evenodd" clip-rule="evenodd" d="M14 7.5H10C9.17157 7.5 8.5 8.17157 8.5 9V15C8.5 15.8284 9.17157 16.5 10 16.5H14C14.8284 16.5 15.5 15.8284 15.5 15V9C15.5 8.17157 14.8284 7.5 14 7.5ZM10 6C8.34315 6 7 7.34315 7 9V15C7 16.6569 8.34315 18 10 18H14C15.6569 18 17 16.6569 17 15V9C17 7.34315 15.6569 6 14 6H10Z" fill="black"/>
<path fill-rule="evenodd" clip-rule="evenodd" d="M2.25 12C2.25 11.5858 2.58579 11.25 3 11.25H21C21.4142 11.25 21.75 11.5858 21.75 12C21.75 12.4142 21.4142 12.75 21 12.75H3C2.58579 12.75 2.25 12.4142 2.25 12Z" fill="black"/>
<path fill-rule="evenodd" clip-rule="evenodd" d="M2.25 5C2.25 3.48122 3.48122 2.25 5 2.25H7C7.41421 2.25 7.75 2.58579 7.75 3C7.75 3.41421 7.41421 3.75 7 3.75H5C4.30964 3.75 3.75 4.30964 3.75 5V7C3.75 7.41421 3.41421 7.75 3 7.75C2.58579 7.75 2.25 7.41421 2.25 7V5Z" fill="black"/>
<path fill-rule="evenodd" clip-rule="evenodd" d="M2.25 19C2.25 20.5188 3.48122 21.75 5 21.75H7C7.41421 21.75 7.75 21.4142 7.75 21C7.75 20.5858 7.41421 20.25 7 20.25H5C4.30964 20.25 3.75 19.6904 3.75 19V17C3.75 16.5858 3.41421 16.25 3 16.25C2.58579 16.25 2.25 16.5858 2.25 17V19Z" fill="black"/>
<path fill-rule="evenodd" clip-rule="evenodd" d="M21.75 19C21.75 20.5188 20.5188 21.75 19 21.75H17C16.5858 21.75 16.25 21.4142 16.25 21C16.25 20.5858 16.5858 20.25 17 20.25H19C19.6904 20.25 20.25 19.6904 20.25 19V17C20.25 16.5858 20.5858 16.25 21 16.25C21.4142 16.25 21.75 16.5858 21.75 17V19Z" fill="black"/>
<path fill-rule="evenodd" clip-rule="evenodd" d="M21.75 5C21.75 3.48122 20.5188 2.25 19 2.25H17C16.5858 2.25 16.25 2.58579 16.25 3C16.25 3.41421 16.5858 3.75 17 3.75H19C19.6904 3.75 20.25 4.30964 20.25 5V7C20.25 7.41421 20.5858 7.75 21 7.75C21.4142 7.75 21.75 7.41421 21.75 7V5Z" fill="black"/>
</svg>
