<svg width="24" height="24" viewBox="0 0 24 24" fill="none" xmlns="http://www.w3.org/2000/svg">
<path fill-rule="evenodd" clip-rule="evenodd" d="M7 2.25C7.41421 2.25 7.75 2.58579 7.75 3V4H16.25V3C16.25 2.58579 16.5858 2.25 17 2.25C17.4142 2.25 17.75 2.58579 17.75 3V4H19C20.6569 4 22 5.34315 22 7V13.6822C22.6318 14.6325 23 15.7733 23 17C23 20.3137 20.3137 23 17 23C15.7733 23 14.6325 22.6318 13.6822 22H5C3.34315 22 2 20.6569 2 19V7C2 5.34315 3.34315 4 5 4H6.25V3C6.25 2.58579 6.58579 2.25 7 2.25ZM12.126 20.5C11.4174 19.5149 11 18.3062 11 17C11 13.6863 13.6863 11 17 11C18.3062 11 19.5149 11.4174 20.5 12.126V7C20.5 6.17157 19.8284 5.5 19 5.5H17.75V7C17.75 7.41421 17.4142 7.75 17 7.75C16.5858 7.75 16.25 7.41421 16.25 7V5.5H7.75V7C7.75 7.41421 7.41421 7.75 7 7.75C6.58579 7.75 6.25 7.41421 6.25 7V5.5H5C4.17157 5.5 3.5 6.17157 3.5 7V19C3.5 19.8284 4.17157 20.5 5 20.5H12.126ZM21.5 17C21.5 19.4853 19.4853 21.5 17 21.5C14.5147 21.5 12.5 19.4853 12.5 17C12.5 14.5147 14.5147 12.5 17 12.5C19.4853 12.5 21.5 14.5147 21.5 17Z" fill="black"/>
<path fill-rule="evenodd" clip-rule="evenodd" d="M17 14.25C17.4142 14.25 17.75 14.5858 17.75 15V16.6893L18.5303 17.4697C18.8232 17.7626 18.8232 18.2374 18.5303 18.5303C18.2374 18.8232 17.7626 18.8232 17.4697 18.5303L16.4697 17.5303C16.329 17.3897 16.25 17.1989 16.25 17V15C16.25 14.5858 16.5858 14.25 17 14.25Z" fill="black"/>
</svg>
