<svg width="24" height="24" viewBox="0 0 24 24" fill="none" xmlns="http://www.w3.org/2000/svg">
<path fill-rule="evenodd" clip-rule="evenodd" d="M17.7824 4.15686C17.9896 3.79814 17.8667 3.33945 17.5079 3.13234C17.1492 2.92524 16.6905 3.04814 16.4834 3.40686L9.16961 16.0747C8.87638 15.4487 8.39519 14.903 7.75107 14.5311C6.07705 13.5646 3.93648 14.1382 2.96998 15.8122C2.00349 17.4862 2.57705 19.6268 4.25107 20.5933C5.91795 21.5556 8.04741 20.9911 9.01973 19.3335C9.02407 19.3266 9.02831 19.3195 9.03245 19.3123L17.7824 4.15686ZM7.73312 18.5622C7.18084 19.5188 5.95766 19.8465 5.00107 19.2942C4.04449 18.7419 3.71674 17.5188 4.26902 16.5622C4.82131 15.6056 6.04449 15.2778 7.00107 15.8301C7.95766 16.3824 8.28541 17.6056 7.73312 18.5622Z" fill="black"/>
<path fill-rule="evenodd" clip-rule="evenodd" d="M6.21877 4.15674C6.01166 3.79802 6.13457 3.33933 6.49329 3.13222C6.85201 2.92512 7.3107 3.04802 7.51781 3.40674L14.8315 16.0744C15.1247 15.4485 15.6059 14.9029 16.2499 14.5311C17.9239 13.5646 20.0645 14.1382 21.031 15.8122C21.9975 17.4862 21.4239 19.6268 19.7499 20.5933C18.0785 21.5582 15.942 20.988 14.9734 19.3201C14.9718 19.3174 14.9703 19.3148 14.9688 19.3122L6.21877 4.15674ZM16.2679 18.5622C16.8201 19.5188 18.0433 19.8465 18.9999 19.2942C19.9565 18.7419 20.2842 17.5188 19.732 16.5622C19.1797 15.6056 17.9565 15.2778 16.9999 15.8301C16.0433 16.3824 15.7156 17.6056 16.2679 18.5622Z" fill="black"/>
</svg>
