<svg width="24" height="24" viewBox="0 0 24 24" fill="none" xmlns="http://www.w3.org/2000/svg">
<path fill-rule="evenodd" clip-rule="evenodd" d="M2.19279 6.57843C1.36183 4.08552 3.91012 1.80468 6.29602 2.90587L20.0983 9.27616C22.422 10.3487 22.422 13.6514 20.0983 14.7239L6.29603 21.0941C3.91012 22.1953 1.36183 19.9145 2.19281 17.4216L3.68376 12.9487C3.88903 12.3329 3.88903 11.6672 3.68377 11.0514L2.19279 6.57843ZM5.66743 4.26781L19.4697 10.6381C20.6316 11.1743 20.6316 12.8257 19.4697 13.362L5.66744 19.7322C4.47449 20.2828 3.20034 19.1424 3.61583 17.8959L5.10679 13.4231C5.18037 13.2023 5.23637 12.9773 5.27479 12.75H14C14.4142 12.75 14.75 12.4142 14.75 12C14.75 11.5858 14.4142 11.25 14 11.25H5.27477C5.23636 11.0228 5.18037 10.7977 5.10679 10.577L3.61582 6.10409C3.20033 4.85763 4.47449 3.71722 5.66743 4.26781Z" fill="black"/>
</svg>
