<svg width="24" height="24" viewBox="0 0 24 24" fill="none" xmlns="http://www.w3.org/2000/svg">
<path fill-rule="evenodd" clip-rule="evenodd" d="M18 14.5H6C5.17157 14.5 4.5 15.1716 4.5 16V19C4.5 19.8284 5.17157 20.5 6 20.5H18C18.8284 20.5 19.5 19.8284 19.5 19V16C19.5 15.1716 18.8284 14.5 18 14.5ZM6 13C4.34315 13 3 14.3431 3 16V19C3 20.6569 4.34315 22 6 22H18C19.6569 22 21 20.6569 21 19V16C21 14.3431 19.6569 13 18 13H6Z" fill="black"/>
<path fill-rule="evenodd" clip-rule="evenodd" d="M18 3.5H6C5.17157 3.5 4.5 4.17157 4.5 5V8C4.5 8.82843 5.17157 9.5 6 9.5H18C18.8284 9.5 19.5 8.82843 19.5 8V5C19.5 4.17157 18.8284 3.5 18 3.5ZM6 2C4.34315 2 3 3.34315 3 5V8C3 9.65685 4.34315 11 6 11H18C19.6569 11 21 9.65685 21 8V5C21 3.34315 19.6569 2 18 2H6Z" fill="black"/>
<path fill-rule="evenodd" clip-rule="evenodd" d="M6.75 17.5C6.75 17.0858 7.08579 16.75 7.5 16.75H13C13.4142 16.75 13.75 17.0858 13.75 17.5C13.75 17.9142 13.4142 18.25 13 18.25H7.5C7.08579 18.25 6.75 17.9142 6.75 17.5Z" fill="black"/>
<path fill-rule="evenodd" clip-rule="evenodd" d="M6.75 6.5C6.75 6.08579 7.08579 5.75 7.5 5.75H13C13.4142 5.75 13.75 6.08579 13.75 6.5C13.75 6.91421 13.4142 7.25 13 7.25H7.5C7.08579 7.25 6.75 6.91421 6.75 6.5Z" fill="black"/>
<path d="M17.5 17.5C17.5 18.0523 17.0523 18.5 16.5 18.5C15.9477 18.5 15.5 18.0523 15.5 17.5C15.5 16.9477 15.9477 16.5 16.5 16.5C17.0523 16.5 17.5 16.9477 17.5 17.5Z" fill="black"/>
<path d="M17.5 6.5C17.5 7.05228 17.0523 7.5 16.5 7.5C15.9477 7.5 15.5 7.05228 15.5 6.5C15.5 5.94772 15.9477 5.5 16.5 5.5C17.0523 5.5 17.5 5.94772 17.5 6.5Z" fill="black"/>
</svg>
