<svg width="24" height="24" viewBox="0 0 24 24" fill="none" xmlns="http://www.w3.org/2000/svg">
<path fill-rule="evenodd" clip-rule="evenodd" d="M12 2.25C12.4142 2.25 12.75 2.58579 12.75 3V4H14C15.6569 4 17 5.34315 17 7V8C18.6569 8 20 9.34315 20 11V13.2857L20.1383 13.3253C21.4494 13.6998 22.2184 15.0558 21.8671 16.3732L20.9665 19.7505C21.2532 19.7379 21.5342 19.8913 21.6709 20.1646C21.8561 20.5351 21.7059 20.9856 21.3355 21.1708L21.2299 21.2236C20.4557 21.6107 19.5444 21.6107 18.7702 21.2236L18.5591 21.118C18.4403 21.0586 18.3145 21.0193 18.1863 21H17.8138C17.6856 21.0193 17.5598 21.0586 17.441 21.118L17.2299 21.2236C16.4557 21.6107 15.5444 21.6107 14.7702 21.2236L14.5591 21.118C14.4403 21.0586 14.3145 21.0193 14.1863 21H13.8138C13.6856 21.0193 13.5598 21.0586 13.441 21.118L13.2299 21.2236C12.4557 21.6107 11.5444 21.6107 10.7702 21.2236L10.5591 21.118C10.4403 21.0586 10.3145 21.0193 10.1863 21H9.81377C9.68562 21.0193 9.55977 21.0586 9.44103 21.118L9.22988 21.2236C8.45568 21.6107 7.54441 21.6107 6.77021 21.2236L6.55906 21.118C6.44031 21.0586 6.31447 21.0193 6.18632 21H5.81377C5.68562 21.0193 5.55977 21.0586 5.44103 21.118L5.22988 21.2236C4.45568 21.6107 3.54441 21.6107 2.7702 21.2236L2.66463 21.1708C2.29415 20.9856 2.14398 20.5351 2.32922 20.1646C2.46585 19.8913 2.74677 19.7379 3.03347 19.7505L2.13285 16.3732C1.78153 15.0558 2.55063 13.6998 3.86163 13.3253L4 13.2857V11C4 9.34315 5.34315 8 7 8V7C7 5.34315 8.34315 4 10 4H11.25V3C11.25 2.58579 11.5858 2.25 12 2.25ZM7.81405 20C7.6858 19.9807 7.55986 19.9414 7.44103 19.882L7.22988 19.7764C6.45568 19.3893 5.54441 19.3893 4.77021 19.7764L4.61365 19.8547L3.5822 15.9867C3.44167 15.4598 3.74931 14.9174 4.27371 14.7675L11.5879 12.6778C11.8572 12.6008 12.1427 12.6008 12.4121 12.6778L19.7263 14.7675C20.2507 14.9174 20.5583 15.4598 20.4178 15.9867L19.3863 19.8546L19.2299 19.7764C18.4557 19.3893 17.5444 19.3893 16.7702 19.7764L16.5591 19.882C16.4402 19.9414 16.3143 19.9807 16.186 20H15.814C15.6858 19.9807 15.5599 19.9414 15.441 19.882L15.2299 19.7764C14.4557 19.3893 13.5444 19.3893 12.7702 19.7764L12.5591 19.882C12.4402 19.9414 12.3143 19.9807 12.186 20H11.814C11.6858 19.9807 11.5599 19.9414 11.441 19.882L11.2299 19.7764C10.4557 19.3893 9.54441 19.3893 8.77021 19.7764L8.55906 19.882C8.44022 19.9414 8.31428 19.9807 8.18604 20H7.81405ZM18.5 11V12.8572L12.8242 11.2355C12.2855 11.0816 11.7145 11.0816 11.1758 11.2355L5.5 12.8571V11C5.5 10.1716 6.17157 9.5 7 9.5H17C17.8284 9.5 18.5 10.1716 18.5 11ZM8.5 7V8H15.5V7C15.5 6.17157 14.8284 5.5 14 5.5H10C9.17157 5.5 8.5 6.17157 8.5 7Z" fill="black"/>
</svg>
