<svg width="24" height="24" viewBox="0 0 24 24" fill="none" xmlns="http://www.w3.org/2000/svg">
<path fill-rule="evenodd" clip-rule="evenodd" d="M12 2.25C9.92893 2.25 8.25 3.92893 8.25 6H6.64839C5.13542 6 3.85922 7.12661 3.67156 8.6279L2.42156 18.6279C2.19774 20.4185 3.5939 22 5.39839 22H18.6017C20.4062 22 21.8024 20.4185 21.5785 18.6279L20.3285 8.6279C20.1409 7.12661 18.8647 6 17.3517 6H15.75C15.75 3.92893 14.0711 2.25 12 2.25ZM14.25 7.5V9C14.25 9.41421 14.5858 9.75 15 9.75C15.4142 9.75 15.75 9.41421 15.75 9V7.5H17.3517C18.1082 7.5 18.7463 8.0633 18.8401 8.81395L20.0901 18.8139C20.202 19.7092 19.5039 20.5 18.6017 20.5H5.39839C4.49614 20.5 3.79806 19.7092 3.90997 18.8139L5.15997 8.81395C5.2538 8.0633 5.89191 7.5 6.64839 7.5H8.25V9C8.25 9.41421 8.58579 9.75 9 9.75C9.41421 9.75 9.75 9.41421 9.75 9V7.5H14.25ZM14.25 6C14.25 4.75736 13.2426 3.75 12 3.75C10.7574 3.75 9.75 4.75736 9.75 6H14.25Z" fill="black"/>
</svg>
