<svg width="24" height="24" viewBox="0 0 24 24" fill="none" xmlns="http://www.w3.org/2000/svg">
<path d="M19.0303 3.96973C18.7374 3.67684 18.2626 3.67684 17.9697 3.96973C17.6768 4.26262 17.6768 4.73749 17.9697 5.03039L19.1855 6.24622H15.7081C13.7658 6.24622 12.0192 7.42873 11.2979 9.23211L9.30942 14.2032C8.81586 15.4371 7.62081 16.2462 6.29187 16.2462H3C2.58579 16.2462 2.25 16.582 2.25 16.9962C2.25 17.4104 2.58579 17.7462 3 17.7462H6.29187C8.23417 17.7462 9.98078 16.5637 10.7021 14.7603L12.6906 9.7892C13.1841 8.55531 14.3792 7.74622 15.7081 7.74622H19.1902L17.9697 8.96676C17.6768 9.25966 17.6768 9.73453 17.9697 10.0274C18.2626 10.3203 18.7374 10.3203 19.0303 10.0274L21.1753 7.88244C21.6634 7.39429 21.6634 6.60284 21.1753 6.11469L19.0303 3.96973Z" fill="black"/>
<path d="M12.6906 14.2108C13.1841 15.4447 14.3792 16.2538 15.7081 16.2538H19.1901L17.9697 15.0333C17.6768 14.7404 17.6768 14.2656 17.9697 13.9727C18.2626 13.6798 18.7374 13.6798 19.0303 13.9727L21.1753 16.1176C21.6634 16.6058 21.6634 17.3972 21.1753 17.8854L19.0303 20.0303C18.7374 20.3232 18.2626 20.3232 17.9697 20.0303C17.6768 19.7374 17.6768 19.2626 17.9697 18.9697L19.1855 17.7538H15.7081C13.7658 17.7538 12.0192 16.5713 11.2979 14.7679L9.30942 9.79676C8.81586 8.56287 7.62081 7.75378 6.29187 7.75378H3C2.58579 7.75378 2.25 7.418 2.25 7.00378C2.25 6.58957 2.58579 6.25378 3 6.25378H6.29187C8.23417 6.25378 9.98078 7.4363 10.7021 9.23968L12.6906 14.2108Z" fill="black"/>
</svg>
