<svg width="24" height="24" viewBox="0 0 24 24" fill="none" xmlns="http://www.w3.org/2000/svg">
<path d="M20 9.75C19.5858 9.75 19.25 9.41421 19.25 9V5.81072L5.81072 19.25H9C9.41421 19.25 9.75 19.5858 9.75 20C9.75 20.4142 9.41421 20.75 9 20.75H5C4.0335 20.75 3.25 19.9665 3.25 19V15C3.25 14.5858 3.58579 14.25 4 14.25C4.41421 14.25 4.75 14.5858 4.75 15V18.1894L18.1894 4.75L15 4.75C14.5858 4.75 14.25 4.41421 14.25 4C14.25 3.58579 14.5858 3.25 15 3.25H19C19.9665 3.25 20.75 4.0335 20.75 5V9C20.75 9.41421 20.4142 9.75 20 9.75Z" fill="black"/>
<path fill-rule="evenodd" clip-rule="evenodd" d="M3.25 5C3.25 4.0335 4.0335 3.25 5 3.25H9C9.41421 3.25 9.75 3.58579 9.75 4C9.75 4.41421 9.41421 4.75 9 4.75H5C4.86193 4.75 4.75 4.86193 4.75 5V9C4.75 9.41421 4.41421 9.75 4 9.75C3.58579 9.75 3.25 9.41421 3.25 9V5Z" fill="black"/>
<path fill-rule="evenodd" clip-rule="evenodd" d="M20.75 19C20.75 19.9665 19.9665 20.75 19 20.75H15C14.5858 20.75 14.25 20.4142 14.25 20C14.25 19.5858 14.5858 19.25 15 19.25H19C19.1381 19.25 19.25 19.1381 19.25 19V15C19.25 14.5858 19.5858 14.25 20 14.25C20.4142 14.25 20.75 14.5858 20.75 15V19Z" fill="black"/>
</svg>
