<svg width="24" height="24" viewBox="0 0 24 24" fill="none" xmlns="http://www.w3.org/2000/svg">
<path fill-rule="evenodd" clip-rule="evenodd" d="M9 8H4C3.44772 8 3 8.44772 3 9C3 9.55228 3.44772 10 4 10H9C9.55228 10 10 9.55228 10 9C10 8.44772 9.55228 8 9 8ZM4 6.5C2.61929 6.5 1.5 7.61929 1.5 9C1.5 10.3807 2.61929 11.5 4 11.5H9C10.3807 11.5 11.5 10.3807 11.5 9C11.5 7.61929 10.3807 6.5 9 6.5H4Z" fill="black"/>
<path fill-rule="evenodd" clip-rule="evenodd" d="M10 4V3.5C10 3.22386 9.77614 3 9.5 3C9.22386 3 9 3.22386 9 3.5C9 3.77614 9.22386 4 9.5 4H10ZM9.5 1.5C8.39543 1.5 7.5 2.39543 7.5 3.5C7.5 4.60457 8.39543 5.5 9.5 5.5H10.5C11.0523 5.5 11.5 5.05228 11.5 4.5V3.5C11.5 2.39543 10.6046 1.5 9.5 1.5Z" fill="black"/>
<path fill-rule="evenodd" clip-rule="evenodd" d="M15 16L20 16C20.5523 16 21 15.5523 21 15C21 14.4477 20.5523 14 20 14L15 14C14.4477 14 14 14.4477 14 15C14 15.5523 14.4477 16 15 16ZM20 17.5C21.3807 17.5 22.5 16.3807 22.5 15C22.5 13.6193 21.3807 12.5 20 12.5L15 12.5C13.6193 12.5 12.5 13.6193 12.5 15C12.5 16.3807 13.6193 17.5 15 17.5L20 17.5Z" fill="black"/>
<path fill-rule="evenodd" clip-rule="evenodd" d="M14 20L14 20.5C14 20.7761 14.2239 21 14.5 21C14.7761 21 15 20.7761 15 20.5C15 20.2239 14.7761 20 14.5 20L14 20ZM14.5 22.5C15.6046 22.5 16.5 21.6046 16.5 20.5C16.5 19.3954 15.6046 18.5 14.5 18.5L13.5 18.5C12.9477 18.5 12.5 18.9477 12.5 19.5L12.5 20.5C12.5 21.6046 13.3954 22.5 14.5 22.5Z" fill="black"/>
<path fill-rule="evenodd" clip-rule="evenodd" d="M8 15L8 20C8 20.5523 8.44772 21 9 21C9.55228 21 10 20.5523 10 20L10 15C10 14.4477 9.55228 14 9 14C8.44772 14 8 14.4477 8 15ZM6.5 20C6.5 21.3807 7.61929 22.5 9 22.5C10.3807 22.5 11.5 21.3807 11.5 20L11.5 15C11.5 13.6193 10.3807 12.5 9 12.5C7.61929 12.5 6.5 13.6193 6.5 15L6.5 20Z" fill="black"/>
<path fill-rule="evenodd" clip-rule="evenodd" d="M4 14L3.5 14C3.22386 14 3 14.2239 3 14.5C3 14.7761 3.22386 15 3.5 15C3.77614 15 4 14.7761 4 14.5L4 14ZM1.5 14.5C1.5 15.6046 2.39543 16.5 3.5 16.5C4.60457 16.5 5.5 15.6046 5.5 14.5L5.5 13.5C5.5 12.9477 5.05228 12.5 4.5 12.5L3.5 12.5C2.39543 12.5 1.5 13.3954 1.5 14.5Z" fill="black"/>
<path fill-rule="evenodd" clip-rule="evenodd" d="M16 9L16 4C16 3.44772 15.5523 3 15 3C14.4477 3 14 3.44772 14 4L14 9C14 9.55228 14.4477 10 15 10C15.5523 10 16 9.55228 16 9ZM17.5 4C17.5 2.61929 16.3807 1.5 15 1.5C13.6193 1.5 12.5 2.61929 12.5 4L12.5 9C12.5 10.3807 13.6193 11.5 15 11.5C16.3807 11.5 17.5 10.3807 17.5 9L17.5 4Z" fill="black"/>
<path fill-rule="evenodd" clip-rule="evenodd" d="M20 10L20.5 10C20.7761 10 21 9.77614 21 9.5C21 9.22386 20.7761 9 20.5 9C20.2239 9 20 9.22386 20 9.5L20 10ZM22.5 9.5C22.5 8.39543 21.6046 7.5 20.5 7.5C19.3954 7.5 18.5 8.39543 18.5 9.5L18.5 10.5C18.5 11.0523 18.9477 11.5 19.5 11.5L20.5 11.5C21.6046 11.5 22.5 10.6046 22.5 9.5Z" fill="black"/>
</svg>
