<svg width="24" height="24" viewBox="0 0 24 24" fill="none" xmlns="http://www.w3.org/2000/svg">
<path fill-rule="evenodd" clip-rule="evenodd" d="M7.56464 6.36501L7.99184 4.37141C8.28824 2.9882 9.51063 2 10.9252 2H13.0748C14.4894 2 15.7118 2.9882 16.0082 4.37141L16.4354 6.36501C17.3676 6.87391 18 7.8631 18 9V10.0854C18.5826 10.2913 19 10.8469 19 11.5V12.5C19 13.1531 18.5826 13.7087 18 13.9146V15C18 16.1369 17.3676 17.1261 16.4354 17.635L16.0082 19.6286C15.7118 21.0118 14.4894 22 13.0748 22H10.9253C9.51068 22 8.2883 21.0118 7.99189 19.6286L7.56467 17.635C6.63242 17.1261 6 16.1369 6 15V9C6 7.8631 6.63241 6.87391 7.56464 6.36501ZM10.9252 3.5H13.0748C13.7821 3.5 14.3933 3.9941 14.5415 4.68571L14.8231 6H9.17691L9.45854 4.68571C9.60675 3.9941 10.2179 3.5 10.9252 3.5ZM9.17694 18L9.45859 19.3143C9.60679 20.0059 10.218 20.5 10.9253 20.5H13.0748C13.7821 20.5 14.3933 20.0059 14.5415 19.3143L14.8231 18H9.17694ZM9 7.5H15C15.8284 7.5 16.5 8.17157 16.5 9V15C16.5 15.8284 15.8284 16.5 15 16.5H9C8.17157 16.5 7.5 15.8284 7.5 15V9C7.5 8.17157 8.17157 7.5 9 7.5Z" fill="black"/>
<path fill-rule="evenodd" clip-rule="evenodd" d="M11 12C11 12.5523 10.5523 13 10 13C9.44772 13 9 12.5523 9 12C9 11.4477 9.44772 11 10 11C10.5523 11 11 11.4477 11 12Z" fill="black"/>
<path fill-rule="evenodd" clip-rule="evenodd" d="M15 12C15 12.5523 14.5523 13 14 13C13.4477 13 13 12.5523 13 12C13 11.4477 13.4477 11 14 11C14.5523 11 15 11.4477 15 12Z" fill="black"/>
<path fill-rule="evenodd" clip-rule="evenodd" d="M13 10C13 10.5523 12.5523 11 12 11C11.4477 11 11 10.5523 11 10C11 9.44772 11.4477 9 12 9C12.5523 9 13 9.44772 13 10Z" fill="black"/>
<path fill-rule="evenodd" clip-rule="evenodd" d="M13 14C13 14.5523 12.5523 15 12 15C11.4477 15 11 14.5523 11 14C11 13.4477 11.4477 13 12 13C12.5523 13 13 13.4477 13 14Z" fill="black"/>
</svg>
