<svg width="24" height="24" viewBox="0 0 24 24" fill="none" xmlns="http://www.w3.org/2000/svg">
<path fill-rule="evenodd" clip-rule="evenodd" d="M17.1992 5.34581C16.2309 3.11111 14.2222 2 12 2C9.77778 2 7.76907 3.11111 6.80081 5.34581C6.23342 6.61786 6.31358 7.80052 6.402 9.1051C6.41694 9.32551 6.43212 9.54939 6.44444 9.77778C5.98953 10.1993 5.45545 10.0838 4.96223 9.97713C4.43463 9.86304 3.9538 9.75906 3.66667 10.3333C3.32585 11.015 4.15165 11.558 4.92053 12.0636C5.40496 12.3822 5.86679 12.6859 6 13C6.36094 13.8505 6.10535 14.7615 5 15.5C4.35697 15.9296 3.76492 16.1685 3.2797 16.3643C2.50295 16.6777 2 16.8806 2 17.5788C2 18.6667 4.42359 18.9111 5 19L5.7 19.9333C5.88885 20.1851 6.18603 20.3339 6.50075 20.3295C7.75948 20.3117 8.17809 20.2642 9.22222 20.8889C9.31254 20.9429 9.40292 20.9979 9.49358 21.0531C10.2609 21.5203 11.0488 22 12 22C12.9512 22 13.7391 21.5203 14.5064 21.0531C14.5971 20.9979 14.6875 20.9429 14.7778 20.8889C15.8219 20.2642 16.2405 20.3117 17.4992 20.3295C17.814 20.3339 18.1111 20.1851 18.3 19.9333L19 19C19.5764 18.9111 22 18.6667 22 17.5788C22 16.8806 21.497 16.6777 20.7203 16.3643C20.2351 16.1685 19.643 15.9296 19 15.5C17.8947 14.7615 17.6391 13.8505 18 13C18.1332 12.6859 18.595 12.3822 19.0795 12.0636C19.8483 11.558 20.6742 11.015 20.3333 10.3333C20.0462 9.75906 19.5654 9.86304 19.0378 9.97713C18.5446 10.0838 18.0105 10.1993 17.5556 9.77778C17.5679 9.54939 17.5831 9.32551 17.598 9.1051C17.6864 7.80052 17.7666 6.61786 17.1992 5.34581ZM8.17717 5.94217L8.17071 5.95686C7.78943 6.81166 7.8103 7.55323 7.88303 8.72291L7.89757 8.95331C7.9122 9.18367 7.92787 9.43035 7.94226 9.69693C7.9663 10.1422 7.791 10.575 7.46391 10.8781C7.18343 11.138 6.88634 11.3075 6.59305 11.4145C6.67336 11.4814 6.75429 11.5536 6.83231 11.6307C7.00387 11.8002 7.23081 12.0605 7.3808 12.414C7.69328 13.1506 7.76045 13.9872 7.45752 14.8102C7.16259 15.6114 6.57191 16.2538 5.83331 16.7472C5.41176 17.0289 4.9884 17.2512 4.61219 17.4265C4.84553 17.4641 5.05911 17.4914 5.22875 17.5175C5.61617 17.5773 5.9648 17.7864 6.2 18.1L6.74387 18.8252C7.2172 18.8168 7.7131 18.8112 8.18332 18.8878C8.82417 18.9923 9.37152 19.2303 9.99232 19.6017L10.2001 19.7262C11.0719 20.2494 11.4894 20.5 12 20.5C12.5106 20.5 12.9281 20.2494 13.7999 19.7262L14.0077 19.6017C14.6285 19.2303 15.1758 18.9923 15.8167 18.8878C16.2869 18.8112 16.7828 18.8168 17.2561 18.8252L17.8 18.1C18.0352 17.7864 18.3838 17.5773 18.7712 17.5175C18.9409 17.4914 19.1545 17.4641 19.3878 17.4265C19.0116 17.2512 18.5882 17.0289 18.1667 16.7472C17.4281 16.2538 16.8374 15.6114 16.5425 14.8102C16.2395 13.9872 16.3066 13.151 16.619 12.4144C16.769 12.0609 16.9961 11.8002 17.1677 11.6307C17.2457 11.5536 17.3266 11.4814 17.407 11.4145C17.1137 11.3075 16.8166 11.138 16.5361 10.8781C16.209 10.575 16.0337 10.1422 16.0577 9.69693C16.0721 9.43035 16.0878 9.18367 16.1024 8.95331C16.1204 8.67033 16.1368 8.41198 16.1474 8.17161C16.1855 7.30307 16.1471 6.66929 15.8293 5.95686L15.8228 5.94217C15.1176 4.31446 13.6907 3.5 12 3.5C10.3093 3.5 8.88243 4.31446 8.17717 5.94217Z" fill="black"/>
</svg>
