<svg width="24" height="24" viewBox="0 0 24 24" fill="none" xmlns="http://www.w3.org/2000/svg">
<path fill-rule="evenodd" clip-rule="evenodd" d="M8.69183 2.58075C8.98473 2.28786 9.4596 2.28786 9.75249 2.58075L11.9999 4.8282L14.2474 2.58075C14.5403 2.28786 15.0152 2.28786 15.308 2.58075C15.6009 2.87365 15.6009 3.34852 15.308 3.64141L12.7499 6.19952V10.701L16.6483 8.45026L17.5846 4.95582C17.6918 4.55572 18.1031 4.31828 18.5032 4.42549C18.9033 4.53269 19.1407 4.94394 19.0335 5.34404L18.2109 8.41411L21.2809 9.23674C21.681 9.34394 21.9185 9.7552 21.8113 10.1553C21.7041 10.5554 21.2928 10.7928 20.8927 10.6856L17.3983 9.74929L13.4999 12L17.3983 14.2507L20.8927 13.3144C21.2928 13.2072 21.7041 13.4446 21.8113 13.8447C21.9185 14.2448 21.681 14.6561 21.2809 14.7633L18.2109 15.5859L19.0335 18.656C19.1407 19.0561 18.9033 19.4673 18.5032 19.5745C18.1031 19.6817 17.6918 19.4443 17.5846 19.0442L16.6483 15.5497L12.7499 13.299V17.8004L15.308 20.3585C15.6009 20.6514 15.6009 21.1263 15.308 21.4192C15.0152 21.7121 14.5403 21.7121 14.2474 21.4192L11.9999 19.1717L9.75249 21.4192C9.4596 21.7121 8.98473 21.7121 8.69183 21.4192C8.39894 21.1263 8.39894 20.6514 8.69183 20.3585L11.2499 17.8004V13.299L7.35158 15.5497L6.41525 19.0442C6.30804 19.4443 5.89679 19.6817 5.49669 19.5745C5.09659 19.4673 4.85916 19.0561 4.96636 18.656L5.78898 15.5859L2.71891 14.7633C2.31881 14.6561 2.08138 14.2448 2.18858 13.8447C2.29579 13.4446 2.70704 13.2072 3.10714 13.3144L6.60158 14.2507L10.4999 12L6.60162 9.74929L3.10718 10.6856C2.70708 10.7928 2.29582 10.5554 2.18862 10.1553C2.08141 9.7552 2.31885 9.34394 2.71895 9.23674L5.78902 8.41411L4.9664 5.34404C4.85919 4.94394 5.09663 4.53269 5.49673 4.42549C5.89682 4.31828 6.30808 4.55572 6.41528 4.95582L7.35162 8.45026L11.2499 10.701V6.19952L8.69183 3.64141C8.39894 3.34852 8.39894 2.87365 8.69183 2.58075Z" fill="black"/>
</svg>
