<svg width="24" height="24" viewBox="0 0 24 24" fill="none" xmlns="http://www.w3.org/2000/svg">
<path d="M6.75 5C6.75 4.58579 6.41421 4.25 6 4.25C5.58579 4.25 5.25 4.58579 5.25 5V17.6893L3.53033 15.9697C3.23744 15.6768 2.76256 15.6768 2.46967 15.9697C2.17678 16.2626 2.17678 16.7374 2.46967 17.0303L4.76256 19.3232C5.44598 20.0066 6.55402 20.0066 7.23744 19.3232L9.53033 17.0303C9.82322 16.7374 9.82322 16.2626 9.53033 15.9697C9.23744 15.6768 8.76256 15.6768 8.46967 15.9697L6.75 17.6893V5Z" fill="black"/>
<path fill-rule="evenodd" clip-rule="evenodd" d="M12.25 7C12.25 6.58579 12.5858 6.25 13 6.25H21C21.4142 6.25 21.75 6.58579 21.75 7C21.75 7.41421 21.4142 7.75 21 7.75H13C12.5858 7.75 12.25 7.41421 12.25 7Z" fill="black"/>
<path fill-rule="evenodd" clip-rule="evenodd" d="M12.25 12C12.25 12.4142 12.5858 12.75 13 12.75H18C18.4142 12.75 18.75 12.4142 18.75 12C18.75 11.5858 18.4142 11.25 18 11.25H13C12.5858 11.25 12.25 11.5858 12.25 12Z" fill="black"/>
<path fill-rule="evenodd" clip-rule="evenodd" d="M12.25 17C12.25 17.4142 12.5858 17.75 13 17.75H15C15.4142 17.75 15.75 17.4142 15.75 17C15.75 16.5858 15.4142 16.25 15 16.25H13C12.5858 16.25 12.25 16.5858 12.25 17Z" fill="black"/>
</svg>
