<svg width="24" height="24" viewBox="0 0 24 24" fill="none" xmlns="http://www.w3.org/2000/svg">
<path d="M12 22C6.5 22 2 17.5 2 12C2 6.5 6.5 2 12 2C17.5 2 22 6.5 22 12C22 17.5 17.5 22 12 22ZM12 3.5C7.3 3.5 3.5 7.3 3.5 12C3.5 16.7 7.3 20.5 12 20.5C16.7 20.5 20.5 16.7 20.5 12C20.5 7.3 16.7 3.5 12 3.5Z" fill="black"/>
<path d="M17.2 10.7C17.1 10.7 16.7891 10.6172 16.6094 10.4961C16.6094 10.4961 14.6744 9.72567 12.2 9.50001C9.39999 9.30001 7.49999 9.80001 7.39999 9.80001C6.99999 9.90001 6.61949 9.66953 6.51949 9.26953C6.41949 8.86953 6.62598 8.45897 7.02598 8.35897C7.2657 8.29899 9.29402 7.72478 12.394 8.02478C15.494 8.32478 17.3237 9.15036 17.5391 9.27344C17.9492 9.50781 18.0312 9.80469 17.8945 10.2812C17.7461 10.5352 17.5 10.7 17.2 10.7Z" fill="black"/>
<path d="M16 13.6C15.9 13.6 15.8125 13.6211 15.2657 13.3867C15.2657 13.3867 13.9648 12.9174 12 12.7465C9.69999 12.5465 8.35595 12.8353 8.35595 12.8353C7.95595 12.9353 7.51168 12.9375 7.26559 12.3828C7.16406 12.043 7.27381 11.582 7.81488 11.4149C7.91488 11.4149 9.39999 11.0414 12 11.2414C14.6 11.4414 15.7388 11.979 16.1642 12.1117C16.5642 12.3117 16.743 12.5664 16.6836 13.0195C16.5469 13.4531 16.2 13.6 16 13.6Z" fill="black"/>
<path d="M14.7 16.5C14.5234 16.5 14.3483 16.4203 14.2109 16.3477C14.2109 16.3477 13.3554 15.8906 11.7371 15.7405C10.0704 15.5547 8.9276 15.9413 8.9276 15.9413C8.5276 16.0413 8.20003 15.9 8.00003 15.5C7.90003 15.1 8.0317 14.7289 8.4317 14.5289C8.91394 14.3442 9.81726 14.1025 11.8526 14.2398C13.7304 14.3665 14.7195 14.8793 15.082 15.1055C15.565 15.4069 15.4726 15.9688 15.3164 16.1602C15.1562 16.4102 14.9 16.5 14.7 16.5Z" fill="black"/>
</svg>
