<svg width="24" height="24" viewBox="0 0 24 24" fill="none" xmlns="http://www.w3.org/2000/svg">
<path fill-rule="evenodd" clip-rule="evenodd" d="M8 7V4C8 3.44772 8.44772 3 9 3H13C13.5523 3 14 3.44772 14 4V7C15.6569 7 17 8.34315 17 10V19C17 20.6569 15.6569 22 14 22H8C6.34315 22 5 20.6569 5 19V10C5 8.34315 6.34315 7 8 7ZM9.5 7V4.5H12.5V7H9.5ZM14 8.5H8C7.17157 8.5 6.5 9.17157 6.5 10V19C6.5 19.8284 7.17157 20.5 8 20.5H14C14.8284 20.5 15.5 19.8284 15.5 19V10C15.5 9.17157 14.8284 8.5 14 8.5Z" fill="black"/>
<path d="M18 5C18 5.55228 17.5523 6 17 6C16.4477 6 16 5.55228 16 5C16 4.44772 16.4477 4 17 4C17.5523 4 18 4.44772 18 5Z" fill="black"/>
<path d="M21 3C21 3.55228 20.5523 4 20 4C19.4477 4 19 3.55228 19 3C19 2.44772 19.4477 2 20 2C20.5523 2 21 2.44772 21 3Z" fill="black"/>
<path d="M21 7C21 7.55228 20.5523 8 20 8C19.4477 8 19 7.55228 19 7C19 6.44772 19.4477 6 20 6C20.5523 6 21 6.44772 21 7Z" fill="black"/>
</svg>
