<svg width="24" height="24" viewBox="0 0 24 24" fill="none" xmlns="http://www.w3.org/2000/svg">
<path fill-rule="evenodd" clip-rule="evenodd" d="M13.4178 6.64742L12.4723 3.92726C12.3167 3.47949 11.6834 3.47948 11.5277 3.92727L10.5822 6.64742C10.1016 8.03017 8.81115 8.96772 7.34755 8.99754L4.46834 9.05622C3.99439 9.06587 3.79869 9.66815 4.17646 9.95455L6.4713 11.6944C7.63784 12.5788 8.13074 14.0958 7.70683 15.4969L6.87291 18.2534C6.73563 18.7071 7.24795 19.0793 7.63708 18.8086L10.0009 17.1637C11.2025 16.3275 12.7975 16.3275 13.9992 17.1637L16.363 18.8086C16.7521 19.0793 17.2644 18.7071 17.1271 18.2534L16.2932 15.4969C15.8693 14.0958 16.3622 12.5788 17.5287 11.6944L19.8236 9.95455C20.2014 9.66815 20.0057 9.06587 19.5317 9.05622L16.6525 8.99754C15.1889 8.96772 13.8985 8.03017 13.4178 6.64742ZM13.8891 3.43477C13.2666 1.64365 10.7335 1.64365 10.1109 3.43477L9.16537 6.15493C8.89071 6.94507 8.15333 7.48081 7.31699 7.49785L4.43778 7.55653C2.54193 7.59516 1.75917 10.0043 3.27024 11.1499L5.56508 12.8897C6.23167 13.3951 6.51333 14.2619 6.2711 15.0626L5.43717 17.819C4.88807 19.634 6.93736 21.1229 8.49385 20.0398L10.8577 18.3949C11.5443 17.9171 12.4557 17.9171 13.1424 18.3949L15.5062 20.0398C17.0627 21.1229 19.112 19.634 18.5629 17.819L17.7289 15.0626C17.4867 14.2619 17.7684 13.3951 18.435 12.8897L20.7298 11.1499C22.2409 10.0043 21.4581 7.59516 19.5623 7.55653L16.6831 7.49785C15.8467 7.48081 15.1093 6.94507 14.8347 6.15493L13.8891 3.43477Z" fill="black"/>
</svg>
