<svg width="24" height="24" viewBox="0 0 24 24" fill="none" xmlns="http://www.w3.org/2000/svg">
<path fill-rule="evenodd" clip-rule="evenodd" d="M12 16.5C14.4853 16.5 16.5 14.4853 16.5 12C16.5 9.51472 14.4853 7.5 12 7.5C9.51472 7.5 7.5 9.51472 7.5 12C7.5 14.4853 9.51472 16.5 12 16.5ZM18 12C18 15.3137 15.3137 18 12 18C8.68629 18 6 15.3137 6 12C6 8.68629 8.68629 6 12 6C15.3137 6 18 8.68629 18 12Z" fill="black"/>
<path fill-rule="evenodd" clip-rule="evenodd" d="M11.9951 2.25C12.4093 2.25 12.7451 2.58579 12.7451 3V4C12.7451 4.41421 12.4093 4.75 11.9951 4.75C11.5809 4.75 11.2451 4.41421 11.2451 4V3C11.2451 2.58579 11.5809 2.25 11.9951 2.25Z" fill="black"/>
<path fill-rule="evenodd" clip-rule="evenodd" d="M11.9951 19.2496C12.4093 19.2496 12.7451 19.5854 12.7451 19.9996V20.9964C12.7451 21.4106 12.4093 21.7464 11.9951 21.7464C11.5809 21.7464 11.2451 21.4106 11.2451 20.9964V19.9996C11.2451 19.5854 11.5809 19.2496 11.9951 19.2496Z" fill="black"/>
<path fill-rule="evenodd" clip-rule="evenodd" d="M5.10211 5.1052C5.395 4.81231 5.86987 4.81231 6.16277 5.1052L7.02724 5.96967C7.32013 6.26256 7.32013 6.73744 7.02724 7.03033C6.73435 7.32322 6.25947 7.32322 5.96658 7.03033L5.10211 6.16586C4.80921 5.87297 4.80921 5.39809 5.10211 5.1052Z" fill="black"/>
<path fill-rule="evenodd" clip-rule="evenodd" d="M16.9697 16.9728C17.2626 16.6799 17.7375 16.6799 18.0303 16.9728L18.8882 17.8306C19.181 18.1235 19.181 18.5984 18.8881 18.8913C18.5952 19.1842 18.1204 19.1842 17.8275 18.8913L16.9697 18.0334C16.6768 17.7405 16.6768 17.2656 16.9697 16.9728Z" fill="black"/>
<path fill-rule="evenodd" clip-rule="evenodd" d="M2.24695 11.9982C2.24695 11.584 2.58273 11.2482 2.99695 11.2482H3.99695C4.41116 11.2482 4.74695 11.584 4.74695 11.9982C4.74695 12.4124 4.41116 12.7482 3.99695 12.7482H2.99695C2.58273 12.7482 2.24695 12.4124 2.24695 11.9982Z" fill="black"/>
<path fill-rule="evenodd" clip-rule="evenodd" d="M19.2466 11.9982C19.2466 11.584 19.5824 11.2482 19.9966 11.2482H20.9934C21.4076 11.2482 21.7434 11.584 21.7434 11.9982C21.7434 12.4124 21.4076 12.7482 20.9934 12.7482H19.9966C19.5824 12.7482 19.2466 12.4124 19.2466 11.9982Z" fill="black"/>
<path fill-rule="evenodd" clip-rule="evenodd" d="M5.10212 18.8912C4.80922 18.5983 4.80922 18.1235 5.10212 17.8306L5.96305 16.9696C6.25594 16.6768 6.73081 16.6768 7.02371 16.9696C7.3166 17.2625 7.3166 17.7374 7.02371 18.0303L6.16278 18.8912C5.86988 19.1841 5.39501 19.1841 5.10212 18.8912Z" fill="black"/>
<path fill-rule="evenodd" clip-rule="evenodd" d="M16.9631 7.03031C16.6702 6.73742 16.6702 6.26254 16.9631 5.96965L17.8276 5.10516C18.1205 4.81227 18.5954 4.81228 18.8883 5.10518C19.1811 5.39808 19.1811 5.87295 18.8882 6.16584L18.0237 7.03033C17.7308 7.32322 17.2559 7.32321 16.9631 7.03031Z" fill="black"/>
</svg>
