<svg width="24" height="24" viewBox="0 0 24 24" fill="none" xmlns="http://www.w3.org/2000/svg">
<path d="M3.75 12C3.75 7.44365 7.44365 3.75 12 3.75C14.7802 3.75 17.1982 5.12612 18.6816 7.24467L16.5022 7.23828C16.088 7.23707 15.7512 7.57187 15.75 7.98608C15.7488 8.4003 16.0836 8.73706 16.4978 8.73828L20.0477 8.74868L20.4978 8.75C20.6971 8.75058 20.8884 8.67182 21.0296 8.53111C21.1707 8.39039 21.25 8.19929 21.25 8L21.25 4C21.25 3.58579 20.9142 3.25 20.5 3.25C20.0858 3.25 19.75 3.58579 19.75 4L19.75 6.16237C17.9894 3.79113 15.2004 2.25 12 2.25C6.61522 2.25 2.25 6.61522 2.25 12C2.25 12.4142 2.58579 12.75 3 12.75C3.41421 12.75 3.75 12.4142 3.75 12Z" fill="black"/>
<path d="M20.25 12C20.25 16.5563 16.5563 20.25 12 20.25C9.21981 20.25 6.80178 18.8739 5.3184 16.7553L7.4978 16.7617C7.91201 16.7629 8.24878 16.4281 8.25 16.0139C8.25121 15.5997 7.91641 15.2629 7.5022 15.2617L3.95232 15.2513L3.5022 15.25C3.30291 15.2494 3.11158 15.3282 2.97045 15.4689C2.82932 15.6096 2.75 15.8007 2.75 16L2.75 20C2.75 20.4142 3.08579 20.75 3.5 20.75C3.91422 20.75 4.25 20.4142 4.25 20L4.25 17.8376C6.01057 20.2089 8.79958 21.75 12 21.75C17.3848 21.75 21.75 17.3848 21.75 12C21.75 11.5858 21.4142 11.25 21 11.25C20.5858 11.25 20.25 11.5858 20.25 12Z" fill="black"/>
</svg>
