<svg width="24" height="24" viewBox="0 0 24 24" fill="none" xmlns="http://www.w3.org/2000/svg">
<path fill-rule="evenodd" clip-rule="evenodd" d="M18 3.5H6C5.17157 3.5 4.5 4.17157 4.5 5V19C4.5 19.8284 5.17157 20.5 6 20.5H18C18.8284 20.5 19.5 19.8284 19.5 19V5C19.5 4.17157 18.8284 3.5 18 3.5ZM6 2C4.34315 2 3 3.34315 3 5V19C3 20.6569 4.34315 22 6 22H18C19.6569 22 21 20.6569 21 19V5C21 3.34315 19.6569 2 18 2H6Z" fill="black"/>
<path d="M13 18C13 18.5523 12.5523 19 12 19C11.4477 19 11 18.5523 11 18C11 17.4477 11.4477 17 12 17C12.5523 17 13 17.4477 13 18Z" fill="black"/>
</svg>
