<svg width="24" height="24" viewBox="0 0 24 24" fill="none" xmlns="http://www.w3.org/2000/svg">
<path fill-rule="evenodd" clip-rule="evenodd" d="M11.0014 18.1199C11.4109 17.7104 12.0195 17.5732 12.565 17.7674C14.5068 18.4584 16.7535 18.0247 18.3033 16.4749C20.4511 14.327 20.4511 10.8446 18.3033 8.69673C16.1554 6.54884 12.673 6.54884 10.5251 8.69673C8.97528 10.2465 8.54157 12.4932 9.23261 14.435C9.42677 14.9805 9.28956 15.5891 8.8801 15.9986L7.69666 17.182C7.11088 17.7678 7.11088 18.7175 7.69666 19.3033C8.28245 19.8891 9.2322 19.8891 9.81798 19.3033L11.0014 18.1199ZM12.0621 19.1806L10.8786 20.364C9.70707 21.5356 7.80758 21.5356 6.636 20.364C5.46443 19.1924 5.46443 17.2929 6.636 16.1213L7.81944 14.9379C6.94158 12.4712 7.48991 9.61059 9.46443 7.63607C12.1981 4.9024 16.6303 4.9024 19.3639 7.63607C22.0976 10.3697 22.0976 14.8019 19.3639 17.5356C17.3894 19.5101 14.5288 20.0584 12.0621 19.1806Z" fill="black"/>
<path fill-rule="evenodd" clip-rule="evenodd" d="M5 6.5C5.82843 6.5 6.5 5.82843 6.5 5C6.5 4.17157 5.82843 3.5 5 3.5C4.17157 3.5 3.5 4.17157 3.5 5C3.5 5.82843 4.17157 6.5 5 6.5ZM5 8C6.65685 8 8 6.65685 8 5C8 3.34315 6.65685 2 5 2C3.34315 2 2 3.34315 2 5C2 6.65685 3.34315 8 5 8Z" fill="black"/>
</svg>
