<svg width="24" height="24" viewBox="0 0 24 24" fill="none" xmlns="http://www.w3.org/2000/svg">
<path fill-rule="evenodd" clip-rule="evenodd" d="M4.33277 11.9142L11.8424 4.40456C12.152 4.09493 12.5815 3.93605 13.0181 3.96964L18.2709 4.3737C19.0086 4.43044 19.5947 5.01657 19.6514 5.75424L20.0555 11.007C20.0891 11.4436 19.9302 11.8731 19.6206 12.1827L12.1109 19.6923C11.5252 20.2781 10.5754 20.2781 9.98962 19.6923L4.33277 14.0355C3.74699 13.4497 3.74699 12.5 4.33277 11.9142ZM21.5511 10.892C21.6182 11.7652 21.3005 12.6241 20.6812 13.2434L13.1716 20.753C12 21.9246 10.1005 21.9246 8.92896 20.753L3.27211 15.0962C2.10054 13.9246 2.10054 12.0251 3.27211 10.8535L10.7817 3.3439C11.401 2.72463 12.2599 2.40689 13.1331 2.47406L18.3859 2.87812C19.8613 2.99161 21.0335 4.16385 21.147 5.63919L21.5511 10.892Z" fill="black"/>
<path d="M14.5858 7.318C14 7.90379 14 8.85354 14.5858 9.43932C15.1716 10.0251 16.1214 10.0251 16.7071 9.43932C17.2929 8.85354 17.2929 7.90379 16.7071 7.318C16.1214 6.73222 15.1716 6.73222 14.5858 7.318Z" fill="black"/>
<path fill-rule="evenodd" clip-rule="evenodd" d="M7.69147 13.5052L10.5199 16.3336C10.8128 16.6265 11.2877 16.6265 11.5806 16.3336C11.8735 16.0407 11.8735 15.5658 11.5806 15.273L8.75213 12.4445C8.45924 12.1516 7.98436 12.1516 7.69147 12.4445C7.39858 12.7374 7.39858 13.2123 7.69147 13.5052Z" fill="black"/>
</svg>
