<svg width="24" height="24" viewBox="0 0 24 24" fill="none" xmlns="http://www.w3.org/2000/svg">
<path d="M16.7835 3.21617C15.3626 2.44071 13.7328 2 12 2C6.47715 2 2 6.47715 2 12C2 17.5228 6.47715 22 12 22C17.5228 22 22 17.5228 22 12C22 10.2672 21.5592 8.63725 20.7837 7.21629L19.8536 8.14645C19.7934 8.20661 19.7266 8.25817 19.6548 8.30049C20.1964 9.41893 20.5 10.674 20.5 12C20.5 16.6944 16.6944 20.5 12 20.5C7.30558 20.5 3.5 16.6944 3.5 12C3.5 7.30558 7.30558 3.5 12 3.5C13.326 3.5 14.5811 3.80363 15.6995 4.34515C15.7418 4.27346 15.7933 4.20661 15.8535 4.14647L16.7835 3.21617Z" fill="black"/>
<path fill-rule="evenodd" clip-rule="evenodd" d="M12 16.5C14.4853 16.5 16.5 14.4853 16.5 12C16.5 9.51472 14.4853 7.5 12 7.5C9.51472 7.5 7.5 9.51472 7.5 12C7.5 14.4853 9.51472 16.5 12 16.5ZM12 18C15.3137 18 18 15.3137 18 12C18 8.68629 15.3137 6 12 6C8.68629 6 6 8.68629 6 12C6 15.3137 8.68629 18 12 18Z" fill="black"/>
<path fill-rule="evenodd" clip-rule="evenodd" d="M12 12.5C12.2761 12.5 12.5 12.2761 12.5 12C12.5 11.7239 12.2761 11.5 12 11.5C11.7239 11.5 11.5 11.7239 11.5 12C11.5 12.2761 11.7239 12.5 12 12.5ZM12 14C13.1046 14 14 13.1046 14 12C14 10.8954 13.1046 10 12 10C10.8954 10 10 10.8954 10 12C10 13.1046 10.8954 14 12 14Z" fill="black"/>
<path fill-rule="evenodd" clip-rule="evenodd" d="M18.0852 1.91409C18.6678 1.33138 19.6656 1.66374 19.7824 2.4794L20 4.00001L21.5201 4.21714C22.3359 4.33366 22.6685 5.3315 22.0858 5.91419L19.8536 8.14645C19.631 8.36902 19.3166 8.47381 19.0051 8.4293L16.9281 8.13259L12.5303 12.5303C12.2374 12.8232 11.7626 12.8232 11.4697 12.5303C11.1768 12.2374 11.1768 11.7626 11.4697 11.4697L15.8674 7.0719L15.5707 4.9949C15.5262 4.68335 15.631 4.36903 15.8535 4.14647L18.0852 1.91409ZM18.5152 4.21256C18.6096 4.87235 19.1281 5.39068 19.7879 5.48493L20.318 5.56066L18.9697 6.90902L17.3259 6.67418L17.091 5.03021L18.4392 3.68168L18.5152 4.21256Z" fill="black"/>
</svg>
