<svg width="24" height="24" viewBox="0 0 24 24" fill="none" xmlns="http://www.w3.org/2000/svg">
<path fill-rule="evenodd" clip-rule="evenodd" d="M9.5 13.9995C9.5 14.3245 9.39445 14.6407 9.19924 14.9005C8.75981 15.4854 8.5 16.2102 8.5 17C8.5 18.933 10.067 20.5 12 20.5C13.933 20.5 15.5 18.933 15.5 17C15.5 16.2102 15.2402 15.4854 14.8008 14.9005C14.6055 14.6407 14.5 14.3245 14.5 13.9995V6C14.5 4.61929 13.3807 3.5 12 3.5C10.6193 3.5 9.5 4.61929 9.5 6V13.9995ZM8 6C8 3.79086 9.79086 2 12 2C14.2091 2 16 3.79086 16 6V13.9995C16.6279 14.8353 17 15.8742 17 17C17 19.7614 14.7614 22 12 22C9.23858 22 7 19.7614 7 17C7 15.8742 7.37209 14.8353 8 13.9995V6Z" fill="black"/>
<path fill-rule="evenodd" clip-rule="evenodd" d="M12.75 8C12.75 7.58579 12.4142 7.25 12 7.25C11.5858 7.25 11.25 7.58579 11.25 8V15.1454C10.517 15.4421 10 16.1607 10 17C10 18.1046 10.8954 19 12 19C13.1046 19 14 18.1046 14 17C14 16.1607 13.483 15.4421 12.75 15.1454V8ZM12.5 17C12.5 17.2761 12.2761 17.5 12 17.5C11.7239 17.5 11.5 17.2761 11.5 17C11.5 16.7239 11.7239 16.5 12 16.5C12.2761 16.5 12.5 16.7239 12.5 17Z" fill="black"/>
</svg>
