<svg width="24" height="24" viewBox="0 0 24 24" fill="none" xmlns="http://www.w3.org/2000/svg">
<path fill-rule="evenodd" clip-rule="evenodd" d="M7.20002 14L9.4577 17.2253C9.81067 17.7295 10 18.3301 10 18.9457V20.5097C10 21.7348 11.2002 22.5999 12.3625 22.2125C14.4572 21.5143 15.7326 19.3959 15.3696 17.2179L15 15L20.4394 14.9977C21.7402 14.9971 22.6944 13.7745 22.3788 12.5125L20.5682 5.2722C20.2343 3.93679 19.0344 3 17.6578 3L5 3.00002C3.34315 3.00002 2 4.34317 2 6.00002V11C2 12.6569 3.34315 14 5 14H7.20002ZM13.5204 15.2466C13.4479 14.8118 13.5704 14.3671 13.8553 14.0307C14.1401 13.6943 14.5585 13.5002 14.9994 13.5L20.4388 13.4977C20.764 13.4975 21.0025 13.1919 20.9236 12.8764L19.113 5.6361C18.946 4.9684 18.3461 4.5 17.6578 4.5H8V12.5272L10.6865 16.3651C11.216 17.1215 11.5 18.0224 11.5 18.9457V20.5097C11.5 20.711 11.6972 20.8531 11.8881 20.7895C13.2826 20.3247 14.1317 18.9144 13.8901 17.4645L13.5204 15.2466ZM6.5 12.5V4.50002H5C4.17157 4.50002 3.5 5.1716 3.5 6.00002V11C3.5 11.8285 4.17157 12.5 5 12.5H6.5Z" fill="black"/>
</svg>
