<svg width="24" height="24" viewBox="0 0 24 24" fill="none" xmlns="http://www.w3.org/2000/svg">
<path fill-rule="evenodd" clip-rule="evenodd" d="M5 5.5C4.17157 5.5 3.5 6.17157 3.5 7V8.81186C3.50467 8.81559 3.50962 8.81945 3.51485 8.82344C3.55937 8.85743 3.61495 8.89352 3.67924 8.92872C4.761 9.52089 5.5 10.6731 5.5 12C5.5 13.3269 4.761 14.4791 3.67924 15.0713C3.61495 15.1065 3.55937 15.1426 3.51485 15.1766C3.50962 15.1805 3.50467 15.1844 3.5 15.1881V17C3.5 17.8284 4.17157 18.5 5 18.5H19C19.8284 18.5 20.5 17.8284 20.5 17V15.1881C20.4953 15.1844 20.4904 15.1805 20.4852 15.1766C20.4406 15.1426 20.385 15.1065 20.3208 15.0713C19.239 14.4791 18.5 13.3269 18.5 12C18.5 10.6731 19.239 9.52089 20.3208 8.92872C20.385 8.89352 20.4406 8.85743 20.4852 8.82344C20.4904 8.81945 20.4953 8.81559 20.5 8.81186V7C20.5 6.17157 19.8284 5.5 19 5.5H5ZM5 4C3.34315 4 2 5.34315 2 7V9C2 9.55228 2.47452 9.97928 2.95897 10.2445C3.57933 10.5841 4 11.2429 4 12C4 12.7571 3.57933 13.4159 2.95897 13.7555C2.47452 14.0207 2 14.4477 2 15V17C2 18.6569 3.34315 20 5 20H19C20.6569 20 22 18.6569 22 17V15C22 14.4477 21.5255 14.0207 21.041 13.7555C20.4207 13.4159 20 12.7571 20 12C20 11.2429 20.4207 10.5841 21.041 10.2445C21.5255 9.97928 22 9.55228 22 9V7C22 5.34315 20.6569 4 19 4H5Z" fill="black"/>
<path fill-rule="evenodd" clip-rule="evenodd" d="M11.9999 10.3871C11.6552 10.9451 11.1032 11.3461 10.466 11.5016C10.8901 12.0019 11.101 12.6508 11.0519 13.3049C11.6587 13.0561 12.3411 13.0561 12.948 13.3049C12.8989 12.6508 13.1098 12.0019 13.5339 11.5016C12.8967 11.3461 12.3447 10.945 11.9999 10.3871ZM12.9445 8.71739C12.6332 7.82183 11.3667 7.82183 11.0554 8.71739L10.8177 9.40107C10.6804 9.79614 10.3117 10.064 9.89354 10.0725L9.16988 10.0873C8.22196 10.1066 7.83058 11.3111 8.58611 11.8839L9.16289 12.3212C9.49619 12.5739 9.63702 13.0073 9.5159 13.4077L9.3063 14.1005C9.03175 15.008 10.0564 15.7524 10.8346 15.2109L11.4288 14.7975C11.7721 14.5586 12.2278 14.5586 12.5711 14.7975L13.1652 15.2109C13.9435 15.7524 14.9681 15.008 14.6936 14.1005L14.484 13.4077C14.3629 13.0073 14.5037 12.5739 14.837 12.3212L15.4138 11.8839C16.1693 11.3111 15.7779 10.1066 14.83 10.0873L14.1063 10.0725C13.6882 10.064 13.3195 9.79614 13.1822 9.40107L12.9445 8.71739Z" fill="black"/>
</svg>
