<svg width="24" height="24" viewBox="0 0 24 24" fill="none" xmlns="http://www.w3.org/2000/svg">
<path fill-rule="evenodd" clip-rule="evenodd" d="M15.0303 11.0303C15.3232 10.7374 15.3232 10.2626 15.0303 9.96967C14.7374 9.67678 14.2626 9.67678 13.9697 9.96967L12.7811 11.1583C12.5411 11.0564 12.2771 11 12 11C10.8954 11 10 11.8954 10 13C10 14.1046 10.8954 15 12 15C13.1046 15 14 14.1046 14 13C14 12.7229 13.9436 12.4589 13.8417 12.2189L15.0303 11.0303ZM12.5 13C12.5 13.2761 12.2761 13.5 12 13.5C11.7239 13.5 11.5 13.2761 11.5 13C11.5 12.7239 11.7239 12.5 12 12.5C12.2761 12.5 12.5 12.7239 12.5 13Z" fill="black"/>
<path fill-rule="evenodd" clip-rule="evenodd" d="M10 2.25C9.58579 2.25 9.25 2.58579 9.25 3C9.25 3.41421 9.58579 3.75 10 3.75H11.25V5.03469C7.18341 5.41279 4 8.83464 4 13C4 17.4183 7.58172 21 12 21C16.4183 21 20 17.4183 20 13C20 8.83464 16.8166 5.41279 12.75 5.03469V3.75H14C14.4142 3.75 14.75 3.41421 14.75 3C14.75 2.58579 14.4142 2.25 14 2.25H10ZM12 19.5C15.5899 19.5 18.5 16.5899 18.5 13C18.5 9.41015 15.5899 6.5 12 6.5C8.41015 6.5 5.5 9.41015 5.5 13C5.5 16.5899 8.41015 19.5 12 19.5Z" fill="black"/>
<path d="M6.64113 4.2614C6.42484 3.90871 5.96188 3.79606 5.62472 4.03585C5.09264 4.41427 4.59529 4.83931 4.1386 5.30595C3.84921 5.60163 3.88835 6.07649 4.20303 6.34508C4.51772 6.61367 4.98856 6.57392 5.28111 6.28137C5.63172 5.93074 6.00925 5.60809 6.41023 5.31638C6.74479 5.07299 6.85741 4.61409 6.64113 4.2614Z" fill="black"/>
<path d="M17.3596 4.26018C17.5755 3.90817 18.0376 3.79574 18.3741 4.03502C18.907 4.41393 19.4051 4.83961 19.8624 5.30699C20.1512 5.60213 20.1122 6.07608 19.7981 6.34415C19.484 6.61223 19.0141 6.57256 18.7221 6.28052C18.3707 5.92893 17.9922 5.60546 17.5901 5.31308C17.2562 5.07021 17.1438 4.61219 17.3596 4.26018Z" fill="black"/>
</svg>
