<svg width="24" height="24" viewBox="0 0 24 24" fill="none" xmlns="http://www.w3.org/2000/svg">
<path fill-rule="evenodd" clip-rule="evenodd" d="M15 9.75C13.7574 9.75 12.75 10.7574 12.75 12C12.75 13.2426 13.7574 14.25 15 14.25C16.2426 14.25 17.25 13.2426 17.25 12C17.25 10.7574 16.2426 9.75 15 9.75ZM11.25 12C11.25 9.92893 12.9289 8.25 15 8.25C17.0711 8.25 18.75 9.92893 18.75 12C18.75 14.0711 17.0711 15.75 15 15.75C12.9289 15.75 11.25 14.0711 11.25 12Z" fill="black"/>
<path fill-rule="evenodd" clip-rule="evenodd" d="M2.25 12C2.25 8.27208 5.27208 5.25 9 5.25H15C18.7279 5.25 21.75 8.27208 21.75 12C21.75 15.7279 18.7279 18.75 15 18.75H9C5.27208 18.75 2.25 15.7279 2.25 12ZM9 6.75C6.10051 6.75 3.75 9.10051 3.75 12C3.75 14.8995 6.1005 17.25 9 17.25H15C17.8995 17.25 20.25 14.8995 20.25 12C20.25 9.10051 17.8995 6.75 15 6.75H9Z" fill="black"/>
</svg>
