<svg width="24" height="24" viewBox="0 0 24 24" fill="none" xmlns="http://www.w3.org/2000/svg">
<path fill-rule="evenodd" clip-rule="evenodd" d="M9 9.75C7.75736 9.75 6.75 10.7574 6.75 12C6.75 13.2426 7.75736 14.25 9 14.25C10.2426 14.25 11.25 13.2426 11.25 12C11.25 10.7574 10.2426 9.75 9 9.75ZM5.25 12C5.25 9.92893 6.92893 8.25 9 8.25C11.0711 8.25 12.75 9.92893 12.75 12C12.75 14.0711 11.0711 15.75 9 15.75C6.92893 15.75 5.25 14.0711 5.25 12Z" fill="black"/>
<path fill-rule="evenodd" clip-rule="evenodd" d="M2.25 12C2.25 8.27208 5.27208 5.25 9 5.25H15C18.7279 5.25 21.75 8.27208 21.75 12C21.75 15.7279 18.7279 18.75 15 18.75H9C5.27208 18.75 2.25 15.7279 2.25 12ZM9 6.75C6.10051 6.75 3.75 9.10051 3.75 12C3.75 14.8995 6.1005 17.25 9 17.25H15C17.8995 17.25 20.25 14.8995 20.25 12C20.25 9.10051 17.8995 6.75 15 6.75H9Z" fill="black"/>
</svg>
