<svg width="24" height="24" viewBox="0 0 24 24" fill="none" xmlns="http://www.w3.org/2000/svg">
<path fill-rule="evenodd" clip-rule="evenodd" d="M12.9504 13.2123C13.3291 12.8337 13.8808 12.6856 14.3981 12.8238C15.9038 13.2259 17.5704 12.8351 18.7468 11.6586C19.8489 10.5565 20.2612 9.02295 19.979 7.59794L18.7468 8.83016C17.7705 9.80647 16.1876 9.80647 15.2113 8.83016C14.235 7.85385 14.235 6.27094 15.2113 5.29463L16.4435 4.06241C15.0185 3.78022 13.485 4.19253 12.3828 5.29464C11.2064 6.47109 10.8156 8.1377 11.2177 9.64334C11.3558 10.1607 11.2077 10.7124 10.8291 11.091L5.31178 16.6084C4.72599 17.1941 4.72599 18.1439 5.31178 18.7297C5.89756 19.3155 6.84731 19.3155 7.4331 18.7297L12.9504 13.2123ZM14.0111 14.273C16.0128 14.8076 18.2371 14.2896 19.8075 12.7193C21.6179 10.9089 22.0295 8.22937 21.0423 6.02377C20.7897 5.45935 20.0575 5.39811 19.6203 5.83537L17.6862 7.7695C17.2956 8.16003 16.6625 8.16003 16.2719 7.7695C15.8814 7.37898 15.8814 6.74581 16.2719 6.35529L18.2061 4.42116C18.6433 3.9839 18.5821 3.25175 18.0177 2.99913C15.8121 2.01196 13.1326 2.42358 11.3222 4.23398C9.75181 5.80436 9.2339 8.02865 9.76845 10.0304L4.25112 15.5477C3.07954 16.7193 3.07954 18.6188 4.25112 19.7903C5.42269 20.9619 7.32218 20.9619 8.49376 19.7903L14.0111 14.273Z" fill="black"/>
</svg>
