<svg width="24" height="24" viewBox="0 0 24 24" fill="none" xmlns="http://www.w3.org/2000/svg">
<path fill-rule="evenodd" clip-rule="evenodd" d="M8.23609 20.75C7.76262 20.75 7.32979 21.0175 7.11805 21.441L6.67087 22.3354C6.48563 22.7059 6.03513 22.8561 5.66464 22.6708C5.29416 22.4856 5.14398 22.0351 5.32922 21.6646L5.7764 20.7702C6.24222 19.8385 7.19445 19.25 8.23609 19.25H15.764C16.8056 19.25 17.7578 19.8385 18.2236 20.7701L18.6709 21.6646C18.8561 22.0351 18.7059 22.4856 18.3355 22.6708C17.965 22.8561 17.5145 22.7059 17.3292 22.3354L16.882 21.441C16.6703 21.0175 16.2374 20.75 15.764 20.75H8.23609Z" fill="black"/>
<path fill-rule="evenodd" clip-rule="evenodd" d="M15 2C15 1.44772 14.5523 1 14 1H10C9.44772 1 9 1.44772 9 2H6C4.34315 2 3 3.34315 3 5V15C3 16.6569 4.34315 18 6 18H18C19.6569 18 21 16.6569 21 15V5C21 3.34315 19.6569 2 18 2H15ZM18 3.5H6C5.17157 3.5 4.5 4.17157 4.5 5V9.25H19.5V5C19.5 4.17157 18.8284 3.5 18 3.5ZM19.5 10.75H4.5V15C4.5 15.8284 5.17157 16.5 6 16.5H18C18.8284 16.5 19.5 15.8284 19.5 15V10.75Z" fill="black"/>
<path d="M8 14C8 14.5523 7.55228 15 7 15C6.44772 15 6 14.5523 6 14C6 13.4477 6.44772 13 7 13C7.55228 13 8 13.4477 8 14Z" fill="black"/>
<path d="M18 14C18 14.5523 17.5523 15 17 15C16.4477 15 16 14.5523 16 14C16 13.4477 16.4477 13 17 13C17.5523 13 18 13.4477 18 14Z" fill="black"/>
</svg>
