<svg width="24" height="24" viewBox="0 0 24 24" fill="none" xmlns="http://www.w3.org/2000/svg">
<path fill-rule="evenodd" clip-rule="evenodd" d="M10 10.25C10.4142 10.25 10.75 10.5858 10.75 11V16C10.75 16.4142 10.4142 16.75 10 16.75C9.58579 16.75 9.25 16.4142 9.25 16V11C9.25 10.5858 9.58579 10.25 10 10.25Z" fill="black"/>
<path fill-rule="evenodd" clip-rule="evenodd" d="M14 10.25C14.4142 10.25 14.75 10.5858 14.75 11V16C14.75 16.4142 14.4142 16.75 14 16.75C13.5858 16.75 13.25 16.4142 13.25 16V11C13.25 10.5858 13.5858 10.25 14 10.25Z" fill="black"/>
<path fill-rule="evenodd" clip-rule="evenodd" d="M10 2.25C8.48122 2.25 7.25 3.48122 7.25 5V5.25H3C2.58579 5.25 2.25 5.58579 2.25 6C2.25 6.41421 2.58579 6.75 3 6.75H4.25V19C4.25 20.5188 5.48122 21.75 7 21.75H17C18.5188 21.75 19.75 20.5188 19.75 19V6.75H21C21.4142 6.75 21.75 6.41421 21.75 6C21.75 5.58579 21.4142 5.25 21 5.25H16.75V5C16.75 3.48122 15.5188 2.25 14 2.25H10ZM15.25 5.25V5C15.25 4.30964 14.6904 3.75 14 3.75H10C9.30964 3.75 8.75 4.30964 8.75 5V5.25H15.25ZM5.75 6.75V19C5.75 19.6904 6.30964 20.25 7 20.25H17C17.6904 20.25 18.25 19.6904 18.25 19V6.75H5.75Z" fill="black"/>
</svg>
