<svg width="24" height="24" viewBox="0 0 24 24" fill="none" xmlns="http://www.w3.org/2000/svg">
<path d="M19.1893 16.25H16C15.5858 16.25 15.25 16.5858 15.25 17C15.25 17.4142 15.5858 17.75 16 17.75H21C21.4142 17.75 21.75 17.4142 21.75 17V12C21.75 11.5858 21.4142 11.25 21 11.25C20.5858 11.25 20.25 11.5858 20.25 12V15.1893L14.2374 9.17678C13.554 8.49336 12.446 8.49336 11.7626 9.17678L9.17678 11.7626C9.07915 11.8602 8.92086 11.8602 8.82322 11.7626L3.53033 6.46967C3.23744 6.17678 2.76256 6.17678 2.46967 6.46967C2.17678 6.76256 2.17678 7.23744 2.46967 7.53033L7.76256 12.8232C8.44598 13.5066 9.55402 13.5066 10.2374 12.8232L12.8232 10.2374C12.9209 10.1398 13.0791 10.1398 13.1768 10.2374L19.1893 16.25Z" fill="black"/>
</svg>
