<svg width="24" height="24" viewBox="0 0 24 24" fill="none" xmlns="http://www.w3.org/2000/svg">
<path d="M16 6.25C15.5858 6.25 15.25 6.58579 15.25 7C15.25 7.41421 15.5858 7.75 16 7.75H19.1893L13.1768 13.7626C13.0791 13.8602 12.9209 13.8602 12.8232 13.7626L10.2374 11.1768C9.55402 10.4934 8.44598 10.4934 7.76256 11.1768L2.46967 16.4697C2.17678 16.7626 2.17678 17.2374 2.46967 17.5303C2.76256 17.8232 3.23744 17.8232 3.53033 17.5303L8.82322 12.2374C8.92086 12.1398 9.07915 12.1398 9.17678 12.2374L11.7626 14.8232C12.446 15.5066 13.554 15.5066 14.2374 14.8232L20.25 8.81066V12C20.25 12.4142 20.5858 12.75 21 12.75C21.4142 12.75 21.75 12.4142 21.75 12V7C21.75 6.58579 21.4142 6.25 21 6.25H16Z" fill="black"/>
</svg>
