<svg width="24" height="24" viewBox="0 0 24 24" fill="none" xmlns="http://www.w3.org/2000/svg">
<path fill-rule="evenodd" clip-rule="evenodd" d="M2 15C2 16.6569 3.34315 18 5 18C5 19.1046 5.89543 20 7 20C8.10457 20 9 19.1046 9 18H16C16 19.1046 16.8954 20 18 20C19.1046 20 20 19.1046 20 18C20 17.9433 19.9976 17.8872 19.993 17.8318C21.1619 17.4219 22 16.3088 22 15V12.7082C22 12.2425 21.8916 11.7831 21.6833 11.3666L19.8292 7.65836C19.321 6.64201 18.2822 6 17.1459 6H15.8293C15.4175 4.83481 14.3062 4 13 4H5C3.34315 4 2 5.34315 2 7V15ZM17.5 18C17.5 18.2761 17.7239 18.5 18 18.5C18.2761 18.5 18.5 18.2761 18.5 18H17.5ZM19.2904 16.4719C19.9798 16.3367 20.5 15.7291 20.5 15V12.7082C20.5 12.4753 20.4458 12.2457 20.3416 12.0374L20.1979 11.75H16V16.5L19.2904 16.4719ZM14.5 16.5V7C14.5 6.17157 13.8284 5.5 13 5.5H5C4.17157 5.5 3.5 6.17157 3.5 7V15C3.5 15.8284 4.17157 16.5 5 16.5H14.5ZM7 18.5C6.72386 18.5 6.5 18.2761 6.5 18H7.5C7.5 18.2761 7.27614 18.5 7 18.5ZM19.4479 10.25H16V7.5H17.1459C17.7141 7.5 18.2335 7.821 18.4875 8.32918L19.4479 10.25Z" fill="black"/>
</svg>
