<svg width="24" height="24" viewBox="0 0 24 24" fill="none" xmlns="http://www.w3.org/2000/svg">
<path fill-rule="evenodd" clip-rule="evenodd" d="M19 4.5H5C4.17157 4.5 3.5 5.17157 3.5 6V15C3.5 15.8284 4.17157 16.5 5 16.5H19C19.8284 16.5 20.5 15.8284 20.5 15V6C20.5 5.17157 19.8284 4.5 19 4.5ZM5 3C3.34315 3 2 4.34315 2 6V15C2 16.6569 3.34315 18 5 18H19C20.6569 18 22 16.6569 22 15V6C22 4.34315 20.6569 3 19 3H5Z" fill="black"/>
<path fill-rule="evenodd" clip-rule="evenodd" d="M7.25 20C7.25 19.5858 7.58579 19.25 8 19.25H16C16.4142 19.25 16.75 19.5858 16.75 20C16.75 20.4142 16.4142 20.75 16 20.75H8C7.58579 20.75 7.25 20.4142 7.25 20Z" fill="black"/>
</svg>
