<svg width="24" height="24" viewBox="0 0 24 24" fill="none" xmlns="http://www.w3.org/2000/svg">
<path d="M8.99994 20.8C6.59994 20.8 4.19994 20.2001 2.19994 19.2C1.89994 19.1 1.69994 18.7 1.79994 18.4C1.89994 18.1 2.09994 17.8 2.39994 17.8C4.29994 17.6 5.69994 17.2 6.99994 16.5C4.09994 14.3 2.59994 10.3 2.79994 5.00005C2.79994 4.70005 2.99994 4.40005 3.29994 4.30005C3.59994 4.20005 3.89994 4.30005 4.09994 4.50005C6.19994 6.60005 8.79994 8.80005 11.1999 8.50005C11.0999 7.60005 11.1999 5.90005 12.1999 4.70005C12.9999 3.80005 14.0999 3.30005 15.5999 3.30005C17.2999 3.30005 18.3999 4.40005 18.8999 5.20005L21.2999 4.40005C21.5999 4.30005 21.8999 4.40005 22.0999 4.70005C22.2999 5.00005 22.2999 5.30005 22.0999 5.60005L20.2999 8.30005C20.4999 9.40005 20.7999 13 18.0999 16.6C15.7999 19.6 12.3999 20.8 8.99994 20.8ZM5.19994 18.8C9.29994 20 13.9999 19.5 16.8999 15.6C19.5999 12 18.7999 8.40005 18.7999 8.20005C18.7999 8.00005 18.7999 7.80005 18.8999 7.60005L19.6999 6.40005L18.7999 6.70005C18.3999 6.80005 18.0999 6.70005 17.8999 6.30005C17.8999 6.30005 17.0999 4.70005 15.5999 4.70005C14.5999 4.70005 13.8999 5.00005 13.3999 5.50005C12.3999 6.70005 12.7999 8.70005 12.7999 8.80005C12.8999 9.20005 12.6999 9.50005 12.2999 9.70005C9.49994 10.6 6.69994 8.80005 4.29994 6.70005C4.49994 10.1 5.49994 14 8.89994 15.8C9.09994 15.9 9.29994 16.2 9.29994 16.4C9.29994 16.7 9.19994 16.9 8.89994 17.1C7.69994 17.9 6.49994 18.4 5.19994 18.8Z" fill="black"/>
</svg>
