<svg width="24" height="24" viewBox="0 0 24 24" fill="none" xmlns="http://www.w3.org/2000/svg">
<path fill-rule="evenodd" clip-rule="evenodd" d="M7 17.5C7.82843 17.5 8.5 18.1716 8.5 19V20.132L10.7113 18.1418C11.1704 17.7286 11.7661 17.5 12.3837 17.5H15.1639C15.5891 17.5 15.9944 17.3195 16.2789 17.0034L19.1149 13.8522C19.3628 13.5768 19.5 13.2194 19.5 12.8488V5C19.5 4.17157 18.8284 3.5 18 3.5H6C5.17157 3.5 4.5 4.17157 4.5 5V16C4.5 16.8284 5.17157 17.5 6 17.5H7ZM6 2C4.34315 2 3 3.34315 3 5V16C3 17.6569 4.34315 19 6 19H7V21.2546C7 22.1204 8.02544 22.5771 8.66897 21.9979L11.7148 19.2567C11.8984 19.0914 12.1367 19 12.3837 19H15.1639C16.0144 19 16.8249 18.639 17.3938 18.0069L20.2299 14.8557C20.7257 14.3048 21 13.5899 21 12.8488V5C21 3.34315 19.6569 2 18 2H6Z" fill="black"/>
<path fill-rule="evenodd" clip-rule="evenodd" d="M10 7.25C10.4142 7.25 10.75 7.58579 10.75 8V12C10.75 12.4142 10.4142 12.75 10 12.75C9.58579 12.75 9.25 12.4142 9.25 12V8C9.25 7.58579 9.58579 7.25 10 7.25Z" fill="black"/>
<path fill-rule="evenodd" clip-rule="evenodd" d="M15 7.25C15.4142 7.25 15.75 7.58579 15.75 8V12C15.75 12.4142 15.4142 12.75 15 12.75C14.5858 12.75 14.25 12.4142 14.25 12V8C14.25 7.58579 14.5858 7.25 15 7.25Z" fill="black"/>
</svg>
