<svg width="24" height="24" viewBox="0 0 24 24" fill="none" xmlns="http://www.w3.org/2000/svg">
<path fill-rule="evenodd" clip-rule="evenodd" d="M12.75 2C12.75 1.58579 12.4142 1.25 12 1.25C11.5858 1.25 11.25 1.58579 11.25 2V3.0277C6.40821 3.38671 2.52595 7.19329 2.04925 12.0014C1.99476 12.551 2.44773 13 3.00002 13H11.25V19C11.25 19.6904 10.6904 20.25 10 20.25C9.30964 20.25 8.75 19.6904 8.75 19V18C8.75 17.5858 8.41421 17.25 8 17.25C7.58579 17.25 7.25 17.5858 7.25 18V19C7.25 20.5188 8.48122 21.75 10 21.75C11.5188 21.75 12.75 20.5188 12.75 19V13H21C21.5523 13 22.0053 12.551 21.9508 12.0014C21.4741 7.19328 17.5918 3.38669 12.75 3.0277V2ZM20.3683 11.5C19.6605 7.5216 16.1823 4.5 12 4.5C7.81773 4.5 4.33951 7.5216 3.63172 11.5H20.3683Z" fill="black"/>
</svg>
