<svg width="24" height="24" viewBox="0 0 24 24" fill="none" xmlns="http://www.w3.org/2000/svg">
<path fill-rule="evenodd" clip-rule="evenodd" d="M5.25 21C5.25 20.5858 5.58579 20.25 6 20.25H18C18.4142 20.25 18.75 20.5858 18.75 21C18.75 21.4142 18.4142 21.75 18 21.75H6C5.58579 21.75 5.25 21.4142 5.25 21Z" fill="black"/>
<path fill-rule="evenodd" clip-rule="evenodd" d="M6 2.25C6.41421 2.25 6.75 2.58579 6.75 3V11C6.75 13.8995 9.10051 16.25 12 16.25C14.8995 16.25 17.25 13.8995 17.25 11V3C17.25 2.58579 17.5858 2.25 18 2.25C18.4142 2.25 18.75 2.58579 18.75 3V11C18.75 14.7279 15.7279 17.75 12 17.75C8.27208 17.75 5.25 14.7279 5.25 11V3C5.25 2.58579 5.58579 2.25 6 2.25Z" fill="black"/>
</svg>
