<svg width="24" height="24" viewBox="0 0 24 24" fill="none" xmlns="http://www.w3.org/2000/svg">
<path d="M20.3833 14.678C19.2627 10.4962 14.9643 8.01451 10.7825 9.13503C8.25404 9.81252 6.38413 11.6428 5.53269 13.9233L7.47606 13.3965C7.87585 13.2881 8.28779 13.5244 8.39617 13.9242C8.50455 14.3239 8.26832 14.7359 7.86853 14.8443L4.69027 15.7059C4.66025 15.7161 4.62948 15.7245 4.59814 15.7308L4.18417 15.8431C3.99182 15.8952 3.78663 15.8686 3.61389 15.7693C3.44115 15.6699 3.31507 15.5058 3.26349 15.3133L2.2755 11.626C2.16829 11.2259 2.40573 10.8147 2.80583 10.7075C3.20593 10.6003 3.61718 10.8377 3.72439 11.2378L4.23192 13.132C5.28796 10.546 7.46884 8.47 10.3943 7.68614C15.3763 6.3512 20.4972 9.30777 21.8321 14.2898C21.9394 14.6899 21.7019 15.1012 21.3018 15.2084C20.9017 15.3156 20.4905 15.0781 20.3833 14.678Z" fill="black"/>
</svg>
