<svg width="24" height="24" viewBox="0 0 24 24" fill="none" xmlns="http://www.w3.org/2000/svg">
<path fill-rule="evenodd" clip-rule="evenodd" d="M4 14.25C4.41421 14.25 4.75 14.5858 4.75 15V17C4.75 17.6904 5.30964 18.25 6 18.25H18C18.6904 18.25 19.25 17.6904 19.25 17V15C19.25 14.5858 19.5858 14.25 20 14.25C20.4142 14.25 20.75 14.5858 20.75 15V17C20.75 18.5188 19.5188 19.75 18 19.75H6C4.48122 19.75 3.25 18.5188 3.25 17V15C3.25 14.5858 3.58579 14.25 4 14.25Z" fill="black"/>
<path d="M17.0303 9.46728C17.3232 9.76017 17.3232 10.235 17.0303 10.5279C16.7374 10.8208 16.2625 10.8208 15.9696 10.5279L12.7519 7.31022V15C12.7519 15.4142 12.4161 15.75 12.0019 15.75C11.5877 15.75 11.2519 15.4142 11.2519 15V7.31013L8.03216 10.5299C7.73927 10.8228 7.26439 10.8228 6.9715 10.5299C6.67861 10.237 6.67861 9.76212 6.9715 9.46923L11.4715 4.96918C11.6122 4.82853 11.803 4.74951 12.0019 4.74951C12.2008 4.74951 12.3916 4.82853 12.5322 4.96918L17.0303 9.46728Z" fill="black"/>
</svg>
