<svg width="24" height="24" viewBox="0 0 24 24" fill="none" xmlns="http://www.w3.org/2000/svg">
<path fill-rule="evenodd" clip-rule="evenodd" d="M20 4C20 3.44772 19.5523 3 19 3C16.2386 3 14 5.23858 14 8V14C14 14.5523 14.4477 15 15 15H18.5L18.5 20C18.5 20.4142 18.8358 20.75 19.25 20.75C19.6642 20.75 20 20.4142 20 20L20 4ZM15.5 13.5H18.5L18.5 4.53544C16.8039 4.77806 15.5 6.23676 15.5 8L15.5 13.5Z" fill="black"/>
<path fill-rule="evenodd" clip-rule="evenodd" d="M5.5 3.75C5.5 3.33579 5.16421 3 4.75 3C4.33579 3 4 3.33579 4 3.75V8.75C4 10.5642 5.28832 12.0775 7 12.425V20C7 20.4142 7.33579 20.75 7.75 20.75C8.16421 20.75 8.5 20.4142 8.5 20V12.425C10.2117 12.0775 11.5 10.5642 11.5 8.75V3.75C11.5 3.33579 11.1642 3 10.75 3C10.3358 3 10 3.33579 10 3.75V7H8.5V3.75C8.5 3.33579 8.16421 3 7.75 3C7.33579 3 7 3.33579 7 3.75V7H5.5V3.75ZM5.5 8.5V8.75C5.5 9.99264 6.50736 11 7.75 11C8.99264 11 10 9.99264 10 8.75V8.5H5.5Z" fill="black"/>
</svg>
