<svg width="24" height="24" viewBox="0 0 24 24" fill="none" xmlns="http://www.w3.org/2000/svg">
<path fill-rule="evenodd" clip-rule="evenodd" d="M9 6C9 4.89543 9.89543 4 11 4H13C14.1046 4 15 4.89543 15 6H18.2676C18.6134 5.4022 19.2597 5 20 5C21.1046 5 22 5.89543 22 7C22 8.10457 21.1046 9 20 9C19.2597 9 18.6134 8.5978 18.2676 8H16.5346C17.8955 9.2349 18.75 11.0177 18.75 13V14H19C20.1046 14 21 14.8954 21 16V18C21 19.1046 20.1046 20 19 20H17C15.8954 20 15 19.1046 15 18V16C15 14.8954 15.8954 14 17 14H17.25V13C17.25 11.173 16.3167 9.56392 14.9009 8.62357C14.6389 9.4228 13.8868 10 13 10H11C10.0682 10 9.28531 9.36284 9.06313 8.50046C9.07384 8.54203 9.08585 8.58309 9.09912 8.62357C7.68328 9.56392 6.75 11.173 6.75 13V14H7C8.10457 14 9 14.8954 9 16V18C9 19.1046 8.10457 20 7 20H5C3.89543 20 3 19.1046 3 18V16C3 14.8954 3.89543 14 5 14H5.25V13C5.25 10.8796 6.22776 8.98747 7.75702 7.75H5.85462C5.55793 8.48296 4.83934 9 4 9C2.89543 9 2 8.10457 2 7C2 5.89543 2.89543 5 4 5C4.83934 5 5.55793 5.51704 5.85462 6.25H9V6ZM11 5.5H13C13.2761 5.5 13.5 5.72386 13.5 6V8C13.5 8.27614 13.2761 8.5 13 8.5H11C10.7239 8.5 10.5 8.27614 10.5 8V6C10.5 5.72386 10.7239 5.5 11 5.5ZM4 7.5C4.27614 7.5 4.5 7.27614 4.5 7C4.5 6.72386 4.27614 6.5 4 6.5C3.72386 6.5 3.5 6.72386 3.5 7C3.5 7.27614 3.72386 7.5 4 7.5ZM20 7.5C20.2761 7.5 20.5 7.27614 20.5 7C20.5 6.72386 20.2761 6.5 20 6.5C19.7239 6.5 19.5 6.72386 19.5 7C19.5 7.27614 19.7239 7.5 20 7.5ZM7 15.5H5C4.72386 15.5 4.5 15.7239 4.5 16V18C4.5 18.2761 4.72386 18.5 5 18.5H7C7.27614 18.5 7.5 18.2761 7.5 18V16C7.5 15.7239 7.27614 15.5 7 15.5ZM17 15.5H19C19.2761 15.5 19.5 15.7239 19.5 16V18C19.5 18.2761 19.2761 18.5 19 18.5H17C16.7239 18.5 16.5 18.2761 16.5 18V16C16.5 15.7239 16.7239 15.5 17 15.5Z" fill="black"/>
</svg>
