<svg width="24" height="24" viewBox="0 0 24 24" fill="none" xmlns="http://www.w3.org/2000/svg">
<path fill-rule="evenodd" clip-rule="evenodd" d="M18.3552 6.55001C19.0631 6.98577 19.6834 7.55785 20.1777 8.23815C20.9721 9.33157 21.4 10.6484 21.4 12C21.4 13.3515 20.9721 14.6684 20.1777 15.7618C19.6834 16.4421 19.0631 17.0142 18.3552 17.4499C18.1509 17.5758 17.9392 17.6902 17.7211 17.7927C17.672 17.8157 17.6254 17.8427 17.5817 17.8731C17.2696 18.0899 17.1051 18.479 17.2249 18.8476C17.3614 19.2678 17.8149 19.5014 18.2194 19.3236C18.2804 19.2968 18.3411 19.2692 18.4014 19.2408C18.6648 19.1171 18.9207 18.9794 19.1682 18.8283C20.0637 18.2817 20.8483 17.5609 21.4721 16.7023C22.4651 15.3355 23 13.6894 23 12C23 10.3105 22.4651 8.66447 21.4721 7.29769C20.8483 6.43903 20.0637 5.71829 19.1682 5.17163C18.9207 5.02058 18.6648 4.88281 18.4014 4.7591C18.3411 4.73077 18.2804 4.70318 18.2194 4.67633C17.8149 4.49854 17.3614 4.73216 17.2249 5.15237C17.1051 5.52096 17.2696 5.91006 17.5817 6.12687C17.6254 6.15723 17.672 6.18421 17.7211 6.20728C17.9392 6.3097 18.1509 6.42417 18.3552 6.55001Z" fill="black"/>
<path fill-rule="evenodd" clip-rule="evenodd" d="M16.8405 14.977C17.2253 14.7391 17.5626 14.4275 17.8315 14.0573C18.266 13.4593 18.5 12.7391 18.5 12C18.5 11.2609 18.266 10.5407 17.8315 9.94276C17.545 9.5484 17.181 9.22052 16.7647 8.97744C16.7309 8.95771 16.6983 8.93613 16.6671 8.91289C16.6372 8.89056 16.6085 8.8667 16.5813 8.84148C16.3369 8.61505 16.209 8.279 16.3133 7.95802C16.4413 7.56408 16.868 7.34358 17.2384 7.52902C17.3343 7.57704 17.4285 7.62809 17.521 7.68206C18.1157 8.02928 18.6357 8.49767 19.0451 9.06108C19.6657 9.91532 20 10.9441 20 12C20 13.0559 19.6657 14.0847 19.0451 14.9389C18.6357 15.5023 18.1157 15.9707 17.521 16.318C17.4285 16.3719 17.3343 16.423 17.2384 16.471C16.868 16.6564 16.4413 16.4359 16.3133 16.042C16.209 15.721 16.3369 15.385 16.5813 15.1585C16.6085 15.1333 16.6372 15.1095 16.6671 15.0871C16.6983 15.0639 16.7309 15.0423 16.7647 15.0226C16.7902 15.0077 16.8155 14.9925 16.8405 14.977Z" fill="black"/>
<path fill-rule="evenodd" clip-rule="evenodd" d="M7 15.5C7.36333 15.5 7.71432 15.6319 7.98776 15.8711L12.6707 19.9687C12.994 20.2516 13.5 20.022 13.5 19.5924V4.40752C13.5 3.97794 12.994 3.74835 12.6707 4.03123L7.98776 8.12885C7.71432 8.3681 7.36333 8.49998 7 8.49998H5C4.17157 8.49998 3.5 9.17156 3.5 9.99998V14C3.5 14.8284 4.17157 15.5 5 15.5H7ZM7 17L11.683 21.0976C12.9762 22.2291 15 21.3108 15 19.5924V4.40752C15 2.6892 12.9762 1.77084 11.683 2.90236L7 6.99998H5C3.34315 6.99998 2 8.34313 2 9.99998V14C2 15.6568 3.34315 17 5 17H7Z" fill="black"/>
</svg>
