<svg width="24" height="24" viewBox="0 0 24 24" fill="none" xmlns="http://www.w3.org/2000/svg">
<path fill-rule="evenodd" clip-rule="evenodd" d="M17.8405 14.977C18.2253 14.7391 18.5626 14.4275 18.8315 14.0573C19.266 13.4593 19.5 12.7391 19.5 12C19.5 11.2609 19.266 10.5407 18.8315 9.94276C18.545 9.5484 18.181 9.22052 17.7647 8.97744C17.7309 8.95771 17.6983 8.93613 17.6671 8.91289C17.6372 8.89056 17.6085 8.8667 17.5813 8.84148C17.3369 8.61505 17.209 8.279 17.3133 7.95802C17.4413 7.56408 17.868 7.34358 18.2384 7.52902C18.3343 7.57704 18.4285 7.62809 18.521 7.68206C19.1157 8.02928 19.6357 8.49767 20.0451 9.06108C20.6657 9.91532 21 10.9441 21 12C21 13.0559 20.6657 14.0847 20.0451 14.9389C19.6357 15.5023 19.1157 15.9707 18.521 16.318C18.4285 16.3719 18.3343 16.423 18.2384 16.471C17.868 16.6564 17.4413 16.4359 17.3133 16.042C17.209 15.721 17.3369 15.385 17.5813 15.1585C17.6085 15.1333 17.6372 15.1095 17.6671 15.0871C17.6983 15.0639 17.7309 15.0423 17.7647 15.0226C17.7902 15.0077 17.8155 14.9925 17.8405 14.977Z" fill="black"/>
<path fill-rule="evenodd" clip-rule="evenodd" d="M8 15.5C8.36333 15.5 8.71432 15.6319 8.98776 15.8711L13.6707 19.9688C13.994 20.2516 14.5 20.0221 14.5 19.5925V4.40755C14.5 3.97797 13.994 3.74838 13.6707 4.03126L8.98776 8.12888C8.71432 8.36814 8.36333 8.50001 8 8.50001H6C5.17157 8.50001 4.5 9.17159 4.5 10V14C4.5 14.8284 5.17157 15.5 6 15.5H8ZM8 17L12.683 21.0976C13.9762 22.2291 16 21.3108 16 19.5925V4.40755C16 2.68923 13.9762 1.77087 12.683 2.90239L8 7.00001H6C4.34315 7.00001 3 8.34316 3 10V14C3 15.6569 4.34315 17 6 17H8Z" fill="black"/>
</svg>
