<svg width="24" height="24" viewBox="0 0 24 24" fill="none" xmlns="http://www.w3.org/2000/svg">
<path d="M8.05944 6.99998H7C5.34315 6.99998 4 8.34313 4 9.99998V14C4 15.6568 5.34315 17 7 17H9L13.683 21.0976C14.9762 22.2291 17 21.3108 17 19.5924V15.9405L15.5 14.4405V19.5924C15.5 20.022 14.994 20.2516 14.6707 19.9687L9.98776 15.8711C9.71432 15.6319 9.36333 15.5 9 15.5H7C6.17157 15.5 5.5 14.8284 5.5 14V9.99998C5.5 9.17156 6.17157 8.49998 7 8.49998H9C9.1647 8.49998 9.32687 8.47288 9.48042 8.42097L8.05944 6.99998Z" fill="black"/>
<path d="M15.5 12.3192V4.40752C15.5 3.97794 14.994 3.74835 14.6707 4.03123L10.6928 7.51198L9.62974 6.44896L13.683 2.90236C14.9762 1.77084 17 2.6892 17 4.40752V13.8192L15.5 12.3192Z" fill="black"/>
<path fill-rule="evenodd" clip-rule="evenodd" d="M2.46967 2.46967C2.76256 2.17678 3.23744 2.17678 3.53033 2.46967L21.5303 20.4697C21.8232 20.7626 21.8232 21.2374 21.5303 21.5303C21.2374 21.8232 20.7626 21.8232 20.4697 21.5303L2.46967 3.53033C2.17678 3.23744 2.17678 2.76256 2.46967 2.46967Z" fill="black"/>
</svg>
