<svg width="24" height="24" viewBox="0 0 24 24" fill="none" xmlns="http://www.w3.org/2000/svg">
<path fill-rule="evenodd" clip-rule="evenodd" d="M19.75 6.35352V5C19.75 3.48122 18.5188 2.25 17 2.25H5C3.48122 2.25 2.25 3.48122 2.25 5V19C2.25 20.5188 3.48122 21.75 5 21.75H19C20.5188 21.75 21.75 20.5188 21.75 19V9C21.75 7.74122 20.9043 6.67998 19.75 6.35352ZM3.75 5C3.75 4.30964 4.30964 3.75 5 3.75H17C17.6904 3.75 18.25 4.30964 18.25 5V6.25H5C4.30964 6.25 3.75 5.69036 3.75 5ZM3.75 7.45015C4.12503 7.64186 4.54989 7.75 5 7.75H19C19.6904 7.75 20.25 8.30964 20.25 9V11H16.75C15.0931 11 13.75 12.3431 13.75 14C13.75 15.6569 15.0931 17 16.75 17H20.25V19C20.25 19.6904 19.6904 20.25 19 20.25H5C4.30964 20.25 3.75 19.6904 3.75 19V7.45015ZM16.75 12.5H20.25V15.5H16.75C15.9216 15.5 15.25 14.8284 15.25 14C15.25 13.1716 15.9216 12.5 16.75 12.5Z" fill="black"/>
</svg>
