<svg width="24" height="24" viewBox="0 0 24 24" fill="none" xmlns="http://www.w3.org/2000/svg">
<path fill-rule="evenodd" clip-rule="evenodd" d="M20.1082 17.2573L13.3032 5.31634C12.7277 4.3066 11.2721 4.3066 10.6967 5.31634L3.89174 17.2573C3.32187 18.2573 4.04401 19.5 5.19497 19.5H18.8049C19.9559 19.5 20.678 18.2573 20.1082 17.2573ZM14.6064 4.57365C13.4555 2.55416 10.5443 2.55416 9.39347 4.57365L2.58851 16.5146C1.44877 18.5146 2.89306 21 5.19497 21H18.8049C21.1068 21 22.5511 18.5146 21.4114 16.5146L14.6064 4.57365Z" fill="black"/>
<path d="M13 17C13 17.5523 12.5523 18 12 18C11.4477 18 11 17.5523 11 17C11 16.4477 11.4477 16 12 16C12.5523 16 13 16.4477 13 17Z" fill="black"/>
<path fill-rule="evenodd" clip-rule="evenodd" d="M12 14.75C12.4142 14.75 12.75 14.4142 12.75 14V9C12.75 8.58579 12.4142 8.25 12 8.25C11.5858 8.25 11.25 8.58579 11.25 9V14C11.25 14.4142 11.5858 14.75 12 14.75Z" fill="black"/>
</svg>
