<svg width="24" height="24" viewBox="0 0 24 24" fill="none" xmlns="http://www.w3.org/2000/svg">
<path fill-rule="evenodd" clip-rule="evenodd" d="M16.0081 4.37141L16.4924 6.63155C17.5351 7.50503 18.3196 8.67664 18.7146 10.0152C19.4414 10.1194 20 10.7444 20 11.5V12.5C20 13.2556 19.4414 13.8806 18.7146 13.9848C18.3196 15.3234 17.5351 16.495 16.4925 17.3684L16.0082 19.6286C15.7118 21.0118 14.4894 22 13.0748 22H10.9253C9.51065 22 8.28827 21.0118 7.99186 19.6286L7.50751 17.3684C5.97471 16.0843 5 14.156 5 12C5 9.84401 5.9747 7.91568 7.50748 6.63161L7.99181 4.37141C8.28821 2.9882 9.5106 2 10.9252 2H13.0747C14.4893 2 15.7117 2.9882 16.0081 4.37141ZM10.9252 3.5H13.0747C13.782 3.5 14.3932 3.9941 14.5414 4.68571L14.7268 5.551C13.8888 5.19621 12.9673 5 12 5C11.0327 5 10.1111 5.19622 9.27309 5.55102L9.45851 4.68571C9.60672 3.9941 10.2179 3.5 10.9252 3.5ZM12 19C12.9673 19 13.8888 18.8038 14.7269 18.449L14.5415 19.3143C14.3933 20.0059 13.7821 20.5 13.0748 20.5H10.9253C10.218 20.5 9.60676 20.0059 9.45856 19.3143L9.27313 18.449C10.1112 18.8038 11.0327 19 12 19ZM12 17.5C15.0376 17.5 17.5 15.0376 17.5 12C17.5 8.96243 15.0376 6.5 12 6.5C8.96243 6.5 6.5 8.96243 6.5 12C6.5 15.0376 8.96243 17.5 12 17.5Z" fill="black"/>
<path fill-rule="evenodd" clip-rule="evenodd" d="M12 8.25C12.4142 8.25 12.75 8.58579 12.75 9V11.6893L14.0303 12.9697C14.3232 13.2626 14.3232 13.7374 14.0303 14.0303C13.7374 14.3232 13.2626 14.3232 12.9697 14.0303L11.6161 12.6768C11.3817 12.4424 11.25 12.1244 11.25 11.7929V9C11.25 8.58579 11.5858 8.25 12 8.25Z" fill="black"/>
</svg>
