<svg width="24" height="24" viewBox="0 0 24 24" fill="none" xmlns="http://www.w3.org/2000/svg">
<path fill-rule="evenodd" clip-rule="evenodd" d="M2 5C2 3.34315 3.34315 2 5 2H19C20.6569 2 22 3.34315 22 5V19C22 20.6569 20.6569 22 19 22H5C3.34315 22 2 20.6569 2 19V5ZM5 3.5H19C19.8284 3.5 20.5 4.17157 20.5 5V8.25H3.5V5C3.5 4.17157 4.17157 3.5 5 3.5ZM3.5 9.75V19C3.5 19.8284 4.17157 20.5 5 20.5H19C19.8284 20.5 20.5 19.8284 20.5 19V9.75H3.5Z" fill="black"/>
<path d="M7 6C7 6.55228 6.55228 7 6 7C5.44772 7 5 6.55228 5 6C5 5.44772 5.44772 5 6 5C6.55228 5 7 5.44772 7 6Z" fill="black"/>
<path d="M10 6C10 6.55228 9.55228 7 9 7C8.44772 7 8 6.55228 8 6C8 5.44772 8.44772 5 9 5C9.55228 5 10 5.44772 10 6Z" fill="black"/>
<path d="M13 6C13 6.55228 12.5523 7 12 7C11.4477 7 11 6.55228 11 6C11 5.44772 11.4477 5 12 5C12.5523 5 13 5.44772 13 6Z" fill="black"/>
<path fill-rule="evenodd" clip-rule="evenodd" d="M14.9697 17.2446C14.6768 16.9517 14.6768 16.4768 14.9697 16.1839L16.1536 14.9999L14.9697 13.816C14.6768 13.5231 14.6768 13.0482 14.9697 12.7553C15.2626 12.4624 15.7374 12.4624 16.0303 12.7553L17.7446 14.4696C18.0375 14.7625 18.0375 15.2374 17.7446 15.5303L16.0303 17.2446C15.7374 17.5375 15.2626 17.5375 14.9697 17.2446Z" fill="black"/>
<path fill-rule="evenodd" clip-rule="evenodd" d="M9.03033 17.2446C9.32322 16.9517 9.32322 16.4768 9.03033 16.1839L7.84637 14.9999L9.03033 13.816C9.32322 13.5231 9.32322 13.0482 9.03033 12.7553C8.73744 12.4624 8.26256 12.4624 7.96967 12.7553L6.25538 14.4696C5.96249 14.7625 5.96249 15.2374 6.25538 15.5303L7.96967 17.2446C8.26256 17.5375 8.73744 17.5375 9.03033 17.2446Z" fill="black"/>
<path fill-rule="evenodd" clip-rule="evenodd" d="M13.0631 11.2788C12.6649 11.165 12.2498 11.3956 12.136 11.7939L10.4217 17.7939C10.3079 18.1922 10.5385 18.6073 10.9368 18.7211C11.3351 18.8349 11.7502 18.6043 11.864 18.206L13.5782 12.206C13.692 11.8077 13.4614 11.3926 13.0631 11.2788Z" fill="black"/>
</svg>
