<svg width="24" height="24" viewBox="0 0 24 24" fill="none" xmlns="http://www.w3.org/2000/svg">
<path fill-rule="evenodd" clip-rule="evenodd" d="M12 18.5C12.2761 18.5 12.5 18.2761 12.5 18C12.5 17.7239 12.2761 17.5 12 17.5C11.7239 17.5 11.5 17.7239 11.5 18C11.5 18.2761 11.7239 18.5 12 18.5ZM12 20C13.1046 20 14 19.1046 14 18C14 16.8954 13.1046 16 12 16C10.8954 16 10 16.8954 10 18C10 19.1046 10.8954 20 12 20Z" fill="black"/>
<path fill-rule="evenodd" clip-rule="evenodd" d="M12 13.75C10.5476 13.75 9.23422 14.3388 8.28296 15.2924C7.99043 15.5857 7.51556 15.5863 7.2223 15.2938C6.92903 15.0013 6.92843 14.5264 7.22095 14.2331C8.44211 13.0089 10.1331 12.25 12 12.25C13.8669 12.25 15.5579 13.0089 16.7791 14.2331C17.0716 14.5264 17.071 15.0013 16.7777 15.2938C16.4844 15.5863 16.0096 15.5857 15.717 15.2924C14.7658 14.3388 13.4524 13.75 12 13.75Z" fill="black"/>
<path fill-rule="evenodd" clip-rule="evenodd" d="M12 9.75C9.4478 9.75 7.13819 10.7827 5.46381 12.4548C5.17071 12.7475 4.69584 12.7471 4.40315 12.454C4.11045 12.1609 4.11078 11.6861 4.40387 11.3934C6.34801 9.4519 9.03438 8.25 12 8.25C14.9657 8.25 17.6521 9.4519 19.5962 11.3934C19.8893 11.6861 19.8896 12.1609 19.5969 12.454C19.3042 12.7471 18.8294 12.7475 18.5363 12.4548C16.8619 10.7827 14.5523 9.75 12 9.75Z" fill="black"/>
<path fill-rule="evenodd" clip-rule="evenodd" d="M12 5.75C8.3405 5.75 5.02866 7.2326 2.62999 9.63173C2.33712 9.92465 1.86225 9.92469 1.56933 9.63183C1.27641 9.33896 1.27636 8.86409 1.56923 8.57117C4.23771 5.90218 7.92665 4.25 12 4.25C16.0734 4.25 19.7624 5.90218 22.4309 8.57117C22.7237 8.86409 22.7237 9.33896 22.4308 9.63183C22.1378 9.92469 21.663 9.92465 21.3701 9.63173C18.9714 7.2326 15.6596 5.75 12 5.75Z" fill="black"/>
</svg>
