<svg width="24" height="24" viewBox="0 0 24 24" fill="none" xmlns="http://www.w3.org/2000/svg">
<path d="M6.40693 5.34759C4.58231 6.0959 2.94094 7.19919 1.56923 8.57117C1.27636 8.86409 1.27641 9.33896 1.56933 9.63183C1.86225 9.92469 2.33712 9.92465 2.62999 9.63173C4.00983 8.25163 5.69184 7.17482 7.5684 6.50906L6.40693 5.34759Z" fill="black"/>
<path d="M9.58241 8.52307C7.58681 8.98183 5.8031 9.99606 4.40387 11.3934C4.11078 11.6861 4.11045 12.1609 4.40315 12.454C4.69584 12.7471 5.17071 12.7475 5.46381 12.4548C6.88874 11.0318 8.77373 10.0719 10.8768 9.81746L9.58241 8.52307Z" fill="black"/>
<path d="M12.9821 9.80148L11.4448 8.2641C11.6287 8.25474 11.8138 8.25 12 8.25C14.9657 8.25 17.6521 9.4519 19.5962 11.3934C19.8893 11.6861 19.8896 12.1609 19.5969 12.454C19.3042 12.7471 18.8294 12.7475 18.5363 12.4548C17.0795 11 15.142 10.0293 12.9821 9.80148Z" fill="black"/>
<path d="M13.47 12.4106L16.5209 15.4616C16.2517 15.5665 15.9342 15.5101 15.717 15.2924C14.7658 14.3388 13.4524 13.75 12 13.75C10.5476 13.75 9.23422 14.3388 8.28296 15.2924C7.99043 15.5857 7.51556 15.5863 7.2223 15.2938C6.92903 15.0013 6.92843 14.5264 7.22095 14.2331C8.44211 13.0089 10.1331 12.25 12 12.25C12.5048 12.25 12.9967 12.3055 13.47 12.4106Z" fill="black"/>
<path d="M9.2222 6.04154L7.98412 4.80346C9.26094 4.44294 10.608 4.25 12 4.25C16.0734 4.25 19.7624 5.90218 22.4309 8.57117C22.7237 8.86409 22.7237 9.33896 22.4308 9.63183C22.1378 9.92469 21.663 9.92465 21.3701 9.63173C18.9714 7.2326 15.6596 5.75 12 5.75C11.0472 5.75 10.1179 5.85051 9.2222 6.04154Z" fill="black"/>
<path fill-rule="evenodd" clip-rule="evenodd" d="M14 18C14 19.1046 13.1046 20 12 20C10.8954 20 10 19.1046 10 18C10 16.8954 10.8954 16 12 16C13.1046 16 14 16.8954 14 18ZM12.5 18C12.5 18.2761 12.2761 18.5 12 18.5C11.7239 18.5 11.5 18.2761 11.5 18C11.5 17.7239 11.7239 17.5 12 17.5C12.2761 17.5 12.5 17.7239 12.5 18Z" fill="black"/>
<path fill-rule="evenodd" clip-rule="evenodd" d="M2.46967 2.46967C2.76256 2.17678 3.23744 2.17678 3.53033 2.46967L21.5303 20.4697C21.8232 20.7626 21.8232 21.2374 21.5303 21.5303C21.2374 21.8232 20.7626 21.8232 20.4697 21.5303L2.46967 3.53033C2.17678 3.23744 2.17678 2.76256 2.46967 2.46967Z" fill="black"/>
</svg>
