<svg width="24" height="24" viewBox="0 0 24 24" fill="none" xmlns="http://www.w3.org/2000/svg">
<path fill-rule="evenodd" clip-rule="evenodd" d="M9 4.75C8.53827 4.75 8.13403 4.99996 7.91677 5.37554C7.70936 5.73409 7.25057 5.85661 6.89202 5.6492C6.53347 5.4418 6.41095 4.983 6.61836 4.62446C7.09272 3.80444 7.98117 3.25 9 3.25C10.5188 3.25 11.75 4.48122 11.75 6C11.75 7.51878 10.5188 8.75 9 8.75H4C3.58579 8.75 3.25 8.41421 3.25 8C3.25 7.58579 3.58579 7.25 4 7.25H9C9.69036 7.25 10.25 6.69036 10.25 6C10.25 5.30964 9.69036 4.75 9 4.75Z" fill="black"/>
<path fill-rule="evenodd" clip-rule="evenodd" d="M14 19.25C13.5383 19.25 13.134 19 12.9168 18.6245C12.7094 18.2659 12.2506 18.1434 11.892 18.3508C11.5335 18.5582 11.411 19.017 11.6184 19.3755C12.0927 20.1956 12.9812 20.75 14 20.75C15.5188 20.75 16.75 19.5188 16.75 18C16.75 16.4812 15.5188 15.25 14 15.25H4C3.58579 15.25 3.25 15.5858 3.25 16C3.25 16.4142 3.58579 16.75 4 16.75H14C14.6904 16.75 15.25 17.3096 15.25 18C15.25 18.6904 14.6904 19.25 14 19.25Z" fill="black"/>
<path fill-rule="evenodd" clip-rule="evenodd" d="M17 6.75C16.0215 6.75 15.1871 7.37503 14.8778 8.24993C14.7398 8.64047 14.3113 8.84517 13.9208 8.70713C13.5302 8.56909 13.3255 8.1406 13.4636 7.75007C13.978 6.29459 15.3661 5.25 17 5.25C19.0711 5.25 20.75 6.92893 20.75 9C20.75 11.0711 19.0711 12.75 17 12.75H4C3.58579 12.75 3.25 12.4142 3.25 12C3.25 11.5858 3.58579 11.25 4 11.25H17C18.2426 11.25 19.25 10.2426 19.25 9C19.25 7.75736 18.2426 6.75 17 6.75Z" fill="black"/>
</svg>
