<svg width="24" height="24" viewBox="0 0 24 24" fill="none" xmlns="http://www.w3.org/2000/svg">
<path fill-rule="evenodd" clip-rule="evenodd" d="M7.86222 2H16.1377C17.187 2 18.0579 2.8109 18.1327 3.85751L18.5013 9.01779C18.7527 12.5376 16.1689 15.5667 12.75 15.9574V19.1421C12.75 19.6357 13.1101 20.0554 13.5979 20.1305L15.3154 20.3947C15.7093 20.4553 16 20.7942 16 21.1926C16 21.6385 15.6385 22 15.1926 22H8.80735C8.36147 22 8 21.6385 8 21.1926C8 20.7942 8.29074 20.4553 8.68459 20.3947L10.4021 20.1305C10.8899 20.0554 11.25 19.6357 11.25 19.1421V15.9574C7.83105 15.5668 5.2473 12.5376 5.49871 9.01779L5.8673 3.8575C5.94206 2.81089 6.81294 2 7.86222 2ZM16.1377 3.5H7.86222C7.5999 3.5 7.38218 3.70272 7.36349 3.96438L7.20023 6.25H16.7997L16.6365 3.96438C16.6178 3.70272 16.4001 3.5 16.1377 3.5ZM16.9069 7.75H7.09309L6.9949 9.12466C6.78742 12.0293 9.08792 14.5 12 14.5C14.912 14.5 17.2125 12.0293 17.0051 9.12466L16.9069 7.75Z" fill="black"/>
</svg>
