<svg width="24" height="24" viewBox="0 0 24 24" fill="none" xmlns="http://www.w3.org/2000/svg">
<path fill-rule="evenodd" clip-rule="evenodd" d="M5.97473 7.17868L5.44446 7.2376C4.76328 7.31328 4.21526 7.83223 4.10258 8.50828C3.71727 10.8201 3.71727 13.1798 4.10258 15.4917C4.21526 16.1677 4.76328 16.6867 5.44446 16.7624L5.97473 16.8213C9.97921 17.2662 14.0207 17.2662 18.0252 16.8213L18.5554 16.7624C19.2366 16.6867 19.7846 16.1677 19.8973 15.4917C20.2826 13.1798 20.2826 10.8201 19.8973 8.50828C19.7846 7.83223 19.2366 7.31328 18.5554 7.2376L18.0252 7.17868C14.0207 6.73373 9.97921 6.73373 5.97473 7.17868ZM5.27881 5.74677C3.93063 5.89657 2.84599 6.92365 2.62299 8.26168C2.21047 10.7368 2.21047 13.2631 2.62299 15.7383C2.84599 17.0763 3.93063 18.1034 5.27881 18.2532L5.80908 18.3121C9.92366 18.7693 14.0762 18.7693 18.1908 18.3121L18.7211 18.2532C20.0693 18.1034 21.1539 17.0763 21.3769 15.7383C21.7894 13.2631 21.7894 10.7368 21.3769 8.26168C21.1539 6.92365 20.0693 5.89657 18.7211 5.74677L18.1908 5.68785C14.0762 5.23068 9.92366 5.23068 5.80908 5.68785L5.27881 5.74677Z" fill="black"/>
<path fill-rule="evenodd" clip-rule="evenodd" d="M13.2958 12L11.5 10.8028V13.1972L13.2958 12ZM14.7519 12.832C15.3457 12.4362 15.3457 11.5638 14.7519 11.1679L11.5547 9.03645C10.8901 8.59342 10 9.06981 10 9.8685V14.1315C10 14.9302 10.8901 15.4066 11.5547 14.9635L14.7519 12.832Z" fill="black"/>
</svg>
