<svg width="24" height="24" viewBox="0 0 24 24" fill="none" xmlns="http://www.w3.org/2000/svg">
<path fill-rule="evenodd" clip-rule="evenodd" d="M10.8191 2.81322C12.3 1.04938 15.1603 2.3859 14.7575 4.65352L13.9665 9.10714H18.4963C20.4078 9.10714 21.4486 11.34 20.2194 12.8039L13.181 21.1868C11.7001 22.9506 8.83974 21.6141 9.24256 19.3464L10.0337 14.8929H5.50383C3.59229 14.8929 2.55151 12.66 3.78067 11.1961L10.8191 2.81322ZM13.2807 4.39119C13.4149 3.63531 12.4615 3.18981 11.9678 3.77775L4.92944 12.1606C4.51972 12.6486 4.86665 13.3929 5.50383 13.3929H10.9286C11.1505 13.3929 11.361 13.4911 11.5035 13.6611C11.646 13.8312 11.7059 14.0556 11.6671 14.274L10.7194 19.6088C10.5852 20.3646 11.5386 20.8102 12.0323 20.2222L19.0707 11.8394C19.4804 11.3514 19.1335 10.6071 18.4963 10.6071H13.0715C12.8496 10.6071 12.6392 10.5089 12.4967 10.3389C12.3542 10.1688 12.2943 9.94442 12.3331 9.72598L13.2807 4.39119Z" fill="black"/>
</svg>
