<svg width="24" height="24" viewBox="0 0 24 24" fill="none" xmlns="http://www.w3.org/2000/svg">
<path fill-rule="evenodd" clip-rule="evenodd" d="M12.0001 4.83168V10.5246L16.2133 7.54018L12.0001 4.83168ZM10.0001 9.60789V3.91584C10.0001 2.7291 11.313 2.01233 12.3112 2.65408L17.2948 5.85783C18.4869 6.62419 18.5258 8.35307 17.3693 9.17223L13.3772 12L17.3693 14.8278C18.5258 15.647 18.4869 17.3758 17.2948 18.1422L12.3112 21.3459C11.313 21.9877 10.0001 21.2709 10.0001 20.0842V14.3921L6.5781 16.816C6.12742 17.1353 5.50329 17.0287 5.18406 16.578C4.86483 16.1274 4.97139 15.5032 5.42206 15.184L9.91709 12L5.42206 8.81604C4.97139 8.49681 4.86483 7.87267 5.18406 7.42199C5.50329 6.97132 6.12742 6.86476 6.5781 7.18399L10.0001 9.60789ZM12.0001 13.4755V19.1683L16.2133 16.4598L12.0001 13.4755Z" fill="black"/>
</svg>
