<svg width="24" height="24" viewBox="0 0 24 24" fill="none" xmlns="http://www.w3.org/2000/svg">
<path d="M12.083 7L19.7942 7C20.1791 7 20.4156 6.5845 20.1954 6.26883C17.2566 2.0563 11.5303 0.72416 6.99996 3.33977C6.31691 3.73413 5.69798 4.19691 5.14683 4.71444C4.82837 5.01348 4.77938 5.49367 4.9978 5.87199L6.90122 9.16882C7.10731 9.52578 7.64948 9.49957 7.88331 9.16013C8.29166 8.56733 8.83503 8.05381 9.49992 7.66994C10.3145 7.19965 11.2064 6.98461 12.083 7Z" fill="black"/>
<path d="M10.1953 21.1258C9.97688 21.5041 9.53659 21.7016 9.11828 21.5758C6.76467 20.8681 4.66555 19.2964 3.33971 17C1.6442 14.0633 1.60753 10.6241 2.93896 7.76736C3.10164 7.41832 3.57962 7.41562 3.77216 7.74912L7.66275 14.4878L7.66979 14.5001C8.52336 15.9785 10.0179 16.8561 11.5998 16.9845C12.0103 17.0178 12.3035 17.4742 12.0976 17.8309L10.1953 21.1258Z" fill="black"/>
<path d="M12.0001 8.99957C11.4902 8.99906 10.9733 9.12869 10.4999 9.40199C9.06823 10.2286 8.5756 12.057 9.39634 13.4905L9.40196 13.5002C10.2304 14.935 12.0651 15.4265 13.4999 14.5981C13.9554 14.3352 14.3158 13.9708 14.5691 13.55L14.5981 13.4998C15.1151 12.6023 15.1531 11.4615 14.598 10.5001C14.0515 9.55346 13.067 9.01738 12.0482 9L12.0001 8.99957Z" fill="black"/>
<path d="M12.4315 21.2526C12.2391 21.5857 12.4796 21.998 12.8629 21.9651C14.2777 21.8435 15.6889 21.4172 17 20.6603C20.9151 18.3999 22.7235 13.8917 21.7362 9.70693C21.636 9.2822 21.2449 8.99999 20.8085 9L16.5997 9C16.3526 9 16.2065 9.28605 16.33 9.50007C17.2725 11.1324 17.1899 13.0752 16.282 14.5833L12.4315 21.2526Z" fill="black"/>
</svg>
