<svg width="24" height="24" viewBox="0 0 24 24" fill="none" xmlns="http://www.w3.org/2000/svg">
<path d="M3.98549 21.1911L9.28879 20.1305C9.48238 20.0917 9.66018 19.9966 9.79978 19.857L16.4496 13.2071C16.8401 12.8166 16.8401 12.1834 16.4496 11.7929L12.2069 7.55027C11.8164 7.15975 11.1832 7.15975 10.7927 7.55028L4.14293 14.2001C4.00333 14.3397 3.90817 14.5175 3.86945 14.7111L2.80879 20.0144C2.66885 20.7141 3.28577 21.3311 3.98549 21.1911Z" fill="black"/>
<path d="M20.1923 5.22182L18.7781 3.8076C17.6065 2.63603 15.707 2.63603 14.5354 3.8076L13.5502 4.79289C13.1596 5.18341 13.1596 5.81658 13.5502 6.2071L17.7928 10.4497C18.1833 10.8403 18.8165 10.8403 19.207 10.4497L20.1923 9.46446C21.3639 8.29289 21.3639 6.39339 20.1923 5.22182Z" fill="black"/>
</svg>
