<svg width="24" height="24" viewBox="0 0 24 24" fill="none" xmlns="http://www.w3.org/2000/svg">
<path fill-rule="evenodd" clip-rule="evenodd" d="M14.1215 4.22174C15.6836 2.65965 18.2162 2.65965 19.7783 4.22174C21.3404 5.78384 21.3404 8.3165 19.7783 9.8786L19.0359 10.6211C19.679 11.5918 19.5729 12.9125 18.7177 13.7677C17.8624 14.6229 16.5417 14.729 15.571 14.0858L11.2929 18.3639C10.8339 18.8229 10.2384 19.1206 9.59582 19.2124L9.10085 19.2831C8.45826 19.3749 7.86278 19.6727 7.40379 20.1317C6.62274 20.9127 5.35641 20.9127 4.57536 20.1317L3.86826 19.4245C3.08721 18.6435 3.08721 17.3772 3.86826 16.5961C4.32725 16.1371 4.62499 15.5416 4.71679 14.8991L4.7875 14.4041C4.87929 13.7615 5.17703 13.166 5.63602 12.707L9.91414 8.42891C9.27112 7.45824 9.37721 6.1376 10.2324 5.2824C11.0876 4.42717 12.4083 4.32111 13.379 4.96421L14.1215 4.22174ZM11.293 9.87851L7.05024 14.1212C6.89724 14.2742 6.79799 14.4727 6.76739 14.6869L6.69668 15.1819C6.54369 16.2529 6.04745 17.2453 5.28247 18.0103L5.98958 18.7174C6.75456 17.9525 7.74703 17.4562 8.818 17.3032L9.31298 17.2325C9.52718 17.2019 9.72567 17.1027 9.87866 16.9497L14.1214 12.7069L11.293 9.87851Z" fill="black"/>
</svg>
