<svg width="24" height="24" viewBox="0 0 24 24" fill="none" xmlns="http://www.w3.org/2000/svg">
<rect x="6" y="18" width="12" height="4" rx="2" fill="black"/>
<path d="M10.9496 8.29762C11.1229 8.1905 11.2499 8.01206 11.2499 7.80835V2.42404C11.2499 1.94802 10.6476 1.7413 10.3553 2.11698L6.01443 7.69558C5.39919 8.48659 5.31575 9.56855 5.80241 10.4445L8.60303 15.4856C8.7794 15.8031 9.11402 16 9.47718 16H14.5226C14.8858 16 15.2204 15.8031 15.3967 15.4856L18.1974 10.4445C18.684 9.56855 18.6006 8.48659 17.9853 7.69558L13.6445 2.11698C13.3522 1.7413 12.7499 1.94802 12.7499 2.42404V7.80835C12.7499 8.01206 12.8769 8.1905 13.0501 8.29762C13.6201 8.65001 13.9999 9.28065 13.9999 9.99999C13.9999 11.1046 13.1045 12 11.9999 12C10.8953 12 9.99989 11.1046 9.99989 9.99999C9.99989 9.28065 10.3797 8.65001 10.9496 8.29762Z" fill="black"/>
</svg>
