<svg width="24" height="24" viewBox="0 0 24 24" fill="none" xmlns="http://www.w3.org/2000/svg">
<path fill-rule="evenodd" clip-rule="evenodd" d="M11.5904 3.44785C6.59153 3.44785 2.44786 8.10999 2.44786 13.0863C2.44786 15.5236 3.44836 17.3597 5.05689 18.6048C6.68543 19.8654 8.98353 20.5521 11.5904 20.5521C14.1968 20.5521 16.4947 19.8654 18.1232 18.6048C19.7316 17.3597 20.7321 15.5236 20.7321 13.0863C20.7321 8.10996 16.5884 3.44785 11.5904 3.44785ZM1 13.0863C1 7.41495 5.69117 1.99999 11.5904 1.99999C17.4889 1.99999 22.18 7.41499 22.18 13.0863C22.18 15.972 20.9718 18.2307 19.0095 19.7498C17.0671 21.2533 14.4322 22 11.5904 22C8.74818 22 6.11306 21.2533 4.17064 19.7498C2.20821 18.2307 1 15.972 1 13.0863Z" fill="black"/>
<path fill-rule="evenodd" clip-rule="evenodd" d="M9.51689 12.9455C9.51689 13.3538 9.18605 13.6847 8.77775 13.6847C8.37018 13.6847 8.03862 13.3538 8.03862 12.9455C8.03862 12.5379 8.37018 12.2064 8.77775 12.2064C9.18605 12.2064 9.51689 12.5379 9.51689 12.9455Z" fill="black"/>
<path fill-rule="evenodd" clip-rule="evenodd" d="M15.1415 12.9455C15.1415 13.3538 14.8106 13.6847 14.4023 13.6847C13.994 13.6847 13.6632 13.3538 13.6632 12.9455C13.6632 12.5379 13.994 12.2064 14.4023 12.2064C14.8106 12.2064 15.1415 12.5379 15.1415 12.9455Z" fill="black"/>
<path fill-rule="evenodd" clip-rule="evenodd" d="M2.57616 10.5537L2.57736 10.5521L2.58565 10.5418C2.59351 10.532 2.60601 10.5166 2.62296 10.4962C2.65689 10.4555 2.70859 10.3947 2.77669 10.3185C2.91309 10.166 3.11426 9.9529 3.36932 9.71575C3.88322 9.23791 4.59746 8.67956 5.42554 8.31216C6.24944 7.94661 7.15962 7.78074 8.09901 8.03894C9.03727 8.29684 10.0853 8.99999 11.1433 10.5285C11.3139 10.7751 11.6521 10.8366 11.8987 10.6659C12.1453 10.4953 12.2068 10.1571 12.0362 9.91049C10.8759 8.23416 9.63472 7.33489 8.38681 6.99188C7.14001 6.64918 5.96709 6.88391 4.98515 7.31957C4.00741 7.75338 3.19308 8.39684 2.62988 8.92051C2.34638 9.18411 2.12187 9.42173 1.96722 9.59468C1.8898 9.68126 1.82963 9.75192 1.78807 9.80189C1.76729 9.82689 1.75114 9.84673 1.73979 9.86083L1.72638 9.8776L1.72241 9.88262L1.72112 9.88427C1.72093 9.88451 1.72029 9.88533 2.14823 10.2195L1.72112 9.88427C1.53657 10.1206 1.57772 10.4629 1.81406 10.6474C2.0503 10.8319 2.39155 10.7897 2.57616 10.5537Z" fill="black"/>
<path fill-rule="evenodd" clip-rule="evenodd" d="M21.4535 9.87732C21.4537 9.87756 21.4538 9.87776 21.0319 10.2195L21.4535 9.87732C21.6422 10.1103 21.6067 10.4527 21.3736 10.6414C21.1408 10.83 20.7991 10.7943 20.6103 10.5616M20.6103 10.5616L20.6087 10.5596L20.6 10.5491C20.5917 10.5392 20.5787 10.5237 20.5611 10.5033C20.5258 10.4623 20.4722 10.4013 20.4016 10.3249C20.2604 10.1719 20.0525 9.95834 19.79 9.72062C19.261 9.24171 18.5285 8.68174 17.6871 8.31319C16.8489 7.94603 15.933 7.78114 15.0037 8.03864C14.0775 8.29525 13.0541 8.99464 12.0429 10.5195C11.8772 10.7694 11.5403 10.8377 11.2904 10.672C11.0405 10.5063 10.9722 10.1694 11.1379 9.91944C12.2519 8.2395 13.4711 7.33647 14.7137 6.99217C15.9531 6.64877 17.1319 6.88448 18.1228 7.31853C19.1106 7.75119 19.9415 8.39303 20.5188 8.91563C20.8093 9.17867 21.0402 9.41577 21.1995 9.58829C21.2792 9.67465 21.3413 9.7451 21.3841 9.79488C21.4055 9.81977 21.4222 9.83952 21.4339 9.85353L21.4476 9.87017L21.4517 9.87512L21.4535 9.87732" fill="black"/>
<path fill-rule="evenodd" clip-rule="evenodd" d="M11.3583 14.2112C11.5088 14.1603 11.672 14.1603 11.8225 14.2113L14.1123 14.9866C14.3338 15.0616 14.5054 15.2389 14.5731 15.4627C14.6408 15.6865 14.5962 15.9292 14.4534 16.1144L12.1636 19.0832C12.0265 19.2609 11.8148 19.365 11.5904 19.365C11.366 19.3651 11.1543 19.261 11.0172 19.0833L8.72668 16.1145C8.58384 15.9293 8.53922 15.6866 8.60691 15.4627C8.67459 15.2389 8.84624 15.0615 9.06774 14.9866L11.3583 14.2112ZM10.4924 16.0329L11.5903 17.4559L12.6878 16.0328L11.5903 15.6612L10.4924 16.0329Z" fill="black"/>
<path fill-rule="evenodd" clip-rule="evenodd" d="M20.1032 10.0167C20.01 9.92471 19.9052 9.82499 19.79 9.72062C19.261 9.24171 18.5285 8.68174 17.6871 8.31319C16.8489 7.94603 15.933 7.78114 15.0037 8.03864C14.1353 8.27925 13.1813 8.90913 12.2322 10.2438C12.1691 10.3325 12.106 10.4244 12.0429 10.5195C12.0035 10.579 11.9541 10.6277 11.8987 10.6659C11.8363 10.709 11.7663 10.7386 11.693 10.7527C11.6248 10.7658 11.5541 10.7659 11.4849 10.7522C11.416 10.7387 11.35 10.7114 11.2904 10.672C11.2343 10.6349 11.1839 10.5872 11.1433 10.5285C11.0783 10.4346 11.0134 10.3439 10.9485 10.2561C9.95703 8.9153 8.97966 8.281 8.09901 8.03894C7.15962 7.78074 6.24944 7.94661 5.42554 8.31216C4.59746 8.67956 3.88322 9.23791 3.36932 9.71575C3.26582 9.81198 3.17119 9.90425 3.08617 9.99012C3.02726 10.0496 2.97296 10.106 2.92351 10.1586C2.89901 10.2333 2.8754 10.3082 2.8527 10.3835C2.58975 11.2553 2.44786 12.1654 2.44786 13.0863C2.44786 15.5236 3.44836 17.3597 5.05689 18.6048C6.68543 19.8654 8.98353 20.5521 11.5904 20.5521C14.1968 20.5521 16.4947 19.8654 18.1232 18.6048C19.7316 17.3597 20.7321 15.5236 20.7321 13.0863C20.7321 12.1697 20.5916 11.2639 20.331 10.3958C20.3306 10.3943 20.3301 10.3928 20.3297 10.3913C20.3082 10.32 20.2859 10.2489 20.2629 10.1781C20.2142 10.1277 20.1609 10.0737 20.1032 10.0167ZM20.1752 10.2313C20.0522 10.1046 19.9001 9.95524 19.7228 9.79475C19.1983 9.31987 18.4749 8.76743 17.647 8.40479C16.8229 8.04381 15.9312 7.88541 15.0304 8.13501C14.1333 8.38356 13.1279 9.06421 12.1263 10.5748C12.0331 10.7153 11.8942 10.8073 11.7424 10.8442C11.6437 10.8682 11.5396 10.8689 11.439 10.8445C11.2908 10.8089 11.1546 10.7206 11.061 10.5854C10.0126 9.07053 8.98228 8.38543 8.0725 8.13536C7.1614 7.88493 6.27541 8.04449 5.4661 8.40356C4.6518 8.76485 3.94678 9.31536 3.43741 9.78898C3.27117 9.94355 3.12809 10.0878 3.01129 10.2112C2.71098 11.1343 2.54786 12.104 2.54786 13.0863C2.54786 15.4926 3.53401 17.2996 5.1181 18.5258C6.72498 19.7696 8.9998 20.4521 11.5904 20.4521C14.1805 20.4521 16.4552 19.7696 18.062 18.5258C19.646 17.2996 20.6321 15.4926 20.6321 13.0863C20.6321 12.1111 20.4714 11.1483 20.1752 10.2313ZM18.9833 7.7654C19.0507 7.80588 19.117 7.84698 19.1822 7.88858C19.1402 7.82226 19.0973 7.75643 19.0538 7.69111C17.389 5.19467 14.6498 3.44785 11.5904 3.44785C8.55443 3.44785 5.83393 5.16747 4.16551 7.6327C4.12141 7.69785 4.07805 7.76353 4.03544 7.82971C4.101 7.78834 4.1677 7.74754 4.2355 7.70745C4.4725 7.56731 4.72295 7.4359 4.98515 7.31957C5.96709 6.88391 7.14001 6.64918 8.38681 6.99188C9.45042 7.28423 10.5091 7.98067 11.517 9.2179C11.5386 9.24433 11.5601 9.27101 11.5816 9.29794C11.6026 9.27065 11.6236 9.24361 11.6447 9.21683C12.6172 7.98179 13.657 7.28496 14.7137 6.99217C15.9531 6.64877 17.1319 6.88448 18.1228 7.31853C18.4253 7.45102 18.713 7.60312 18.9833 7.7654ZM11.5802 9.13718C12.559 7.90014 13.6107 7.19403 14.687 6.89581C15.955 6.54449 17.158 6.78673 18.1629 7.22694C18.4025 7.33189 18.6329 7.44891 18.8527 7.57344C17.1951 5.19537 14.5411 3.54785 11.5904 3.54785C8.66272 3.54785 6.02736 5.16919 4.3672 7.51666C4.55239 7.41375 4.74509 7.31668 4.9446 7.22816C5.94106 6.78606 7.13818 6.54497 8.41331 6.89546C9.49614 7.19309 10.5664 7.89839 11.5802 9.13718ZM0.900002 13.0863C0.900002 7.36709 5.62885 1.89999 11.5904 1.89999C17.5512 1.89999 22.28 7.36714 22.28 13.0863C22.28 16.003 21.0575 18.2909 19.0707 19.8288C17.1067 21.3492 14.4485 22.1 11.5904 22.1C8.73194 22.1 6.07354 21.3492 4.10943 19.8288C2.12256 18.2909 0.900002 16.003 0.900002 13.0863ZM9.61689 12.9455C9.61689 13.409 9.24128 13.7847 8.77775 13.7847C8.31502 13.7847 7.93862 13.4091 7.93862 12.9455C7.93862 12.4827 8.31495 12.1064 8.77775 12.1064C9.24134 12.1064 9.61689 12.4828 9.61689 12.9455ZM15.2415 12.9455C15.2415 13.409 14.8659 13.7847 14.4023 13.7847C13.9388 13.7847 13.5632 13.409 13.5632 12.9455C13.5632 12.4828 13.9387 12.1064 14.4023 12.1064C14.8659 12.1064 15.2415 12.4828 15.2415 12.9455ZM11.3262 14.1165C11.4976 14.0585 11.6833 14.0585 11.8546 14.1165L14.1444 14.8919C14.3965 14.9772 14.5918 15.179 14.6688 15.4338C14.7458 15.6885 14.6951 15.9647 14.5326 16.1755L12.2428 19.1443C12.0868 19.3465 11.8458 19.465 11.5904 19.465C11.335 19.4651 11.094 19.3466 10.938 19.1444L8.64751 16.1756C8.48493 15.9648 8.43416 15.6886 8.51119 15.4338C8.58822 15.179 8.78358 14.9772 9.03568 14.8918L11.3262 14.1165ZM11.5903 17.4559L12.6878 16.0328L11.5903 15.6612L10.4924 16.0329L11.5903 17.4559ZM10.6571 16.0827L11.5903 17.2921L12.5231 16.0827L11.5903 15.7668L10.6571 16.0827ZM11.5904 1.99999C5.69117 1.99999 1 7.41495 1 13.0863C1 15.972 2.20821 18.2307 4.17064 19.7498C6.11306 21.2533 8.74818 22 11.5904 22C14.4322 22 17.0671 21.2533 19.0095 19.7498C20.9718 18.2307 22.18 15.972 22.18 13.0863C22.18 7.41499 17.4889 1.99999 11.5904 1.99999ZM8.77775 13.6847C9.18605 13.6847 9.51689 13.3538 9.51689 12.9455C9.51689 12.5379 9.18605 12.2064 8.77775 12.2064C8.37018 12.2064 8.03862 12.5379 8.03862 12.9455C8.03862 13.3538 8.37018 13.6847 8.77775 13.6847ZM15.1415 12.9455C15.1415 13.3538 14.8106 13.6847 14.4023 13.6847C13.994 13.6847 13.6632 13.3538 13.6632 12.9455C13.6632 12.5379 13.994 12.2064 14.4023 12.2064C14.8106 12.2064 15.1415 12.5379 15.1415 12.9455ZM11.8225 14.2113C11.672 14.1603 11.5088 14.1603 11.3583 14.2112L9.06774 14.9866C8.84624 15.0615 8.67459 15.2389 8.60691 15.4627C8.53922 15.6866 8.58384 15.9293 8.72668 16.1145L11.0172 19.0833C11.1543 19.261 11.366 19.3651 11.5904 19.365C11.8148 19.365 12.0265 19.2609 12.1636 19.0832L14.4534 16.1144C14.5962 15.9292 14.6408 15.6865 14.5731 15.4627C14.5054 15.2389 14.3338 15.0616 14.1123 14.9866L11.8225 14.2113Z" fill="black"/>
</svg>
