<svg width="24" height="24" viewBox="0 0 24 24" fill="none" xmlns="http://www.w3.org/2000/svg">
<path d="M16.2071 2.79296C15.8166 2.40243 15.1834 2.40243 14.7929 2.79295C14.4024 3.18347 14.4024 3.81664 14.7929 4.20716L15.5819 4.99622H10C6.13401 4.99622 3 8.13022 3 11.9962V12.9962C3 13.5485 3.44772 13.9962 4 13.9962C4.55228 13.9962 5 13.5485 5 12.9962V11.9962C5 9.23479 7.23858 6.99622 10 6.99622H15.5866L14.7929 7.78998C14.4024 8.18051 14.4024 8.81368 14.7929 9.2042C15.1834 9.59472 15.8166 9.59471 16.2071 9.20419L18.352 7.05922C18.9378 6.47343 18.9378 5.52369 18.352 4.93791L16.2071 2.79296Z" fill="black"/>
<path d="M13.9986 19C17.8646 19 20.9986 15.866 20.9986 12V11C20.9986 10.4477 20.5509 10 19.9986 10C19.4464 10 18.9986 10.4477 18.9986 11V12C18.9986 14.7614 16.7601 17 13.9986 17H8.41195L9.20576 16.2062C9.59628 15.8156 9.59628 15.1825 9.20575 14.792C8.81522 14.4014 8.18206 14.4014 7.79153 14.792L5.64661 16.9369C5.06083 17.5227 5.06083 18.4725 5.64661 19.0582L7.79154 21.2032C8.18206 21.5937 8.81522 21.5937 9.20575 21.2032C9.59628 20.8127 9.59628 20.1795 9.20576 19.789L8.41678 19H13.9986Z" fill="black"/>
</svg>
