<svg width="24" height="24" viewBox="0 0 24 24" fill="none" xmlns="http://www.w3.org/2000/svg">
<path fill-rule="evenodd" clip-rule="evenodd" d="M17.781 4.15672C18.0571 3.67843 17.8932 3.06684 17.4149 2.7907C16.9366 2.51455 16.325 2.67843 16.0489 3.15672L8.8805 15.5728C8.59476 15.1584 8.21474 14.7995 7.74985 14.5311C6.07583 13.5646 3.93526 14.1381 2.96876 15.8121C2.00226 17.4862 2.57583 19.6267 4.24985 20.5932C5.92157 21.5584 8.05855 20.9877 9.02694 19.3191C9.02829 19.3168 9.02962 19.3145 9.03095 19.3122L17.781 4.15672ZM7.29889 18.3121C6.88468 19.0296 5.96729 19.2754 5.24985 18.8612C4.53241 18.447 4.2866 17.5296 4.70081 16.8121C5.11503 16.0947 6.03241 15.8489 6.74985 16.2631C7.46729 16.6773 7.7131 17.5947 7.29889 18.3121Z" fill="black"/>
<path fill-rule="evenodd" clip-rule="evenodd" d="M6.21886 4.15672C5.94272 3.67843 6.10659 3.06684 6.58488 2.7907C7.06318 2.51455 7.67477 2.67843 7.95091 3.15672L15.1193 15.5727C15.405 15.1584 15.785 14.7994 16.2499 14.5311C17.9239 13.5646 20.0645 14.1381 21.031 15.8121C21.9975 17.4862 21.4239 19.6267 19.7499 20.5932C18.0759 21.5597 15.9353 20.9862 14.9688 19.3121C14.9663 19.3078 14.9637 19.3034 14.9612 19.299L6.21886 4.15672ZM16.704 18.3176C17.1197 19.0308 18.0343 19.2743 18.7499 18.8612C19.4673 18.447 19.7132 17.5296 19.2989 16.8121C18.8847 16.0947 17.9673 15.8489 17.2499 16.2631C16.5353 16.6757 16.2886 17.5874 16.6959 18.3036L16.7009 18.3122C16.7019 18.314 16.703 18.3158 16.704 18.3176Z" fill="black"/>
</svg>
