<svg width="24" height="24" viewBox="0 0 24 24" fill="none" xmlns="http://www.w3.org/2000/svg">
<path fill-rule="evenodd" clip-rule="evenodd" d="M9.09413 3.53021C8.91189 4.07694 8.49591 4.50673 7.9924 4.78709C7.91408 4.83069 7.83655 4.87554 7.75983 4.9216C7.26514 5.21857 6.68428 5.36439 6.11901 5.24871L4.91723 5.00278C4.07385 4.8302 3.21465 5.21665 2.78422 5.96218L2.16324 7.03775C1.73281 7.78328 1.82773 8.72059 2.39888 9.36469L3.21391 10.2838C3.59582 10.7145 3.76088 11.2889 3.75176 11.8644C3.75033 11.9548 3.75033 12.0452 3.75176 12.1355C3.76087 12.7111 3.59582 13.2854 3.21391 13.7161L2.39888 14.6352C1.82773 15.2793 1.73281 16.2167 2.16324 16.9622L2.78422 18.0378C3.21465 18.7833 4.07385 19.1697 4.91723 18.9971L6.11892 18.7512C6.68421 18.6356 7.26507 18.7814 7.75977 19.0784C7.83651 19.1244 7.91406 19.1693 7.9924 19.2129C8.49591 19.4933 8.91189 19.9231 9.09413 20.4698L9.48169 21.6325C9.75391 22.4491 10.5182 23 11.3791 23H12.621C13.4819 23 14.2462 22.4491 14.5184 21.6325L14.9059 20.4698C15.0882 19.9231 15.5042 19.4933 16.0077 19.2129C16.086 19.1693 16.1636 19.1244 16.2403 19.0784C16.735 18.7814 17.3158 18.6356 17.8811 18.7512L19.0828 18.9971C19.9262 19.1697 20.7854 18.7833 21.2158 18.0378L21.8368 16.9622C22.2672 16.2167 22.1723 15.2793 21.6011 14.6352L20.7862 13.7162C20.4042 13.2855 20.2392 12.7111 20.2483 12.1356C20.2497 12.0452 20.2497 11.9548 20.2483 11.8644C20.2392 11.2888 20.4042 10.7144 20.7862 10.2838L21.6011 9.36469C22.1723 8.72059 22.2672 7.78328 21.8368 7.03775L21.2158 5.96218C20.7854 5.21666 19.9262 4.8302 19.0828 5.00279L17.8811 5.2487C17.3158 5.36438 16.7349 5.21857 16.2402 4.92159C16.1635 4.87554 16.086 4.83069 16.0077 4.78709C15.5042 4.50673 15.0882 4.07694 14.9059 3.53021L14.5184 2.36754C14.2462 1.55086 13.4819 1 12.621 1H11.3791C10.5182 1 9.75391 1.55086 9.48169 2.36754L9.09413 3.53021ZM15.0001 12C15.0001 13.6569 13.6569 15 12.0001 15C10.3432 15 9.00009 13.6569 9.00009 12C9.00009 10.3431 10.3432 9 12.0001 9C13.6569 9 15.0001 10.3431 15.0001 12Z" fill="black"/>
</svg>
