<svg width="24" height="24" viewBox="0 0 24 24" fill="none" xmlns="http://www.w3.org/2000/svg">
<path fill-rule="evenodd" clip-rule="evenodd" d="M8.51512 2.40398C8.90564 2.01345 9.53881 2.01345 9.92933 2.40398L12 4.47465L14.0707 2.40398C14.4612 2.01345 15.0944 2.01345 15.4849 2.40398C15.8754 2.7945 15.8754 3.42767 15.4849 3.81819L13 6.30307V10.2679L16.4336 8.28553L17.3432 4.89111C17.4861 4.35764 18.0345 4.04106 18.5679 4.184C19.1014 4.32695 19.418 4.87528 19.275 5.40875L18.5171 8.23734L21.3457 8.99526C21.8792 9.1382 22.1958 9.68653 22.0528 10.22C21.9099 10.7535 21.3615 11.07 20.8281 10.9271L17.4337 10.0176L14 12L17.4336 13.9824L20.8281 13.0729C21.3615 12.93 21.9099 13.2465 22.0528 13.78C22.1958 14.3135 21.8792 14.8618 21.3457 15.0047L18.5171 15.7627L19.275 18.5913C19.418 19.1247 19.1014 19.6731 18.5679 19.816C18.0345 19.9589 17.4861 19.6424 17.3432 19.1089L16.4336 15.7145L13 13.7321V17.6969L15.4849 20.1818C15.8754 20.5723 15.8754 21.2054 15.4849 21.596C15.0944 21.9865 14.4612 21.9865 14.0707 21.596L12 19.5253L9.92933 21.596C9.53881 21.9865 8.90564 21.9865 8.51512 21.596C8.12459 21.2054 8.12459 20.5723 8.51512 20.1818L11 17.6969V13.732L7.56632 15.7145L6.65679 19.1089C6.51385 19.6424 5.96552 19.9589 5.43205 19.816C4.89858 19.6731 4.582 19.1247 4.72494 18.5913L5.48286 15.7627L2.65427 15.0047C2.1208 14.8618 1.80422 14.3135 1.94716 13.78C2.09011 13.2465 2.63844 12.93 3.17191 13.0729L6.56632 13.9824L10 12L6.56636 10.0176L3.17194 10.9271C2.63848 11.07 2.09014 10.7535 1.9472 10.22C1.80426 9.68653 2.12084 9.1382 2.6543 8.99526L5.48289 8.23734L4.72498 5.40875C4.58203 4.87528 4.89862 4.32695 5.43208 4.184C5.96555 4.04106 6.51389 4.35764 6.65683 4.89111L7.56636 8.28553L11 10.2679V6.30307L8.51512 3.81819C8.12459 3.42767 8.12459 2.7945 8.51512 2.40398Z" fill="black"/>
</svg>
