<svg width="24" height="24" viewBox="0 0 24 24" fill="none" xmlns="http://www.w3.org/2000/svg">
<path fill-rule="evenodd" clip-rule="evenodd" d="M12 18C15.3137 18 18 15.3137 18 12C18 8.68629 15.3137 6 12 6C8.68629 6 6 8.68629 6 12C6 15.3137 8.68629 18 12 18Z" fill="black"/>
<path fill-rule="evenodd" clip-rule="evenodd" d="M11.9952 1.5C12.5475 1.5 12.9952 1.94772 12.9952 2.5V3.5C12.9952 4.05228 12.5475 4.5 11.9952 4.5C11.4429 4.5 10.9952 4.05228 10.9952 3.5V2.5C10.9952 1.94772 11.4429 1.5 11.9952 1.5Z" fill="black"/>
<path fill-rule="evenodd" clip-rule="evenodd" d="M11.9952 19.5C12.5475 19.5 12.9952 19.9477 12.9952 20.5V21.4968C12.9952 22.0491 12.5475 22.4968 11.9952 22.4968C11.4429 22.4968 10.9952 22.0491 10.9952 21.4968V20.5C10.9952 19.9477 11.4429 19.5 11.9952 19.5Z" fill="black"/>
<path fill-rule="evenodd" clip-rule="evenodd" d="M1.49683 11.9984C1.49683 11.4461 1.94454 10.9984 2.49683 10.9984H3.49683C4.04911 10.9984 4.49683 11.4461 4.49683 11.9984C4.49683 12.5507 4.04911 12.9984 3.49683 12.9984H2.49683C1.94454 12.9984 1.49683 12.5507 1.49683 11.9984Z" fill="black"/>
<path fill-rule="evenodd" clip-rule="evenodd" d="M19.4968 11.9984C19.4968 11.4461 19.9445 10.9984 20.4968 10.9984H21.4936C22.0459 10.9984 22.4936 11.4461 22.4936 11.9984C22.4936 12.5507 22.0459 12.9984 21.4936 12.9984H20.4968C19.9445 12.9984 19.4968 12.5507 19.4968 11.9984Z" fill="black"/>
<path fill-rule="evenodd" clip-rule="evenodd" d="M4.57183 19.4219C4.18131 19.0313 4.18131 18.3982 4.57183 18.0077L5.27894 17.3005C5.66946 16.91 6.30263 16.91 6.69315 17.3005C7.08367 17.6911 7.08367 18.3242 6.69315 18.7148L5.98604 19.4219C5.59552 19.8124 4.96235 19.8124 4.57183 19.4219Z" fill="black"/>
<path fill-rule="evenodd" clip-rule="evenodd" d="M17.2998 6.69394C16.9092 6.30342 16.9092 5.67025 17.2998 5.27973L18.0046 4.5749C18.3951 4.18438 19.0283 4.18438 19.4188 4.5749C19.8093 4.96543 19.8093 5.59859 19.4188 5.98911L18.714 6.69394C18.3234 7.08447 17.6903 7.08447 17.2998 6.69394Z" fill="black"/>
<path fill-rule="evenodd" clip-rule="evenodd" d="M4.57183 4.5749C4.96235 4.18438 5.59552 4.18438 5.98604 4.5749L6.69315 5.28201C7.08367 5.67253 7.08367 6.3057 6.69315 6.69622C6.30263 7.08675 5.66946 7.08675 5.27894 6.69622L4.57183 5.98911C4.18131 5.59859 4.18131 4.96543 4.57183 4.5749Z" fill="black"/>
<path fill-rule="evenodd" clip-rule="evenodd" d="M17.2998 17.3028C17.6903 16.9123 18.3234 16.9123 18.714 17.3028L19.4188 18.0077C19.8093 18.3982 19.8093 19.0313 19.4188 19.4219C19.0283 19.8124 18.3951 19.8124 18.0046 19.4219L17.2998 18.717C16.9092 18.3265 16.9092 17.6933 17.2998 17.3028Z" fill="black"/>
</svg>
