<svg width="24" height="24" viewBox="0 0 24 24" fill="none" xmlns="http://www.w3.org/2000/svg">
<path d="M6.77143 4.47378C6.48322 4.0038 5.86535 3.85291 5.42342 4.18254C5.03337 4.47346 4.66306 4.78994 4.31492 5.1299C3.92047 5.51508 3.97325 6.14891 4.39259 6.50683C4.81193 6.86474 5.43855 6.81021 5.84067 6.43305C6.04299 6.24329 6.25398 6.06297 6.47295 5.89268C6.90815 5.55424 7.05965 4.94377 6.77143 4.47378Z" fill="black"/>
<path d="M17.2285 4.47378C17.5167 4.0038 18.1346 3.85291 18.5765 4.18254C18.9666 4.47346 19.3369 4.78994 19.685 5.1299C20.0795 5.51508 20.0267 6.14891 19.6074 6.50683C19.188 6.86474 18.5614 6.81021 18.1593 6.43305C17.957 6.24329 17.746 6.06297 17.527 5.89268C17.0918 5.55424 16.9403 4.94377 17.2285 4.47378Z" fill="black"/>
<path fill-rule="evenodd" clip-rule="evenodd" d="M9 3C9 2.44772 9.44772 2 10 2H14C14.5523 2 15 2.44772 15 3C15 3.55228 14.5523 4 14 4H13V5.06189C16.9463 5.55399 20 8.92038 20 13C20 17.4183 16.4183 21 12 21C7.58172 21 4 17.4183 4 13C4 8.92038 7.05369 5.55399 11 5.06189V4H10C9.44772 4 9 3.55228 9 3ZM15.7071 9.29289C16.0976 9.68342 16.0976 10.3166 15.7071 10.7071L13.9323 12.482C13.9764 12.6472 14 12.8208 14 13C14 14.1046 13.1046 15 12 15C10.8954 15 10 14.1046 10 13C10 11.8954 10.8954 11 12 11C12.1792 11 12.3528 11.0236 12.518 11.0677L14.2929 9.29289C14.6834 8.90237 15.3166 8.90237 15.7071 9.29289Z" fill="black"/>
</svg>
