<svg width="24" height="24" viewBox="0 0 24 24" fill="none" xmlns="http://www.w3.org/2000/svg">
<path fill-rule="evenodd" clip-rule="evenodd" d="M15 2C15 1.44772 14.5523 1 14 1H10C9.44772 1 9 1.44772 9 2H6C4.34315 2 3 3.34315 3 5V15C3 16.6569 4.34315 18 6 18H18C19.6569 18 21 16.6569 21 15V5C21 3.34315 19.6569 2 18 2H15ZM6 4H18C18.5523 4 19 4.44772 19 5V9C19 9.55228 18.5523 10 18 10H6C5.44772 10 5 9.55228 5 9V5C5 4.44772 5.44772 4 6 4ZM7 15C7 15.5523 6.55228 16 6 16C5.44772 16 5 15.5523 5 15C5 14.4477 5.44772 14 6 14C6.55228 14 7 14.4477 7 15ZM18 16C18.5523 16 19 15.5523 19 15C19 14.4477 18.5523 14 18 14C17.4477 14 17 14.4477 17 15C17 15.5523 17.4477 16 18 16Z" fill="black"/>
<path fill-rule="evenodd" clip-rule="evenodd" d="M8.07046 21.5C7.7361 21.5 7.42386 21.6671 7.2384 21.9453L6.83217 22.5547C6.52582 23.0142 5.90496 23.1384 5.44542 22.8321C4.98589 22.5257 4.8617 21.9049 5.16805 21.4453L5.57428 20.8359C6.13067 20.0013 7.06738 19.5 8.07046 19.5H15.9297C16.9328 19.5 17.8695 20.0013 18.4259 20.8359L18.8322 21.4453C19.1385 21.9048 19.0143 22.5257 18.5548 22.832C18.0953 23.1384 17.4744 23.0142 17.1681 22.5547L16.7618 21.9453C16.5763 21.6671 16.2641 21.5 15.9297 21.5H8.07046Z" fill="black"/>
</svg>
