<svg width="24" height="24" viewBox="0 0 24 24" fill="none" xmlns="http://www.w3.org/2000/svg">
<path d="M20.1418 14.7428C19.0571 10.6943 14.8957 8.29179 10.8473 9.37657C8.57435 9.98559 6.85043 11.5573 5.95628 13.5496L7.41071 13.1553C7.94376 13.0108 8.49302 13.3258 8.63752 13.8588C8.78203 14.3918 8.46705 14.9411 7.93401 15.0856L4.76363 15.9451C4.72825 15.9568 4.69211 15.9667 4.65535 15.9744L4.24965 16.0844C3.99318 16.1539 3.71959 16.1185 3.48927 15.986C3.25895 15.8535 3.09085 15.6347 3.02207 15.3781L2.03408 11.6908C1.89114 11.1573 2.20772 10.609 2.74119 10.4661C3.27465 10.3231 3.82299 10.6397 3.96593 11.1732L4.29237 12.3915C5.45949 10.0402 7.57217 8.18358 10.3296 7.44472C15.445 6.07405 20.703 9.10976 22.0737 14.2252C22.2166 14.7586 21.9 15.307 21.3666 15.4499C20.8331 15.5928 20.2848 15.2763 20.1418 14.7428Z" fill="black"/>
</svg>
