<svg width="24" height="24" viewBox="0 0 24 24" fill="none" xmlns="http://www.w3.org/2000/svg">
<path fill-rule="evenodd" clip-rule="evenodd" d="M15.8099 14.3925C16.044 14.2154 16.2523 14.0038 16.427 13.7633C16.7993 13.2508 16.9999 12.6335 16.9999 12C16.9999 11.3664 16.7993 10.7492 16.427 10.2366C16.2522 9.99607 16.0438 9.78438 15.8095 9.6072C15.7525 9.56409 15.6978 9.51731 15.6461 9.46739C15.5987 9.42162 15.5539 9.37322 15.5122 9.32259C15.2476 9.00149 15.1076 8.59076 15.236 8.19576C15.4066 7.6705 15.9781 7.37483 16.4589 7.64646C16.6527 7.75587 16.8387 7.87801 17.0159 8.012M17.0159 8.012C17.4062 8.30723 17.7538 8.66022 18.045 9.06106C18.6656 9.91529 18.9999 10.9441 18.9999 12C18.9999 13.0559 18.6656 14.0847 18.045 14.9389C17.7537 15.3398 17.4063 15.6927 17.0159 15.988C16.8387 16.122 16.6527 16.2441 16.4589 16.3535C15.9781 16.6251 15.4066 16.3295 15.236 15.8042C15.1076 15.4092 15.2476 14.9985 15.5122 14.6774C15.5539 14.6267 15.5987 14.5783 15.6461 14.5326C15.6978 14.4827 15.7529 14.4356 15.8099 14.3925" fill="black"/>
<path fill-rule="evenodd" clip-rule="evenodd" d="M17.8876 17.2595C18.6588 16.8361 19.3317 16.2459 19.8542 15.5267C20.5989 14.5016 21.0001 13.2671 21.0001 12C21.0001 10.7329 20.5989 9.49838 19.8542 8.47329C19.3064 7.71938 18.5935 7.10721 17.7752 6.68033C17.7739 6.67966 17.7726 6.679 17.7713 6.67833C17.7359 6.65968 17.7015 6.63944 17.6682 6.61776C17.6321 6.59421 17.5973 6.56894 17.564 6.54212C17.2063 6.25412 17.0188 5.78699 17.1632 5.34261C17.3339 4.81735 17.9017 4.52431 18.4015 4.75913C18.5022 4.80642 18.6018 4.85576 18.7002 4.90711C19.7912 5.47626 20.7418 6.29246 21.4722 7.29772C22.4652 8.6645 23.0001 10.3106 23.0001 12C23.0001 13.6894 22.4652 15.3355 21.4722 16.7023C20.7418 17.7075 19.7912 18.5237 18.7002 19.0929C18.6018 19.1442 18.5022 19.1936 18.4015 19.2409C17.9017 19.4757 17.3339 19.1827 17.1632 18.6574C17.0188 18.213 17.2063 17.7459 17.564 17.4579C17.5973 17.4311 17.6321 17.4058 17.6682 17.3822C17.7015 17.3606 17.7359 17.3403 17.7713 17.3217C17.7726 17.321 17.7739 17.3203 17.7752 17.3197C17.8129 17.3 17.8503 17.28 17.8876 17.2595Z" fill="black"/>
<path d="M14 19.5924V4.40752C14 2.6892 11.9762 1.77084 10.683 2.90236L6 6.99998H4C2.34315 6.99998 1 8.34313 1 9.99998V14C1 15.6568 2.34315 17 4 17H6L10.683 21.0976C11.9762 22.2291 14 21.3108 14 19.5924Z" fill="black"/>
</svg>
