<svg width="24" height="24" viewBox="0 0 24 24" fill="none" xmlns="http://www.w3.org/2000/svg">
<path fill-rule="evenodd" clip-rule="evenodd" d="M13.0001 16.353C13.0001 16.1062 13.1811 15.8983 13.422 15.8448C16.5009 15.1608 18.736 12.303 18.5014 9.01779L18.1328 3.85751C18.058 2.8109 17.1871 2 16.1379 2H7.86234C6.81306 2 5.94218 2.81089 5.86742 3.8575L5.49883 9.01779C5.26418 12.303 7.49933 15.1608 10.5782 15.8448C10.8191 15.8983 11.0001 16.1062 11.0001 16.353V18.6529C11.0001 19.1417 10.6467 19.5589 10.1645 19.6393L8.8357 19.8607C8.35352 19.9411 8.0001 20.3583 8.0001 20.8471V21C8.0001 21.5523 8.44782 22 9.0001 22H15.0001C15.5524 22 16.0001 21.5523 16.0001 21V20.8471C16.0001 20.3583 15.6467 19.9411 15.1645 19.8607L13.8357 19.6393C13.3535 19.5589 13.0001 19.1417 13.0001 18.6529V16.353ZM16.1379 4L7.86234 4L7.64806 7H16.3522L16.1379 4Z" fill="black"/>
</svg>
