<svg fill="none" height="32" viewBox="0 0 92 32" width="92" xmlns="http://www.w3.org/2000/svg" xmlns:xlink="http://www.w3.org/1999/xlink"><linearGradient id="a"><stop offset="0" stop-color="#ffc444"/><stop offset=".5" stop-color="#f46692"/><stop offset="1" stop-color="#fa5853"/></linearGradient><linearGradient id="b" gradientUnits="userSpaceOnUse" x1="4.24701" x2="27.6409" xlink:href="#a" y1="4.41174" y2="29.6292"/><linearGradient id="c" gradientUnits="userSpaceOnUse" x1="1164.52" x2="6881.5" xlink:href="#a" y1="1122.81" y2="7100.07"/><linearGradient id="d" gradientUnits="userSpaceOnUse" x1="764.702" x2="3995.94" xlink:href="#a" y1="585.151" y2="4351.43"/><linearGradient id="e"><stop offset="0" stop-color="#22e1ff"/><stop offset=".583333" stop-color="#1792ff"/><stop offset="1" stop-color="#9665fd"/></linearGradient><radialGradient id="f" cx="0" cy="0" gradientTransform="matrix(-.014536 .14083986 -.02691204 -.00277758 17.856 10.2994)" gradientUnits="userSpaceOnUse" r="1" xlink:href="#e"/><linearGradient id="g" gradientUnits="userSpaceOnUse" x1="2.37705" x2="20.5928" y1="27.2715" y2="27.2715"><stop offset="0" stop-color="#fafafa"/><stop offset="1" stop-color="#cfcfcf"/></linearGradient><radialGradient id="h" cx="0" cy="0" gradientTransform="matrix(-30.60138716 31.48018696 -29.44005212 -28.61820465 31.9993 .521299)" gradientUnits="userSpaceOnUse" r="1" xlink:href="#e"/><linearGradient id="i" gradientUnits="userSpaceOnUse" x1="52.0047" x2="83.6781" xlink:href="#a" y1="7.17131" y2="66.542"/><clipPath id="j"><path d="m0 0h32v32h-32z"/></clipPath><g clip-path="url(#j)"><path d="m18.3958.220809-.3436 1.706671c-.0018.00955-.0073.01802-.0153.0236s-.0179.00782-.0276.00626c-.6655-.09519-1.3369-.14331-2.0093-.144-7.81638 0-14.17724 6.328-14.17724 14.10716-.00077 1.0014.10708 1.9999.32166 2.9782.00188.0085.00078.0173-.00312.0251-.00391.0078-.01038.014-.01833.0175l-1.62439.7414c-.005158.0023-.010778.0035-.016457.0035-.00568 0-.011279-.0013-.0164-.0038-.00512-.0024-.009635-.006-.013223-.0103-.003587-.0044-.006158-.0095-.00753-.015-.296521-1.2236-.44588972-2.4779-.44496574-3.7366 0-8.79196 7.16287574-15.92049064 15.99999574-15.92049064.7912-.00086163 1.5814.05779444 2.3637.17546664.0051.000768.0101.002567.0145.005288.0045.002721.0083.006307.0113.010544.003.004236.0051.009034.0062.014104s.0011.010308.0001.015397z" fill="url(#b)"/><path d="m17.5536 4.37866-.3463 1.70667c-.0018.00945-.0073.01783-.0152.0234-.0078.00556-.0176.00788-.0272.00647-.3864-.04779-.7755-.07148-1.1649-.07093-5.4683 0-9.92221 4.42663-9.92221 9.87413-.00047.3868.02281.7733.06969 1.1573.00096.008-.00066.0161-.00461.0231s-.01003.0125-.01737.0159l-1.65495.7557c-.00534.0024-.01115.0035-.01699.0033s-.01155-.0018-.01672-.0045c-.00516-.0027-.00963-.0066-.01308-.0112-.00345-.0047-.00578-.0101-.00682-.0159-.10758-.6344-.16138-1.2766-.16083-1.92 0-6.44583 5.26936-11.68797 11.74549-11.68797.5086-.0001 1.0167.0334 1.5209.10027.005.00083.0098.00265.014.00533.0043.00269.008.0062.0109.01032s.0049.00877.006.01368c.0011.00492.0011.00999.0002.01493z" fill="url(#c)"/><path d="m16.7087 8.54564-.3464 1.71256c-.0018.0091-.0069.0172-.0143.0228s-.0166.0083-.0259.0076c-.1072-.007-.2144-.0096-.3216-.0096-1.3694.0016-2.692.4959-3.7236 1.3918-1.0317.8958-1.7028 2.1327-1.8894 3.4823-.001.0063-.0035.0123-.0073.0174s-.0089.0092-.0147.0119l-1.80127.823c-.00577.0024-.01205.0034-.01829.0029-.00625-.0006-.01227-.0026-.01755-.006-.00528-.0033-.00965-.0079-.01275-.0133-.00309-.0055-.00482-.0115-.00502-.0178 0-.017 0-.0336 0-.0506 0-4.112 3.36078-7.45549 7.49098-7.45549.2254-.00062.4507.01095.6749.03467.0052.00068.0103.00245.0148.00518.0045.00274.0084.00638.0115.01069.003.00432.0051.00922.0061.01438s.0009.01048-.0002.01561z" fill="url(#d)"/><path d="m17.856 10.3749c0-.2538-.0327.2336 0 0z" fill="url(#f)"/><path d="m18.963 29.0059c-.0047-.0064-.0112-.0112-.0187-.0139-1.7649-.5824-3.4874-1.72-5.3075-2.9205-2.4773-1.6363-5.03934-3.3286-7.50005-3.3286-1.28665 0-2.48217.4619-3.65248 1.4123l-.09543.0773c-.00723.006-.01208.0143-.01365.0235-.00158.0092.00023.0187.00507.0267 2.85369 4.5461 7.94134 7.5573 13.72264 7.5168 1.0585-.0077 2.1137-.1191 3.1502-.3328.4449-.0911.8824-.2011 1.3123-.3302.0062-.0017.0118-.005.0164-.0095s.0079-.01.0097-.0162c.0018-.0061.0021-.0126.0007-.0188s-.0043-.012-.0085-.0168c-.6712-.7819-1.306-1.6352-1.6207-2.0693z" fill="url(#g)"/><path d="m31.9968 16.1301c-.045-7.4773-5.1267-13.75836-12.0172-15.607426-.0052-.001417-.0106-.001742-.016-.000952-.0053.00079-.0104.002676-.0149.005538-.0046.002862-.0085.006637-.0114.011082-.003.004445-.0051.009463-.006.014732-.0767.437333-.6433 4.258126 2.6875 5.630396.0082.00356.015.00986.019.01783.0041.00796.0052.01709.0033.02581-.002.00871-.007.01647-.0141.02194s-.0158.00831-.0248.00802c-.9854-.0688-4.1489.03467-4.7408 4.08163-.0014.0097.001.0196.0066.0276.0057.0081.0143.0136.024.0156.3752.0709 3.5994.6229 6.66-.82617 2.0002-.9472 2.1144-2.12959.9923-3.17866.2595.2176 2.19 1.90773 3.2038 5.05173.1956.6002.3438 1.2147.4433 1.8379.0059.0272.0091.0533.015.0848.0209.1392.0424.2784.0606.4234-.0004.0092.0005.0183.0027.0272v.0059c.015.16.0241.3237.0241.4896.0013 1.3498-.5345 2.6452-1.4903 3.6032-.9558.9579-2.2539 1.5006-3.6107 1.5093-.6935.001-1.3796-.141-2.0152-.417-.8408-.3634-1.5684-.9443-2.1069-1.6823-.5386-.738-.8685-1.6061-.9553-2.514-.0151-.1632-.0242-.3296-.0242-.4992s.0075-.3253.0231-.4853c.0094-.0915-.0068-.1838-.0469-.2666s-.1025-.153-.1802-.2027c-.0777-.0498-.1678-.0771-.2602-.079-.0924-.0018-.1835.0218-.2633.0683-1.248.7258-3.1201 1.9381-4.3134 3.281-.0044.005-.0101.0087-.0164.0107-.0063.0021-.0131.0024-.0196.0011-2.711-.5798-4.86027.3306-6.25628 1.2864-1.09312.7466-1.72518 1.5152-1.80935 1.6202-.00311.004-.00699.0073-.01141.0098s-.00929.0041-.01432.0046c-6.171089.704-4.32046 3.4939-4.07975 3.8219.00309.0039.00693.0072.0113.0097.00437.0024.00918.004.01417.0046.00498.0006.01003.0002.01486-.0012.00483-.0013.00934-.0036.01328-.0067 6.25204-5.0277 12.2162 3.2144 17.6523 4.7856.0081.0026.0152.0077.0203.0144.1099.1557 1.4159 1.9904 2.4811 3.0613.4739.48.9023.807 1.1553.7616.4048-.0725.7817-.9792 1.0562-1.9013.276-.9109.4567-1.8299.4824-1.9637.0011-.0053.0033-.0104.0064-.0148.0032-.0044.0072-.0081.0119-.0108 3.7725-2.2438 5.7443-4.864 6.6364-7.4667v-.0027c.4-1.4329.6018-2.9134.5999-4.4005v-.0816c.0008-.0084.0001-.0169-.0022-.0251z" fill="url(#h)"/></g><path d="m46.2 23.14c-.9733 0-1.8533-.1667-2.64-.5-.7733-.3333-1.3867-.8133-1.84-1.44s-.6867-1.3667-.7-2.22h3c.04.5733.24 1.0267.6 1.36.3733.3333.88.5 1.52.5.6533 0 1.1667-.1533 1.54-.46.3733-.32.56-.7333.56-1.24 0-.4133-.1267-.7533-.38-1.02s-.5733-.4733-.96-.62c-.3733-.16-.8933-.3333-1.56-.52-.9067-.2667-1.6467-.5267-2.22-.78-.56-.2667-1.0467-.66-1.46-1.18-.4-.5333-.6-1.24-.6-2.12 0-.8267.2067-1.5467.62-2.16s.9933-1.08 1.74-1.4c.7467-.33333 1.6-.5 2.56-.5 1.44 0 2.6067.35333 3.5 1.06.9067.6933 1.4067 1.6667 1.5 2.92h-3.08c-.0267-.48-.2333-.8733-.62-1.18-.3733-.32-.8733-.48-1.5-.48-.5467 0-.9867.14-1.32.42-.32.28-.48.6867-.48 1.22 0 .3733.12.6867.36.94.2533.24.56.44.92.6.3733.1467.8933.32 1.56.52.9067.2667 1.6467.5333 2.22.8s1.0667.6667 1.48 1.2.62 1.2333.62 2.1c0 .7467-.1933 1.44-.58 2.08s-.9533 1.1533-1.7 1.54c-.7467.3733-1.6333.56-2.66.56zm12.2875.04c-1.0667 0-2.0267-.2333-2.88-.7-.8533-.48-1.5267-1.1533-2.02-2.02-.48-.8667-.72-1.8667-.72-3s.2467-2.1333.74-3c.5067-.8667 1.1933-1.5333 2.06-2 .8667-.48 1.8333-.72 2.9-.72s2.0333.24 2.9.72c.8667.4667 1.5467 1.1333 2.04 2 .5067.8667.76 1.8667.76 3s-.26 2.1333-.78 3c-.5067.8667-1.2 1.54-2.08 2.02-.8667.4667-1.84.7-2.92.7zm0-2.44c.5067 0 .98-.12 1.42-.36.4533-.2533.8133-.6267 1.08-1.12s.4-1.0933.4-1.8c0-1.0533-.28-1.86-.84-2.42-.5467-.5733-1.22-.86-2.02-.86s-1.4733.2867-2.02.86c-.5333.56-.8 1.3667-.8 2.42s.26 1.8667.78 2.44c.5333.56 1.2.84 2 .84zm13.9739-8.98c1.32 0 2.3867.42 3.2 1.26.8133.8267 1.22 1.9867 1.22 3.48v6.5h-2.8v-6.12c0-.88-.22-1.5533-.66-2.02-.44-.48-1.04-.72-1.8-.72-.7733 0-1.3867.24-1.84.72-.44.4667-.66 1.14-.66 2.02v6.12h-2.8v-11.08h2.8v1.38c.3733-.48.8467-.8533 1.42-1.12.5867-.28 1.2267-.42 1.92-.42zm9.8827 1.88c.36-.5867.8266-1.0467 1.4-1.38.5866-.3333 1.2533-.5 2-.5v2.94h-.74c-.88 0-1.5467.2067-2 .62-.44.4133-.66 1.1333-.66 2.16v5.52h-2.8v-11.08h2.8z" fill="#fcfcfd"/><path d="m88.87 23.14c-.5067 0-.9267-.1533-1.26-.46-.32-.32-.48-.7133-.48-1.18s.16-.8533.48-1.16c.3333-.32.7533-.48 1.26-.48.4933 0 .9.16 1.22.48.32.3067.48.6933.48 1.16s-.16.86-.48 1.18c-.32.3067-.7267.46-1.22.46z" fill="url(#i)"/></svg>